<?xml version="1.0" encoding="UTF-8"?>
<svg id="_レイヤー_2" data-name="レイヤー 2" xmlns="http://www.w3.org/2000/svg" viewBox="0 0 575.16 118.98">
  <defs>
    <style>
      .cls-1 {
        stroke-dasharray: 0 0 .2 7;
      }

      .cls-1, .cls-2 {
        fill: none;
        stroke: #000;
        stroke-linecap: round;
        stroke-linejoin: round;
        stroke-width: 3px;
      }

      .cls-3 {
        fill: #000;
      }

      .cls-3, .cls-4 {
        stroke-width: 0px;
      }

      .cls-4 {
        fill: #a08c67;
      }
    </style>
  </defs>
  <g id="_レイヤー_2-2" data-name="レイヤー 2">
    <g>
      <path class="cls-3" d="M6.95,2.71v39.75h-2.12V.6h15.37v2.12H6.95Z"/>
      <path class="cls-3" d="M43.29,3.36l1.47-1.2c.37-.32.51-.46.83-.46.14,0,.41.28.55.37l2.3,1.93c.18.14.32.32.32.64,0,.64-.97,1.33-1.56,1.75v3.59c0,.23.18,4,.18,4.14,0,1.52-1.2,2.21-2.62,2.21s-1.33-1.43-1.24-2.35h-7.59c0,1.89-.05,10.17-.05,11.87,0,1.52.18,13.2.18,13.62,0,2.76-2.25,2.76-2.67,2.76-1.29,0-1.52-.6-1.52-1.38,0-.18.05-.74.05-.97.37-4.42.37-12.05.37-20.52,0-4.37-.09-11.82-.37-15.78-.05-.96-.32-1.7-.51-2.3l4.6,2.07h7.27ZM35.93,4.46v3.96h7.64v-3.96h-7.64ZM35.93,9.52v3.36h7.64v-3.36h-7.64ZM43.89,29.63c-2.85,0-3.82.09-4.97.28l-.78-1.66c2.21.18,4.37.28,6.58.28h2.67c.32-1.24.46-2.35.46-3.86h-2.3c-2.85,0-3.82.09-4.97.28l-.78-1.66c2.21.18,4.37.28,6.58.28h3.96c.69-1.43,1.93-5.06,1.61-7.22l4.55,2.12c.28.14.46.32.46.6,0,.14,0,.87-1.47.97-2.3,2.02-3.31,2.81-4.32,3.54h3.68l1.43-1.66c.28-.28.55-.55.78-.55.28,0,.46.18.78.51l1.7,1.61c.37.32.41.51.41.69,0,.41-.41.51-.69.51h-8c-.05,1.61-.23,2.81-.51,3.86h4.92l1.33-1.56c.32-.41.55-.6.78-.6s.46.18.78.51l1.66,1.56c.41.41.46.51.46.69,0,.41-.32.51-.69.51h-8.74c2.39,3.13,6.9,5.38,10.31,5.15v.32c-.69.41-1.2.74-2.44,1.98.37.05.92.09,1.84.09,2.3,0,2.53-.41,2.53-2.02V13.99h-7.59c.18,1.47-.55,2.3-2.53,2.3-.14,0-1.43,0-1.43-1.33,0-1.52.05-8.14.05-9.52,0-.87-.05-1.75-.41-4.14l4.37,2.07h7.36l1.24-1.24c.18-.18.46-.46.74-.46.23,0,.41.09.6.28l2.58,2.21c.18.18.32.37.32.6,0,.37-.14.51-1.61,1.7,0,1.29-.09,3.91-.09,8.19,0,3.27.23,17.53.23,20.43s0,4.37-2.02,5.84c-.55.41-1.84,1.24-3.91,1.56-.28-1.2-.74-3.31-2.71-4.92-.41.51-.6.74-.92,1.33-4.14-2.85-5.11-4.23-7.36-9.06-1.79,5.01-6.21,8.56-12.33,9.52v-.32c1.47-.87,7.31-4.19,9.02-9.39h-3.17ZM41.17,16.47c2.35.28,6.53,1.43,6.53,4.42,0,1.2-.78,2.07-1.89,2.07-1.43,0-1.75-1.06-2.21-2.35-.41-1.15-1.15-2.94-2.48-3.86l.05-.28ZM55.8,4.46v3.96h7.68v-3.96h-7.68ZM55.8,9.52v3.36h7.68v-3.36h-7.68Z"/>
      <path class="cls-3" d="M118.41,5.29h-14.81v8h6.49l1.66-1.7c.14-.18.32-.41.51-.41s.41.18.55.28l2.48,2.07c.23.23.55.41.55.69,0,.55-.97,1.24-1.47,1.56-.18,6.58.28,17.67.6,21.76,0,.28.09,1.33.09,1.52,0,2.25-2.76,2.35-2.85,2.35-1.56,0-1.52-1.15-1.47-2.53h-24.25c.14,2.76-2.58,2.76-2.9,2.76-.64,0-1.52-.14-1.52-1.43,0-.18.05-.69.05-.92.05-.92.51-12.93.51-18.86,0-4.78-.14-7.36-.64-9.8l5.2,2.67h4.92V5.29h-8.1c-3.22,0-4.09.14-4.97.32l-.78-1.7c2.16.18,4.37.28,6.58.28h26.78l2.16-2.35c.18-.23.41-.6.74-.6.28,0,.6.28.87.51l3.27,2.35c.23.14.46.41.46.69,0,.46-.41.51-.69.51ZM110.77,28.29c-.51,1.75-2.99,2.21-5.89,2.21-2.16,0-5.01-.32-5.01-3.54v-12.56h-4.05c-.05.96-.18,3.82-.37,5.38-.64,5.34-4.23,9.62-8.97,11.64v6.35h24.29v-9.48ZM86.48,14.4v16.33c5.2-4.6,5.38-10.08,5.61-16.33h-5.61ZM99.87,5.29h-4.05v8h4.05V5.29ZM110.77,14.4h-7.18v10.81c0,1.2.41,1.47,1.66,1.47,1.56,0,2.21-.83,2.81-4.97h.37c.32,1.61.55,2.9,1.24,4.14.09.18.96.97,1.1,1.2v-12.65Z"/>
      <path class="cls-3" d="M166.34,6.58c-.14,9.25-.14,10.26-.14,11.5,0,5.15.05,11,.23,16.1.05.74.28,4,.28,4.69,0,.83,0,3.08-3.31,3.08-1.1,0-1.33-.55-1.33-1.38,0-.28.09-1.56.09-1.84h-27.14c.05.55.09,1.29-.14,1.75-.41.78-1.7,1.43-2.9,1.43-1.56,0-1.66-1.2-1.66-1.66s.18-2.58.23-3.04c.55-8.56.64-17.11.64-25.72,0-3.68,0-8.05-.55-11l5.66,2.95h25.67l1.56-1.47c.37-.37.51-.46.74-.46.28,0,.37.09.88.51l2.44,2.02c.23.23.41.41.41.74,0,.46-.14.6-1.66,1.79ZM162.2,4.55h-27.23v33.08h27.23V4.55ZM159.76,31.05h-17.8c-3.17,0-4.05.14-4.97.28l-.74-1.66c2.16.18,4.37.28,6.53.28h3.13v-9.71h-1.84c-3.17,0-4.05.14-4.97.28l-.74-1.66c2.16.18,4.37.28,6.53.28h1.01v-7.59h-2.76c-3.17,0-4.1.14-4.97.32l-.74-1.7c2.16.18,4.37.28,6.53.28h8.97l2.12-1.89c.6-.51.64-.55.83-.55.28,0,.64.28.83.46l2.21,1.89c.18.18.46.41.46.69,0,.46-.46.51-.69.51h-9.15v7.59h1.93l1.84-1.75c.6-.6.69-.55.83-.55.23,0,.32.05.88.46l2.16,1.75c.23.18.51.37.51.69,0,.46-.46.51-.74.51h-7.41v9.71h4.78l1.93-1.89c.55-.51.64-.55.78-.55.32,0,.74.37.87.51l2.07,1.84c.18.14.46.37.46.69,0,.46-.46.51-.69.51ZM154.06,28.29c-1.56,0-1.89-1.33-1.93-1.7-.51-3.36-.55-3.73-1.24-5.25l.18-.23c3.54,1.01,5.11,3.04,5.11,4.83,0,1.01-.51,2.35-2.12,2.35Z"/>
      <path class="cls-3" d="M190.21,6.81c-1.52,3.45-3.54,6.81-5.8,9.57,3.31,2.02,6.03,4,6.03,9.11,0,5.66-3.4,5.93-5.15,6.03-.74-2.21-1.1-2.85-2.76-4.09,0,8.65,0,11.91-.23,12.51-.37,1.06-1.29,1.38-2.21,1.38-1.66,0-1.66-.83-1.66-1.47,0-1.06.28-6.21.32-7.36.14-5.66.28-11.36.28-17.02,0-2.02,0-7.73-.18-10.44-.09-1.56-.32-2.58-.46-3.4l4,1.84h4.51l1.06-.83c.28-.23.51-.51.74-.51s.51.32.83.55l1.89,1.56c.28.23.51.55.51.97,0,.69-.41.97-1.7,1.61ZM183.31,16.61c1.79-3.96,3.04-9.89,3.45-12.05h-4.19v22.22c.78.14,1.7.32,2.48.32,1.01,0,2.02-.18,2.02-2.44,0-4.65-2.35-6.81-3.77-8.05ZM196.1,32.25c-2.25,2.35-6.44,5.61-10.08,7.22l-.23-.41c5.7-4.92,7.08-9.38,7.45-10.81l4,2.44c.28.14.37.32.37.6,0,.78-.78.88-1.52.97ZM202.22,8.6c-2.25,5.2-4.55,8.88-11.82,13.53l-.18-.23c1.98-2.07,2.44-2.71,3.91-4.65-.83,0-1.15-.74-1.38-1.29-.55-1.43-.6-1.52-1.2-1.98-1.79,2.58-2.85,3.45-3.54,4.05l-.41-.18c3.04-4.78,5.52-12.33,5.66-14.26.14-1.56.09-2.3.04-2.94l4.28,1.98c.18.09.64.32.64.74,0,.37-.78.64-1.2.78-.09.18-.55,1.15-.64,1.33h2.81l1.24-.87c.23-.14.41-.32.6-.32.23,0,.46.28.6.41l1.7,2.12c.18.23.37.46.37.64,0,.55-1.01.97-1.47,1.15ZM215.33,26.96h-11.59c0,.88-.05,4.55-.05,5.29,0,.64.18,4.83.18,5.15,0,4.74-5.15,4.92-5.71,4.92-.23-1.47-1.2-3.41-3.86-5.01v-.37c.41.09,3.04.64,4.37.64,1.2,0,1.29-.23,1.29-1.1v-9.52h-2.81c-2.85,0-3.82.14-4.97.32l-.78-1.7c2.81.28,6.07.28,6.58.28h11.59l1.66-2.48c.18-.28.41-.6.69-.6.32,0,.6.23.87.51l2.81,2.48c.23.18.46.46.46.74,0,.37-.41.46-.74.46ZM195.32,11.87c-.18-.51-.51-1.2-1.29-1.84-.78,1.47-1.52,2.58-2.07,3.36,1.01-.05,2.76.05,3.54,1.79.55-.87.74-1.2,1.33-2.35-1.06.09-1.33-.6-1.52-.97ZM195.87,6.58c-.28.6-.6,1.15-1.52,2.9,1.7-.04,2.99,0,3.5,1.11.83-2.12,1.15-3.68,1.24-4h-3.22ZM207.92,20.52h-5.84c-2.81,0-3.82.14-4.97.32l-.74-1.7c2.62.23,5.52.28,6.95.28l1.38-1.93c.32-.46.51-.55.69-.55.32,0,.64.32.83.51l1.98,1.93c.28.28.41.41.41.69,0,.41-.37.46-.69.46ZM215.51,22.36c-5.89-2.85-10.67-9.8-12.19-18.82h.37c.92,2.25,2.02,4.6,4.09,7.5.74-1.06,2.21-3.59,2.71-5.61-1.61.09-2.3.14-3.22.32l-.78-1.7c1.52.14,2.35.18,4.19.23l1.01-.74c.23-.14.46-.32.64-.32.28,0,.46.14.69.32l2.58,2.3c.28.23.46.55.46.92,0,.83-.69.92-2.44,1.15-2.44,2.16-4.51,3.59-5.15,4.05,1.56,1.98,4.88,5.89,11,6.72v.37c-1.52.64-2.3.97-3.96,3.31ZM213.77,39.29c-1.66,0-2.12-1.01-3.4-3.77-1.01-2.25-1.7-3.5-3.45-5.38l.18-.32c4.55,1.98,8.69,3.86,8.69,6.81,0,.46-.23,2.67-2.02,2.67Z"/>
      <path class="cls-3" d="M249.14,28.2v10.86h10.86l2.12-2.85c.23-.32.41-.55.69-.55s.51.18.83.46l3.4,2.85c.32.28.46.41.46.74,0,.41-.37.46-.64.46h-33.91c-3.17,0-4.32.18-5.2.32l-.74-1.7c2.07.18,4.42.28,6.53.28h11.64v-10.86h-8.1c-3.22,0-4.09.14-4.97.28l-.78-1.66c2.12.18,4.46.28,6.58.28h17.48l2.21-2.53c.28-.32.46-.55.74-.55.23,0,.51.18.83.46l2.99,2.53c.28.23.46.41.46.74,0,.41-.41.46-.69.46h-12.79ZM252.59,8.24v7.91c0,.69.05,1.43.64,1.61.46.14,3.87.09,4.74.09,3.91,0,4.46,0,5.15-1.38.46-.92,1.2-2.95,1.56-4.05h.37c.18.83.92,4,1.79,4.69.6.46.97.69.97,1.52,0,1.61-1.7,2.3-2.76,2.53-1.7.32-9.29.37-11.82.37-2.94,0-4.42-.74-4.46-3.77v-9.52h-14.22c-.32,5.52-4.32,5.52-4.46,5.52-.37,0-2.07-.14-2.07-1.98,0-.97.18-1.33,2.25-2.67,2.71-1.75,3.22-3.08,3.68-4.28h.28c.14.64.28,1.24.32,2.3h10.9c.14-3.4-.46-5.29-1.01-6.99l5.06,1.29c.64.18,1.01.51,1.01.92,0,.46-.51.83-1.24,1.43v3.36h10.03l2.02-1.66c.51-.41.69-.46,1.01-.46.28,0,.51.14.83.46l2.94,2.71c.23.23.41.51.41.87,0,.69-.32.74-2.48,1.2-1.7,1.06-5.11,3.08-5.15,3.13l-.23-.23c.18-.83.64-3.54.87-4.92h-6.95ZM245.18,10.49c.46.23.64.41.64.69,0,.6-.69.83-1.56,1.01-2.76,5.29-6.26,9.16-15.6,11.59l-.18-.37c11.27-6.67,12.38-13.66,12.47-15.04l4.23,2.12Z"/>
      <path class="cls-3" d="M280.79,19.05c-.88,0-1.75-.46-2.62-2.35-.87-1.79-1.61-3.36-2.99-4.88v-.23c2.39.37,7.59,2.02,7.59,5.29,0,.78-.51,2.16-1.98,2.16ZM284.33,21.53c-.28,1.24-1.7,7.54-1.79,8.37-.05.37-.09.64-.09.92,0,1.43.55,3.59.69,4.19.69,2.71.83,3.17.83,3.87,0,1.24-.64,2.76-2.44,2.76-2.44,0-2.44-2.81-2.44-3.73,0-.51.18-2.9.18-3.4,0-1.15,0-3.96-3.13-5.11l.04-.6c1.61.05,2.25-.37,2.95-1.24,1.01-1.29,6.16-15.78,6.67-17.3l.37.09c-.23,2.25-.51,5.2-1.84,11.18ZM284.1,8.33c-1.2,0-2.12-1.01-2.62-2.12-.87-1.98-1.01-2.25-2.67-4.83v-.23c4.88.83,7.45,2.85,7.45,4.83,0,1.29-.92,2.35-2.16,2.35ZM316.35,26.64c-1.01.88-1.47,1.84-1.93,2.81-4.14-1.56-9.38-6.67-11.78-12.19h-5.11c-.74,1.15-2.02,3.27-5.06,6.72,2.53.18,5.15.28,6.3.28h2.21l1.1-1.06c.69-.69.78-.74.97-.74.28,0,.78.32.97.46l1.7,1.33c.32.28.51.55.51.97,0,.51-.09.6-1.01,1.61.05.78.18,4.46.18,5.11,0,1.2-1.24,1.61-2.21,1.61-.74,0-1.52-.23-1.56-1.15h-5.29v3.91c0,1.66.46,1.75,3.96,1.75,1.66,0,6.9,0,8.19-.88.92-.6,1.2-1.52,2.58-6.26h.32c.41,1.79,1.06,4.65,1.52,5.29.23.37.37.41.97.69.28.14.41.41.41.83,0,.09,0,2.12-2.81,3.08-2.39.83-8.56.83-9.85.83-8.97,0-8.97-1.06-9.02-4.6-.09-6.07-.09-6.72-.28-8.1l4.51,2.35h4.79v-5.93h-3.68c-2.85,0-3.82.09-5.01.28l-.64-1.43c-.51.55-4.37,4.88-8.46,7.08l-.14-.32c1.43-1.61,6.76-7.77,9.2-13.71-2.85,0-4,0-5.57.28l-.74-1.66c2.94.23,6.4.28,6.53.28,0-1.24,0-6.67-.04-7.82-2.07.05-2.99.09-4.46.32l-.74-1.7c2.02.18,3.27.23,5.2.28,0-4-.05-4.23-.78-7.22l4.69,1.33c.78.23,1.06.41,1.06.88,0,.37-.18.74-1.33,1.61v3.4h5.2c0-3.4,0-3.77-.96-6.99l4.97,1.33c.64.18.97.28.97.69,0,.64-.92,1.29-1.29,1.56-.05,2.53-.05,2.81-.05,3.4h1.84l1.66-2.3c.23-.32.37-.55.64-.55.32,0,.69.32.87.51l2.39,2.25c.32.32.46.46.46.74,0,.41-.37.46-.69.46h-7.22c0,1.24.05,6.72.05,7.82h4.37l1.66-2.35c.18-.28.41-.55.69-.55.18,0,.37.09.87.55l2.58,2.25c.28.23.46.41.46.69,0,.41-.41.51-.69.51h-11.73c2.3,3.04,6.95,6.9,14.4,7.78v.28c-.28.23-1.56,1.1-1.79,1.33ZM296.66,8.33c0,1.15,0,5.2.05,7.82h5.15c0-1.1.04-6.58.04-7.82h-5.24Z"/>
      <path class="cls-3" d="M325.96,42.1v-2.12h13.25V.23h2.12v41.87h-15.37Z"/>
      <path class="cls-3" d="M375.1,29.68c-.06,1.38-.03,3.33,0,4.47.03.69.21,3.99.21,4.35,0,1.23-1.26,1.44-1.83,1.44-1.05,0-1.05-.57-1.05-.9,0-.21.06-1.11.06-1.29h-16.98c0,.18.06.96.06,1.11,0,.54-.09,1.56-1.8,1.56-.54,0-1.08-.21-1.08-.81,0-.12.03-.36.03-.63.03-.45.12-5.13.12-7.23s-.06-2.73-.51-4.32l3.6.9c.18.03.51.15.51.45,0,.39-.6.66-.93.84-.06,2.52-.06,6.33-.03,7.41h7.23v-11.07h-5.4c.03.84-.33,1.59-1.77,1.59-.93,0-.93-.51-.93-.78,0-1.02.12-5.58.12-6.51,0-1.71,0-2.25-.57-4.62l3.54,1.23c.24.06.51.18.51.45,0,.42-.69.81-.9.96-.06,1.47-.06,1.83,0,6.96h5.4c-.03-1.11-.03-6.06-.06-7.05-.06-2.7-.36-3.45-.69-4.44l3.93,1.32c.27.09.45.15.45.39,0,.33-.42.57-.99.87,0,.21-.09,2.73-.09,2.76,0,.96,0,5.28-.03,6.15h5.61c.06-1.17.06-2.64.06-3.81,0-3.72-.09-4.14-.51-5.25l3.6,1.14c.39.12.45.27.45.45,0,.33-.33.54-.96.87-.03.57-.06,1.41-.06,2.64,0,.75.12,3.93.12,4.59,0,1.14-1.32,1.38-1.74,1.38-1.14,0-1.08-.6-1.02-1.29h-5.55v11.07h7.29c0-.33.06-3.3.03-5.28-.03-2.58-.18-3.21-.48-4.35l3.6,1.05c.21.06.39.12.39.39,0,.36-.45.6-.96.84Z"/>
      <path class="cls-3" d="M406.51,19.81v7.74c0,1.44.3,7.89.3,9.21,0,.93-.21,1.17-.36,1.32-.54.57-1.32.72-1.62.72-.06,0-.99,0-.99-.87,0-.24.09-1.38.09-1.62h-16.35c.06,1.53.12,2.88-2.01,2.88-1.05,0-1.05-.51-1.05-.84,0-.3.12-1.56.12-1.83.24-5.55.42-10.8.42-14.58,0-3.18-.21-4.32-.54-6.18l3.84,2.13h15.03l1.05-1.11c.15-.18.27-.42.45-.42s.36.21.48.3l2.13,1.47c.18.12.42.3.42.48,0,.21-.15.3-1.41,1.2ZM403.93,18.61h-16.38v16.98h16.38v-16.98Z"/>
      <path class="cls-3" d="M432.4,20.29c-.87.33-5.37,1.23-6.87,1.5-.09,1.5-.09,2.22-.09,3.93.63-.15,3.66-1.17,3.99-1.17.6,0,1.95.3,1.95,1.23,0,.54-.39.69-.6.75-.27.09-3.15.81-5.31,1.2.12,2.7.15,3.93.9,6.3,1.23.18,3.36.54,5.34,2.22.36.3.9.78.9,1.65,0,.63-.36,1.32-1.08,1.32-.51,0-.75-.18-1.62-.84-1.32-.99-2.19-1.47-3.45-2.04-.18,1.08-.63,3.87-5.4,3.87-3.12,0-5.31-1.68-5.31-3.39,0-3,4.62-3.3,6.42-3.3.75,0,1.26.03,1.8.09-.18-.78-.42-1.74-.48-5.55-.51.06-1.92.21-3.6.21-2.34,0-3.69-.36-3.69-1.53,0-.9,1.38-1.86,2.43-1.86-.39.57-.54.78-.54,1.17,0,.3.21.45.99.45,1.32,0,3.06-.15,4.38-.36,0-1.56,0-1.59.09-4.02-1.89.24-3.24.33-4.29.33-3.54,0-4.35-.6-5.34-2.7,1.41.57,2.34.93,4.41.93.78,0,2.46-.09,5.28-.54,0-.33.06-2.19.06-2.34,0-1.14-.15-1.77-2.37-2.43.66-.81,1.29-.9,1.92-.9,1.11,0,3.51.69,3.51,2.16,0,.27-.06.39-.51,1.53-.3.78-.36,1.11-.45,1.53.48-.12,1.29-.33,2.49-.72.42-.15,2.25-.87,2.61-.87.87,0,2.07.6,2.07,1.38,0,.39-.18.66-.54.81ZM420.58,35.23c-1.5,0-3.81.6-3.81,1.68,0,.42.63,1.35,3.03,1.35,1.02,0,2.28-.21,3.18-.69.81-.45.93-1.26.99-1.98-.87-.33-2.43-.36-3.39-.36Z"/>
      <path class="cls-3" d="M460.69,19.75c-1.77,0-3.93,0-5.4.45-3.12.96-6.48,4.89-6.48,9.36,0,1.44.63,4.44,4.74,5.7.63.18,3.57.75,4.08,1.05.72.42,1.02.93,1.02,1.56,0,1.14-.93,1.14-1.5,1.14-.75,0-3.06-.39-5.28-1.44-4.44-2.13-4.62-5.88-4.62-7.35,0-4.62,2.76-7.5,6.06-10.29-1.62-.15-7.14,2.04-9.72,3.24-1.5.69-1.68.75-2.1.75-.84,0-2.37-.93-2.37-2.85,0-.99.42-1.53.66-1.89.63,1.35,1.35,1.77,2.4,1.77.96,0,14.85-3.3,15.51-3.51,1.2-.42,1.8-.6,2.31-.6,1.41,0,2.82.9,2.82,1.8,0,1.11-.93,1.11-2.13,1.11ZM459.85,27.31c-.78,0-1.02-.45-1.59-1.62-.39-.78-1.47-2.16-2.31-3.12,1.77.51,4.89,1.41,4.89,3.57,0,.51-.24,1.17-.99,1.17ZM463.3,25.93c-.66,0-.93-.45-1.62-1.74-.69-1.26-1.92-2.16-2.61-2.64,2.22.12,5.28,1.41,5.28,3.27,0,.81-.66,1.11-1.05,1.11Z"/>
    </g>
    <g>
      <g>
        <path class="cls-3" d="M402.42,93.91c-2.49,5.1-7.02,8.94-9.3,10.2l-.15-.21c4.2-4.77,6.57-8.97,7.26-10.98.27-.75.39-1.35.48-1.92l2.58,1.74c.15.09.39.27.39.48,0,.36-.78.57-1.26.69ZM413.31,103.3c-.3,10.8-.9,12.99-6.3,13.47-.12-1.89-1.59-2.88-2.25-3.3l.03-.21c1.26.27,2.55.51,3.48.51,1.44,0,2.01-.33,2.46-3.06.36-2.22.54-7.23.45-8.64h-6.06c-.18,4.71-2.19,12.84-11.64,14.58l-.06-.24c6.09-2.82,9.18-7.35,9.48-14.34h-.87c-.75,0-2.19.03-3.54.3l-.57-1.2c1.86.15,3.69.18,4.59.18h8.49l.81-.72c.18-.18.36-.33.54-.33.15,0,.3.15.42.27l1.2,1.32c.15.15.27.33.27.48,0,.27-.09.33-.93.93ZM418.77,103.27c-3.21-1.38-6.78-4.62-9.03-11.4h-2.4c-1.5,0-2.1.12-2.52.18l-.39-1.05c1.35.12,2.67.15,3.27.15h1.5l.96-.96c.27-.27.39-.33.54-.33.18,0,.3.15.51.33l1.11,1.08c.18.15.24.27.24.45,0,.6-1.38.84-1.92.93,1.44,3.87,6.42,7.71,11.01,8.04l.03.3c-1.68.51-2.37,1.47-2.91,2.28Z"/>
        <path class="cls-3" d="M435.18,117.73c-4.68-3.75-7.11-9.15-7.11-14.52s2.43-10.77,7.11-14.52l.27.42c-5.58,5.91-5.7,11.91-5.7,14.1s.12,8.19,5.7,14.1l-.27.42Z"/>
        <path class="cls-3" d="M451.32,95.23c.24.12.39.3.39.54,0,.27-.33.45-1.26.63-.39.48-1.23,1.47-2.52,3.06-1.14,1.38-2.13,2.49-2.94,3.33.15,0,2.67-.12,4.26-.33-.12-.21-.48-.9-1.23-1.71l.15-.18c2.34.9,4.14,2.25,4.14,3.63,0,.57-.33,1.23-1.14,1.23-.72,0-1.02-.36-1.29-1.38-.03-.09-.15-.51-.33-.96l-2.73.6c0,1.29.09,7.44.09,8.01.03.6.12,3.3.12,3.84,0,.78-.69,1.29-1.44,1.29-.63,0-.81-.39-.81-.9,0-.48.12-2.46.12-2.88.03-.96.06-3.9.09-8.97-1.89.42-3.39.75-3.78.84-.18.3-.48.87-.75.87-.3,0-.48-.36-.54-.54l-.66-2.55c.51.12,1.38.21,2.13.21.93,0,2.31-.03,2.79-.06,2.04-2.76,3.87-6.57,4.29-7.77.12-.3.18-.84.18-1.2l2.67,1.35ZM439.47,114.97c1.29-2.91,2.16-6.72,2.1-8.76l2.46.9c.21.09.42.27.42.42,0,.21-.18.36-.96.66-.96,2.79-1.83,4.47-3.87,6.87l-.15-.09ZM440.61,95.26c.84.21,1.83.48,2.58.84.84-1.68,2.16-4.95,1.98-6.72l2.85,1.41c.24.12.36.3.36.45,0,.45-.45.54-1.14.66-1.41,1.8-1.62,2.07-3.66,4.41.87.54,1.77,1.35,1.77,2.37,0,.69-.45,1.44-1.23,1.44-.69,0-.87-.36-1.53-1.83-.69-1.56-1.38-2.22-2.01-2.85l.03-.18ZM447.69,106.69c1.23.54,4.23,1.89,4.23,3.93,0,.96-.69,1.47-1.32,1.47-.81,0-.96-.6-1.35-1.98-.42-1.56-.99-2.43-1.65-3.3l.09-.12ZM462.03,97l.9-.84c.15-.15.33-.33.42-.33.12,0,.33.18.42.27l1.44,1.23c.15.12.27.3.27.45,0,.21-.57.63-1.11,1.02-.18,8.31-.24,12.03-1.83,15.09-1.11,2.13-3,2.91-4.65,2.94-.24-1.41-1.17-2.34-2.73-3.39l.03-.18c1.38.27,3.21.6,3.99.6,3.03,0,3.18-9.9,3.18-12.99,0-.51-.03-2.64-.03-3.15h-8.1c-1.47,2.79-2.49,3.81-2.94,4.29l-.18-.12c2.22-4.41,3.24-9.48,3.24-11.04,0-.3-.09-.87-.15-1.14l3.24,1.38c.15.06.33.21.33.42,0,.3-.45.51-1.17.84-.33.96-.87,2.46-1.98,4.65h7.41ZM453.84,102.73c2.85,1.17,4.26,2.13,4.26,3.75,0,.72-.36,1.41-1.2,1.41-.78,0-1.02-.33-1.68-2.4-.24-.78-.81-1.8-1.5-2.58l.12-.18Z"/>
        <path class="cls-3" d="M471.75,95.08l-.27,7.56c1.29-1.14,2.43-2.07,4.65-2.07,4.32,0,6.39,3.57,6.39,6.87,0,4.35-3.45,7.74-7.41,7.74-3.42,0-5.67-2.55-5.67-4.41,0-1.14.72-1.86,1.74-1.86.9,0,1.56.6,1.56,1.56,0,.3-.03.42-.15.9-.06.24-.09.66-.09.84,0,1.29,1.35,1.95,2.55,1.95,2.43,0,4.71-2.31,4.71-6.33,0-3.81-2.01-5.91-4.2-5.91-1.2,0-3.03.66-4.68,2.61l-.45-.24.45-11.58h10.44l-.6,2.37h-8.97Z"/>
        <path class="cls-3" d="M491.58,115.18c-2.07,0-3.81-1.44-4.92-3.24-1.26-2.07-1.83-5.76-1.83-8.55,0-6.39,2.73-11.25,6.75-11.25,3.09,0,6.75,3.33,6.75,11.52,0,7.35-3.09,11.52-6.75,11.52ZM488.22,97.15c-.42,1.5-.69,4.02-.69,6.51,0,6.69,1.59,10.5,4.05,10.5,2.07,0,3-2.76,3.33-3.9.42-1.53.72-4.08.72-6.6,0-6.84-1.65-10.5-4.05-10.5-2.13,0-3.06,2.94-3.36,3.99Z"/>
        <path class="cls-3" d="M504.21,113.44c.03.99-.81,1.74-1.74,1.74-.99,0-1.74-.78-1.74-1.74s.75-1.74,1.74-1.74c.93,0,1.74.78,1.74,1.74Z"/>
        <path class="cls-3" d="M515.67,92.14h1.23v15.24h3.39v.96h-3.39v3.48c0,1.32.66,1.83,2.1,1.83h.48v.96h-7.62v-.96h.48c1.41,0,2.1-.48,2.1-1.83v-3.48h-8.07v-1.05l9.3-15.15ZM514.44,96.1l-6.93,11.28h6.93v-11.28Z"/>
        <path class="cls-3" d="M526.92,107.35l4.35-4.23c.21-.18.39-.45.39-.78,0-.48-.6-.96-1.26-.96h-.57v-.96h7.47v.96h-.63c-1.68,0-2.97.75-4.59,2.31l-1.26,1.23,3.57,6.03c1.02,1.71,1.98,2.7,3.45,2.7v.96h-6.66v-.96c.36,0,1.56,0,1.56-.96,0-.21-.09-.45-.18-.6l-3.33-5.61-2.31,2.22v3.15c0,1.8,1.08,1.8,2.22,1.8v.96h-6.6v-.96h.72c.84,0,1.5-.57,1.5-1.8v-16.71c0-1.26-1.08-1.47-1.98-1.38l-.12-.54,4.26-1.05v15.18Z"/>
        <path class="cls-3" d="M544.5,99.85v2.37c.81-.81,2.37-2.37,4.95-2.37,2.82,0,3.36,1.83,3.6,2.7,1.02-.99,2.67-2.7,5.37-2.7s3.84,1.59,3.84,4.92v7.08c0,1.14.6,1.8,1.5,1.8h.57v.96h-6.27v-.96h.54c1.05,0,1.53-.81,1.53-1.8v-6.9c0-.84-.15-3.81-2.64-3.81-.84,0-2.73.48-4.23,2.61,0,.24.03.48.03,1.02v7.08c0,1.26.69,1.8,1.5,1.8h.87v.96h-6.87v-.96h.87c.81,0,1.5-.57,1.5-1.8v-6.9c0-.63-.06-3.81-2.61-3.81-.72,0-2.64.39-4.05,2.37v8.34c0,1.26.72,1.8,1.5,1.8h.54v.96h-6.24v-.96h.54c.9,0,1.5-.63,1.5-1.8v-9.03c0-.93-.51-1.41-1.23-1.41-.33,0-.63.03-.9.12l-.12-.57,4.41-1.11Z"/>
        <path class="cls-3" d="M568.05,117.73l-.27-.42c5.58-5.91,5.7-11.91,5.7-14.1s-.12-8.19-5.7-14.1l.27-.42c4.68,3.75,7.11,9.15,7.11,14.52s-2.43,10.77-7.11,14.52Z"/>
      </g>
      <path class="cls-3" d="M283.74,95.23c.24.12.39.3.39.54,0,.27-.33.45-1.26.63-.39.48-1.23,1.47-2.52,3.06-1.14,1.38-2.13,2.49-2.94,3.33.15,0,2.67-.12,4.26-.33-.12-.21-.48-.9-1.23-1.71l.15-.18c2.34.9,4.14,2.25,4.14,3.63,0,.57-.33,1.23-1.14,1.23-.72,0-1.02-.36-1.29-1.38-.03-.09-.15-.51-.33-.96l-2.73.6c0,1.29.09,7.44.09,8.01.03.6.12,3.3.12,3.84,0,.78-.69,1.29-1.44,1.29-.63,0-.81-.39-.81-.9,0-.48.12-2.46.12-2.88.03-.96.06-3.9.09-8.97-1.89.42-3.39.75-3.78.84-.18.3-.48.87-.75.87-.3,0-.48-.36-.54-.54l-.66-2.55c.51.12,1.38.21,2.13.21.93,0,2.31-.03,2.79-.06,2.04-2.76,3.87-6.57,4.29-7.77.12-.3.18-.84.18-1.2l2.67,1.35ZM271.89,114.97c1.29-2.91,2.16-6.72,2.1-8.76l2.46.9c.21.09.42.27.42.42,0,.21-.18.36-.96.66-.96,2.79-1.83,4.47-3.87,6.87l-.15-.09ZM273.03,95.26c.84.21,1.83.48,2.58.84.84-1.68,2.16-4.95,1.98-6.72l2.85,1.41c.24.12.36.3.36.45,0,.45-.45.54-1.14.66-1.41,1.8-1.62,2.07-3.66,4.41.87.54,1.77,1.35,1.77,2.37,0,.69-.45,1.44-1.23,1.44-.69,0-.87-.36-1.53-1.83-.69-1.56-1.38-2.22-2.01-2.85l.03-.18ZM280.11,106.69c1.23.54,4.23,1.89,4.23,3.93,0,.96-.69,1.47-1.32,1.47-.81,0-.96-.6-1.35-1.98-.42-1.56-.99-2.43-1.65-3.3l.09-.12ZM294.45,97l.9-.84c.15-.15.33-.33.42-.33.12,0,.33.18.42.27l1.44,1.23c.15.12.27.3.27.45,0,.21-.57.63-1.11,1.02-.18,8.31-.24,12.03-1.83,15.09-1.11,2.13-3,2.91-4.65,2.94-.24-1.41-1.17-2.34-2.73-3.39l.03-.18c1.38.27,3.21.6,3.99.6,3.03,0,3.18-9.9,3.18-12.99,0-.51-.03-2.64-.03-3.15h-8.1c-1.47,2.79-2.49,3.81-2.94,4.29l-.18-.12c2.22-4.41,3.24-9.48,3.24-11.04,0-.3-.09-.87-.15-1.14l3.24,1.38c.15.06.33.21.33.42,0,.3-.45.51-1.17.84-.33.96-.87,2.46-1.98,4.65h7.41ZM286.26,102.73c2.85,1.17,4.26,2.13,4.26,3.75,0,.72-.36,1.41-1.2,1.41-.78,0-1.02-.33-1.68-2.4-.24-.78-.81-1.8-1.5-2.58l.12-.18Z"/>
      <g>
        <path class="cls-4" d="M336.57,64.45h3.71v35.16h8.16v5.2h-8.16v13.32h-6.21v-13.32h-22.5v-5.2l25-35.16ZM333.99,72.51l-19.17,27.09h19.17v-27.09Z"/>
        <path class="cls-4" d="M382.36,113.24c-3.06,3.83-7.04,5.74-11.93,5.74-4.58,0-8.76-2.15-12.52-6.45-3.76-4.3-5.64-10.01-5.64-17.15,0-9.19,3.64-17.08,10.94-23.67,6.51-5.52,13.83-8.28,21.95-8.28l.2,1.29c-3.26.6-6.06,1.41-8.42,2.44-2.36,1.03-4.46,2.47-6.31,4.32-1.9,1.88-3.69,4.26-5.35,7.15-1.67,2.89-2.81,5.76-3.44,8.59,1.61-.99,3.01-1.72,4.18-2.19,2.08-.83,4.18-1.25,6.29-1.25,4.14,0,7.62,1.43,10.43,4.3,2.81,2.87,4.22,6.95,4.22,12.27,0,4.77-1.53,9.06-4.59,12.89ZM378.16,94.14c-1.82-4.48-4.92-6.72-9.3-6.72-4.04,0-6.72,1.2-8.05,3.59-.78,1.41-1.17,3.75-1.17,7.03,0,4.25.9,8.4,2.71,12.46,1.81,4.06,4.67,6.09,8.57,6.09,3.1,0,5.35-1.32,6.76-3.96,1.41-2.64,2.11-5.74,2.11-9.28s-.55-6.54-1.64-9.22Z"/>
      </g>
    </g>
    <g>
      <line class="cls-2" x1="1.5" y1="106.23" x2="1.6" y2="106.23"/>
      <line class="cls-1" x1="8.6" y1="106.23" x2="249.92" y2="106.23"/>
      <line class="cls-2" x1="253.42" y1="106.23" x2="253.52" y2="106.23"/>
    </g>
  </g>
</svg>