<?xml version="1.0" encoding="UTF-8"?><svg id="_レイヤー_2" xmlns="http://www.w3.org/2000/svg" viewBox="0 0 1266.36 90.56"><defs><style>.cls-1{fill:#3e4856;}.cls-1,.cls-2,.cls-3{stroke-width:0px;}.cls-2{fill:#000;}.cls-3{fill:#fff;}.cls-4{fill:none;stroke:#3e4856;stroke-miterlimit:10;stroke-width:1.2px;}</style></defs><g id="_レイヤー_2-2"><path class="cls-2" d="M154.97,26.9l1.38-1.12c.34-.3.47-.43.77-.43.13,0,.39.26.52.34l2.15,1.81c.17.13.3.3.3.6,0,.6-.9,1.25-1.46,1.63v3.35c0,.22.17,3.74.17,3.87,0,1.42-1.12,2.06-2.45,2.06s-1.25-1.33-1.16-2.19h-7.1c0,1.76-.04,9.5-.04,11.09,0,1.42.17,12.34.17,12.73,0,2.58-2.11,2.58-2.49,2.58-1.2,0-1.42-.56-1.42-1.29,0-.17.04-.69.04-.9.34-4.13.34-11.27.34-19.18,0-4.08-.09-11.05-.34-14.75-.04-.9-.3-1.59-.47-2.15l4.3,1.94h6.79ZM148.09,27.93v3.7h7.14v-3.7h-7.14ZM148.09,32.66v3.14h7.14v-3.14h-7.14ZM155.53,51.45c-2.67,0-3.57.09-4.64.26l-.73-1.55c2.06.17,4.08.26,6.15.26h2.49c.3-1.16.43-2.19.43-3.61h-2.15c-2.67,0-3.57.09-4.64.26l-.73-1.55c2.06.17,4.08.26,6.15.26h3.7c.65-1.33,1.81-4.73,1.5-6.75l4.26,1.98c.26.13.43.3.43.56,0,.13,0,.82-1.38.9-2.15,1.89-3.1,2.62-4.04,3.31h3.44l1.33-1.55c.26-.26.52-.52.73-.52.26,0,.43.17.73.47l1.59,1.51c.34.3.39.47.39.64,0,.39-.39.47-.65.47h-7.48c-.04,1.5-.21,2.62-.47,3.61h4.6l1.25-1.46c.3-.39.52-.56.73-.56s.43.17.73.47l1.55,1.46c.39.39.43.47.43.64,0,.39-.3.47-.64.47h-8.17c2.24,2.92,6.45,5.03,9.63,4.82v.3c-.65.39-1.12.69-2.28,1.85.34.04.86.09,1.72.09,2.15,0,2.37-.39,2.37-1.89v-19.78h-7.09c.17,1.38-.52,2.15-2.37,2.15-.13,0-1.33,0-1.33-1.25,0-1.42.04-7.61.04-8.9,0-.82-.04-1.63-.39-3.87l4.08,1.94h6.88l1.16-1.16c.17-.17.43-.43.69-.43.22,0,.39.09.56.26l2.41,2.06c.17.17.3.34.3.56,0,.34-.13.47-1.5,1.59,0,1.2-.09,3.66-.09,7.65,0,3.05.21,16.38.21,19.09s0,4.08-1.89,5.46c-.52.39-1.72,1.16-3.65,1.46-.26-1.12-.69-3.1-2.54-4.6-.39.47-.56.69-.86,1.25-3.87-2.67-4.77-3.96-6.88-8.47-1.68,4.69-5.8,8-11.52,8.9v-.3c1.38-.82,6.84-3.91,8.43-8.77h-2.97ZM152.99,39.15c2.19.26,6.11,1.33,6.11,4.13,0,1.12-.73,1.93-1.76,1.93-1.33,0-1.63-.99-2.06-2.19-.39-1.08-1.08-2.75-2.32-3.61l.04-.26ZM166.66,27.93v3.7h7.18v-3.7h-7.18ZM166.66,32.66v3.14h7.18v-3.14h-7.18Z"/><path class="cls-2" d="M225.33,28.7h-13.85v7.48h6.06l1.55-1.59c.13-.17.3-.39.47-.39s.39.17.52.26l2.32,1.94c.21.21.52.39.52.64,0,.52-.9,1.16-1.38,1.46-.17,6.15.26,16.51.56,20.34,0,.26.09,1.25.09,1.42,0,2.11-2.58,2.19-2.67,2.19-1.46,0-1.42-1.08-1.38-2.37h-22.66c.13,2.58-2.41,2.58-2.71,2.58-.6,0-1.42-.13-1.42-1.33,0-.17.04-.65.04-.86.04-.86.47-12.08.47-17.63,0-4.47-.13-6.88-.6-9.16l4.86,2.49h4.6v-7.48h-7.57c-3.01,0-3.83.13-4.64.3l-.73-1.59c2.02.17,4.08.26,6.15.26h25.03l2.02-2.19c.17-.21.39-.56.69-.56.26,0,.56.26.82.47l3.05,2.19c.21.13.43.39.43.65,0,.43-.39.47-.64.47ZM218.19,50.2c-.47,1.63-2.79,2.06-5.5,2.06-2.02,0-4.69-.3-4.69-3.31v-11.74h-3.78c-.04.9-.17,3.57-.34,5.03-.6,4.99-3.96,8.99-8.38,10.88v5.93h22.7v-8.86ZM195.49,37.22v15.26c4.86-4.3,5.03-9.42,5.25-15.26h-5.25ZM208,28.7h-3.78v7.48h3.78v-7.48ZM218.19,37.22h-6.71v10.11c0,1.12.39,1.38,1.55,1.38,1.46,0,2.06-.77,2.62-4.64h.34c.3,1.5.52,2.71,1.16,3.87.09.17.9.9,1.03,1.12v-11.83Z"/><path class="cls-2" d="M267.79,54.2c-.52,0-2.71-.65-3.14-.73-1.94-.39-8.21-.86-9.98-.86-7.05,0-14.45,1.2-15.87,1.72-.3.13-1.68.82-1.98.82-1.25,0-3.87-2.88-3.87-5.2,0-.65.17-1.16.3-1.68.9,1.38,1.93,3.01,5.07,3.01.04,0,6.45-.43,7.65-.52,1.16-.04,1.33-.09,3.14-.17,0-1.38.04-7.4.04-8.64,0-4.51-.39-4.64-1.89-5.2-.77.13-4.26.73-4.82.73-.99,0-3.65-2.41-3.7-4.39.86.56,2.28,1.51,5.76,1.51,1.46,0,10.75-.65,12.34-1.2.3-.13,1.46-.73,1.72-.73.56,0,3.7.69,3.7,2.19,0,.09,0,1.38-1.72,1.38-1.08,0-5.68-.09-6.62-.09s-1.25,0-2.02.09c1.12.82,1.33,1.03,1.33,1.5,0,.34-.56,1.85-.6,2.15-.3,2.58-.6,9.5-.65,10.49,4-.21,6.19-.3,7.44-.3s2.19,0,2.92-.17c.69-.13,1.63-.3,1.89-.3,1.38,0,4.52,1.63,4.52,3.53,0,.77-.56,1.08-.99,1.08Z"/><path class="cls-2" d="M284.09,32.57c-.39.86-.69,1.72-.69,4.86,0,1.07.17,5.8.17,6.79,0,.65,0,3.53-1.59,3.53-.82,0-2.37-1.33-2.37-3.66,0-.39.21-1.89.3-2.71.13-1.38.17-4.3.17-6.49,0-3.14,0-4-3.61-4.86.69-.43,1.72-1.03,2.71-1.03,1.2,0,5.25,1.38,5.25,2.58,0,.21-.04.39-.34.99ZM298.67,32.4c-.21,1.68-.09,4.39-.13,6.06-.17,7.96-.73,13.37-5.25,18.19-1.5,1.59-4.47,4.21-8.21,4.64l-.13-.3c5.68-3.14,8.43-9.37,9.16-12.94.95-4.77.95-11.57.95-12.9,0-5.98-.22-6.11-4.17-6.92.64-.52,1.55-1.25,3.27-1.25,2.15,0,5.29,1.29,5.29,2.32,0,.47-.73,2.62-.77,3.1Z"/><path class="cls-2" d="M341.95,35.45c-.34.09-.86.26-1.29.52-3.1,1.98-3.66,2.32-8.9,5.5-2.84,10.75-5.03,16.17-12.13,19.74l-.13-.26c7.18-7.78,8.6-19.05,8.6-20.12,0-1.59-.65-1.85-3.14-2.71.95-.47,1.68-.82,2.58-.82,1.16,0,3.83.73,4.3,1.72.21.43.17.73.17.95,4.26-3.78,6.02-6.19,6.02-6.84,0-.17-.04-.3-.47-.3-.26,0-13.11,1.12-17.29,2.75-.34.13-1.81.82-2.11.82-.52,0-2.06-1.12-2.45-1.42-1.63-1.46-1.72-1.72-1.72-2.79,0-1.2.17-1.72.34-2.19,1.16,1.85,2.71,2.45,4.39,2.45,1.81,0,16.34-1.68,19.61-2.15.34-.09,1.76-.6,2.06-.6.86,0,4.52,3.66,4.52,4.47,0,.69-.13.73-2.97,1.29Z"/><path class="cls-2" d="M370.68,58.67c3.14-1.2,13.5-5.29,13.5-15.82,0-5.98-3.87-11.52-12.38-11.52-1.29,0-2.15.13-2.71.21,2.88,1.25,3.7,3.05,3.7,3.7,0,.6-3.18,7.61-5.55,12.04-4.47,8.43-5.93,8.73-7.14,8.73-.95,0-1.42-.64-2.75-2.54-.6-.86-.77-.99-1.72-1.81-1.29-1.08-1.94-3.35-1.94-4.99,0-9.24,8-16.77,18.45-16.77,8.81,0,16.04,5.07,16.04,13.59,0,8.94-7.74,14.62-17.5,15.48v-.3ZM356.87,45.9c0,2.75,1.29,6.45,2.88,6.45,1.38,0,3.05-3.18,3.96-4.86,1.38-2.62,5.2-10.41,5.2-12.99,0-.3-.04-1.46-1.46-2.71-5.85,1.33-10.58,8.56-10.58,14.1Z"/><path class="cls-2" d="M433.1,60.39h-32.12c-2.97,0-3.78.13-4.64.26l-.69-1.55c2.02.17,4.08.26,6.11.26h10.58v-12.6h-7.44c-2.97,0-3.78.13-4.64.3l-.69-1.59c2.02.17,4.08.26,6.11.26h6.67v-11.44h-8.99c-2.97,0-3.78.17-4.64.3l-.69-1.59c2.02.17,4.08.26,6.11.26h19.69l1.98-2.28c.43-.52.47-.56.69-.56.13,0,.21.09.77.47l3.22,2.28c.21.17.43.43.43.65,0,.47-.43.47-.65.47h-14.15v11.44h5.85l1.98-2.24c.43-.47.47-.52.69-.52.17,0,.21.04.77.43l3.01,2.24c.17.13.43.39.43.64,0,.43-.43.47-.64.47h-12.08v12.6h10.66l2.15-2.54c.39-.47.47-.56.65-.56.26,0,.39.13.82.52l2.92,2.49c.21.22.47.39.47.65,0,.43-.43.47-.69.47ZM414.91,31.63c-1.59,0-2.11-1.2-2.62-2.41-.82-1.85-1.89-3.35-3.96-4.69v-.34c8.43.56,8.82,4.6,8.82,5.2,0,.56-.26,2.24-2.24,2.24Z"/><path class="cls-2" d="M457.98,41.13l1.63.77c.26.13.56.34.56.77,0,.52-.6.69-1.42.86-.04,0-1.63,2.49-2.41,3.74h15.26l2.02-2.49c.39-.47.43-.56.65-.56.3,0,.56.26.82.47l2.71,2.49c.3.26.43.39.43.64,0,.43-.34.47-.65.47h-11.01l.9.47c.26.13.39.3.39.56,0,.52-.43.6-1.5.82-.6,1.08-1.42,2.49-3.35,4.47,3.7.9,7.48,2.45,9.29,3.61,1.29.86,2.15,1.72,2.15,2.92,0,.82-.73,1.85-2.15,1.85-1.03,0-2.28-.99-2.45-1.16-2.71-2.19-5.72-3.96-8.94-5.29-5.12,4.04-11.44,6.15-17.93,6.15-1.2,0-1.98-.04-2.71-.09v-.26c5.29-1.03,12.3-3.14,17.16-7.14-2.84-.86-4.56-1.16-5.38-1.29-1.59,2.54-1.76,2.84-2.97,2.84-1.12,0-1.89-.77-1.89-1.46,0-.34.17-.73.34-.95,1.16-1.59,2.79-4.04,4.21-6.06h-6.67c-2.62,0-3.57.09-4.64.3l-.69-1.59c2.58.21,5.63.26,6.11.26h6.58c2.06-3.27,2.49-4.21,3.18-6.15h-8c.04,1.16-.34,2.41-2.45,2.41-.69,0-1.42-.26-1.42-1.2,0-.34.17-1.89.17-2.24.09-1.03.09-2.06.09-3.35,0-4.34-.17-5.03-.39-5.98l4.08,2.02h4.56v-4.47h-5.98c-2.67,0-3.57.09-4.64.3l-.73-1.59c2.62.21,5.68.26,6.15.26h23.56l1.94-2.37c.39-.47.43-.52.64-.52.26,0,.6.26.82.43l2.75,2.37c.21.21.43.39.43.65,0,.39-.39.47-.69.47h-12.43v4.47h4.99l1.25-1.38c.04-.09.3-.3.6-.3.26,0,.39.09.69.3l2.24,1.63c.17.13.39.43.39.73,0,.39-.13.47-1.42,1.2,0,.95.21,5.07.21,5.93,0,1.33-1.5,1.85-2.45,1.85-1.2,0-1.29-.82-1.33-1.63h-11.27ZM452.26,40.1v-6.28h-4.64v6.28h4.64ZM455.66,48.31c-.86,1.29-1.07,1.68-3.22,5.07,1.12-.04,3.14-.04,6.62.43,2.41-2.24,3.7-4.51,4.13-5.5h-7.53ZM455.87,28.32v4.47h4.69v-4.47h-4.69ZM460.56,40.1v-6.28h-4.69v6.28h4.69ZM469.2,40.1v-6.28h-5.12v6.28h5.12Z"/><path class="cls-2" d="M515.18,58.67c-1.16,0-1.81-1.12-2.24-1.81-3.31-5.5-5.29-8.26-8.73-10.96-6.58,7.83-13.12,12-19.18,13.07v-.34c10.28-4.77,20.9-19.18,22.32-25.28-.13.04-8.73,1.59-11.01,2.71-1.25.64-1.42.69-1.76.69-.65,0-3.35-1.98-3.35-4.73,0-1.12.17-1.42.39-1.89,1.76,2.28,2.11,2.75,3.53,2.75,1.03,0,10.45-.82,12.21-1.93.3-.21,1.68-1.38,2.02-1.38.56,0,3.91,3.18,3.91,3.87,0,.47-.3.6-1.68,1.12-.39.17-.56.47-1.2,1.63-2.84,5.16-3.31,6.02-5.55,8.9,5.25,2.19,12,7.35,12,11.22,0,1.03-.39,2.37-1.68,2.37Z"/><path class="cls-2" d="M530.64,55.1c-.65,0-1.85-.56-1.85-1.93,0-1.72,1.5-2.71,2.75-3.57,2.62-1.72,4.6-4.21,6.23-6.88-.43,5.46-3.57,12.38-7.14,12.38ZM560.01,39.84c-.56,0-3.18-.39-3.7-.43-.69-.09-3.44-.26-6.28-.26-1.63,0-2.71.09-3.4.13-.09,1.55-.09,9.72.13,12.3.04.43.3,3.61.3,3.7,0,.56,0,1.98-.65,3.83-.39,1.16-.86,1.76-1.76,1.76-.82,0-.95-.22-2.02-2.37-.95-1.85-1.5-2.28-4.39-4.43v-.26c.77.17,2.62.56,4,.56,1.12,0,1.16-.17,1.25-.34.09-.26.3-2.71.3-7.44,0-2.11,0-3.83-.09-7.05-1.68.21-7.74,1.12-8.9,1.89-.69.47-1.16.52-1.38.52-1.89,0-4.13-3.23-4.13-5.12,0-.56.13-1.2.3-1.98.39.6,2.11,3.22,4.43,3.22.65,0,8.08-.73,9.63-.86-.17-5.42-.17-6.32-.69-7.22-.56-.99-1.29-1.25-3.48-2.02.6-.52,1.42-1.2,2.92-1.2,2.15,0,5.33,1.76,5.33,3.01,0,.3-.17.77-.52,1.63-.34.86-.52,4.43-.52,5.55,1.03-.09,5.59-.43,6.49-.52.47-.04,1.08-.09,2.15-.47.52-.17.86-.3,1.33-.3,1.2,0,4.3,1.2,4.3,3.05,0,1.12-.6,1.12-.99,1.12ZM559.19,54.03c-.86,0-1.12-.39-3.4-3.96-3.01-4.69-5.03-6.28-6.19-7.22,2.92.26,5.42,1.98,7.78,3.7,1.12.82,3.53,2.58,3.53,5.03,0,1.38-.95,2.45-1.72,2.45ZM559.24,34.16c-2.19,0-4.04-1.76-4.04-4.04,0-2.15,1.68-4.04,3.96-4.08,2.24,0,4.21,1.76,4.21,4.08s-1.89,4.04-4.13,4.04ZM559.28,27.8c-1.29,0-2.32,1.07-2.32,2.36s1.03,2.28,2.28,2.28,2.41-.9,2.41-2.24-1.03-2.41-2.36-2.41Z"/><path class="cls-2" d="M580.98,43.88c0,1.12-.6,1.76-1.38,1.76-1.07,0-1.5-1.03-1.98-2.15-.69-1.63-1.89-3.4-3.14-4.73,3.4.47,6.49,2.71,6.49,5.12ZM577.71,60.18c12.77-6.11,16.68-20.17,16.68-20.68,0-.86-1.33-1.72-2.28-2.24.52-.17,1.16-.3,1.94-.3,1.98,0,4.34,2.32,4.34,2.92,0,.26-.09.34-.95,1.33-.21.26-2.11,4.3-2.54,5.07-5.85,10.58-12.64,13.07-17.11,14.28l-.09-.39ZM588.42,41.9c0,.82-.43,1.81-1.46,1.81s-1.2-.52-1.89-2.41c-.43-1.2-1.16-2.71-2.58-4.51,3.91,1.08,5.93,3.31,5.93,5.12Z"/><path class="cls-2" d="M631.59,48.87c-.69,0-1.25-.47-1.85-1.16-4.47-4.95-5.68-6.19-8.77-7.31-.09,2.67.09,12.08.09,12.34,0,.86.3,4.77.3,5.55,0,1.85-.9,3.18-2.06,3.18-1.25,0-2.32-1.85-2.32-4.21,0-.47,0-.64.3-2.62.52-3.53.56-8.86.56-11.44,0-2.19-.09-12.17-.52-13.76-.13-.56-.26-.95-3.44-2.19.69-.39,1.76-.99,2.84-.99.82,0,5.46.9,5.46,2.24,0,.34-.56,1.81-.64,2.11-.52,2.11-.56,6.45-.56,8.77,4.9.6,12.38,3.35,12.38,7.4,0,1.55-.99,2.11-1.76,2.11Z"/><path class="cls-2" d="M682.74,54.07c-1.63,0-8.99-4.6-12.51-7.91-1.25-1.16-7.91-7.4-9.16-8.6-.17-.17-.82-.69-1.68-.69-1.76,0-4.95,4-6.54,6.02-2.67,3.4-2.97,3.74-4,3.74-.77,0-4.3-.99-4.3-3.96,0-.39.09-.6.3-1.03.43.3,1.2.82,2.41.82,1.81,0,5.59-3.65,7.27-5.29,2.45-2.41,3.74-3.01,4.99-3.01,1.63,0,2.67.86,4.17,2.37,7.05,6.92,10.88,8.86,17.03,11.91,1.98.99,3.57,2.06,3.57,3.91,0,.52,0,1.72-1.55,1.72Z"/><path class="cls-2" d="M719.97,58.67c-1.16,0-1.81-1.12-2.24-1.81-3.31-5.5-5.29-8.26-8.73-10.96-6.58,7.83-13.12,12-19.18,13.07v-.34c10.28-4.77,20.9-19.18,22.32-25.28-.13.04-8.73,1.59-11.01,2.71-1.25.64-1.42.69-1.76.69-.65,0-3.35-1.98-3.35-4.73,0-1.12.17-1.42.39-1.89,1.76,2.28,2.11,2.75,3.53,2.75,1.03,0,10.45-.82,12.21-1.93.3-.21,1.68-1.38,2.02-1.38.56,0,3.91,3.18,3.91,3.87,0,.47-.3.6-1.68,1.12-.39.17-.56.47-1.2,1.63-2.84,5.16-3.31,6.02-5.55,8.9,5.25,2.19,12,7.35,12,11.22,0,1.03-.39,2.37-1.68,2.37Z"/><path class="cls-2" d="M761.47,57.26c-1.33,0-1.76-1.2-2.24-2.54-.13-.39-1.63-4.47-1.72-4.69-3.74,1.55-8.43,2.71-17.33,4.99-1.16.3-1.46.39-1.98,1.03-.43.47-.64.65-1.03.65-1.16,0-3.66-3.48-3.66-5.85,0-.21,0-.43.09-1.07,1.46,1.42,1.89,1.76,3.74,1.76.6,0,1.12-.04,1.46-.09,1.59-3.23,7.74-16.86,7.74-19.61,0-1.63-.95-2.28-3.35-3.31,1.12-.34,2.11-.69,3.01-.69,2.02,0,5.33,2.45,5.33,4.39,0,.69-.17.86-1.2,1.81-.6.6-2.02,4.08-2.36,4.73-1.85,3.61-4.9,8.77-7.65,12.56,8.08-.95,8.99-1.03,16.81-2.19-1.85-4.04-4.56-7.01-5.76-8.3,1.38.56,3.31,1.46,6.58,4.69,4.43,4.3,5.2,6.88,5.2,9.07,0,1.59-.69,2.67-1.68,2.67Z"/><path class="cls-2" d="M803.2,45.69c-.69,0-1.76-.04-2.62-.13-.82-.04-11.31-.13-12.04-.13-2.49,0-9.07.13-11.05.69-.77.21-1.12.3-1.46.3-1.59,0-4-3.4-4-5.12,0-.56.17-1.29.69-2.41,1.5,3.01,2.54,3.53,7.65,3.53,2.49,0,17.42-.04,18.88-.56.64-.21,1.16-.43,1.72-.43.09,0,5.12.39,5.12,2.67,0,.73-.82,1.59-2.88,1.59Z"/><path class="cls-2" d="M839.26,59.49c-.95,0-1.16-.39-3.01-3.74-1.89-3.53-4.56-6.67-7.78-9.12-6.32,7.74-13.76,11.74-18.92,13.03v-.17c11.09-6.58,19.91-17.42,22.06-25.07-8.86,1.76-9.76,1.94-10.92,2.58-1.25.73-1.38.82-1.72.82-.47,0-.69-.21-1.29-.86-1.25-1.25-2.11-2.15-2.11-4,0-.9.21-1.29.43-1.81,1.42,2.02,1.98,2.79,3.22,2.79,1.98,0,10.41-.9,12.04-1.68.39-.21,1.93-1.46,2.32-1.46.6,0,3.96,3.05,3.96,3.7,0,.39-.17.47-1.59,1.12-.47.21-.64.47-.86.9-2.15,3.96-3.22,6.02-6.02,9.37,5.29,2.32,11.91,6.75,11.91,11.09,0,2.15-1.29,2.49-1.72,2.49ZM839.56,32.57c-.73,0-.95-.3-1.94-1.68-.39-.52-2.28-2.75-4.47-3.7,1.59-.09,3.14.21,5.2.95,1.08.39,2.28.95,2.28,2.84,0,.3,0,1.59-1.07,1.59ZM843.78,30.34c-.56,0-.77-.21-2.41-1.98-1.2-1.29-2.58-2.49-4.21-3.31,1.16-.04,7.74.09,7.74,3.83,0,1.03-.6,1.46-1.12,1.46Z"/><path class="cls-2" d="M874.63,33.39c-2.88.99-5.85,1.81-8.81,2.45-5.38,11.83-6.45,14.15-8.34,16.73-.13.21-.56.73-1.2.73-.56,0-1.68-.47-1.68-1.98,0-1.08.6-1.89.95-2.37,1.38-1.89,4.13-5.72,7.18-12.38-.95.21-2.15.47-3.61.47-3.78,0-4.56-2.15-4.56-3.14,0-.43.13-.82.3-1.25.69,1.29,1.98,1.89,4.47,1.89,1.33,0,2.62-.17,4.51-.6.21-.56,1.46-3.78,1.46-5.2,0-1.59-1.76-2.11-2.49-2.32.73-.65,1.5-1.03,2.45-1.03,1.63,0,4.43,1.81,4.43,3.05,0,.56-.56,1.29-.77,1.63-.82,1.25-1.03,1.68-1.68,2.88,1.07-.34,2.15-.77,3.1-1.2,1.98-.9,2.19-1.03,2.71-1.03.6,0,2.58.73,2.58,1.68,0,.56-.6.86-.99.99ZM885.43,44.01c-.77,0-1.46-.34-1.72-.47-1.89-1.03-2.54-1.38-4.08-1.38-4.13,0-4.39,3.35-4.39,5.03,0,2.28.47,4.21.77,5.55,4.08.73,8.26,2.84,8.26,5.2,0,.43-.26,1.89-1.42,1.89-.82,0-2.58-1.25-3.48-1.89-1.5-1.12-2.02-1.33-2.92-1.72-.04.95-.17,2.84-1.63,4.17-1.76,1.63-4.82,1.76-5.46,1.76-3.44,0-6.84-2.06-6.84-5.03,0-3.44,3.78-4.9,8.34-4.9.77,0,1.29.04,1.85.09-.26-2.24-.34-3.01-.34-4.04,0-5.2,5.12-6.75,6.92-7.31.17-.04.99-.21,1.12-.3.17-.13.21-.3.21-.43,0-.86-2.28-2.45-5.93-3.23,1.08-.34,2.06-.56,3.22-.56,5.29,0,8.94,3.57,8.94,6.02,0,.86-.43,1.55-1.42,1.55ZM869.3,54.55c-.82,0-5.2,0-5.2,2.54,0,1.81,2.92,2.41,4.52,2.41,4.34,0,4.3-3.44,4.26-4.52-.86-.26-1.46-.43-3.57-.43Z"/><path class="cls-2" d="M924.21,39.37c-.3.3-.34.47-.56,2.06-.39,2.49-1.68,10.71-4.73,15.39-1.12,1.76-2.71,2.54-3.53,2.54-.73,0-.99-.65-1.2-1.42-.82-2.92-.9-3.18-3.22-5.76l.13-.21c.56.26,3.05,1.46,3.57,1.68.9.39,1.03.43,1.29.43.6,0,.82-.3.99-.6,2.24-4,3.66-9.72,3.35-15.74-3.1.34-4.9.64-7.1.99-2.02,6.97-3.61,10.79-7.87,15.14-2.02,2.06-4.69,4.08-8,5.33l-.17-.21c6.06-5.12,10.28-12.04,12.47-19.65-1.38.21-5.25.86-6.11,1.38-1.07.64-1.2.69-1.72.69-1.03,0-3.57-2.58-3.57-4.39,0-.21.09-.39.21-.69,1.03.9,2.92,1.5,4.43,1.5.26,0,6.02-.69,7.4-.86.65-2.67,1.08-5.16,1.08-6.23,0-1.5-.6-2.24-1.89-3.23.34-.13,1.03-.43,1.98-.43,1.55,0,4.9,1.63,4.9,2.88,0,.39-.13.52-.9,1.42-.26.34-.39.69-.69,1.72-.13.56-.77,2.92-.9,3.4,1.68-.21,4.69-.6,5.03-.77.26-.13,1.2-1.03,1.42-1.16.17-.09.39-.13.69-.13.9,0,4.3,2.45,4.3,3.53,0,.3-.09.39-1.08,1.42Z"/><path class="cls-2" d="M968.31,45.69c-.69,0-1.76-.04-2.62-.13-.82-.04-11.31-.13-12.04-.13-2.49,0-9.07.13-11.05.69-.77.21-1.12.3-1.46.3-1.59,0-4-3.4-4-5.12,0-.56.17-1.29.69-2.41,1.5,3.01,2.54,3.53,7.65,3.53,2.49,0,17.42-.04,18.88-.56.64-.21,1.16-.43,1.72-.43.09,0,5.12.39,5.12,2.67,0,.73-.82,1.59-2.88,1.59Z"/><path class="cls-2" d="M1005.94,35.45c-.34.09-.86.26-1.29.52-3.1,1.98-3.66,2.32-8.9,5.5-2.84,10.75-5.03,16.17-12.13,19.74l-.13-.26c7.18-7.78,8.6-19.05,8.6-20.12,0-1.59-.65-1.85-3.14-2.71.95-.47,1.68-.82,2.58-.82,1.16,0,3.83.73,4.3,1.72.21.43.17.73.17.95,4.26-3.78,6.02-6.19,6.02-6.84,0-.17-.04-.3-.47-.3-.26,0-13.11,1.12-17.29,2.75-.34.13-1.81.82-2.11.82-.52,0-2.06-1.12-2.45-1.42-1.63-1.46-1.72-1.72-1.72-2.79,0-1.2.17-1.72.34-2.19,1.16,1.85,2.71,2.45,4.39,2.45,1.81,0,16.34-1.68,19.61-2.15.34-.09,1.76-.6,2.06-.6.86,0,4.51,3.66,4.51,4.47,0,.69-.13.73-2.97,1.29Z"/><path class="cls-2" d="M1043,36.92c-1.25.39-1.76,1.03-2.67,2.71-5.2,9.59-9.76,13.97-15.14,17.29-1.63.99-5.29,3.1-8.69,3.74l-.17-.3c9.42-5.76,17.29-14.23,21.71-24.47-.99.13-4.43.6-6.28.9-.21.04-.9.3-1.2.3-.43,0-1.16-.26-1.98-.73-3.87,4.69-5.72,6.28-11.48,9.67l-.3-.3c5.85-6.32,7.44-8.38,9.8-12.47.95-1.63,1.33-2.62,1.33-3.14,0-.47-1.46-1.59-2.37-2.11.69-.21,1.42-.39,2.15-.39,1.5,0,5.25,1.98,5.25,3.44,0,.47-.09.6-1.25,1.59-.56.52-.73.73-1.59,1.76,1.07.09,6.36-.26,7.35-.6.47-.17,2.28-1.46,2.71-1.46.34,0,.56.17,2.41,1.81,1.25,1.12,1.46,1.38,1.46,1.81,0,.6-.26.69-1.08.95Z"/><path class="cls-2" d="M1087,39.88c-.99.22-1.12.3-1.63.77-2.62,2.37-4.26,3.78-7.7,5.76l-.3-.17c2.15-2.54,4.43-6.28,5.2-8.26-1.89.6-10.19,3.31-11.87,3.83-.17,3.7-.3,7.65-.3,9.12,0,2.75.82,3.96,5.25,3.96,2.58,0,4.69-.43,6.62-.82.56-.13.82-.13,1.12-.13.95,0,3.1.52,3.53.9.21.17.43.52.43,1.08,0,1.85-2.58,2.15-7.35,2.15-11.35,0-12.43-1.59-12.43-10.96,0-2.11.04-3.44.09-4.34-3.05.95-6.02,2.37-6.75,2.75-.56.3-.9.47-1.29.47-.86,0-3.96-1.94-3.96-4.56,0-1.25.3-1.98.56-2.54,1.38,2.15,1.93,3.05,3.7,3.05,2.02,0,5.42-.99,7.78-1.68.04-.65.09-1.72.09-3.35,0-1.29,0-5.5-.47-6.45-.6-1.12-2.54-1.55-3.48-1.81,1.03-.82,2.45-1.33,3.23-1.33,1.29,0,5.16.82,5.16,2.19,0,.34-.3,1.29-.43,1.93-.26,1.08-.47,1.89-.95,7.91,1.63-.47,11.14-3.18,11.31-3.31.26-.17,1.33-.99,1.55-1.16.17-.13.3-.26.56-.26.65,0,1.89.95,3.91,2.49.34.26.9.69.9,1.46,0,.9-.39.95-2.06,1.29Z"/><path class="cls-2" d="M1127.99,58.67c-1.16,0-1.81-1.12-2.24-1.81-3.31-5.5-5.29-8.26-8.73-10.96-6.58,7.83-13.12,12-19.18,13.07v-.34c10.28-4.77,20.9-19.18,22.32-25.28-.13.04-8.73,1.59-11.01,2.71-1.25.64-1.42.69-1.76.69-.65,0-3.35-1.98-3.35-4.73,0-1.12.17-1.42.39-1.89,1.76,2.28,2.11,2.75,3.53,2.75,1.03,0,10.45-.82,12.21-1.93.3-.21,1.68-1.38,2.02-1.38.56,0,3.91,3.18,3.91,3.87,0,.47-.3.6-1.68,1.12-.39.17-.56.47-1.2,1.63-2.84,5.16-3.31,6.02-5.55,8.9,5.25,2.19,12,7.35,12,11.22,0,1.03-.39,2.37-1.68,2.37Z"/><line class="cls-4" x1="55.92" y1="74.6" x2="1266.36" y2="74.6"/><rect class="cls-1" width="90.56" height="90.56"/><path class="cls-3" d="M75.29,49.43c-.05-.77-.23-.87-.41-.96-.18-.09-.77-.91-.91-1.14-.14-.23-.09-3.28-.09-3.74s-.27-.46-.82-.91c.32-.32.18-.59-.77-.68-1.96-1.32-5.6-3.46-5.6-3.46,0,0,.27-.46.27-.64s-.41-.05-.96,0c-.55.05-2.55-.36-4.15-.46-.23-.01-.6-.04-1.07-.07.03-.03.05-.07.06-.11.06-.17.02-.28-.06-.34.31-.47,1.13-1.72,1.32-1.96.27-.36,0-.25-.11-.09-.1.13-1.11,1.56-1.43,2.01-.07,0-.15.03-.21.07-.11.07-.24.23-.34.37-3-.22-8.55-.59-12.6-.37-5.19.27-6.88,1.37-7.02,1.46-.14.09-2.69,1.23-4.46,2.37-1.78,1.14-4.87,3.1-4.87,3.1l-1,.41c-.73-.05-6.79.5-10.48,1.82-3.69,1.32-4.43,2.5-4.69,2.55-.45.09-.59,1.69-.59,1.69,0,0-.5.5-.64.64-.14.14-.09,1.05-.09,1.46s.27.55.41.64c.14.09.09,1.14.09,1.41s-.14.59.04.64c.18.05.55.23.64.36.09.14.96.32,1.78.27.81-.05,4.19,0,4.46,0,.76,1.55,2.38,2.62,4.24,2.62s3.61-1.16,4.33-2.81c.29,0,.47,0,.5,0q.23.05.73.05c.5,0,24.55-.59,25.33-.36.77.23,2.6.14,2.78,0,.03-.02.31-.06.77-.12.73,1.63,2.39,2.76,4.31,2.76,2.25,0,4.12-1.55,4.6-3.62.47-.04.76-.07.76-.07,2.41.09,3.05-.73,3.05-.73,0,0,1.27-.41,1.5-.5.23-.09,1-1.18,1.14-1.46.14-.27.32-1.32.27-2.1ZM47.23,43.17c-.03.17-.07.55-1.06.61-.99.07-11.21.89-11.31.89s1.98-.44,2.26-.55c.27-.1.44-.31.44-.68s-.03-1.3-.38-1.2c-.34.1-.65.17-.55,0,.1-.17,3.86-2.8,5.57-3.35,1.71-.55,5.74-.82,5.98-.82s.38.07.38.21c0,.4-1.3,4.71-1.33,4.89ZM59.43,43.07c-.68,0-9.09.48-9.47.51-.38.03-.41.07-.41-.51s.51-4.82.51-4.82c.1-.14.03-.27.48-.31.22-.02,1.81-.03,3.69.03,2.05.07,3.82.29,4.03.34.41.1,1.71,4.34,1.71,4.48s.14.27-.55.27ZM65.13,40.85c-.24.41-.96,1.16-1.16,1.37-.21.2-.38.41-.99.48-.61.07-1.33.21-1.47.17-.14-.03-.38-.31-.55-.62-.17-.31-1.85-3.72-1.85-3.72-.1-.17-.14-.48.51-.38.65.1,2.25.55,3.18.82.92.27,1.95.58,2.29.82.34.24.27.65.03,1.06Z"/></g></svg>