<?xml version="1.0" encoding="UTF-8"?>
<svg id="_レイヤー_2" data-name="レイヤー 2" xmlns="http://www.w3.org/2000/svg" viewBox="0 0 568.84 117.89">
  <defs>
    <style>
      .cls-1 {
        fill: #000;
      }

      .cls-1, .cls-2 {
        stroke-width: 0px;
      }

      .cls-2 {
        fill: #a08c67;
      }

      .cls-3 {
        stroke-dasharray: 0 0 .2 6.92;
      }

      .cls-3, .cls-4 {
        fill: none;
        stroke: #000;
        stroke-linecap: round;
        stroke-linejoin: round;
        stroke-width: 3px;
      }
    </style>
  </defs>
  <g id="_レイヤー_2-2" data-name="レイヤー 2">
    <g>
      <path class="cls-1" d="M6.95,2.71v39.75h-2.12V.6h15.37v2.12H6.95Z"/>
      <path class="cls-1" d="M65.92,40.71c-11.96-5.57-14.81-16.7-15.96-23-2.02,17.11-12.42,21.16-21.85,23.55l-.09-.41c13.11-5.57,16.79-14.63,18.22-26.41h-11.04c-3.22,0-4.09.18-4.97.32l-.78-1.7c2.21.18,4.37.28,6.58.28h10.3c.09-1.1.23-2.71.23-5.01,0-2.62-.32-5.34-.88-7.36l5.66,1.61c.32.09.78.23.78.64,0,.51-.92,1.15-1.43,1.47-.05,2.76-.09,5.89-.32,8.65h10.95l2.58-2.67c.23-.23.46-.6.74-.6s.55.28.87.51l3.27,2.67c.23.18.46.41.46.69,0,.51-.46.51-.74.51h-18.08c2.9,13.57,9.71,19.05,21.07,21.62v.37c-1.84.64-4.32,1.52-5.57,4.28Z"/>
      <path class="cls-1" d="M92.14,5.94c-.51,1.1-4,7.31-5.57,9.2,2.9,2.58,6.21,6.44,6.21,11,0,2.94-1.89,5.52-5.75,5.84-.23-1.7-1.2-3.5-2.67-4.6,0,1.06-.09,3.73,0,7.27,0,.74.28,4.14.28,4.69,0,2.71-2.67,2.71-3.04,2.71-.6,0-1.47-.23-1.47-1.43,0-.55.28-3.27.32-3.86.28-7.27.46-22.31.46-23,0-3.31-.05-10.12-.92-13.06l4.92,2.85h3.4l1.84-1.61c.18-.18.37-.32.6-.32s.46.18.64.32l2.3,1.98c.18.18.41.46.41.74,0,.55-1.24,1.01-1.98,1.29ZM85.93,15.14c1.98-5.01,2.3-7.73,2.62-10.49h-4.19c-.05,3.27,0,8.88,0,22.31.55.14,2.02.37,2.99.37.69,0,1.79,0,1.79-2.71,0-2.07-.83-5.8-3.22-9.48ZM115.56,41.04c-1.66-.87-5.57-3.63-9.11-7.87-2.44,2.85-5.93,5.75-14.54,8.14l-.09-.37c8.14-4.23,11-7.87,12.74-10.49-2.12-3.63-3.27-9.94-3.59-15.41h-1.66c0,7.59-.78,18.82-12.19,25.67l-.14-.28c7.5-8.51,8.65-15.18,8.65-27.05,0-5.38-.23-10.17-1.06-12.51l5.57,2.81h11.23l2.16-2.21c.23-.28.51-.55.74-.55.28,0,.55.28.88.51l2.94,2.16c.23.14.46.46.46.69,0,.41-.41.51-.69.51h-18.49c-.05,3.04-.05,6.12-.05,9.16h10.44l1.66-1.75c.18-.23.41-.46.64-.46s.46.18.69.37l2.62,2.21c.28.23.6.55.6.87,0,.55-1.61,1.38-1.98,1.56-1.06,5.25-3.86,10.86-5.57,13.66,3.31,3.27,7.68,5.11,12.19,6.21l.05.37c-2.9,1.01-4.69,3.45-5.11,4.05ZM101.71,15.04c.83,4.69,1.93,9.15,4.42,12.65,2.44-4.97,3.54-9.75,4-12.65h-8.42Z"/>
      <path class="cls-1" d="M150.24,28.2v10.86h10.86l2.12-2.85c.23-.32.41-.55.69-.55s.51.18.83.46l3.4,2.85c.32.28.46.41.46.74,0,.41-.37.46-.64.46h-33.91c-3.17,0-4.32.18-5.2.32l-.74-1.7c2.07.18,4.42.28,6.53.28h11.64v-10.86h-8.1c-3.22,0-4.09.14-4.97.28l-.78-1.66c2.12.18,4.46.28,6.58.28h17.48l2.21-2.53c.28-.32.46-.55.74-.55.23,0,.51.18.83.46l2.99,2.53c.28.23.46.41.46.74,0,.41-.41.46-.69.46h-12.79ZM153.69,8.24v7.91c0,.69.05,1.43.64,1.61.46.14,3.86.09,4.74.09,3.91,0,4.46,0,5.15-1.38.46-.92,1.2-2.94,1.56-4.05h.37c.18.83.92,4,1.79,4.69.6.46.97.69.97,1.52,0,1.61-1.7,2.3-2.76,2.53-1.7.32-9.29.37-11.82.37-2.94,0-4.42-.74-4.46-3.77v-9.52h-14.22c-.32,5.52-4.33,5.52-4.46,5.52-.37,0-2.07-.14-2.07-1.98,0-.96.18-1.33,2.25-2.67,2.71-1.75,3.22-3.08,3.68-4.28h.28c.14.64.28,1.24.32,2.3h10.9c.14-3.4-.46-5.29-1.01-6.99l5.06,1.29c.64.18,1.01.51,1.01.92,0,.46-.51.83-1.24,1.43v3.36h10.03l2.02-1.66c.51-.41.69-.46,1.01-.46.28,0,.51.14.83.46l2.94,2.71c.23.23.41.51.41.87,0,.69-.32.74-2.48,1.2-1.7,1.06-5.11,3.08-5.15,3.13l-.23-.23c.18-.83.64-3.54.87-4.92h-6.95ZM146.28,10.49c.46.23.64.41.64.69,0,.6-.69.83-1.56,1.01-2.76,5.29-6.26,9.16-15.6,11.59l-.18-.37c11.27-6.67,12.38-13.66,12.47-15.04l4.23,2.12Z"/>
      <path class="cls-1" d="M181.89,19.05c-.87,0-1.75-.46-2.62-2.35-.87-1.79-1.61-3.36-2.99-4.88v-.23c2.39.37,7.59,2.02,7.59,5.29,0,.78-.51,2.16-1.98,2.16ZM185.43,21.53c-.28,1.24-1.7,7.54-1.79,8.37-.05.37-.09.64-.09.92,0,1.43.55,3.59.69,4.19.69,2.71.83,3.17.83,3.86,0,1.24-.64,2.76-2.44,2.76-2.44,0-2.44-2.81-2.44-3.73,0-.51.18-2.9.18-3.41,0-1.15,0-3.96-3.13-5.11l.05-.6c1.61.05,2.25-.37,2.94-1.24,1.01-1.29,6.16-15.78,6.67-17.3l.37.09c-.23,2.25-.51,5.2-1.84,11.18ZM185.2,8.33c-1.2,0-2.12-1.01-2.62-2.12-.87-1.98-1.01-2.25-2.67-4.83v-.23c4.88.83,7.45,2.85,7.45,4.83,0,1.29-.92,2.35-2.16,2.35ZM217.45,26.64c-1.01.87-1.47,1.84-1.93,2.81-4.14-1.56-9.39-6.67-11.78-12.19h-5.11c-.74,1.15-2.02,3.27-5.06,6.72,2.53.18,5.15.28,6.3.28h2.21l1.1-1.06c.69-.69.78-.74.97-.74.28,0,.78.32.97.46l1.7,1.33c.32.28.51.55.51.96,0,.51-.09.6-1.01,1.61.05.78.18,4.46.18,5.11,0,1.2-1.24,1.61-2.21,1.61-.74,0-1.52-.23-1.56-1.15h-5.29v3.91c0,1.66.46,1.75,3.96,1.75,1.66,0,6.9,0,8.19-.87.92-.6,1.2-1.52,2.58-6.26h.32c.41,1.79,1.06,4.65,1.52,5.29.23.37.37.41.97.69.28.14.41.41.41.83,0,.09,0,2.12-2.81,3.08-2.39.83-8.56.83-9.85.83-8.97,0-8.97-1.06-9.02-4.6-.09-6.07-.09-6.72-.28-8.1l4.51,2.35h4.78v-5.93h-3.68c-2.85,0-3.82.09-5.01.28l-.64-1.43c-.51.55-4.37,4.88-8.46,7.08l-.14-.32c1.43-1.61,6.76-7.78,9.2-13.71-2.85,0-4,0-5.57.28l-.74-1.66c2.94.23,6.4.28,6.53.28,0-1.24,0-6.67-.05-7.82-2.07.04-2.99.09-4.46.32l-.74-1.7c2.02.18,3.27.23,5.2.28,0-4-.05-4.23-.78-7.22l4.69,1.33c.78.23,1.06.41,1.06.87,0,.37-.18.74-1.33,1.61v3.4h5.2c0-3.4,0-3.77-.97-6.99l4.97,1.33c.64.18.97.28.97.69,0,.64-.92,1.29-1.29,1.56-.05,2.53-.05,2.81-.05,3.4h1.84l1.66-2.3c.23-.32.37-.55.64-.55.32,0,.69.32.87.51l2.39,2.25c.32.32.46.46.46.74,0,.41-.37.46-.69.46h-7.22c0,1.24.05,6.72.05,7.82h4.37l1.66-2.35c.18-.28.41-.55.69-.55.18,0,.37.09.87.55l2.58,2.25c.28.23.46.41.46.69,0,.41-.41.51-.69.51h-11.73c2.3,3.04,6.95,6.9,14.4,7.78v.28c-.28.23-1.56,1.1-1.79,1.33ZM197.76,8.33c0,1.15,0,5.2.05,7.82h5.15c0-1.1.05-6.58.05-7.82h-5.25Z"/>
      <path class="cls-1" d="M227.06,42.1v-2.12h13.25V.23h2.12v41.87h-15.37Z"/>
      <path class="cls-1" d="M276.2,29.68c-.06,1.38-.03,3.33,0,4.47.03.69.21,3.99.21,4.35,0,1.23-1.26,1.44-1.83,1.44-1.05,0-1.05-.57-1.05-.9,0-.21.06-1.11.06-1.29h-16.98c0,.18.06.96.06,1.11,0,.54-.09,1.56-1.8,1.56-.54,0-1.08-.21-1.08-.81,0-.12.03-.36.03-.63.03-.45.12-5.13.12-7.23s-.06-2.73-.51-4.32l3.6.9c.18.03.51.15.51.45,0,.39-.6.66-.93.84-.06,2.52-.06,6.33-.03,7.41h7.23v-11.07h-5.4c.03.84-.33,1.59-1.77,1.59-.93,0-.93-.51-.93-.78,0-1.02.12-5.58.12-6.51,0-1.71,0-2.25-.57-4.62l3.54,1.23c.24.06.51.18.51.45,0,.42-.69.81-.9.96-.06,1.47-.06,1.83,0,6.96h5.4c-.03-1.11-.03-6.06-.06-7.05-.06-2.7-.36-3.45-.69-4.44l3.93,1.32c.27.09.45.15.45.39,0,.33-.42.57-.99.87,0,.21-.09,2.73-.09,2.76,0,.96,0,5.28-.03,6.15h5.61c.06-1.17.06-2.64.06-3.81,0-3.72-.09-4.14-.51-5.25l3.6,1.14c.39.12.45.27.45.45,0,.33-.33.54-.96.87-.03.57-.06,1.41-.06,2.64,0,.75.12,3.93.12,4.59,0,1.14-1.32,1.38-1.74,1.38-1.14,0-1.08-.6-1.02-1.29h-5.55v11.07h7.29c0-.33.06-3.3.03-5.28-.03-2.58-.18-3.21-.48-4.35l3.6,1.05c.21.06.39.12.39.39,0,.36-.45.6-.96.84Z"/>
      <path class="cls-1" d="M307.61,19.81v7.74c0,1.44.3,7.89.3,9.21,0,.93-.21,1.17-.36,1.32-.54.57-1.32.72-1.62.72-.06,0-.99,0-.99-.87,0-.24.09-1.38.09-1.62h-16.35c.06,1.53.12,2.88-2.01,2.88-1.05,0-1.05-.51-1.05-.84,0-.3.12-1.56.12-1.83.24-5.55.42-10.8.42-14.58,0-3.18-.21-4.32-.54-6.18l3.84,2.13h15.03l1.05-1.11c.15-.18.27-.42.45-.42s.36.21.48.3l2.13,1.47c.18.12.42.3.42.48,0,.21-.15.3-1.41,1.2ZM305.03,18.61h-16.38v16.98h16.38v-16.98Z"/>
      <path class="cls-1" d="M333.5,20.29c-.87.33-5.37,1.23-6.87,1.5-.09,1.5-.09,2.22-.09,3.93.63-.15,3.66-1.17,3.99-1.17.6,0,1.95.3,1.95,1.23,0,.54-.39.69-.6.75-.27.09-3.15.81-5.31,1.2.12,2.7.15,3.93.9,6.3,1.23.18,3.36.54,5.34,2.22.36.3.9.78.9,1.65,0,.63-.36,1.32-1.08,1.32-.51,0-.75-.18-1.62-.84-1.32-.99-2.19-1.47-3.45-2.04-.18,1.08-.63,3.87-5.4,3.87-3.12,0-5.31-1.68-5.31-3.39,0-3,4.62-3.3,6.42-3.3.75,0,1.26.03,1.8.09-.18-.78-.42-1.74-.48-5.55-.51.06-1.92.21-3.6.21-2.34,0-3.69-.36-3.69-1.53,0-.9,1.38-1.86,2.43-1.86-.39.57-.54.78-.54,1.17,0,.3.21.45.99.45,1.32,0,3.06-.15,4.38-.36,0-1.56,0-1.59.09-4.02-1.89.24-3.24.33-4.29.33-3.54,0-4.35-.6-5.34-2.7,1.41.57,2.34.93,4.41.93.78,0,2.46-.09,5.28-.54,0-.33.06-2.19.06-2.34,0-1.14-.15-1.77-2.37-2.43.66-.81,1.29-.9,1.92-.9,1.11,0,3.51.69,3.51,2.16,0,.27-.06.39-.51,1.53-.3.78-.36,1.11-.45,1.53.48-.12,1.29-.33,2.49-.72.42-.15,2.25-.87,2.61-.87.87,0,2.07.6,2.07,1.38,0,.39-.18.66-.54.81ZM321.68,35.23c-1.5,0-3.81.6-3.81,1.68,0,.42.63,1.35,3.03,1.35,1.02,0,2.28-.21,3.18-.69.81-.45.93-1.26.99-1.98-.87-.33-2.43-.36-3.39-.36Z"/>
      <path class="cls-1" d="M361.79,19.75c-1.77,0-3.93,0-5.4.45-3.12.96-6.48,4.89-6.48,9.36,0,1.44.63,4.44,4.74,5.7.63.18,3.57.75,4.08,1.05.72.42,1.02.93,1.02,1.56,0,1.14-.93,1.14-1.5,1.14-.75,0-3.06-.39-5.28-1.44-4.44-2.13-4.62-5.88-4.62-7.35,0-4.62,2.76-7.5,6.06-10.29-1.62-.15-7.14,2.04-9.72,3.24-1.5.69-1.68.75-2.1.75-.84,0-2.37-.93-2.37-2.85,0-.99.42-1.53.66-1.89.63,1.35,1.35,1.77,2.4,1.77.96,0,14.85-3.3,15.51-3.51,1.2-.42,1.8-.6,2.31-.6,1.41,0,2.82.9,2.82,1.8,0,1.11-.93,1.11-2.13,1.11ZM360.95,27.31c-.78,0-1.02-.45-1.59-1.62-.39-.78-1.47-2.16-2.31-3.12,1.77.51,4.89,1.41,4.89,3.57,0,.51-.24,1.17-.99,1.17ZM364.4,25.93c-.66,0-.93-.45-1.62-1.74-.69-1.26-1.92-2.16-2.61-2.64,2.22.12,5.28,1.41,5.28,3.27,0,.81-.66,1.11-1.05,1.11Z"/>
    </g>
    <g>
      <g>
        <path class="cls-1" d="M396.1,92.95c-2.49,5.1-7.02,8.94-9.3,10.2l-.15-.21c4.2-4.77,6.57-8.97,7.26-10.98.27-.75.39-1.35.48-1.92l2.58,1.74c.15.09.39.27.39.48,0,.36-.78.57-1.26.69ZM406.99,102.33c-.3,10.8-.9,12.99-6.3,13.47-.12-1.89-1.59-2.88-2.25-3.3l.03-.21c1.26.27,2.55.51,3.48.51,1.44,0,2.01-.33,2.46-3.06.36-2.22.54-7.23.45-8.64h-6.06c-.18,4.71-2.19,12.84-11.64,14.58l-.06-.24c6.09-2.82,9.18-7.35,9.48-14.34h-.87c-.75,0-2.19.03-3.54.3l-.57-1.2c1.86.15,3.69.18,4.59.18h8.49l.81-.72c.18-.18.36-.33.54-.33.15,0,.3.15.42.27l1.2,1.32c.15.15.27.33.27.48,0,.27-.09.33-.93.93ZM412.45,102.3c-3.21-1.38-6.78-4.62-9.03-11.4h-2.4c-1.5,0-2.1.12-2.52.18l-.39-1.05c1.35.12,2.67.15,3.27.15h1.5l.96-.96c.27-.27.39-.33.54-.33.18,0,.3.15.51.33l1.11,1.08c.18.15.24.27.24.45,0,.6-1.38.84-1.92.93,1.44,3.87,6.42,7.71,11.01,8.04l.03.3c-1.68.51-2.37,1.47-2.91,2.28Z"/>
        <path class="cls-1" d="M428.86,116.76c-4.68-3.75-7.11-9.15-7.11-14.52s2.43-10.77,7.11-14.52l.27.42c-5.58,5.91-5.7,11.91-5.7,14.1s.12,8.19,5.7,14.1l-.27.42Z"/>
        <path class="cls-1" d="M445,94.26c.24.12.39.3.39.54,0,.27-.33.45-1.26.63-.39.48-1.23,1.47-2.52,3.06-1.14,1.38-2.13,2.49-2.94,3.33.15,0,2.67-.12,4.26-.33-.12-.21-.48-.9-1.23-1.71l.15-.18c2.34.9,4.14,2.25,4.14,3.63,0,.57-.33,1.23-1.14,1.23-.72,0-1.02-.36-1.29-1.38-.03-.09-.15-.51-.33-.96l-2.73.6c0,1.29.09,7.44.09,8.01.03.6.12,3.3.12,3.84,0,.78-.69,1.29-1.44,1.29-.63,0-.81-.39-.81-.9,0-.48.12-2.46.12-2.88.03-.96.06-3.9.09-8.97-1.89.42-3.39.75-3.78.84-.18.3-.48.87-.75.87-.3,0-.48-.36-.54-.54l-.66-2.55c.51.12,1.38.21,2.13.21.93,0,2.31-.03,2.79-.06,2.04-2.76,3.87-6.57,4.29-7.77.12-.3.18-.84.18-1.2l2.67,1.35ZM433.15,114c1.29-2.91,2.16-6.72,2.1-8.76l2.46.9c.21.09.42.27.42.42,0,.21-.18.36-.96.66-.96,2.79-1.83,4.47-3.87,6.87l-.15-.09ZM434.29,94.29c.84.21,1.83.48,2.58.84.84-1.68,2.16-4.95,1.98-6.72l2.85,1.41c.24.12.36.3.36.45,0,.45-.45.54-1.14.66-1.41,1.8-1.62,2.07-3.66,4.41.87.54,1.77,1.35,1.77,2.37,0,.69-.45,1.44-1.23,1.44-.69,0-.87-.36-1.53-1.83-.69-1.56-1.38-2.22-2.01-2.85l.03-.18ZM441.37,105.72c1.23.54,4.23,1.89,4.23,3.93,0,.96-.69,1.47-1.32,1.47-.81,0-.96-.6-1.35-1.98-.42-1.56-.99-2.43-1.65-3.3l.09-.12ZM455.71,96.04l.9-.84c.15-.15.33-.33.42-.33.12,0,.33.18.42.27l1.44,1.23c.15.12.27.3.27.45,0,.21-.57.63-1.11,1.02-.18,8.31-.24,12.03-1.83,15.09-1.11,2.13-3,2.91-4.65,2.94-.24-1.41-1.17-2.34-2.73-3.39l.03-.18c1.38.27,3.21.6,3.99.6,3.03,0,3.18-9.9,3.18-12.99,0-.51-.03-2.64-.03-3.15h-8.1c-1.47,2.79-2.49,3.81-2.94,4.29l-.18-.12c2.22-4.41,3.24-9.48,3.24-11.04,0-.3-.09-.87-.15-1.14l3.24,1.38c.15.06.33.21.33.42,0,.3-.45.51-1.17.84-.33.96-.87,2.46-1.98,4.65h7.41ZM447.52,101.76c2.85,1.17,4.26,2.13,4.26,3.75,0,.72-.36,1.41-1.2,1.41-.78,0-1.02-.33-1.68-2.4-.24-.78-.81-1.8-1.5-2.58l.12-.18Z"/>
        <path class="cls-1" d="M464.68,112.68h1.65c1.56,0,2.1-.6,2.1-1.83v-16.23c0-.93-.87-1.08-1.44-1.08h-2.28v-.93h.54c2.31,0,4.53-1.05,4.89-1.26.21-.12.3-.18.42-.18.27,0,.33.18.33.42v19.26c0,1.29.63,1.83,2.1,1.83h1.65v.96h-9.96v-.96Z"/>
        <path class="cls-1" d="M492.04,107.61c0,3.48-2.73,6.6-7.08,6.6-3.42,0-6.48-1.98-6.48-5.4,0-3.24,2.58-4.77,5.34-6.39-1.59-.93-4.47-2.61-4.47-5.88,0-2.97,2.34-5.37,6-5.37,4.11,0,5.49,3.06,5.49,4.74,0,2.55-2.46,4.41-3.75,5.37,2.82,1.74,4.95,3.24,4.95,6.33ZM481,108.72c0,2.64,1.98,4.47,4.32,4.47,2.61,0,4.56-2.31,4.56-4.53,0-2.85-2.97-4.53-5.16-5.76-1.35,1.02-3.72,2.85-3.72,5.82ZM488.65,96.24c0-2.28-1.53-4.05-3.72-4.05s-3.54,1.62-3.54,3.57c0,2.1,1.71,3.15,4.83,5.01.87-.75,2.43-2.04,2.43-4.53Z"/>
        <path class="cls-1" d="M497.89,112.47c.03.99-.81,1.74-1.74,1.74-.99,0-1.74-.78-1.74-1.74s.75-1.74,1.74-1.74c.93,0,1.74.78,1.74,1.74Z"/>
        <path class="cls-1" d="M513.79,107.61c0,3.48-2.73,6.6-7.08,6.6-3.42,0-6.48-1.98-6.48-5.4,0-3.24,2.58-4.77,5.34-6.39-1.59-.93-4.47-2.61-4.47-5.88,0-2.97,2.34-5.37,6-5.37,4.11,0,5.49,3.06,5.49,4.74,0,2.55-2.46,4.41-3.75,5.37,2.82,1.74,4.95,3.24,4.95,6.33ZM502.75,108.72c0,2.64,1.98,4.47,4.32,4.47,2.61,0,4.56-2.31,4.56-4.53,0-2.85-2.97-4.53-5.16-5.76-1.35,1.02-3.72,2.85-3.72,5.82ZM510.4,96.24c0-2.28-1.53-4.05-3.72-4.05s-3.54,1.62-3.54,3.57c0,2.1,1.71,3.15,4.83,5.01.87-.75,2.43-2.04,2.43-4.53Z"/>
        <path class="cls-1" d="M520.6,106.38l4.35-4.23c.21-.18.39-.45.39-.78,0-.48-.6-.96-1.26-.96h-.57v-.96h7.47v.96h-.63c-1.68,0-2.97.75-4.59,2.31l-1.26,1.23,3.57,6.03c1.02,1.71,1.98,2.7,3.45,2.7v.96h-6.66v-.96c.36,0,1.56,0,1.56-.96,0-.21-.09-.45-.18-.6l-3.33-5.61-2.31,2.22v3.15c0,1.8,1.08,1.8,2.22,1.8v.96h-6.6v-.96h.72c.84,0,1.5-.57,1.5-1.8v-16.71c0-1.26-1.08-1.47-1.98-1.38l-.12-.54,4.26-1.05v15.18Z"/>
        <path class="cls-1" d="M538.18,98.88v2.37c.81-.81,2.37-2.37,4.95-2.37,2.82,0,3.36,1.83,3.6,2.7,1.02-.99,2.67-2.7,5.37-2.7s3.84,1.59,3.84,4.92v7.08c0,1.14.6,1.8,1.5,1.8h.57v.96h-6.27v-.96h.54c1.05,0,1.53-.81,1.53-1.8v-6.9c0-.84-.15-3.81-2.64-3.81-.84,0-2.73.48-4.23,2.61,0,.24.03.48.03,1.02v7.08c0,1.26.69,1.8,1.5,1.8h.87v.96h-6.87v-.96h.87c.81,0,1.5-.57,1.5-1.8v-6.9c0-.63-.06-3.81-2.61-3.81-.72,0-2.64.39-4.05,2.37v8.34c0,1.26.72,1.8,1.5,1.8h.54v.96h-6.24v-.96h.54c.9,0,1.5-.63,1.5-1.8v-9.03c0-.93-.51-1.41-1.23-1.41-.33,0-.63.03-.9.12l-.12-.57,4.41-1.11Z"/>
        <path class="cls-1" d="M561.73,116.76l-.27-.42c5.58-5.91,5.7-11.91,5.7-14.1s-.12-8.19-5.7-14.1l.27-.42c4.68,3.75,7.11,9.15,7.11,14.52s-2.43,10.77-7.11,14.52Z"/>
      </g>
      <path class="cls-1" d="M283.74,94.26c.24.12.39.3.39.54,0,.27-.33.45-1.26.63-.39.48-1.23,1.47-2.52,3.06-1.14,1.38-2.13,2.49-2.94,3.33.15,0,2.67-.12,4.26-.33-.12-.21-.48-.9-1.23-1.71l.15-.18c2.34.9,4.14,2.25,4.14,3.63,0,.57-.33,1.23-1.14,1.23-.72,0-1.02-.36-1.29-1.38-.03-.09-.15-.51-.33-.96l-2.73.6c0,1.29.09,7.44.09,8.01.03.6.12,3.3.12,3.84,0,.78-.69,1.29-1.44,1.29-.63,0-.81-.39-.81-.9,0-.48.12-2.46.12-2.88.03-.96.06-3.9.09-8.97-1.89.42-3.39.75-3.78.84-.18.3-.48.87-.75.87-.3,0-.48-.36-.54-.54l-.66-2.55c.51.12,1.38.21,2.13.21.93,0,2.31-.03,2.79-.06,2.04-2.76,3.87-6.57,4.29-7.77.12-.3.18-.84.18-1.2l2.67,1.35ZM271.89,114c1.29-2.91,2.16-6.72,2.1-8.76l2.46.9c.21.09.42.27.42.42,0,.21-.18.36-.96.66-.96,2.79-1.83,4.47-3.87,6.87l-.15-.09ZM273.03,94.29c.84.21,1.83.48,2.58.84.84-1.68,2.16-4.95,1.98-6.72l2.85,1.41c.24.12.36.3.36.45,0,.45-.45.54-1.14.66-1.41,1.8-1.62,2.07-3.66,4.41.87.54,1.77,1.35,1.77,2.37,0,.69-.45,1.44-1.23,1.44-.69,0-.87-.36-1.53-1.83-.69-1.56-1.38-2.22-2.01-2.85l.03-.18ZM280.11,105.72c1.23.54,4.23,1.89,4.23,3.93,0,.96-.69,1.47-1.32,1.47-.81,0-.96-.6-1.35-1.98-.42-1.56-.99-2.43-1.65-3.3l.09-.12ZM294.45,96.04l.9-.84c.15-.15.33-.33.42-.33.12,0,.33.18.42.27l1.44,1.23c.15.12.27.3.27.45,0,.21-.57.63-1.11,1.02-.18,8.31-.24,12.03-1.83,15.09-1.11,2.13-3,2.91-4.65,2.94-.24-1.41-1.17-2.34-2.73-3.39l.03-.18c1.38.27,3.21.6,3.99.6,3.03,0,3.18-9.9,3.18-12.99,0-.51-.03-2.64-.03-3.15h-8.1c-1.47,2.79-2.49,3.81-2.94,4.29l-.18-.12c2.22-4.41,3.24-9.48,3.24-11.04,0-.3-.09-.87-.15-1.14l3.24,1.38c.15.06.33.21.33.42,0,.3-.45.51-1.17.84-.33.96-.87,2.46-1.98,4.65h7.41ZM286.26,101.76c2.85,1.17,4.26,2.13,4.26,3.75,0,.72-.36,1.41-1.2,1.41-.78,0-1.02-.33-1.68-2.4-.24-.78-.81-1.8-1.5-2.58l.12-.18Z"/>
      <g>
        <path class="cls-2" d="M307.98,116.25c9.53-9.89,16-17.15,19.41-21.78s5.12-9.15,5.12-13.54c0-3.85-1.04-6.78-3.12-8.8s-4.57-3.02-7.46-3.02c-3.57,0-6.46,1.3-8.67,3.9-1.22,1.43-2.4,3.63-3.52,6.6l-1.68-.35c1.3-5.99,3.51-10.14,6.62-12.47,3.11-2.33,6.45-3.49,10.02-3.49,4.4,0,7.96,1.39,10.68,4.16,2.72,2.77,4.08,6.16,4.08,10.17,0,4.27-1.47,8.38-4.42,12.33-2.94,3.96-9.34,10.99-19.19,21.12h17.94c2.5,0,4.26-.3,5.28-.9,1.02-.6,2.16-2.05,3.44-4.37l1.02.47-4.34,10.89h-31.21v-.9Z"/>
        <path class="cls-2" d="M377.68,72.82c2.63,5.08,3.95,10.91,3.95,17.5,0,5.18-.81,10.06-2.42,14.65-3.05,8.62-8.32,12.93-15.82,12.93-5.13,0-9.35-2.33-12.66-6.99-3.54-4.97-5.31-11.73-5.31-20.27,0-6.72,1.18-12.5,3.55-17.34,3.2-6.59,8.12-9.88,14.77-9.88,5.99,0,10.64,3.14,13.95,9.41ZM371.74,109.38c1.43-4.19,2.15-10.25,2.15-18.19,0-6.32-.43-11.37-1.29-15.14-1.62-7.03-4.64-10.54-9.06-10.54s-7.46,3.62-9.1,10.85c-.86,3.85-1.29,8.93-1.29,15.22,0,5.91.44,10.63,1.33,14.17,1.67,6.61,4.79,9.91,9.38,9.91,3.83,0,6.46-2.1,7.89-6.29Z"/>
      </g>
    </g>
    <g>
      <line class="cls-4" x1="1.5" y1="101.97" x2="1.6" y2="101.97"/>
      <line class="cls-3" x1="8.52" y1="101.97" x2="254.21" y2="101.97"/>
      <line class="cls-4" x1="257.67" y1="101.97" x2="257.77" y2="101.97"/>
    </g>
  </g>
</svg>