<?xml version="1.0" encoding="UTF-8"?>
<svg id="_レイヤー_2" data-name="レイヤー 2" xmlns="http://www.w3.org/2000/svg" viewBox="0 0 572.65 122.21">
  <defs>
    <style>
      .cls-1 {
        fill: #000;
      }

      .cls-1, .cls-2 {
        stroke-width: 0px;
      }

      .cls-2 {
        fill: #a08c67;
      }

      .cls-3 {
        stroke-dasharray: 0 0 .2 6.92;
      }

      .cls-3, .cls-4 {
        fill: none;
        stroke: #000;
        stroke-linecap: round;
        stroke-linejoin: round;
        stroke-width: 3px;
      }
    </style>
  </defs>
  <g id="_レイヤー_2-2" data-name="レイヤー 2">
    <g>
      <path class="cls-1" d="M6.95,3.63v39.75h-2.12V1.52h15.37v2.12H6.95Z"/>
      <path class="cls-1" d="M69.79,40.16h-35.01c-2.81,0-3.82.09-4.97.32l-.74-1.7c2.81.23,6.03.28,6.53.28h12.65c0-1.75.05-12.01.05-12.74h-6.12c-2.81,0-3.82.14-4.97.32l-.74-1.7c2.81.28,6.03.28,6.53.28h5.29l.05-10.95h-8.97c-1.98,4.88-4.37,9.66-9.8,14.08l-.28-.32c4.88-8.65,8.37-18.36,8.37-22.96,0-.41-.04-.51-.14-.97l5.57,2.12c.28.09.51.28.51.64,0,.74-1.61,1.15-1.79,1.2-.92,2.53-1.38,3.73-1.98,5.11h8.51c0-6.53.05-9.34-.83-11.78l5.61,1.56c.41.09.64.32.64.64s-.14.46-1.33,1.56c-.18,1.52-.18,2.16-.23,8h8l1.79-2.67c.14-.23.37-.55.69-.55.28,0,.55.23.88.46l3.27,2.53c.18.14.46.41.46.69,0,.37-.28.64-.69.64h-14.4c0,3.04-.05,7.91-.05,10.95h5.66l2.12-2.76c.23-.28.46-.55.74-.55s.55.23.83.46l3.59,2.76c.23.18.46.46.46.74,0,.41-.41.46-.69.46h-12.74c0,2.02-.05,10.95-.05,12.74h10.54l2.58-2.71c.37-.37.51-.55.69-.55.23,0,.41.18.83.51l3.27,2.67c.32.28.51.41.51.69,0,.41-.37.51-.69.51Z"/>
      <path class="cls-1" d="M114.46,9.66c-.09,4.46.05,17.11.23,24.06,0,.74.18,3.82.18,4.46,0,2.81-2.53,2.81-2.81,2.81-1.84,0-1.79-1.24-1.7-3.04h-24.47c0,.32.05,1.7,0,1.98-.23,1.06-1.89,1.66-3.08,1.66-.97,0-1.66-.41-1.66-1.7,0-2.07.28-5.47.32-7.59.09-4.14.18-8.97.18-14.81,0-3.31,0-9.29-.28-11.32-.09-.78-.23-1.43-.37-2.07l5.06,2.53h24.15l1.43-1.29c.23-.18.41-.46.69-.46.18,0,.37.09.6.28l2.81,2.12c.28.18.51.37.51.69,0,.51-.18.6-1.79,1.7ZM95.82,7.73h-9.94v13.85h9.94V7.73ZM95.82,22.68h-9.94v14.17h9.94v-14.17ZM110.36,7.73h-10.67v13.85h10.67V7.73ZM110.36,22.68h-10.67v14.17h10.67v-14.17Z"/>
      <path class="cls-1" d="M135.89,6.72c.05,4.69.14,14.58-.14,18.72-.37,6.3-4,13.25-9.25,15.96l-.23-.28c4.33-5.2,5.94-10.12,5.94-22.82,0-4.23-.09-11.22-.78-15.18l5.52,1.61c.46.14.74.23.74.6,0,.74-1.2,1.2-1.79,1.38ZM148.08,7.5c-.04,1.98-.14,4.97-.14,9.66,0,5.61.09,10.9.23,15.37.05,1.66.09,2.76.09,2.94,0,2.58-2.3,2.62-2.71,2.62-1.61,0-1.61-1.38-1.61-1.93,0-.09.14-2.94.18-3.5.18-4.74.23-13.25.23-15.13,0-6.03-.09-9.98-.83-13.43l5.15,1.33c.09.05.78.23.78.74s-.51.87-1.38,1.33ZM161.84,6.58c-.05,2.67-.09,4.97-.09,11,0,2.81,0,11.73.23,18.45,0,.64.04,2.16.04,3.54,0,.64,0,2.81-2.67,2.81-1.43,0-1.84-.87-1.84-1.79,0-1.06.28-5.57.28-6.49.09-6.21.14-11.64.14-15.69,0-9.71-.09-11.22-.28-12.83-.14-1.47-.32-2.02-.6-2.81l5.52,1.7c.64.18.92.46.92.78,0,.6-1.2,1.15-1.66,1.33Z"/>
      <path class="cls-1" d="M192.15,44.53c-5.75-3.73-11.04-12.01-11.04-22.27s5.29-18.54,11.04-22.27l.46.64c-4.83,4.42-8.33,12.84-8.33,21.62s3.5,17.21,8.33,21.62l-.46.64Z"/>
      <path class="cls-1" d="M232.45,37.08l2.85-3.59c.37-.46.46-.6.69-.6.32,0,.78.46.87.51l4.05,3.63c.41.37.51.46.51.69,0,.55-.55.55-.74.55h-32.94c-2.81,0-3.82.09-4.97.28l-.74-1.75c2.16.18,4.37.28,6.53.28h23.88ZM231.62,7.41l2.21-3.04c.23-.32.37-.6.64-.6s.64.28.87.46l4.05,3.13c.18.14.51.41.51.69,0,.46-.37.55-.74.55h-29.67c-2.81,0-3.82.09-4.97.32l-.78-1.79c2.21.18,4.37.28,6.58.28h21.3ZM227.85,21.25l2.62-3.04c.37-.41.46-.55.74-.55.18,0,.23.09.83.51l4.1,3.04s.46.37.46.74c0,.41-.46.51-.74.51h-23.92c-2.85,0-3.82.09-4.97.32l-.78-1.79c2.21.23,4.37.28,6.58.28h15.09Z"/>
      <path class="cls-1" d="M287.92,10.95c-.28.14-2.94,2.02-4.42,3.04l-.32-.14c.18-.83.83-4.28,1.1-5.57h-27.1c-.28,4.69-3.08,6.17-4.69,6.17-1.1,0-2.3-.97-2.3-2.03,0-1.61,1.11-2.35,2.58-3.31,2.85-1.84,3.36-3.45,3.86-5.01h.32c.09.92.18,1.61.23,3.08h12.33c.05-3.36-.64-5.01-1.24-6.35l5.57,1.47c.41.09.87.28.87.74s-.14.55-1.33,1.29v2.85h10.67l2.02-1.61c.28-.18.6-.41.74-.41.18,0,.64.41.83.55l3.13,2.99c.37.32.41.74.41.97,0,1.24-1.24,1.24-3.27,1.29ZM284.7,32.2c0,1.38.14,7.45.14,8.69,0,.6,0,2.48-2.39,2.48-.09,0-1.52,0-1.52-1.56v-.78h-20.29c.09,1.61-1.43,2.35-2.35,2.35-1.75,0-1.84-1.52-1.84-2.3,0-1.06.14-5.71.14-6.67,0-5.52-.14-6.21-.28-7.08l5.06,2.25h5.8c.09-.46.51-2.71.6-3.13.18-1.15.28-2.02.32-2.62h-5.06c-.05.74-.18,2.35-2.35,2.35-1.01,0-1.89-.46-1.89-1.43,0-1.47.23-3.87.23-5.34,0-5.34-.18-6.35-.51-7.91l4.6,2.44h14.58l1.52-1.61c.23-.23.41-.41.6-.41.23,0,.41.18.74.46l2.44,1.98c.32.28.41.32.41.55,0,.41-.97,1.06-1.47,1.33v3.73c0,.55.28,2.95.28,3.45,0,2.16-2.12,2.16-2.71,2.16-.83,0-1.24-.55-1.24-1.38v-.37h-5.57c-1.56,2.44-2.94,4.09-4.6,5.75h12.19l1.43-1.7c.18-.18.55-.6.78-.6.28,0,.64.23.87.46l2.21,2.02s.51.51.51.97c0,.41-.14.55-1.38,1.47ZM280.93,30.69h-20.33v9.25h20.33v-9.25ZM278.26,15.04h-15.23v7.68h15.23v-7.68Z"/>
      <path class="cls-1" d="M300.84,44.53l-.46-.64c4.83-4.42,8.33-12.84,8.33-21.62s-3.5-17.21-8.33-21.62l.46-.64c5.75,3.73,11.04,12.01,11.04,22.27s-5.29,18.54-11.04,22.27Z"/>
      <path class="cls-1" d="M326.93,43.01v-2.12h13.25V1.15h2.12v41.87h-15.37Z"/>
      <path class="cls-1" d="M376.07,30.6c-.06,1.38-.03,3.33,0,4.47.03.69.21,3.99.21,4.35,0,1.23-1.26,1.44-1.83,1.44-1.05,0-1.05-.57-1.05-.9,0-.21.06-1.11.06-1.29h-16.98c0,.18.06.96.06,1.11,0,.54-.09,1.56-1.8,1.56-.54,0-1.08-.21-1.08-.81,0-.12.03-.36.03-.63.03-.45.12-5.13.12-7.23s-.06-2.73-.51-4.32l3.6.9c.18.03.51.15.51.45,0,.39-.6.66-.93.84-.06,2.52-.06,6.33-.03,7.41h7.23v-11.07h-5.4c.03.84-.33,1.59-1.77,1.59-.93,0-.93-.51-.93-.78,0-1.02.12-5.58.12-6.51,0-1.71,0-2.25-.57-4.62l3.54,1.23c.24.06.51.18.51.45,0,.42-.69.81-.9.96-.06,1.47-.06,1.83,0,6.96h5.4c-.03-1.11-.03-6.06-.06-7.05-.06-2.7-.36-3.45-.69-4.44l3.93,1.32c.27.09.45.15.45.39,0,.33-.42.57-.99.87,0,.21-.09,2.73-.09,2.76,0,.96,0,5.28-.03,6.15h5.61c.06-1.17.06-2.64.06-3.81,0-3.72-.09-4.14-.51-5.25l3.6,1.14c.39.12.45.27.45.45,0,.33-.33.54-.96.87-.03.57-.06,1.41-.06,2.64,0,.75.12,3.93.12,4.59,0,1.14-1.32,1.38-1.74,1.38-1.14,0-1.08-.6-1.02-1.29h-5.55v11.07h7.29c0-.33.06-3.3.03-5.28-.03-2.58-.18-3.21-.48-4.35l3.6,1.05c.21.06.39.12.39.39,0,.36-.45.6-.96.84Z"/>
      <path class="cls-1" d="M407.48,20.73v7.74c0,1.44.3,7.89.3,9.21,0,.93-.21,1.17-.36,1.32-.54.57-1.32.72-1.62.72-.06,0-.99,0-.99-.87,0-.24.09-1.38.09-1.62h-16.35c.06,1.53.12,2.88-2.01,2.88-1.05,0-1.05-.51-1.05-.84,0-.3.12-1.56.12-1.83.24-5.55.42-10.8.42-14.58,0-3.18-.21-4.32-.54-6.18l3.84,2.13h15.03l1.05-1.11c.15-.18.27-.42.45-.42s.36.21.48.3l2.13,1.47c.18.12.42.3.42.48,0,.21-.15.3-1.41,1.2ZM404.9,19.53h-16.38v16.98h16.38v-16.98Z"/>
      <path class="cls-1" d="M433.37,21.21c-.87.33-5.37,1.23-6.87,1.5-.09,1.5-.09,2.22-.09,3.93.63-.15,3.66-1.17,3.99-1.17.6,0,1.95.3,1.95,1.23,0,.54-.39.69-.6.75-.27.09-3.15.81-5.31,1.2.12,2.7.15,3.93.9,6.3,1.23.18,3.36.54,5.34,2.22.36.3.9.78.9,1.65,0,.63-.36,1.32-1.08,1.32-.51,0-.75-.18-1.62-.84-1.32-.99-2.19-1.47-3.45-2.04-.18,1.08-.63,3.87-5.4,3.87-3.12,0-5.31-1.68-5.31-3.39,0-3,4.62-3.3,6.42-3.3.75,0,1.26.03,1.8.09-.18-.78-.42-1.74-.48-5.55-.51.06-1.92.21-3.6.21-2.34,0-3.69-.36-3.69-1.53,0-.9,1.38-1.86,2.43-1.86-.39.57-.54.78-.54,1.17,0,.3.21.45.99.45,1.32,0,3.06-.15,4.38-.36,0-1.56,0-1.59.09-4.02-1.89.24-3.24.33-4.29.33-3.54,0-4.35-.6-5.34-2.7,1.41.57,2.34.93,4.41.93.78,0,2.46-.09,5.28-.54,0-.33.06-2.19.06-2.34,0-1.14-.15-1.77-2.37-2.43.66-.81,1.29-.9,1.92-.9,1.11,0,3.51.69,3.51,2.16,0,.27-.06.39-.51,1.53-.3.78-.36,1.11-.45,1.53.48-.12,1.29-.33,2.49-.72.42-.15,2.25-.87,2.61-.87.87,0,2.07.6,2.07,1.38,0,.39-.18.66-.54.81ZM421.55,36.15c-1.5,0-3.81.6-3.81,1.68,0,.42.63,1.35,3.03,1.35,1.02,0,2.28-.21,3.18-.69.81-.45.93-1.26.99-1.98-.87-.33-2.43-.36-3.39-.36Z"/>
      <path class="cls-1" d="M461.66,20.67c-1.77,0-3.93,0-5.4.45-3.12.96-6.48,4.89-6.48,9.36,0,1.44.63,4.44,4.74,5.7.63.18,3.57.75,4.08,1.05.72.42,1.02.93,1.02,1.56,0,1.14-.93,1.14-1.5,1.14-.75,0-3.06-.39-5.28-1.44-4.44-2.13-4.62-5.88-4.62-7.35,0-4.62,2.76-7.5,6.06-10.29-1.62-.15-7.14,2.04-9.72,3.24-1.5.69-1.68.75-2.1.75-.84,0-2.37-.93-2.37-2.85,0-.99.42-1.53.66-1.89.63,1.35,1.35,1.77,2.4,1.77.96,0,14.85-3.3,15.51-3.51,1.2-.42,1.8-.6,2.31-.6,1.41,0,2.82.9,2.82,1.8,0,1.11-.93,1.11-2.13,1.11ZM460.82,28.23c-.78,0-1.02-.45-1.59-1.62-.39-.78-1.47-2.16-2.31-3.12,1.77.51,4.89,1.41,4.89,3.57,0,.51-.24,1.17-.99,1.17ZM464.27,26.85c-.66,0-.93-.45-1.62-1.74-.69-1.26-1.92-2.16-2.61-2.64,2.22.12,5.28,1.41,5.28,3.27,0,.81-.66,1.11-1.05,1.11Z"/>
    </g>
    <g>
      <g>
        <path class="cls-1" d="M399.91,97.26c-2.49,5.1-7.02,8.94-9.3,10.2l-.15-.21c4.2-4.77,6.57-8.97,7.26-10.98.27-.75.39-1.35.48-1.92l2.58,1.74c.15.09.39.27.39.48,0,.36-.78.57-1.26.69ZM410.8,106.65c-.3,10.8-.9,12.99-6.3,13.47-.12-1.89-1.59-2.88-2.25-3.3l.03-.21c1.26.27,2.55.51,3.48.51,1.44,0,2.01-.33,2.46-3.06.36-2.22.54-7.23.45-8.64h-6.06c-.18,4.71-2.19,12.84-11.64,14.58l-.06-.24c6.09-2.82,9.18-7.35,9.48-14.34h-.87c-.75,0-2.19.03-3.54.3l-.57-1.2c1.86.15,3.69.18,4.59.18h8.49l.81-.72c.18-.18.36-.33.54-.33.15,0,.3.15.42.27l1.2,1.32c.15.15.27.33.27.48,0,.27-.09.33-.93.93ZM416.26,106.62c-3.21-1.38-6.78-4.62-9.03-11.4h-2.4c-1.5,0-2.1.12-2.52.18l-.39-1.05c1.35.12,2.67.15,3.27.15h1.5l.96-.96c.27-.27.39-.33.54-.33.18,0,.3.15.51.33l1.11,1.08c.18.15.24.27.24.45,0,.6-1.38.84-1.92.93,1.44,3.87,6.42,7.71,11.01,8.04l.03.3c-1.68.51-2.37,1.47-2.91,2.28Z"/>
        <path class="cls-1" d="M432.67,121.08c-4.68-3.75-7.11-9.15-7.11-14.52s2.43-10.77,7.11-14.52l.27.42c-5.58,5.91-5.7,11.91-5.7,14.1s.12,8.19,5.7,14.1l-.27.42Z"/>
        <path class="cls-1" d="M448.81,98.58c.24.12.39.3.39.54,0,.27-.33.45-1.26.63-.39.48-1.23,1.47-2.52,3.06-1.14,1.38-2.13,2.49-2.94,3.33.15,0,2.67-.12,4.26-.33-.12-.21-.48-.9-1.23-1.71l.15-.18c2.34.9,4.14,2.25,4.14,3.63,0,.57-.33,1.23-1.14,1.23-.72,0-1.02-.36-1.29-1.38-.03-.09-.15-.51-.33-.96l-2.73.6c0,1.29.09,7.44.09,8.01.03.6.12,3.3.12,3.84,0,.78-.69,1.29-1.44,1.29-.63,0-.81-.39-.81-.9,0-.48.12-2.46.12-2.88.03-.96.06-3.9.09-8.97-1.89.42-3.39.75-3.78.84-.18.3-.48.87-.75.87-.3,0-.48-.36-.54-.54l-.66-2.55c.51.12,1.38.21,2.13.21.93,0,2.31-.03,2.79-.06,2.04-2.76,3.87-6.57,4.29-7.77.12-.3.18-.84.18-1.2l2.67,1.35ZM436.96,118.32c1.29-2.91,2.16-6.72,2.1-8.76l2.46.9c.21.09.42.27.42.42,0,.21-.18.36-.96.66-.96,2.79-1.83,4.47-3.87,6.87l-.15-.09ZM438.1,98.61c.84.21,1.83.48,2.58.84.84-1.68,2.16-4.95,1.98-6.72l2.85,1.41c.24.12.36.3.36.45,0,.45-.45.54-1.14.66-1.41,1.8-1.62,2.07-3.66,4.41.87.54,1.77,1.35,1.77,2.37,0,.69-.45,1.44-1.23,1.44-.69,0-.87-.36-1.53-1.83-.69-1.56-1.38-2.22-2.01-2.85l.03-.18ZM445.18,110.04c1.23.54,4.23,1.89,4.23,3.93,0,.96-.69,1.47-1.32,1.47-.81,0-.96-.6-1.35-1.98-.42-1.56-.99-2.43-1.65-3.3l.09-.12ZM459.52,100.35l.9-.84c.15-.15.33-.33.42-.33.12,0,.33.18.42.27l1.44,1.23c.15.12.27.3.27.45,0,.21-.57.63-1.11,1.02-.18,8.31-.24,12.03-1.83,15.09-1.11,2.13-3,2.91-4.65,2.94-.24-1.41-1.17-2.34-2.73-3.39l.03-.18c1.38.27,3.21.6,3.99.6,3.03,0,3.18-9.9,3.18-12.99,0-.51-.03-2.64-.03-3.15h-8.1c-1.47,2.79-2.49,3.81-2.94,4.29l-.18-.12c2.22-4.41,3.24-9.48,3.24-11.04,0-.3-.09-.87-.15-1.14l3.24,1.38c.15.06.33.21.33.42,0,.3-.45.51-1.17.84-.33.96-.87,2.46-1.98,4.65h7.41ZM451.33,106.08c2.85,1.17,4.26,2.13,4.26,3.75,0,.72-.36,1.41-1.2,1.41-.78,0-1.02-.33-1.68-2.4-.24-.78-.81-1.8-1.5-2.58l.12-.18Z"/>
        <path class="cls-1" d="M477.91,107.76c1.38,1.17,2.04,2.67,2.04,4.44,0,3.69-3.03,6.33-6.99,6.33-3.24,0-5.97-1.83-5.97-4.23,0-1.32.87-1.92,1.71-1.92,1.02,0,1.47.87,1.47,1.5,0,.45-.09.72-.18.96-.06.18-.09.39-.09.69,0,1.14,1.29,1.98,2.7,1.98,2.31,0,4.65-2.28,4.65-5.31s-2.28-5.49-4.68-5.49c-.18,0-1.02.12-1.2.12-.45,0-.66-.27-.66-.63,0-.39.3-.69.69-.69.18,0,1.08.18,1.29.18,2.52,0,4.11-2.25,4.11-4.68s-1.41-4.5-3.78-4.5c-1.59,0-2.43,1.14-2.43,2.01,0,.15.06.3.09.45.06.21.09.51.09.72,0,.93-.69,1.65-1.53,1.65-.99,0-1.5-.87-1.5-1.65,0-1.65,1.92-4.2,5.76-4.2s6,2.4,6,5.04c0,1.05-.39,2.07-1.11,3.06-1.23,1.62-2.58,2.13-3.81,2.55,1.38.42,2.28.72,3.33,1.62Z"/>
        <path class="cls-1" d="M484.84,98.43l-.27,7.56c1.29-1.14,2.43-2.07,4.65-2.07,4.32,0,6.39,3.57,6.39,6.87,0,4.35-3.45,7.74-7.41,7.74-3.42,0-5.67-2.55-5.67-4.41,0-1.14.72-1.86,1.74-1.86.9,0,1.56.6,1.56,1.56,0,.3-.03.42-.15.9-.06.24-.09.66-.09.84,0,1.29,1.35,1.95,2.55,1.95,2.43,0,4.71-2.31,4.71-6.33,0-3.81-2.01-5.91-4.2-5.91-1.2,0-3.03.66-4.68,2.61l-.45-.24.45-11.58h10.44l-.6,2.37h-8.97Z"/>
        <path class="cls-1" d="M501.7,116.79c.03.99-.81,1.74-1.74,1.74-.99,0-1.74-.78-1.74-1.74s.75-1.74,1.74-1.74c.93,0,1.74.78,1.74,1.74Z"/>
        <path class="cls-1" d="M505.84,117h1.65c1.56,0,2.1-.6,2.1-1.83v-16.23c0-.93-.87-1.08-1.44-1.08h-2.28v-.93h.54c2.31,0,4.53-1.05,4.89-1.26.21-.12.3-.18.42-.18.27,0,.33.18.33.42v19.26c0,1.29.63,1.83,2.1,1.83h1.65v.96h-9.96v-.96Z"/>
        <path class="cls-1" d="M524.41,110.7l4.35-4.23c.21-.18.39-.45.39-.78,0-.48-.6-.96-1.26-.96h-.57v-.96h7.47v.96h-.63c-1.68,0-2.97.75-4.59,2.31l-1.26,1.23,3.57,6.03c1.02,1.71,1.98,2.7,3.45,2.7v.96h-6.66v-.96c.36,0,1.56,0,1.56-.96,0-.21-.09-.45-.18-.6l-3.33-5.61-2.31,2.22v3.15c0,1.8,1.08,1.8,2.22,1.8v.96h-6.6v-.96h.72c.84,0,1.5-.57,1.5-1.8v-16.71c0-1.26-1.08-1.47-1.98-1.38l-.12-.54,4.26-1.05v15.18Z"/>
        <path class="cls-1" d="M541.99,103.2v2.37c.81-.81,2.37-2.37,4.95-2.37,2.82,0,3.36,1.83,3.6,2.7,1.02-.99,2.67-2.7,5.37-2.7s3.84,1.59,3.84,4.92v7.08c0,1.14.6,1.8,1.5,1.8h.57v.96h-6.27v-.96h.54c1.05,0,1.53-.81,1.53-1.8v-6.9c0-.84-.15-3.81-2.64-3.81-.84,0-2.73.48-4.23,2.61,0,.24.03.48.03,1.02v7.08c0,1.26.69,1.8,1.5,1.8h.87v.96h-6.87v-.96h.87c.81,0,1.5-.57,1.5-1.8v-6.9c0-.63-.06-3.81-2.61-3.81-.72,0-2.64.39-4.05,2.37v8.34c0,1.26.72,1.8,1.5,1.8h.54v.96h-6.24v-.96h.54c.9,0,1.5-.63,1.5-1.8v-9.03c0-.93-.51-1.41-1.23-1.41-.33,0-.63.03-.9.12l-.12-.57,4.41-1.11Z"/>
        <path class="cls-1" d="M565.54,121.08l-.27-.42c5.58-5.91,5.7-11.91,5.7-14.1s-.12-8.19-5.7-14.1l.27-.42c4.68,3.75,7.11,9.15,7.11,14.52s-2.43,10.77-7.11,14.52Z"/>
      </g>
      <path class="cls-1" d="M290.77,98.58c.24.12.39.3.39.54,0,.27-.33.45-1.26.63-.39.48-1.23,1.47-2.52,3.06-1.14,1.38-2.13,2.49-2.94,3.33.15,0,2.67-.12,4.26-.33-.12-.21-.48-.9-1.23-1.71l.15-.18c2.34.9,4.14,2.25,4.14,3.63,0,.57-.33,1.23-1.14,1.23-.72,0-1.02-.36-1.29-1.38-.03-.09-.15-.51-.33-.96l-2.73.6c0,1.29.09,7.44.09,8.01.03.6.12,3.3.12,3.84,0,.78-.69,1.29-1.44,1.29-.63,0-.81-.39-.81-.9,0-.48.12-2.46.12-2.88.03-.96.06-3.9.09-8.97-1.89.42-3.39.75-3.78.84-.18.3-.48.87-.75.87-.3,0-.48-.36-.54-.54l-.66-2.55c.51.12,1.38.21,2.13.21.93,0,2.31-.03,2.79-.06,2.04-2.76,3.87-6.57,4.29-7.77.12-.3.18-.84.18-1.2l2.67,1.35ZM278.92,118.32c1.29-2.91,2.16-6.72,2.1-8.76l2.46.9c.21.09.42.27.42.42,0,.21-.18.36-.96.66-.96,2.79-1.83,4.47-3.87,6.87l-.15-.09ZM280.06,98.61c.84.21,1.83.48,2.58.84.84-1.68,2.16-4.95,1.98-6.72l2.85,1.41c.24.12.36.3.36.45,0,.45-.45.54-1.14.66-1.41,1.8-1.62,2.07-3.66,4.41.87.54,1.77,1.35,1.77,2.37,0,.69-.45,1.44-1.23,1.44-.69,0-.87-.36-1.53-1.83-.69-1.56-1.38-2.22-2.01-2.85l.03-.18ZM287.14,110.04c1.23.54,4.23,1.89,4.23,3.93,0,.96-.69,1.47-1.32,1.47-.81,0-.96-.6-1.35-1.98-.42-1.56-.99-2.43-1.65-3.3l.09-.12ZM301.48,100.35l.9-.84c.15-.15.33-.33.42-.33.12,0,.33.18.42.27l1.44,1.23c.15.12.27.3.27.45,0,.21-.57.63-1.11,1.02-.18,8.31-.24,12.03-1.83,15.09-1.11,2.13-3,2.91-4.65,2.94-.24-1.41-1.17-2.34-2.73-3.39l.03-.18c1.38.27,3.21.6,3.99.6,3.03,0,3.18-9.9,3.18-12.99,0-.51-.03-2.64-.03-3.15h-8.1c-1.47,2.79-2.49,3.81-2.94,4.29l-.18-.12c2.22-4.41,3.24-9.48,3.24-11.04,0-.3-.09-.87-.15-1.14l3.24,1.38c.15.06.33.21.33.42,0,.3-.45.51-1.17.84-.33.96-.87,2.46-1.98,4.65h7.41ZM293.29,106.08c2.85,1.17,4.26,2.13,4.26,3.75,0,.72-.36,1.41-1.2,1.41-.78,0-1.02-.33-1.68-2.4-.24-.78-.81-1.8-1.5-2.58l.12-.18Z"/>
      <g>
        <path class="cls-2" d="M330.93,116.92c2.36,1.5,4.36,2.25,6,2.25,3.65,0,6.35-1.23,8.12-3.7,1.77-2.46,2.66-5.14,2.66-8.04s-.72-5.24-2.15-7.35c-2.42-3.57-6.51-5.36-12.27-5.36-.34,0-.66,0-.98.02-.31.01-.68.05-1.09.1l-.08-1.02c4.17-1.51,7.45-3.24,9.84-5.2,2.4-1.95,3.59-4.53,3.59-7.73,0-2.84-.94-5-2.83-6.48-1.89-1.48-4.04-2.23-6.46-2.23-2.87,0-5.39,1.05-7.58,3.16-1.2,1.15-2.49,2.92-3.87,5.31l-1.21-.27c1.04-3.96,2.98-7.12,5.82-9.49,2.84-2.37,6.12-3.55,9.84-3.55,3.98,0,7.06,1.09,9.24,3.28,2.17,2.19,3.26,4.71,3.26,7.58,0,2.53-.9,4.84-2.7,6.95-1.02,1.2-2.59,2.54-4.73,4.02,2.5,1.07,4.5,2.32,6.02,3.75,2.84,2.73,4.26,6.2,4.26,10.39,0,4.95-1.95,9.31-5.84,13.09-3.89,3.78-9.43,5.66-16.62,5.66-3.2,0-5.45-.48-6.74-1.43s-1.93-1.97-1.93-3.07c0-.68.21-1.33.64-1.95s1.13-.94,2.09-.94c1.43,0,3.33.75,5.68,2.25Z"/>
        <path class="cls-2" d="M391.15,68.54v1.29l-16.95,52.38h-5.13l15.79-47.77h-17.03c-2.53,0-4.34.42-5.45,1.25-1.11.83-2.51,2.58-4.2,5.23l-1.37-.62c1.69-4.17,2.74-6.74,3.14-7.71.4-.98.93-2.32,1.58-4.04h29.61Z"/>
      </g>
    </g>
    <g>
      <line class="cls-4" x1="1.5" y1="106.29" x2="1.6" y2="106.29"/>
      <line class="cls-3" x1="8.52" y1="106.29" x2="254.21" y2="106.29"/>
      <line class="cls-4" x1="257.67" y1="106.29" x2="257.77" y2="106.29"/>
    </g>
  </g>
</svg>