<?xml version="1.0" encoding="UTF-8"?>
<svg id="_レイヤー_2" data-name="レイヤー 2" xmlns="http://www.w3.org/2000/svg" viewBox="0 0 588.05 119.35">
  <defs>
    <style>
      .cls-1 {
        fill: #000;
      }

      .cls-1, .cls-2 {
        stroke-width: 0px;
      }

      .cls-3 {
        stroke-dasharray: 0 0 .2 6.93;
      }

      .cls-3, .cls-4 {
        fill: none;
        stroke: #000;
        stroke-linecap: round;
        stroke-linejoin: round;
        stroke-width: 3px;
      }

      .cls-2 {
        fill: #a08c67;
      }
    </style>
  </defs>
  <g id="_レイヤー_2-2" data-name="レイヤー 2">
    <g>
      <path class="cls-1" d="M6.95,3.08v39.75h-2.12V.97h15.37v2.12H6.95Z"/>
      <path class="cls-1" d="M69.74,39.24h-35.1c-2.81,0-3.82.09-4.97.32l-.74-1.7c2.76.23,6.03.28,6.53.28h9.84c.05-1.47.09-3.54.09-7.59,0-4.51-.09-22.5-.32-25.35-.14-1.66-.37-2.44-.64-3.36l5.71,1.75c.51.14.74.28.74.74,0,.41-.14.69-1.47,1.61-.09,1.33-.14,2.25-.14,5.15v6.17h7.82l2.21-3.08c.37-.55.55-.55.74-.55.28,0,.64.32.83.46l3.5,3.08c.28.23.46.41.46.69,0,.41-.41.51-.74.51h-14.81c0,1.61,0,18.82.05,19.78h12.97l2.53-3.13c.41-.51.46-.6.69-.6.28,0,.69.37.83.51l3.63,3.13c.28.23.46.41.46.69,0,.41-.41.51-.69.51Z"/>
      <path class="cls-1" d="M85.15,30.82c.28,1.1.69,3.31.69,4.74,0,3.36-2.3,5.29-3.96,5.29-1.29,0-2.21-1.15-2.21-2.35s.78-1.84,1.47-2.39c.83-.64,3.04-2.39,3.82-5.29h.18ZM106.86,7.36l1.52-1.79c.18-.18.37-.37.64-.37s.51.18.78.37l1.66,1.29c.41.32.83.64.83,1.1,0,.51-.41.83-1.43,1.47,0,.83.09,4.79.09,5.15.05,1.33.18,3.87.18,3.96,0,2.16-2.48,2.16-2.58,2.16-1.43,0-1.38-.87-1.33-2.12h-15.83v4.19h19.78l1.47-2.02c.32-.41.51-.6.74-.6s.55.28.83.51l2.44,2.02c.18.18.46.37.46.69,0,.41-.41.51-.74.51h-24.93v3.96h21.53l1.98-1.98c.23-.23.41-.41.69-.41s.51.18.74.41l1.75,1.56c.32.32.64.55.64.83,0,.46-.78,1.1-1.33,1.56-1.52,7.45-1.98,9.29-4.32,11.04-1.56,1.2-3.5,1.79-5.47,1.84-.18-1.38-.64-3.04-2.99-4.92v-.23c1.93.28,2.9.41,4.14.41,1.61,0,2.53,0,3.36-2.53.23-.78,1.11-3.36,1.52-6.49h-22.22c-.09.83-.18,2.25-2.62,2.25-1.06,0-1.61-.51-1.61-1.66,0-.92.23-5.11.28-5.98.09-3.31.18-7.08.18-10.31,0-5.06-.18-6.21-.55-8.19l4.55,2.3h3.08c1.61-3.91,1.66-4.74,1.89-7.36l4.37,2.25c.92.46,1.2.6,1.2,1.1,0,.46-.32.64-1.7.97-.92.78-2.76,2.25-3.82,3.04h10.17ZM91.77,31.24c2.44,3.87,2.81,4.42,2.81,6.3,0,2.44-1.84,2.76-2.39,2.76-.83,0-1.84-.51-1.84-2.16,0-.74.09-1.1.83-4.46.18-.78.28-1.38.28-2.39l.32-.05ZM91.31,8.46l.05,3.77h15.87v-3.77h-15.92ZM91.36,13.34v4.14h15.87v-4.14h-15.87ZM97.34,30.73c4,3.04,4.69,4.28,4.69,5.89,0,1.7-1.15,2.58-2.21,2.58-1.79,0-1.93-1.61-2.12-4.97-.09-1.2-.23-2.39-.64-3.4l.28-.09ZM103.14,30.27c3.45.55,6.21,2.48,6.21,4.69,0,1.29-.97,1.89-1.84,1.89-1.66,0-2.02-1.24-2.39-2.35-.46-1.47-1.1-2.9-2.12-4.05l.14-.18Z"/>
      <path class="cls-1" d="M142.51,21.81c-2.9,4.65-8.24,9.89-9.57,11.23-.18.64-.51,1.75-1.24,1.75-.32,0-.46-.18-.83-.6l-3.77-4.42c1.66.14,2.71-.14,3.08-.28.41-.14,5.52-2.85,12.1-7.82l.23.14ZM134.14,5.84c-2.81,0-3.82.14-4.97.32l-.78-1.7c2.81.28,6.07.28,6.58.28h7.82l1.33-1.15c.23-.23.51-.41.78-.41.32,0,.83.41.87.46l2.07,1.75c.18.14.37.37.37.64,0,.51-.14.64-1.33,1.75-.04,3.54-.04,21.99-.04,26.59,0,2.62,0,6.03-6.49,7.31-.37-1.7-2.02-3.91-4.37-5.38v-.32c2.02.23,4.6.28,4.65.28,1.98,0,2.12,0,2.12-1.75,0-3.91.09-10.21.09-14.17V5.84h-8.69ZM130.55,11.64c4.42.51,7.87,3.27,7.87,5.66,0,.74-.41,2.58-2.21,2.58-2.03,0-2.71-1.93-3.13-3.17-.78-2.21-1.38-3.17-2.67-4.88l.14-.18ZM161.79,21.76c-1.89,3.08-7.36,8.92-9.15,10.76-.41,1.06-.55,1.24-.97,1.24-.32,0-.6-.32-.74-.51l-3.45-4.51c1.24.05,2.39.09,4.55-1.15,1.52-.87,6.67-3.96,9.48-6.03l.28.18ZM155.16,6.03c-2.81,0-3.82.14-4.97.32l-.74-1.7c2.76.28,6.03.28,6.53.28h5.61l1.47-1.29c.28-.23.46-.37.64-.37.23,0,.46.09.88.41l2.35,1.7c.18.14.41.41.41.74,0,.6-.87,1.33-1.33,1.75-.09,4.51-.09,5.06-.09,13.76,0,5.34,0,5.94.05,7.68,0,.46.14,5.06.14,5.29,0,3.73-.37,5.52-6.62,7.45-.55-2.58-2.07-3.77-4.28-5.47v-.28c.69.05,3.68.32,4.28.32,1.33,0,1.98-.23,2.21-.69.18-.41.18-9.29.18-9.98V6.03h-6.72ZM150.38,11.13c1.98.37,8.1,1.52,8.1,5.52,0,1.2-.64,2.48-2.39,2.48-1.56,0-1.93-.83-3.04-3.36-.6-1.29-1.47-2.62-2.67-4.42v-.23Z"/>
      <path class="cls-1" d="M177.61,42.46v-2.12h13.25V.6h2.12v41.87h-15.37Z"/>
      <path class="cls-1" d="M226.75,30.05c-.06,1.38-.03,3.33,0,4.47.03.69.21,3.99.21,4.35,0,1.23-1.26,1.44-1.83,1.44-1.05,0-1.05-.57-1.05-.9,0-.21.06-1.11.06-1.29h-16.98c0,.18.06.96.06,1.11,0,.54-.09,1.56-1.8,1.56-.54,0-1.08-.21-1.08-.81,0-.12.03-.36.03-.63.03-.45.12-5.13.12-7.23s-.06-2.73-.51-4.32l3.6.9c.18.03.51.15.51.45,0,.39-.6.66-.93.84-.06,2.52-.06,6.33-.03,7.41h7.23v-11.07h-5.4c.03.84-.33,1.59-1.77,1.59-.93,0-.93-.51-.93-.78,0-1.02.12-5.58.12-6.51,0-1.71,0-2.25-.57-4.62l3.54,1.23c.24.06.51.18.51.45,0,.42-.69.81-.9.96-.06,1.47-.06,1.83,0,6.96h5.4c-.03-1.11-.03-6.06-.06-7.05-.06-2.7-.36-3.45-.69-4.44l3.93,1.32c.27.09.45.15.45.39,0,.33-.42.57-.99.87,0,.21-.09,2.73-.09,2.76,0,.96,0,5.28-.03,6.15h5.61c.06-1.17.06-2.64.06-3.81,0-3.72-.09-4.14-.51-5.25l3.6,1.14c.39.12.45.27.45.45,0,.33-.33.54-.96.87-.03.57-.06,1.41-.06,2.64,0,.75.12,3.93.12,4.59,0,1.14-1.32,1.38-1.74,1.38-1.14,0-1.08-.6-1.02-1.29h-5.55v11.07h7.29c0-.33.06-3.3.03-5.28-.03-2.58-.18-3.21-.48-4.35l3.6,1.05c.21.06.39.12.39.39,0,.36-.45.6-.96.84Z"/>
      <path class="cls-1" d="M258.16,20.18v7.74c0,1.44.3,7.89.3,9.21,0,.93-.21,1.17-.36,1.32-.54.57-1.32.72-1.62.72-.06,0-.99,0-.99-.87,0-.24.09-1.38.09-1.62h-16.35c.06,1.53.12,2.88-2.01,2.88-1.05,0-1.05-.51-1.05-.84,0-.3.12-1.56.12-1.83.24-5.55.42-10.8.42-14.58,0-3.18-.21-4.32-.54-6.18l3.84,2.13h15.03l1.05-1.11c.15-.18.27-.42.45-.42s.36.21.48.3l2.13,1.47c.18.12.42.3.42.48,0,.21-.15.3-1.41,1.2ZM255.58,18.98h-16.38v16.98h16.38v-16.98Z"/>
      <path class="cls-1" d="M284.05,20.66c-.87.33-5.37,1.23-6.87,1.5-.09,1.5-.09,2.22-.09,3.93.63-.15,3.66-1.17,3.99-1.17.6,0,1.95.3,1.95,1.23,0,.54-.39.69-.6.75-.27.09-3.15.81-5.31,1.2.12,2.7.15,3.93.9,6.3,1.23.18,3.36.54,5.34,2.22.36.3.9.78.9,1.65,0,.63-.36,1.32-1.08,1.32-.51,0-.75-.18-1.62-.84-1.32-.99-2.19-1.47-3.45-2.04-.18,1.08-.63,3.87-5.4,3.87-3.12,0-5.31-1.68-5.31-3.39,0-3,4.62-3.3,6.42-3.3.75,0,1.26.03,1.8.09-.18-.78-.42-1.74-.48-5.55-.51.06-1.92.21-3.6.21-2.34,0-3.69-.36-3.69-1.53,0-.9,1.38-1.86,2.43-1.86-.39.57-.54.78-.54,1.17,0,.3.21.45.99.45,1.32,0,3.06-.15,4.38-.36,0-1.56,0-1.59.09-4.02-1.89.24-3.24.33-4.29.33-3.54,0-4.35-.6-5.34-2.7,1.41.57,2.34.93,4.41.93.78,0,2.46-.09,5.28-.54,0-.33.06-2.19.06-2.34,0-1.14-.15-1.77-2.37-2.43.66-.81,1.29-.9,1.92-.9,1.11,0,3.51.69,3.51,2.16,0,.27-.06.39-.51,1.53-.3.78-.36,1.11-.45,1.53.48-.12,1.29-.33,2.49-.72.42-.15,2.25-.87,2.61-.87.87,0,2.07.6,2.07,1.38,0,.39-.18.66-.54.81ZM272.23,35.6c-1.5,0-3.81.6-3.81,1.68,0,.42.63,1.35,3.03,1.35,1.02,0,2.28-.21,3.18-.69.81-.45.93-1.26.99-1.98-.87-.33-2.43-.36-3.39-.36Z"/>
      <path class="cls-1" d="M312.34,20.12c-1.77,0-3.93,0-5.4.45-3.12.96-6.48,4.89-6.48,9.36,0,1.44.63,4.44,4.74,5.7.63.18,3.57.75,4.08,1.05.72.42,1.02.93,1.02,1.56,0,1.14-.93,1.14-1.5,1.14-.75,0-3.06-.39-5.28-1.44-4.44-2.13-4.62-5.88-4.62-7.35,0-4.62,2.76-7.5,6.06-10.29-1.62-.15-7.14,2.04-9.72,3.24-1.5.69-1.68.75-2.1.75-.84,0-2.37-.93-2.37-2.85,0-.99.42-1.53.66-1.89.63,1.35,1.35,1.77,2.4,1.77.96,0,14.85-3.3,15.51-3.51,1.2-.42,1.8-.6,2.31-.6,1.41,0,2.82.9,2.82,1.8,0,1.11-.93,1.11-2.13,1.11ZM311.5,27.68c-.78,0-1.02-.45-1.59-1.62-.39-.78-1.47-2.16-2.31-3.12,1.77.51,4.89,1.41,4.89,3.57,0,.51-.24,1.17-.99,1.17ZM314.95,26.3c-.66,0-.93-.45-1.62-1.74-.69-1.26-1.92-2.16-2.61-2.64,2.22.12,5.28,1.41,5.28,3.27,0,.81-.66,1.11-1.05,1.11Z"/>
    </g>
    <g>
      <g>
        <path class="cls-1" d="M415.32,94.28c-2.49,5.1-7.02,8.94-9.3,10.2l-.15-.21c4.2-4.77,6.57-8.97,7.26-10.98.27-.75.39-1.35.48-1.92l2.58,1.74c.15.09.39.27.39.48,0,.36-.78.57-1.26.69ZM426.2,103.67c-.3,10.8-.9,12.99-6.3,13.47-.12-1.89-1.59-2.88-2.25-3.3l.03-.21c1.26.27,2.55.51,3.48.51,1.44,0,2.01-.33,2.46-3.06.36-2.22.54-7.23.45-8.64h-6.06c-.18,4.71-2.19,12.84-11.64,14.58l-.06-.24c6.09-2.82,9.18-7.35,9.48-14.34h-.87c-.75,0-2.19.03-3.54.3l-.57-1.2c1.86.15,3.69.18,4.59.18h8.49l.81-.72c.18-.18.36-.33.54-.33.15,0,.3.15.42.27l1.2,1.32c.15.15.27.33.27.48,0,.27-.09.33-.93.93ZM431.66,103.64c-3.21-1.38-6.78-4.62-9.03-11.4h-2.4c-1.5,0-2.1.12-2.52.18l-.39-1.05c1.35.12,2.67.15,3.27.15h1.5l.96-.96c.27-.27.39-.33.54-.33.18,0,.3.15.51.33l1.11,1.08c.18.15.24.27.24.45,0,.6-1.38.84-1.92.93,1.44,3.87,6.42,7.71,11.01,8.04l.03.3c-1.68.51-2.37,1.47-2.91,2.28Z"/>
        <path class="cls-1" d="M448.08,118.1c-4.68-3.75-7.11-9.15-7.11-14.52s2.43-10.77,7.11-14.52l.27.42c-5.58,5.91-5.7,11.91-5.7,14.1s.12,8.19,5.7,14.1l-.27.42Z"/>
        <path class="cls-1" d="M464.22,95.6c.24.12.39.3.39.54,0,.27-.33.45-1.26.63-.39.48-1.23,1.47-2.52,3.06-1.14,1.38-2.13,2.49-2.94,3.33.15,0,2.67-.12,4.26-.33-.12-.21-.48-.9-1.23-1.71l.15-.18c2.34.9,4.14,2.25,4.14,3.63,0,.57-.33,1.23-1.14,1.23-.72,0-1.02-.36-1.29-1.38-.03-.09-.15-.51-.33-.96l-2.73.6c0,1.29.09,7.44.09,8.01.03.6.12,3.3.12,3.84,0,.78-.69,1.29-1.44,1.29-.63,0-.81-.39-.81-.9,0-.48.12-2.46.12-2.88.03-.96.06-3.9.09-8.97-1.89.42-3.39.75-3.78.84-.18.3-.48.87-.75.87-.3,0-.48-.36-.54-.54l-.66-2.55c.51.12,1.38.21,2.13.21.93,0,2.31-.03,2.79-.06,2.04-2.76,3.87-6.57,4.29-7.77.12-.3.18-.84.18-1.2l2.67,1.35ZM452.37,115.34c1.29-2.91,2.16-6.72,2.1-8.76l2.46.9c.21.09.42.27.42.42,0,.21-.18.36-.96.66-.96,2.79-1.83,4.47-3.87,6.87l-.15-.09ZM453.51,95.63c.84.21,1.83.48,2.58.84.84-1.68,2.16-4.95,1.98-6.72l2.85,1.41c.24.12.36.3.36.45,0,.45-.45.54-1.14.66-1.41,1.8-1.62,2.07-3.66,4.41.87.54,1.77,1.35,1.77,2.37,0,.69-.45,1.44-1.23,1.44-.69,0-.87-.36-1.53-1.83-.69-1.56-1.38-2.22-2.01-2.85l.03-.18ZM460.59,107.06c1.23.54,4.23,1.89,4.23,3.93,0,.96-.69,1.47-1.32,1.47-.81,0-.96-.6-1.35-1.98-.42-1.56-.99-2.43-1.65-3.3l.09-.12ZM474.93,97.37l.9-.84c.15-.15.33-.33.42-.33.12,0,.33.18.42.27l1.44,1.23c.15.12.27.3.27.45,0,.21-.57.63-1.11,1.02-.18,8.31-.24,12.03-1.83,15.09-1.11,2.13-3,2.91-4.65,2.94-.24-1.41-1.17-2.34-2.73-3.39l.03-.18c1.38.27,3.21.6,3.99.6,3.03,0,3.18-9.9,3.18-12.99,0-.51-.03-2.64-.03-3.15h-8.1c-1.47,2.79-2.49,3.81-2.94,4.29l-.18-.12c2.22-4.41,3.24-9.48,3.24-11.04,0-.3-.09-.87-.15-1.14l3.24,1.38c.15.06.33.21.33.42,0,.3-.45.51-1.17.84-.33.96-.87,2.46-1.98,4.65h7.41ZM466.74,103.1c2.85,1.17,4.26,2.13,4.26,3.75,0,.72-.36,1.41-1.2,1.41-.78,0-1.02-.33-1.68-2.4-.24-.78-.81-1.8-1.5-2.58l.12-.18Z"/>
        <path class="cls-1" d="M484.65,95.45l-.27,7.56c1.29-1.14,2.43-2.07,4.65-2.07,4.32,0,6.39,3.57,6.39,6.87,0,4.35-3.45,7.74-7.41,7.74-3.42,0-5.67-2.55-5.67-4.41,0-1.14.72-1.86,1.74-1.86.9,0,1.56.6,1.56,1.56,0,.3-.03.42-.15.9-.06.24-.09.66-.09.84,0,1.29,1.35,1.95,2.55,1.95,2.43,0,4.71-2.31,4.71-6.33,0-3.81-2.01-5.91-4.2-5.91-1.2,0-3.03.66-4.68,2.61l-.45-.24.45-11.58h10.44l-.6,2.37h-8.97Z"/>
        <path class="cls-1" d="M499.5,114.02h1.65c1.56,0,2.1-.6,2.1-1.83v-16.23c0-.93-.87-1.08-1.44-1.08h-2.28v-.93h.54c2.31,0,4.53-1.05,4.89-1.26.21-.12.3-.18.42-.18.27,0,.33.18.33.42v19.26c0,1.29.63,1.83,2.1,1.83h1.65v.96h-9.96v-.96Z"/>
        <path class="cls-1" d="M517.11,113.81c.03.99-.81,1.74-1.74,1.74-.99,0-1.74-.78-1.74-1.74s.75-1.74,1.74-1.74c.93,0,1.74.78,1.74,1.74Z"/>
        <path class="cls-1" d="M521.25,114.02h1.65c1.56,0,2.1-.6,2.1-1.83v-16.23c0-.93-.87-1.08-1.44-1.08h-2.28v-.93h.54c2.31,0,4.53-1.05,4.89-1.26.21-.12.3-.18.42-.18.27,0,.33.18.33.42v19.26c0,1.29.63,1.83,2.1,1.83h1.65v.96h-9.96v-.96Z"/>
        <path class="cls-1" d="M539.82,107.72l4.35-4.23c.21-.18.39-.45.39-.78,0-.48-.6-.96-1.26-.96h-.57v-.96h7.47v.96h-.63c-1.68,0-2.97.75-4.59,2.31l-1.26,1.23,3.57,6.03c1.02,1.71,1.98,2.7,3.45,2.7v.96h-6.66v-.96c.36,0,1.56,0,1.56-.96,0-.21-.09-.45-.18-.6l-3.33-5.61-2.31,2.22v3.15c0,1.8,1.08,1.8,2.22,1.8v.96h-6.6v-.96h.72c.84,0,1.5-.57,1.5-1.8v-16.71c0-1.26-1.08-1.47-1.98-1.38l-.12-.54,4.26-1.05v15.18Z"/>
        <path class="cls-1" d="M557.4,100.22v2.37c.81-.81,2.37-2.37,4.95-2.37,2.82,0,3.36,1.83,3.6,2.7,1.02-.99,2.67-2.7,5.37-2.7s3.84,1.59,3.84,4.92v7.08c0,1.14.6,1.8,1.5,1.8h.57v.96h-6.27v-.96h.54c1.05,0,1.53-.81,1.53-1.8v-6.9c0-.84-.15-3.81-2.64-3.81-.84,0-2.73.48-4.23,2.61,0,.24.03.48.03,1.02v7.08c0,1.26.69,1.8,1.5,1.8h.87v.96h-6.87v-.96h.87c.81,0,1.5-.57,1.5-1.8v-6.9c0-.63-.06-3.81-2.61-3.81-.72,0-2.64.39-4.05,2.37v8.34c0,1.26.72,1.8,1.5,1.8h.54v.96h-6.24v-.96h.54c.9,0,1.5-.63,1.5-1.8v-9.03c0-.93-.51-1.41-1.23-1.41-.33,0-.63.03-.9.12l-.12-.57,4.41-1.11Z"/>
        <path class="cls-1" d="M580.95,118.1l-.27-.42c5.58-5.91,5.7-11.91,5.7-14.1s-.12-8.19-5.7-14.1l.27-.42c4.68,3.75,7.11,9.15,7.11,14.52s-2.43,10.77-7.11,14.52Z"/>
      </g>
      <path class="cls-1" d="M299.07,95.6c.24.12.39.3.39.54,0,.27-.33.45-1.26.63-.39.48-1.23,1.47-2.52,3.06-1.14,1.38-2.13,2.49-2.94,3.33.15,0,2.67-.12,4.26-.33-.12-.21-.48-.9-1.23-1.71l.15-.18c2.34.9,4.14,2.25,4.14,3.63,0,.57-.33,1.23-1.14,1.23-.72,0-1.02-.36-1.29-1.38-.03-.09-.15-.51-.33-.96l-2.73.6c0,1.29.09,7.44.09,8.01.03.6.12,3.3.12,3.84,0,.78-.69,1.29-1.44,1.29-.63,0-.81-.39-.81-.9,0-.48.12-2.46.12-2.88.03-.96.06-3.9.09-8.97-1.89.42-3.39.75-3.78.84-.18.3-.48.87-.75.87-.3,0-.48-.36-.54-.54l-.66-2.55c.51.12,1.38.21,2.13.21.93,0,2.31-.03,2.79-.06,2.04-2.76,3.87-6.57,4.29-7.77.12-.3.18-.84.18-1.2l2.67,1.35ZM287.22,115.34c1.29-2.91,2.16-6.72,2.1-8.76l2.46.9c.21.09.42.27.42.42,0,.21-.18.36-.96.66-.96,2.79-1.83,4.47-3.87,6.87l-.15-.09ZM288.36,95.63c.84.21,1.83.48,2.58.84.84-1.68,2.16-4.95,1.98-6.72l2.85,1.41c.24.12.36.3.36.45,0,.45-.45.54-1.14.66-1.41,1.8-1.62,2.07-3.66,4.41.87.54,1.77,1.35,1.77,2.37,0,.69-.45,1.44-1.23,1.44-.69,0-.87-.36-1.53-1.83-.69-1.56-1.38-2.22-2.01-2.85l.03-.18ZM295.44,107.06c1.23.54,4.23,1.89,4.23,3.93,0,.96-.69,1.47-1.32,1.47-.81,0-.96-.6-1.35-1.98-.42-1.56-.99-2.43-1.65-3.3l.09-.12ZM309.78,97.37l.9-.84c.15-.15.33-.33.42-.33.12,0,.33.18.42.27l1.44,1.23c.15.12.27.3.27.45,0,.21-.57.63-1.11,1.02-.18,8.31-.24,12.03-1.83,15.09-1.11,2.13-3,2.91-4.65,2.94-.24-1.41-1.17-2.34-2.73-3.39l.03-.18c1.38.27,3.21.6,3.99.6,3.03,0,3.18-9.9,3.18-12.99,0-.51-.03-2.64-.03-3.15h-8.1c-1.47,2.79-2.49,3.81-2.94,4.29l-.18-.12c2.22-4.41,3.24-9.48,3.24-11.04,0-.3-.09-.87-.15-1.14l3.24,1.38c.15.06.33.21.33.42,0,.3-.45.51-1.17.84-.33.96-.87,2.46-1.98,4.65h7.41ZM301.59,103.1c2.85,1.17,4.26,2.13,4.26,3.75,0,.72-.36,1.41-1.2,1.41-.78,0-1.02-.33-1.68-2.4-.24-.78-.81-1.8-1.5-2.58l.12-.18Z"/>
      <g>
        <path class="cls-2" d="M350.05,64.82h3.71v35.16h8.16v5.2h-8.16v13.32h-6.21v-13.32h-22.5v-5.2l25-35.16ZM347.47,72.88l-19.17,27.09h19.17v-27.09Z"/>
        <path class="cls-2" d="M395.84,113.61c-3.06,3.83-7.04,5.74-11.93,5.74-4.58,0-8.76-2.15-12.52-6.45-3.76-4.3-5.64-10.01-5.64-17.15,0-9.19,3.65-17.08,10.94-23.67,6.51-5.52,13.83-8.28,21.95-8.28l.2,1.29c-3.26.6-6.06,1.41-8.42,2.44-2.36,1.03-4.46,2.47-6.31,4.32-1.9,1.88-3.69,4.26-5.35,7.15-1.67,2.89-2.81,5.76-3.44,8.59,1.61-.99,3.01-1.72,4.18-2.19,2.08-.83,4.18-1.25,6.29-1.25,4.14,0,7.62,1.43,10.43,4.3s4.22,6.95,4.22,12.27c0,4.77-1.53,9.06-4.59,12.89ZM391.64,94.5c-1.82-4.48-4.92-6.72-9.3-6.72-4.04,0-6.72,1.2-8.05,3.59-.78,1.41-1.17,3.75-1.17,7.03,0,4.24.9,8.4,2.71,12.46,1.81,4.06,4.67,6.09,8.57,6.09,3.1,0,5.35-1.32,6.76-3.96s2.11-5.74,2.11-9.28-.55-6.54-1.64-9.22Z"/>
      </g>
    </g>
    <g>
      <line class="cls-4" x1="1.5" y1="106.59" x2="1.6" y2="106.59"/>
      <line class="cls-3" x1="8.53" y1="106.59" x2="261.85" y2="106.59"/>
      <line class="cls-4" x1="265.32" y1="106.59" x2="265.42" y2="106.59"/>
    </g>
  </g>
</svg>