<?xml version="1.0" encoding="UTF-8"?>
<svg id="_レイヤー_2" data-name="レイヤー 2" xmlns="http://www.w3.org/2000/svg" viewBox="0 0 1266.36 90.56">
  <defs>
    <style>
      .cls-1 {
        letter-spacing: -.18em;
      }

      .cls-2 {
        letter-spacing: .1em;
      }

      .cls-3 {
        letter-spacing: -.04em;
      }

      .cls-4 {
        letter-spacing: -.08em;
      }

      .cls-5 {
        letter-spacing: -.02em;
      }

      .cls-6 {
        letter-spacing: -.07em;
      }

      .cls-7 {
        letter-spacing: -.07em;
      }

      .cls-8 {
        letter-spacing: -.12em;
      }

      .cls-9 {
        letter-spacing: 0em;
      }

      .cls-10 {
        fill: #000;
        font-family: YuMinPr6N-Regular-83pv-RKSJ-H, 'Yu Mincho Pr6N';
        font-size: 43px;
      }

      .cls-11 {
        fill: #3e4856;
      }

      .cls-11, .cls-12 {
        stroke-width: 0px;
      }

      .cls-13 {
        letter-spacing: .07em;
      }

      .cls-14 {
        letter-spacing: 0em;
      }

      .cls-15 {
        letter-spacing: -.06em;
      }

      .cls-16 {
        letter-spacing: -.03em;
      }

      .cls-17 {
        letter-spacing: .03em;
      }

      .cls-18 {
        letter-spacing: 0em;
      }

      .cls-19 {
        letter-spacing: -.03em;
      }

      .cls-20 {
        letter-spacing: -.05em;
      }

      .cls-21 {
        letter-spacing: -.01em;
      }

      .cls-22 {
        letter-spacing: -.15em;
      }

      .cls-23 {
        letter-spacing: 0em;
      }

      .cls-12 {
        fill: #fff;
      }

      .cls-24 {
        letter-spacing: -.13em;
      }

      .cls-25 {
        letter-spacing: 0em;
      }

      .cls-26 {
        letter-spacing: .04em;
      }

      .cls-27 {
        fill: none;
        stroke: #3e4856;
        stroke-miterlimit: 10;
        stroke-width: 1.2px;
      }

      .cls-28 {
        letter-spacing: -.1em;
      }
    </style>
  </defs>
  <g id="_レイヤー_2-2" data-name="レイヤー 2">
    <text class="cls-10" transform="translate(143.97 60.05)"><tspan class="cls-13" x="0" y="0">関</tspan><tspan class="cls-17" x="46.05" y="0">西</tspan><tspan class="cls-8" x="90.36" y="0">エ</tspan><tspan class="cls-4" x="128.12" y="0">リ</tspan><tspan class="cls-6" x="167.61" y="0">ア</tspan><tspan class="cls-23" x="207.66" y="0">の</tspan><tspan class="cls-26" x="250.47" y="0">主</tspan><tspan class="cls-19" x="295.1" y="0">要</tspan><tspan class="cls-18" x="336.91" y="0">ス</tspan><tspan class="cls-3" x="379.57" y="0">ポ</tspan><tspan class="cls-1" x="420.85" y="0">ッ</tspan><tspan class="cls-20" x="456.07" y="0">ト</tspan><tspan class="cls-16" x="497.12" y="0">へ</tspan><tspan class="cls-14" x="538.88" y="0">ス</tspan><tspan class="cls-7" x="581.83" y="0">ム</tspan><tspan class="cls-28" x="621.88" y="0">ー</tspan><tspan class="cls-25" x="660.4" y="0">ズ</tspan><tspan class="cls-9" x="703.49" y="0">な</tspan><tspan class="cls-5" x="746.64" y="0">カ</tspan><tspan class="cls-24" x="788.76" y="0">ー</tspan><tspan class="cls-22" x="826" y="0">ア</tspan><tspan class="cls-15" x="862.62" y="0">ク</tspan><tspan class="cls-21" x="902.97" y="0">セ</tspan><tspan class="cls-2" x="945.43" y="0">ス</tspan></text>
    <line class="cls-27" x1="55.92" y1="74.6" x2="1266.36" y2="74.6"/>
    <rect class="cls-11" width="90.56" height="90.56"/>
    <path class="cls-12" d="M75.29,49.43c-.05-.77-.23-.87-.41-.96-.18-.09-.77-.91-.91-1.14-.14-.23-.09-3.28-.09-3.74s-.27-.46-.82-.91c.32-.32.18-.59-.77-.68-1.96-1.32-5.6-3.46-5.6-3.46,0,0,.27-.46.27-.64s-.41-.05-.96,0c-.55.05-2.55-.36-4.15-.46-.23-.01-.6-.04-1.07-.07.03-.03.05-.07.06-.11.06-.17.02-.28-.06-.34.31-.47,1.13-1.72,1.32-1.96.27-.36,0-.25-.11-.09-.1.13-1.11,1.56-1.43,2.01-.07,0-.15.03-.21.07-.11.07-.24.23-.34.37-3-.22-8.55-.59-12.6-.37-5.19.27-6.88,1.37-7.02,1.46-.14.09-2.69,1.23-4.46,2.37-1.78,1.14-4.87,3.1-4.87,3.1l-1,.41c-.73-.05-6.79.5-10.48,1.82-3.69,1.32-4.43,2.5-4.69,2.55-.45.09-.59,1.69-.59,1.69,0,0-.5.5-.64.64-.14.14-.09,1.05-.09,1.46s.27.55.41.64c.14.09.09,1.14.09,1.41s-.14.59.04.64c.18.05.55.23.64.36.09.14.96.32,1.78.27.81-.05,4.19,0,4.46,0,.76,1.55,2.38,2.62,4.24,2.62s3.61-1.16,4.33-2.81c.29,0,.47,0,.5,0q.23.05.73.05c.5,0,24.55-.59,25.33-.36.77.23,2.6.14,2.78,0,.03-.02.31-.06.77-.12.73,1.63,2.39,2.76,4.31,2.76,2.25,0,4.12-1.55,4.6-3.62.47-.04.76-.07.76-.07,2.41.09,3.05-.73,3.05-.73,0,0,1.27-.41,1.5-.5.23-.09,1-1.18,1.14-1.46.14-.27.32-1.32.27-2.1ZM47.23,43.17c-.03.17-.07.55-1.06.61-.99.07-11.21.89-11.31.89s1.98-.44,2.26-.55c.27-.1.44-.31.44-.68s-.03-1.3-.38-1.2c-.34.1-.65.17-.55,0,.1-.17,3.86-2.8,5.57-3.35,1.71-.55,5.74-.82,5.98-.82s.38.07.38.21c0,.4-1.3,4.71-1.33,4.89ZM59.43,43.07c-.68,0-9.09.48-9.47.51-.38.03-.41.07-.41-.51s.51-4.82.51-4.82c.1-.14.03-.27.48-.31.22-.02,1.81-.03,3.69.03,2.05.07,3.82.29,4.03.34.41.1,1.71,4.34,1.71,4.48s.14.27-.55.27ZM65.13,40.85c-.24.41-.96,1.16-1.16,1.37-.21.2-.38.41-.99.48-.61.07-1.33.21-1.47.17-.14-.03-.38-.31-.55-.62-.17-.31-1.85-3.72-1.85-3.72-.1-.17-.14-.48.51-.38.65.1,2.25.55,3.18.82.92.27,1.95.58,2.29.82.34.24.27.65.03,1.06Z"/>
  </g>
</svg>