<svg xmlns="http://www.w3.org/2000/svg" width="606" height="118.163" viewBox="0 0 606 118.163">
  <g id="car-tit-sp" transform="translate(0 -24.19)">
    <g id="グループ_193" data-name="グループ 193" transform="translate(105 24.19)">
      <path id="パス_2248" data-name="パス 2248" d="M153.855,26.7,155.1,25.7c.306-.27.423-.387.693-.387.117,0,.351.234.468.306l1.934,1.628a.626.626,0,0,1,.27.54c0,.54-.809,1.124-1.313,1.466v3.013c0,.2.153,3.364.153,3.481,0,1.277-1.007,1.853-2.2,1.853s-1.124-1.2-1.043-1.97h-6.386c0,1.583-.036,8.545-.036,9.975,0,1.277.153,11.1.153,11.45a2.078,2.078,0,0,1-2.24,2.321c-1.079,0-1.277-.5-1.277-1.16,0-.153.036-.621.036-.809.306-3.715.306-10.136.306-17.251,0-3.67-.081-9.939-.306-13.266a7.23,7.23,0,0,0-.423-1.934l3.868,1.745h6.107Zm-6.188.926v3.328h6.422V27.63Zm0,4.254v2.824h6.422V31.885Zm6.692,16.9a23.386,23.386,0,0,0-4.173.234l-.657-1.394c1.853.153,3.67.234,5.531.234h2.24a12.088,12.088,0,0,0,.387-3.247h-1.934a23.386,23.386,0,0,0-4.173.234l-.657-1.394c1.853.153,3.67.234,5.531.234h3.328c.585-1.2,1.628-4.254,1.349-6.071l3.832,1.781a.57.57,0,0,1,.387.5c0,.117,0,.738-1.241.809-1.934,1.7-2.788,2.356-3.634,2.977h3.094l1.2-1.394c.234-.234.468-.468.657-.468.234,0,.387.153.657.423l1.43,1.358c.306.27.351.423.351.576,0,.351-.351.423-.585.423h-6.728a13.9,13.9,0,0,1-.423,3.247h4.137l1.124-1.313c.27-.351.468-.5.657-.5s.387.153.657.423l1.394,1.313c.351.351.387.423.387.576,0,.351-.27.423-.576.423h-7.348c2.015,2.626,5.8,4.524,8.661,4.335v.27a8.923,8.923,0,0,0-2.051,1.664,12.591,12.591,0,0,0,1.547.081c1.934,0,2.132-.351,2.132-1.7V35.626h-6.377c.153,1.241-.468,1.934-2.132,1.934a1.1,1.1,0,0,1-1.2-1.124c0-1.277.036-6.845.036-8a20.356,20.356,0,0,0-.351-3.481l3.67,1.745h6.188l1.043-1.043c.153-.153.387-.387.621-.387a.681.681,0,0,1,.5.234l2.168,1.853a.726.726,0,0,1,.27.5c0,.306-.117.423-1.349,1.43,0,1.079-.081,3.292-.081,6.881,0,2.743.189,14.733.189,17.17s0,3.67-1.7,4.911a7.293,7.293,0,0,1-3.283,1.313,6.9,6.9,0,0,0-2.285-4.137,5.535,5.535,0,0,0-.773,1.124c-3.481-2.4-4.29-3.562-6.188-7.618-1.511,4.218-5.217,7.2-10.361,8v-.27c1.241-.738,6.152-3.517,7.582-7.888h-2.671Zm-2.285-11.063c1.97.234,5.5,1.2,5.5,3.715a1.6,1.6,0,0,1-1.583,1.736c-1.2,0-1.466-.89-1.853-1.97a6.746,6.746,0,0,0-2.087-3.247l.036-.234Zm12.3-10.092v3.328h6.458V27.63Zm0,4.254v2.824h6.458V31.885Z" transform="translate(-143.88 -24.266)"/>
      <path id="パス_2249" data-name="パス 2249" d="M221.553,28.319H209.1v6.728h5.451l1.394-1.43c.117-.153.27-.351.423-.351a1.047,1.047,0,0,1,.468.234l2.087,1.745c.189.189.468.351.468.576,0,.468-.809,1.043-1.241,1.313-.153,5.531.234,14.849.5,18.294,0,.234.081,1.124.081,1.277,0,1.9-2.321,1.97-2.4,1.97-1.313,0-1.277-.971-1.241-2.132H194.706a2.193,2.193,0,0,1-2.437,2.321c-.54,0-1.277-.117-1.277-1.2,0-.153.036-.585.036-.774.036-.774.423-10.865.423-15.857a40.1,40.1,0,0,0-.54-8.239l4.371,2.24h4.137V28.31H192.61a18.287,18.287,0,0,0-4.173.27l-.657-1.43c1.817.153,3.67.234,5.531.234h22.513l1.817-1.97c.153-.189.351-.5.621-.5.234,0,.5.234.738.423l2.743,1.97a.779.779,0,0,1,.387.585c0,.387-.351.423-.576.423Zm-6.422,19.338c-.423,1.466-2.509,1.853-4.947,1.853-1.817,0-4.218-.27-4.218-2.977V35.973h-3.4c-.036.809-.153,3.211-.306,4.524a12.326,12.326,0,0,1-7.537,9.786v5.334H215.14V47.647ZM194.715,35.982V49.707c4.371-3.868,4.524-8.473,4.722-13.725Zm11.252-7.663h-3.4v6.728h3.4Zm9.165,7.663H209.1v9.093c0,1.007.351,1.241,1.394,1.241,1.313,0,1.853-.693,2.356-4.173h.306a11.612,11.612,0,0,0,1.043,3.481c.081.153.809.809.926,1.007V35.991Z" transform="translate(-148.295 -24.262)"/>
      <path id="パス_2250" data-name="パス 2250" d="M264.286,52.035c-.468,0-2.437-.585-2.824-.657a80.487,80.487,0,0,0-8.976-.774,63.6,63.6,0,0,0-14.274,1.547,11.481,11.481,0,0,1-1.781.738c-1.124,0-3.481-2.59-3.481-4.677a5.8,5.8,0,0,1,.27-1.511,4.776,4.776,0,0,0,4.56,2.707c.036,0,5.8-.387,6.881-.468,1.043-.036,1.2-.081,2.824-.153,0-1.241.036-6.656.036-7.771,0-4.056-.351-4.173-1.7-4.677-.693.117-3.832.657-4.335.657-.89,0-3.283-2.168-3.328-3.948a8.257,8.257,0,0,0,5.181,1.358c1.313,0,9.669-.585,11.1-1.079a10.065,10.065,0,0,1,1.547-.657c.5,0,3.328.621,3.328,1.97,0,.081,0,1.241-1.547,1.241-.971,0-5.109-.081-5.954-.081a12.544,12.544,0,0,0-1.817.081c1.007.738,1.2.926,1.2,1.349,0,.306-.5,1.664-.54,1.934-.27,2.321-.54,8.545-.585,9.435,3.6-.189,5.567-.27,6.692-.27a12.645,12.645,0,0,0,2.626-.153c.621-.117,1.466-.27,1.7-.27,1.241,0,4.065,1.466,4.065,3.175a.9.9,0,0,1-.89.971Z" transform="translate(-152.839 -25.043)"/>
      <path id="パス_2251" data-name="パス 2251" d="M283.324,32.008c-.351.774-.621,1.547-.621,4.371,0,.962.153,5.217.153,6.107,0,.585,0,3.175-1.43,3.175-.738,0-2.132-1.2-2.132-3.292,0-.351.189-1.7.27-2.437.117-1.241.153-3.868.153-5.837,0-2.824,0-3.6-3.247-4.371a5.036,5.036,0,0,1,2.437-.926c1.079,0,4.722,1.241,4.722,2.321a1.891,1.891,0,0,1-.306.89Zm13.114-.153c-.189,1.511-.081,3.948-.117,5.45-.153,7.159-.657,12.025-4.722,16.36-1.349,1.43-4.02,3.787-7.384,4.173l-.117-.27c5.109-2.824,7.582-8.428,8.239-11.639a69.352,69.352,0,0,0,.854-11.6c0-5.379-.2-5.5-3.751-6.224a4.241,4.241,0,0,1,2.941-1.124c1.934,0,4.758,1.16,4.758,2.087,0,.423-.657,2.356-.693,2.788Z" transform="translate(-157.216 -24.471)"/>
      <path id="パス_2252" data-name="パス 2252" d="M339.138,34.872a4.669,4.669,0,0,0-1.16.468c-2.788,1.781-3.292,2.087-8,4.947-2.554,9.669-4.524,14.544-10.91,17.755l-.117-.234c6.458-7,7.735-17.134,7.735-18.1,0-1.43-.585-1.664-2.824-2.437a5.136,5.136,0,0,1,2.32-.738c1.043,0,3.445.657,3.867,1.547a1.617,1.617,0,0,1,.153.854c3.832-3.4,5.415-5.567,5.415-6.152,0-.153-.036-.27-.423-.27-.234,0-11.791,1.007-15.551,2.473a14.407,14.407,0,0,1-1.9.738,7.458,7.458,0,0,1-2.2-1.277c-1.466-1.313-1.547-1.547-1.547-2.509a5.021,5.021,0,0,1,.306-1.97,4.354,4.354,0,0,0,3.948,2.2c1.628,0,14.7-1.511,17.638-1.934a18.354,18.354,0,0,1,1.853-.54c.773,0,4.065,3.292,4.065,4.02,0,.621-.117.657-2.671,1.16Z" transform="translate(-160.989 -24.744)"/>
      <path id="パス_2253" data-name="パス 2253" d="M368.971,55.776c2.824-1.079,12.142-4.758,12.142-14.229,0-5.379-3.481-10.361-11.135-10.361a15.648,15.648,0,0,0-2.437.189c2.59,1.124,3.328,2.743,3.328,3.328,0,.54-2.86,6.845-4.992,10.829-4.02,7.582-5.334,7.852-6.422,7.852-.854,0-1.277-.576-2.473-2.285a6.667,6.667,0,0,0-1.547-1.628,6.352,6.352,0,0,1-1.745-4.488c0-8.311,7.2-15.083,16.594-15.083,7.924,0,14.427,4.56,14.427,12.223,0,8.041-6.961,13.15-15.74,13.923v-.27ZM356.55,44.291c0,2.473,1.16,5.8,2.59,5.8,1.241,0,2.743-2.86,3.562-4.371,1.241-2.356,4.677-9.363,4.677-11.683a3.247,3.247,0,0,0-1.313-2.437c-5.262,1.2-9.516,7.7-9.516,12.682Z" transform="translate(-164.982 -24.764)"/>
      <path id="パス_2254" data-name="パス 2254" d="M429.333,56.749H400.444a23.18,23.18,0,0,0-4.173.234l-.621-1.394c1.817.153,3.67.234,5.5.234h9.516V44.49H403.97a18.843,18.843,0,0,0-4.173.27l-.621-1.43c1.817.153,3.67.234,5.5.234h6V33.274h-8.086a21.647,21.647,0,0,0-4.173.27l-.621-1.43c1.817.153,3.67.234,5.5.234H421l1.781-2.051c.387-.468.423-.5.621-.5.117,0,.189.081.693.423l2.9,2.051a.928.928,0,0,1,.387.585c0,.423-.387.423-.585.423H414.061V43.564h5.262l1.781-2.015c.387-.423.423-.468.621-.468.153,0,.189.036.693.387l2.707,2.015a.892.892,0,0,1,.387.576c0,.387-.387.423-.576.423H414.07V55.814h9.588l1.934-2.285c.351-.423.423-.5.585-.5.234,0,.351.117.738.468l2.626,2.24c.189.2.423.351.423.585,0,.387-.387.423-.621.423Zm-16.36-25.867c-1.43,0-1.9-1.079-2.356-2.168a8.992,8.992,0,0,0-3.562-4.218V24.19c7.582.5,7.933,4.137,7.933,4.677a1.914,1.914,0,0,1-2.015,2.015Z" transform="translate(-169.203 -24.19)"/>
      <path id="パス_2255" data-name="パス 2255" d="M456.145,39.444l1.466.693a.765.765,0,0,1,.5.693c0,.468-.54.621-1.277.774-.036,0-1.466,2.24-2.168,3.364H468.4l1.817-2.24c.351-.423.387-.5.585-.5.27,0,.5.234.738.423l2.437,2.24c.27.234.387.351.387.576,0,.387-.306.423-.585.423h-9.9l.809.423a.533.533,0,0,1,.351.5c0,.468-.387.54-1.349.738a17.19,17.19,0,0,1-3.013,4.02,31.786,31.786,0,0,1,8.356,3.247c1.16.774,1.934,1.547,1.934,2.626a1.8,1.8,0,0,1-1.934,1.664,4.157,4.157,0,0,1-2.2-1.043,32.524,32.524,0,0,0-8.041-4.758,25.971,25.971,0,0,1-16.127,5.531c-1.079,0-1.781-.036-2.437-.081v-.234c4.758-.926,11.063-2.824,15.434-6.422a35.247,35.247,0,0,0-4.839-1.16c-1.43,2.285-1.583,2.554-2.671,2.554a1.575,1.575,0,0,1-1.7-1.313,1.554,1.554,0,0,1,.306-.854c1.043-1.43,2.509-3.634,3.787-5.451h-6a19.716,19.716,0,0,0-4.173.27l-.621-1.43c2.32.189,5.064.234,5.5.234h5.918a22.911,22.911,0,0,0,2.86-5.531h-7.2c.036,1.043-.306,2.168-2.2,2.168-.621,0-1.277-.234-1.277-1.079,0-.306.153-1.7.153-2.015.081-.926.081-1.853.081-3.013,0-3.9-.153-4.524-.351-5.379l3.67,1.817h4.1V27.9h-5.379a19.431,19.431,0,0,0-4.173.27l-.657-1.43c2.356.189,5.109.234,5.531.234H467.5l1.745-2.132c.351-.423.387-.468.576-.468a1.546,1.546,0,0,1,.738.387l2.473,2.132c.189.189.387.351.387.585,0,.351-.351.423-.621.423h-11.18v4.02h4.488l1.124-1.241a.69.69,0,0,1,.54-.27.978.978,0,0,1,.621.27l2.015,1.466a.928.928,0,0,1,.351.657c0,.351-.117.423-1.277,1.079,0,.854.189,4.56.189,5.334,0,1.2-1.349,1.664-2.2,1.664-1.079,0-1.16-.738-1.2-1.466H456.136ZM451,38.518V32.87h-4.173v5.648Zm3.058,7.384c-.773,1.16-.962,1.511-2.9,4.56a34.435,34.435,0,0,1,5.954.387,16.219,16.219,0,0,0,3.715-4.947Zm.189-17.979v4.02h4.218v-4.02h-4.218Zm4.218,10.6V32.87h-4.218v5.648Zm7.771,0V32.87h-4.605v5.648Z" transform="translate(-173.637 -24.208)"/>
      <path id="パス_2256" data-name="パス 2256" d="M512.148,55.743c-1.043,0-1.628-1.007-2.015-1.628-2.977-4.947-4.758-7.429-7.852-9.858-5.918,7.042-11.8,10.793-17.251,11.755v-.306c9.246-4.29,18.8-17.251,20.075-22.737-.117.036-7.852,1.43-9.9,2.437-1.124.576-1.277.621-1.583.621a4.872,4.872,0,0,1-3.013-4.254,3.114,3.114,0,0,1,.351-1.7c1.583,2.051,1.9,2.473,3.175,2.473.926,0,9.4-.738,10.982-1.736a9.184,9.184,0,0,1,1.817-1.241c.5,0,3.517,2.86,3.517,3.481,0,.423-.27.54-1.511,1.007-.351.153-.5.423-1.079,1.466-2.554,4.641-2.977,5.415-4.992,8,4.722,1.97,10.793,6.611,10.793,10.092,0,.926-.351,2.132-1.511,2.132Z" transform="translate(-178.192 -24.731)"/>
      <path id="パス_2257" data-name="パス 2257" d="M530.454,52.177a1.726,1.726,0,0,1-1.664-1.736c0-1.547,1.349-2.437,2.473-3.211a19.063,19.063,0,0,0,5.6-6.188c-.387,4.911-3.211,11.135-6.422,11.135ZM556.87,38.452c-.5,0-2.86-.351-3.328-.387-.621-.081-3.094-.234-5.648-.234-1.466,0-2.437.081-3.058.117-.081,1.394-.081,8.742.117,11.063.036.387.27,3.247.27,3.328a9.972,9.972,0,0,1-.585,3.445c-.351,1.043-.773,1.583-1.583,1.583-.738,0-.854-.2-1.817-2.132-.854-1.664-1.349-2.051-3.948-3.984v-.234a19.156,19.156,0,0,0,3.6.5c1.007,0,1.043-.153,1.124-.306a49.179,49.179,0,0,0,.27-6.692c0-1.9,0-3.445-.081-6.341-1.511.189-6.961,1.007-8,1.7a2.209,2.209,0,0,1-1.241.468c-1.7,0-3.715-2.905-3.715-4.605a8.848,8.848,0,0,1,.27-1.781c.351.54,1.9,2.9,3.984,2.9.585,0,7.267-.657,8.661-.774-.153-4.875-.153-5.684-.621-6.494-.5-.89-1.16-1.124-3.13-1.817a3.693,3.693,0,0,1,2.626-1.079c1.934,0,4.794,1.583,4.794,2.707a4.983,4.983,0,0,1-.468,1.466,25.718,25.718,0,0,0-.468,4.992c.926-.081,5.028-.387,5.837-.468a6.8,6.8,0,0,0,1.934-.423,3.617,3.617,0,0,1,1.2-.27c1.079,0,3.867,1.079,3.867,2.743,0,1.007-.54,1.007-.89,1.007Zm-.738,12.763c-.773,0-1.007-.351-3.058-3.562a23.711,23.711,0,0,0-5.567-6.494c2.626.234,4.875,1.781,7,3.328,1.007.738,3.175,2.321,3.175,4.524,0,1.241-.854,2.2-1.547,2.2Zm.045-17.872a3.652,3.652,0,0,1-.072-7.3,3.739,3.739,0,0,1,3.787,3.67,3.647,3.647,0,0,1-3.715,3.634Zm.036-5.72a2.108,2.108,0,0,0-2.087,2.123,2.038,2.038,0,0,0,2.051,2.051,2.08,2.08,0,0,0,2.168-2.015,2.125,2.125,0,0,0-2.123-2.168Z" transform="translate(-182.594 -24.376)"/>
      <path id="パス_2258" data-name="パス 2258" d="M580.326,43.167c0,1.007-.54,1.583-1.241,1.583-.962,0-1.349-.926-1.781-1.934a15.385,15.385,0,0,0-2.824-4.254c3.058.423,5.837,2.437,5.837,4.605Zm-2.941,14.661c11.486-5.5,15-18.141,15-18.6,0-.774-1.2-1.547-2.051-2.015a5.554,5.554,0,0,1,1.745-.27c1.781,0,3.9,2.087,3.9,2.626,0,.234-.081.306-.854,1.2-.189.234-1.9,3.868-2.285,4.56-5.262,9.516-11.369,11.755-15.389,12.844l-.081-.351Zm9.633-16.441a1.454,1.454,0,0,1-1.313,1.628c-.926,0-1.079-.468-1.7-2.168a14.206,14.206,0,0,0-2.32-4.056c3.517.971,5.334,2.977,5.334,4.605Z" transform="translate(-187.189 -25.457)"/>
      <path id="パス_2259" data-name="パス 2259" d="M629.809,46.6a2.347,2.347,0,0,1-1.664-1.043c-4.02-4.452-5.109-5.567-7.888-6.575-.081,2.4.081,10.865.081,11.1,0,.774.27,4.29.27,4.992,0,1.664-.809,2.86-1.853,2.86-1.124,0-2.087-1.664-2.087-3.787a13.4,13.4,0,0,1,.27-2.356,82.9,82.9,0,0,0,.5-10.289c0-1.97-.081-10.946-.468-12.376-.117-.5-.234-.854-3.094-1.97a5.525,5.525,0,0,1,2.554-.89c.737,0,4.911.809,4.911,2.015a16.545,16.545,0,0,1-.576,1.9,43.573,43.573,0,0,0-.5,7.888c4.407.54,11.135,3.013,11.135,6.656,0,1.394-.89,1.9-1.583,1.9Z" transform="translate(-191.152 -24.398)"/>
      <path id="パス_2260" data-name="パス 2260" d="M678.9,52.067c-1.466,0-8.086-4.137-11.252-7.114-1.124-1.043-7.114-6.656-8.239-7.735A2.3,2.3,0,0,0,657.9,36.6c-1.583,0-4.452,3.6-5.882,5.415-2.4,3.058-2.671,3.364-3.6,3.364-.693,0-3.867-.89-3.867-3.562a1.836,1.836,0,0,1,.27-.926,3.6,3.6,0,0,0,2.168.738c1.628,0,5.028-3.283,6.539-4.758,2.2-2.168,3.364-2.707,4.488-2.707,1.466,0,2.4.774,3.75,2.132,6.341,6.224,9.786,7.969,15.317,10.712,1.781.89,3.211,1.853,3.211,3.517,0,.468,0,1.547-1.394,1.547Z" transform="translate(-194.237 -25.193)"/>
    </g>
    <g id="グループ_194" data-name="グループ 194" transform="translate(150 88.955)">
      <path id="パス_2261" data-name="パス 2261" d="M716.938,55.743c-1.043,0-1.628-1.007-2.015-1.628-2.977-4.947-4.758-7.429-7.852-9.858-5.918,7.042-11.8,10.793-17.251,11.755v-.306c9.246-4.29,18.8-17.251,20.075-22.737-.117.036-7.852,1.43-9.9,2.437-1.124.576-1.277.621-1.583.621a4.872,4.872,0,0,1-3.013-4.254,3.114,3.114,0,0,1,.351-1.7c1.583,2.051,1.9,2.473,3.175,2.473.926,0,9.4-.738,10.982-1.736a9.18,9.18,0,0,1,1.817-1.241c.5,0,3.517,2.86,3.517,3.481,0,.423-.27.54-1.511,1.007-.351.153-.5.423-1.079,1.466-2.554,4.641-2.977,5.415-4.992,8,4.722,1.97,10.793,6.611,10.793,10.092,0,.926-.351,2.132-1.511,2.132Z" transform="translate(-689.82 -25.5)"/>
      <path id="パス_2262" data-name="パス 2262" d="M758.658,54.3c-1.2,0-1.583-1.079-2.015-2.285-.117-.351-1.466-4.02-1.547-4.218-3.364,1.394-7.582,2.437-15.587,4.488-1.043.27-1.313.351-1.781.926-.387.423-.576.585-.926.585-1.043,0-3.292-3.13-3.292-5.262a5.854,5.854,0,0,1,.081-.962c1.313,1.277,1.7,1.583,3.364,1.583a9.579,9.579,0,0,0,1.313-.081c1.43-2.905,6.961-15.164,6.961-17.638,0-1.466-.854-2.051-3.013-2.977a10.127,10.127,0,0,1,2.707-.621c1.817,0,4.794,2.2,4.794,3.948,0,.621-.153.774-1.079,1.628a32.883,32.883,0,0,0-2.123,4.254,96.081,96.081,0,0,1-6.881,11.3c7.267-.854,8.086-.926,15.119-1.97a28.657,28.657,0,0,0-5.181-7.465c1.241.5,2.977,1.313,5.918,4.218,3.984,3.868,4.677,6.188,4.677,8.158,0,1.43-.621,2.4-1.511,2.4Z" transform="translate(-694.214 -25.326)"/>
      <path id="パス_2263" data-name="パス 2263" d="M800.065,45.006c-.621,0-1.583-.036-2.356-.117-.738-.036-10.172-.117-10.829-.117-2.24,0-8.158.117-9.939.621a5.308,5.308,0,0,1-1.313.27c-1.43,0-3.6-3.058-3.6-4.605a5.285,5.285,0,0,1,.621-2.168c1.349,2.707,2.284,3.175,6.881,3.175,2.24,0,15.668-.036,16.981-.5a5.129,5.129,0,0,1,1.547-.387c.081,0,4.605.351,4.605,2.4,0,.657-.738,1.43-2.59,1.43Z" transform="translate(-698.089 -26.438)"/>
      <path id="パス_2264" data-name="パス 2264" d="M836.272,56.026c-.854,0-1.043-.351-2.707-3.364a25.443,25.443,0,0,0-7-8.2c-5.684,6.962-12.376,10.559-17.017,11.719v-.153c9.975-5.918,17.907-15.668,19.841-22.549-7.969,1.583-8.778,1.745-9.822,2.321-1.124.657-1.241.738-1.547.738-.423,0-.621-.189-1.16-.774-1.124-1.124-1.9-1.934-1.9-3.6a3.433,3.433,0,0,1,.387-1.628c1.277,1.817,1.781,2.509,2.9,2.509,1.781,0,9.363-.809,10.829-1.511a12.693,12.693,0,0,1,2.087-1.313c.54,0,3.562,2.743,3.562,3.328,0,.351-.153.423-1.43,1.007a1.452,1.452,0,0,0-.773.809,42.564,42.564,0,0,1-5.415,8.428c4.758,2.087,10.712,6.071,10.712,9.975,0,1.934-1.16,2.24-1.547,2.24Zm.27-24.212c-.657,0-.854-.27-1.745-1.511a11.944,11.944,0,0,0-4.02-3.328,11.483,11.483,0,0,1,4.677.854,2.515,2.515,0,0,1,2.051,2.554c0,.27,0,1.43-.962,1.43Zm3.8-2.006c-.5,0-.693-.189-2.168-1.781a13.643,13.643,0,0,0-3.787-2.977c1.043-.036,6.962.081,6.962,3.445C841.345,29.421,840.8,29.807,840.337,29.807Z" transform="translate(-701.862 -25.045)"/>
      <path id="パス_2265" data-name="パス 2265" d="M872.611,32.585a69.963,69.963,0,0,1-7.924,2.2c-4.839,10.64-5.8,12.727-7.5,15.047a1.37,1.37,0,0,1-1.079.657,1.624,1.624,0,0,1-1.511-1.781,3.605,3.605,0,0,1,.854-2.132,60.542,60.542,0,0,0,6.458-11.135,14.4,14.4,0,0,1-3.247.423c-3.4,0-4.1-1.934-4.1-2.824a3.024,3.024,0,0,1,.27-1.124c.621,1.16,1.781,1.7,4.02,1.7a17.492,17.492,0,0,0,4.056-.54A19.964,19.964,0,0,0,864.22,28.4c0-1.43-1.583-1.9-2.24-2.087a3.209,3.209,0,0,1,2.2-.926c1.466,0,3.984,1.628,3.984,2.743a3.473,3.473,0,0,1-.693,1.466,27.384,27.384,0,0,0-1.511,2.59,26.044,26.044,0,0,0,2.788-1.079c1.781-.809,1.97-.926,2.437-.926.54,0,2.321.657,2.321,1.511,0,.5-.54.774-.89.89Zm9.714,9.552a3.579,3.579,0,0,1-1.547-.423c-1.7-.926-2.285-1.241-3.67-1.241-3.715,0-3.948,3.013-3.948,4.524a21.838,21.838,0,0,0,.693,4.992c3.67.657,7.429,2.554,7.429,4.677,0,.387-.234,1.7-1.277,1.7-.738,0-2.321-1.124-3.13-1.7a10.262,10.262,0,0,0-2.626-1.547,5.175,5.175,0,0,1-1.466,3.751c-1.583,1.466-4.335,1.583-4.911,1.583-3.094,0-6.152-1.853-6.152-4.524,0-3.094,3.4-4.407,7.5-4.407.693,0,1.16.036,1.664.081a29.688,29.688,0,0,1-.306-3.634c0-4.677,4.605-6.071,6.224-6.575a6.882,6.882,0,0,0,1.007-.27.47.47,0,0,0,.189-.387c0-.774-2.051-2.2-5.334-2.905a9.243,9.243,0,0,1,2.9-.5c4.758,0,8.041,3.211,8.041,5.415a1.232,1.232,0,0,1-1.277,1.394Zm-14.508,9.48c-.738,0-4.677,0-4.677,2.285,0,1.628,2.626,2.168,4.065,2.168,3.9,0,3.867-3.094,3.832-4.065a8.982,8.982,0,0,0-3.211-.387Z" transform="translate(-706.389 -25.08)"/>
      <path id="パス_2266" data-name="パス 2266" d="M921.489,38.134c-.27.27-.306.423-.5,1.853-.351,2.24-1.511,9.633-4.254,13.842a4.538,4.538,0,0,1-3.175,2.285c-.657,0-.89-.585-1.079-1.277-.737-2.626-.809-2.86-2.9-5.181l.117-.189c.5.234,2.743,1.313,3.211,1.511.81.351.926.387,1.16.387a.906.906,0,0,0,.89-.54,27.014,27.014,0,0,0,3.013-14.157c-2.788.306-4.407.576-6.386.89-1.817,6.269-3.247,9.7-7.078,13.617a20.13,20.13,0,0,1-7.2,4.794l-.153-.189a36.063,36.063,0,0,0,11.216-17.674,28.206,28.206,0,0,0-5.5,1.241c-.962.576-1.079.621-1.547.621-.926,0-3.211-2.321-3.211-3.948a1.748,1.748,0,0,1,.189-.621,6.682,6.682,0,0,0,3.984,1.349c.234,0,5.415-.621,6.656-.774a31.4,31.4,0,0,0,.971-5.6c0-1.349-.54-2.015-1.7-2.905A4.633,4.633,0,0,1,910,27.08c1.394,0,4.407,1.466,4.407,2.59,0,.351-.117.468-.809,1.277a4.4,4.4,0,0,0-.621,1.547c-.117.5-.693,2.626-.81,3.058a45.764,45.764,0,0,0,4.524-.693c.234-.117,1.079-.926,1.277-1.043a1.315,1.315,0,0,1,.621-.117c.81,0,3.867,2.2,3.867,3.175,0,.27-.081.351-.971,1.277Z" transform="translate(-710.674 -25.25)"/>
      <path id="パス_2267" data-name="パス 2267" d="M965.175,45.006c-.621,0-1.583-.036-2.356-.117-.738-.036-10.172-.117-10.829-.117-2.24,0-8.158.117-9.939.621a5.308,5.308,0,0,1-1.313.27c-1.43,0-3.6-3.058-3.6-4.605a5.285,5.285,0,0,1,.621-2.168c1.349,2.707,2.284,3.175,6.881,3.175,2.24,0,15.668-.036,16.981-.5a5.129,5.129,0,0,1,1.547-.387c.081,0,4.605.351,4.605,2.4,0,.657-.738,1.43-2.59,1.43Z" transform="translate(-714.695 -26.438)"/>
      <path id="パス_2268" data-name="パス 2268" d="M1003.128,34.872a4.668,4.668,0,0,0-1.16.468c-2.788,1.781-3.292,2.087-8,4.947-2.554,9.669-4.524,14.544-10.91,17.755l-.117-.234c6.458-7,7.735-17.134,7.735-18.1,0-1.43-.585-1.664-2.824-2.437a5.137,5.137,0,0,1,2.321-.738c1.043,0,3.445.657,3.867,1.547a1.617,1.617,0,0,1,.153.854c3.832-3.4,5.414-5.567,5.414-6.152,0-.153-.036-.27-.423-.27-.234,0-11.791,1.007-15.551,2.473a14.413,14.413,0,0,1-1.9.738,7.457,7.457,0,0,1-2.2-1.277c-1.466-1.313-1.547-1.547-1.547-2.509a5.02,5.02,0,0,1,.306-1.97,4.354,4.354,0,0,0,3.948,2.2c1.628,0,14.7-1.511,17.638-1.934a18.358,18.358,0,0,1,1.853-.54c.773,0,4.056,3.292,4.056,4.02,0,.621-.117.657-2.671,1.16Z" transform="translate(-718.803 -25.513)"/>
      <path id="パス_2269" data-name="パス 2269" d="M1040.318,35.985c-1.124.351-1.583.926-2.4,2.437-4.677,8.625-8.778,12.565-13.617,15.551a26.089,26.089,0,0,1-7.816,3.364l-.153-.27a48.92,48.92,0,0,0,19.526-22.009c-.89.117-3.984.54-5.648.809a7.56,7.56,0,0,1-1.079.27,4.263,4.263,0,0,1-1.781-.657c-3.481,4.218-5.145,5.648-10.325,8.7l-.27-.27c5.262-5.684,6.692-7.537,8.814-11.216a7.241,7.241,0,0,0,1.2-2.824c0-.423-1.313-1.43-2.132-1.9a6.732,6.732,0,0,1,1.934-.351c1.349,0,4.722,1.781,4.722,3.094,0,.423-.081.54-1.124,1.43a13.672,13.672,0,0,0-1.43,1.583,37.546,37.546,0,0,0,6.611-.54,21.745,21.745,0,0,1,2.437-1.313c.306,0,.5.153,2.168,1.628,1.124,1.007,1.313,1.241,1.313,1.628,0,.54-.234.621-.971.854Z" transform="translate(-722.66 -25.304)"/>
      <path id="パス_2270" data-name="パス 2270" d="M1083.848,38.617a2.293,2.293,0,0,0-1.466.693,34.6,34.6,0,0,1-6.926,5.181l-.27-.153a32.71,32.71,0,0,0,4.677-7.429c-1.7.54-9.165,2.977-10.676,3.445-.153,3.328-.27,6.881-.27,8.2,0,2.473.737,3.562,4.722,3.562a28.521,28.521,0,0,0,5.954-.738,3.734,3.734,0,0,1,1.007-.117,8.04,8.04,0,0,1,3.175.809,1.215,1.215,0,0,1,.387.971c0,1.664-2.32,1.934-6.611,1.934-10.208,0-11.18-1.43-11.18-9.858,0-1.9.036-3.094.081-3.9a43.2,43.2,0,0,0-6.071,2.473,2.514,2.514,0,0,1-1.16.423c-.773,0-3.562-1.745-3.562-4.1a4.953,4.953,0,0,1,.5-2.285c1.241,1.934,1.736,2.743,3.328,2.743a31.552,31.552,0,0,0,7-1.511c.036-.585.081-1.547.081-3.013,0-1.16,0-4.947-.423-5.8-.54-1.007-2.285-1.394-3.13-1.628a5.557,5.557,0,0,1,2.905-1.2c1.16,0,4.641.738,4.641,1.97,0,.306-.27,1.16-.387,1.736-.234.971-.423,1.7-.854,7.114,1.466-.423,10.02-2.86,10.172-2.977.234-.153,1.2-.89,1.394-1.043a.759.759,0,0,1,.5-.234c.585,0,1.7.854,3.517,2.24a1.66,1.66,0,0,1,.81,1.313c0,.809-.351.854-1.853,1.16Z" transform="translate(-726.616 -25.274)"/>
      <path id="パス_2271" data-name="パス 2271" d="M1124.958,55.743c-1.043,0-1.628-1.007-2.015-1.628-2.977-4.947-4.758-7.429-7.852-9.858-5.918,7.042-11.8,10.793-17.251,11.755v-.306c9.246-4.29,18.8-17.251,20.075-22.737-.117.036-7.852,1.43-9.9,2.437-1.124.576-1.277.621-1.583.621a4.872,4.872,0,0,1-3.013-4.254,3.114,3.114,0,0,1,.351-1.7c1.583,2.051,1.9,2.473,3.175,2.473.927,0,9.4-.738,10.982-1.736a9.186,9.186,0,0,1,1.817-1.241c.5,0,3.517,2.86,3.517,3.481,0,.423-.27.54-1.511,1.007-.351.153-.5.423-1.079,1.466-2.554,4.641-2.977,5.415-4.992,8,4.722,1.97,10.793,6.611,10.793,10.092,0,.926-.351,2.132-1.511,2.132Z" transform="translate(-730.858 -25.5)"/>
    </g>
    <line id="線_99" data-name="線 99" x2="550.068" transform="translate(55.5 69.53)" fill="none" stroke="#3e4856" stroke-miterlimit="10" stroke-width="1.2"/>
    <rect id="長方形_7" data-name="長方形 7" width="90.56" height="90.56" transform="translate(0 24.19)" fill="#3e4856"/>
    <path id="パス_2272" data-name="パス 2272" d="M75.29,49.43c-.05-.77-.23-.87-.41-.96a5.991,5.991,0,0,1-.91-1.14,32.027,32.027,0,0,1-.09-3.74c0-.46-.27-.46-.82-.91.32-.32.18-.59-.77-.68-1.96-1.32-5.6-3.46-5.6-3.46a2.239,2.239,0,0,0,.27-.64c0-.18-.41-.05-.96,0s-2.55-.36-4.15-.46c-.23-.01-.6-.04-1.07-.07a.238.238,0,0,0,.06-.11c.06-.17.02-.28-.06-.34.31-.47,1.13-1.72,1.32-1.96.27-.36,0-.25-.11-.09-.1.13-1.11,1.56-1.43,2.01a.4.4,0,0,0-.21.07,1.541,1.541,0,0,0-.34.37,112.2,112.2,0,0,0-12.6-.37c-5.19.27-6.88,1.37-7.02,1.46a48.1,48.1,0,0,0-4.46,2.37c-1.78,1.14-4.87,3.1-4.87,3.1l-1,.41a42.688,42.688,0,0,0-10.48,1.82,13.64,13.64,0,0,0-4.69,2.55c-.45.09-.59,1.69-.59,1.69l-.64.64a4.511,4.511,0,0,0-.09,1.46.7.7,0,0,0,.41.64c.14.09.09,1.14.09,1.41s-.14.59.04.64a1.6,1.6,0,0,1,.64.36,3.4,3.4,0,0,0,1.78.27c.81-.05,4.19,0,4.46,0a4.72,4.72,0,0,0,4.24,2.62,4.806,4.806,0,0,0,4.33-2.81h.5a3.8,3.8,0,0,0,.73.05c.5,0,24.55-.59,25.33-.36a6.859,6.859,0,0,0,2.78,0,6.286,6.286,0,0,1,.77-.12,4.738,4.738,0,0,0,8.91-.86c.47-.04.76-.07.76-.07,2.41.09,3.05-.73,3.05-.73s1.27-.41,1.5-.5a6.114,6.114,0,0,0,1.14-1.46,5.774,5.774,0,0,0,.27-2.1ZM47.23,43.17c-.03.17-.07.55-1.06.61s-11.21.89-11.31.89,1.98-.44,2.26-.55a.653.653,0,0,0,.44-.68c0-.37-.03-1.3-.38-1.2s-.65.17-.55,0a27.111,27.111,0,0,1,5.57-3.35,33.977,33.977,0,0,1,5.98-.82c.24,0,.38.07.38.21,0,.4-1.3,4.71-1.33,4.89Zm12.2-.1c-.68,0-9.09.48-9.47.51s-.41.07-.41-.51.51-4.82.51-4.82c.1-.14.03-.27.48-.31.22-.02,1.81-.03,3.69.03a35.805,35.805,0,0,1,4.03.34c.41.1,1.71,4.34,1.71,4.48s.14.27-.55.27Zm5.7-2.22a10.84,10.84,0,0,1-1.16,1.37,1.384,1.384,0,0,1-.99.48,12.436,12.436,0,0,1-1.47.17c-.14-.03-.38-.31-.55-.62s-1.85-3.72-1.85-3.72c-.1-.17-.14-.48.51-.38s2.25.55,3.18.82a11.476,11.476,0,0,1,2.29.82c.34.24.27.65.03,1.06Z" transform="translate(0 24.19)" fill="#fff"/>
    <line id="線_100" data-name="線 100" x2="515.5" transform="translate(90.5 141.753)" fill="none" stroke="#3e4856" stroke-miterlimit="10" stroke-width="1.2"/>
  </g>
</svg>
