<?xml version="1.0" encoding="UTF-8"?>
<svg id="_レイヤー_2" data-name="レイヤー 2" xmlns="http://www.w3.org/2000/svg" viewBox="0 0 620 200.4">
  <defs>
    <style>
      .cls-1 {
        fill: none;
        stroke: #e5da99;
        stroke-miterlimit: 10;
        stroke-width: 1.2px;
      }

      .cls-2 {
        fill: #fff;
      }

      .cls-2, .cls-3, .cls-4 {
        stroke-width: 0px;
      }

      .cls-3 {
        fill: #e5da99;
      }

      .cls-4 {
        fill: #638bc7;
      }
    </style>
  </defs>
  <g id="_レイヤー_2-2" data-name="レイヤー 2">
    <g>
      <g>
        <polygon class="cls-4" points="594.97 200.4 0 200.4 0 .4 620 .4 620 176.76 594.97 200.4"/>
        <g>
          <path class="cls-3" d="M44.72,24.47c0,1.43-.55,2.65-1.64,3.66-1.09,1.01-2.4,1.51-3.94,1.51-.9,0-1.98-.27-3.23-.82-.33-.15-.58-.23-.75-.23-.2,0-.33.23-.38.69-.02.24-.12.36-.33.36-.17,0-.25-.1-.25-.3,0-.13,0-.23.03-.3.13-1.02.2-1.96.2-2.83,0-.17-.02-.63-.05-1.4-.02-.1-.03-.23-.03-.4,0-.25.1-.38.3-.38.17,0,.28.2.35.61.43,3,1.84,4.49,4.22,4.49,1.02,0,1.8-.29,2.36-.86s.84-1.39.84-2.44c0-.93-.27-1.73-.81-2.39-.54-.66-1.47-1.31-2.79-1.96-1.58-.78-2.68-1.54-3.3-2.27s-.92-1.64-.92-2.73c0-1.38.45-2.52,1.34-3.42.89-.9,2.02-1.35,3.39-1.35.57,0,1.35.19,2.35.58.35.13.61.2.77.2.18,0,.3-.03.36-.1.06-.07.11-.24.16-.52.03-.17.12-.25.28-.25.17,0,.25.1.25.3,0,.13,0,.23-.03.3-.05.4-.08.88-.08,1.45,0,.8.04,1.43.12,1.9l.03.4c.02.18-.06.27-.23.27-.18,0-.31-.19-.38-.57-.18-.98-.62-1.8-1.3-2.46-.68-.66-1.45-.99-2.3-.99s-1.5.27-1.99.8c-.49.53-.74,1.26-.74,2.18,0,1.07.36,1.92,1.07,2.57.4.37,1.27.88,2.6,1.55,1.57.78,2.69,1.58,3.38,2.39.68.81,1.02,1.73,1.02,2.76Z"/>
          <path class="cls-3" d="M64.72,29.12c0,.15-.16.23-.47.23h-5.43c-.33,0-.5-.07-.5-.2s.39-.22,1.16-.27c.41-.03.65-.1.72-.21.07-.11.1-.49.1-1.16v-7.28h-7.53v7.08c0,.75.06,1.19.17,1.32.12.13.51.23,1.17.27.43.03.65.11.65.23,0,.15-.17.23-.5.23h-5.42c-.33,0-.5-.07-.5-.2s.17-.22.5-.25c.22-.02.44-.03.67-.05.37-.03.6-.12.7-.25.05-.08.08-.55.08-1.4v-13.18c0-.75-.04-1.19-.11-1.32-.07-.13-.34-.21-.79-.22-.52-.04-.82-.06-.91-.08-.09-.02-.14-.09-.14-.21,0-.14.11-.21.33-.21.07,0,.21,0,.42.02.42.03,1.4.05,2.95.05.85,0,1.44-.01,1.77-.04.12-.02.27-.04.45-.04.3,0,.45.08.45.25,0,.15-.27.23-.81.23s-.87.06-.98.19c-.11.12-.16.52-.16,1.19v5.77h7.53v-5.39c0-.89-.07-1.41-.2-1.57-.13-.16-.6-.23-1.4-.21-.25,0-.38-.08-.38-.23s.14-.23.42-.23h5.45c.35,0,.53.08.53.23s-.37.23-1.1.25c-.22,0-.38.02-.47.05-.17.05-.27.14-.31.27-.04.13-.06.53-.06,1.18v13.3c0,.8.04,1.27.12,1.4.17.18.64.28,1.43.28.26-.03.4.03.4.2Z"/>
          <path class="cls-3" d="M84.39,20.77c0,2.48-.75,4.58-2.24,6.3-1.49,1.72-3.32,2.57-5.49,2.57-2.3,0-4.23-.87-5.8-2.61-1.57-1.74-2.35-3.89-2.35-6.44s.75-4.73,2.26-6.39c1.51-1.66,3.44-2.49,5.79-2.49,2.22,0,4.08.87,5.58,2.6s2.25,3.88,2.25,6.45ZM81.59,20.9c0-3.06-.62-5.44-1.88-7.15-.78-1.07-1.88-1.6-3.28-1.6s-2.37.41-3.1,1.23c-1.35,1.5-2.03,3.95-2.03,7.35,0,2.69.47,4.78,1.41,6.27.94,1.49,2.26,2.23,3.96,2.23,1.58,0,2.78-.7,3.58-2.11.88-1.55,1.33-3.63,1.33-6.22Z"/>
          <path class="cls-3" d="M99.91,16.14c0,1.62-.69,2.88-2.08,3.78-.87.57-1.97.85-3.3.85-.57,0-1.21-.06-1.92-.17v7.1c0,.38.02.62.05.73.08.23.27.38.55.42.48.07.95.1,1.4.1.18,0,.27.06.27.17,0,.17-.12.25-.35.25h-5.75c-.5,0-.75-.08-.75-.25,0-.12.17-.18.52-.18.78,0,1.23-.07,1.35-.23.13-.07.21-.23.22-.5v-14.77c0-.52-.14-.83-.42-.95-.17-.07-.46-.1-.88-.1h-.42c-.25,0-.38-.07-.38-.2,0-.15.23-.22.7-.22h5.5c1.9,0,3.29.33,4.17,1,1,.75,1.5,1.81,1.5,3.17ZM97.29,16.17c0-2.52-1.05-3.77-3.15-3.77-.7,0-1.16.12-1.38.35-.1.1-.15.36-.15.78v6.69c.13.02.28.02.45.02,1.1,0,2.03-.24,2.8-.73.95-.6,1.42-1.72,1.42-3.35Z"/>
          <path class="cls-3" d="M123.56,27.37c0,.43-.02,1.15-.07,2.15h-.27c-.1,0-.34-.02-.72-.05-.38-.03-.82-.05-1.3-.05l-10.38-.08c-.28,0-.42-.08-.42-.23,0-.12.23-.19.67-.23.63-.03,1.01-.1,1.14-.21.12-.11.19-.42.19-.94v-14.05c0-.62-.06-.98-.19-1.08s-.57-.15-1.34-.15c-.32,0-.48-.09-.48-.27,0-.15.1-.23.3-.23h.23c.55.05,1.64.08,3.27.08.15,0,.44-.01.88-.04s.79-.04,1.08-.04h.28c.3,0,.45.08.45.25,0,.1-.05.16-.14.19-.09.02-.38.05-.86.06-.48.02-.77.1-.86.24-.09.14-.14.58-.14,1.31v14.75c.45.02,1.07.03,1.88.03,1.95,0,3.32-.1,4.12-.3.8-.2,1.34-.57,1.62-1.12.28-.55.45-1.29.5-2.23.02-.22.11-.32.29-.32.21,0,.3.12.29.38v2.17Z"/>
          <path class="cls-3" d="M134,29.13c0,.14-.1.21-.3.21h-.25c-.1-.05-1.23-.08-3.4-.08-.42,0-.83.02-1.25.05-.22.02-.55.02-1,.02-.22,0-.33-.08-.33-.23,0-.13.22-.21.65-.23.67-.02,1.06-.1,1.17-.24.12-.14.17-.62.17-1.44v-13.19c0-.82-.04-1.28-.13-1.38-.1-.17-.57-.27-1.39-.3-.32-.01-.48-.07-.48-.18,0-.13.1-.2.3-.2h3.4c.25,0,.74,0,1.46.02l.96-.02c.27,0,.4.07.4.21,0,.13-.37.21-1.11.24-.42.02-.68.09-.77.22-.09.13-.14.48-.14,1.05v13.35c0,.95.04,1.47.12,1.55.18.18.73.29,1.62.33.18,0,.28.07.28.21Z"/>
          <path class="cls-3" d="M148.89,24.47c0,1.43-.55,2.65-1.64,3.66-1.09,1.01-2.4,1.51-3.94,1.51-.9,0-1.98-.27-3.23-.82-.33-.15-.58-.23-.75-.23-.2,0-.33.23-.38.69-.02.24-.12.36-.33.36-.17,0-.25-.1-.25-.3,0-.13,0-.23.03-.3.13-1.02.2-1.96.2-2.83,0-.17-.02-.63-.05-1.4-.02-.1-.03-.23-.03-.4,0-.25.1-.38.3-.38.17,0,.28.2.35.61.43,3,1.84,4.49,4.22,4.49,1.02,0,1.8-.29,2.36-.86s.84-1.39.84-2.44c0-.93-.27-1.73-.81-2.39-.54-.66-1.47-1.31-2.79-1.96-1.58-.78-2.68-1.54-3.3-2.27s-.92-1.64-.92-2.73c0-1.38.45-2.52,1.34-3.42.89-.9,2.02-1.35,3.39-1.35.57,0,1.35.19,2.35.58.35.13.61.2.77.2.18,0,.3-.03.36-.1.06-.07.11-.24.16-.52.03-.17.12-.25.28-.25.17,0,.25.1.25.3,0,.13,0,.23-.03.3-.05.4-.08.88-.08,1.45,0,.8.04,1.43.12,1.9l.03.4c.02.18-.06.27-.23.27-.18,0-.31-.19-.38-.57-.18-.98-.62-1.8-1.3-2.46-.68-.66-1.45-.99-2.3-.99s-1.5.27-1.99.8c-.49.53-.74,1.26-.74,2.18,0,1.07.36,1.92,1.07,2.57.4.37,1.27.88,2.6,1.55,1.57.78,2.69,1.58,3.38,2.39.68.81,1.02,1.73,1.02,2.76Z"/>
          <path class="cls-3" d="M166.2,16.44c0,.22-.1.32-.3.32s-.34-.22-.42-.65c-.03-.3-.07-.6-.1-.9-.12-.6-.31-1.11-.58-1.52-.35-.55-.92-.9-1.72-1.05-.52-.1-.93-.14-1.25-.12-.78.02-1.26.04-1.43.05v15.1c0,.6.16.98.48,1.13.17.08.63.13,1.4.15.2.02.3.09.3.21,0,.14-.13.21-.4.21-.13,0-.25,0-.35-.02-1-.03-1.71-.05-2.12-.05-.55,0-1.07.01-1.55.04-.48.03-1.1.04-1.85.04-.38,0-.58-.07-.58-.2,0-.15.36-.23,1.08-.25.52,0,.85-.11,1-.33.08-.13.12-.48.12-1.03v-15c-1.65.02-2.67.1-3.08.25-1.05.38-1.67,1.41-1.85,3.07-.05.5-.17.75-.35.75-.2,0-.3-.17-.3-.52,0-.18,0-.37.03-.55l.05-.58c.05-.77.12-1.77.22-3.02h1.12l5.1.08c.6.02,1.53.02,2.8,0l4.15-.08c.03.93.14,2.32.32,4.15,0,.05,0,.11.03.19.02.08.03.12.03.14Z"/>
        </g>
        <polyline class="cls-1" points="0 34.98 169.73 34.98 201.19 .4"/>
      </g>
      <g>
        <path class="cls-2" d="M42.91,66.31c-.2.11-.4.29-.84.68-.13.13-2.66,2.79-3.17,3.32.35.18,1.1.64,1.1.95,0,.13-.2.7-.26.81-.04.09-.07,1.83-.07,2.27,0,.99.09,5.35.09,6.23,0,.46-.07,1.36-.68,1.36-.73,0-1.17-1.21-1.17-1.67,0-.2.22-1.06.24-1.23.15-1.14.24-2.75.24-3.94,0-.75-.09-3.15-.18-3.5-.04-.15-.11-.29-.26-.4-1.41,1.32-4.18,3.7-7.77,5.08l-.09-.11c5.11-3.39,10.91-10.06,10.91-11,0-.53-.24-.7-1.12-1.34.26-.07.53-.13.88-.13,1.3,0,2.73,1.47,2.73,2.05,0,.18-.04.22-.59.57Z"/>
        <path class="cls-2" d="M59.7,75.36c-.33,0-.62-.29-.97-.66-2.02-2.24-3.17-3.04-4.69-3.61,0,.86-.04,4.69-.02,5.48,0,.57.13,3.1.13,3.61,0,.46,0,1.76-.86,1.76-.73,0-1.03-1.28-1.03-1.85,0-.33.02-.53.15-1.47.26-1.74.29-5.21.29-7.09,0-.95-.02-5.32-.2-6.03-.13-.48-.62-.7-1.76-1.1.44-.26.97-.53,1.45-.53.33,0,2.49.46,2.49,1.17,0,.18-.26.92-.31,1.1-.24.84-.29,3.37-.31,4.44,2.25.35,4.47,1.32,5.68,2.38.4.35.66.9.66,1.47,0,.73-.44.92-.7.92Z"/>
        <path class="cls-2" d="M80.48,73.62c-.2,0-.73-.04-.77-.04-.79-.07-1.01-.09-2.49-.09-6.71,0-8.69.13-9.68.4-.07.02-.77.2-.84.2-.57,0-1.76-1.41-1.76-2.42,0-.13.02-.55.26-1.06.75,1.67,1.43,1.67,3.72,1.67,1.52,0,8.67-.02,9.68-.26.13-.02.77-.2.9-.2s2.33.24,2.33,1.1c0,.68-1.1.7-1.36.7Z"/>
        <path class="cls-2" d="M98.88,68.07c-.51.33-.51.4-.57,1.32-.09,1.45-.33,7.83-.57,9.13-.11.53-.37,1.47-.88,1.47-.15,0-.7-.11-1.01-1.58-.88.11-4.8.48-5.57.62-.77.11-.95.2-1.74.57-.11.04-.22.11-.33.11-.44,0-1.83-1.47-1.83-2.42,0-.24.07-.42.13-.64.7.92,1.19,1.21,2.09,1.21.42,0,5.68-.33,7.63-.59.04-.68.29-3.67.33-4.29-1.98.04-6.4.24-7.5.73-.15.07-.68.29-.75.29-.42,0-1.69-1.41-1.69-2.29,0-.2.04-.33.11-.51.84,1.1,1.34,1.1,1.91,1.1s.73,0,4.44-.31c.2-.02,2.99-.18,3.56-.22.09-.99.18-2.51.18-3.5,0-.48-.15-.53-.48-.53-1.39,0-6.98.55-7.22.66-.13.07-.92.35-1.03.35-.31,0-1.56-1.14-1.56-2.31,0-.22.04-.42.13-.73.92,1.3,1.14,1.3,2.53,1.3,1.52,0,6.56-.22,7.26-.55.24-.11.38-.24.64-.55.04-.07.11-.15.24-.15.22,0,1.98,1.39,1.98,1.78,0,.11-.02.24-.44.53Z"/>
        <path class="cls-2" d="M119.02,73.62c-.2,0-.73-.04-.77-.04-.79-.07-1.01-.09-2.49-.09-6.71,0-8.69.13-9.68.4-.07.02-.77.2-.84.2-.57,0-1.76-1.41-1.76-2.42,0-.13.02-.55.26-1.06.75,1.67,1.43,1.67,3.72,1.67,1.52,0,8.67-.02,9.68-.26.13-.02.77-.2.9-.2s2.33.24,2.33,1.1c0,.68-1.1.7-1.36.7Z"/>
        <path class="cls-2" d="M137.12,70.19c-.37.29-.37.4-.51,1.23-.55,3.34-1.17,6.98-2.79,8.67-.57.62-1.06.79-1.3.79-.33,0-.42-.33-.48-.64-.18-.9-.24-1.19-1.8-2.79l.07-.11c1.12.53,2.24,1.08,2.57,1.08.22,0,.37-.09.51-.31,1.52-2.64,1.91-6.69,1.8-8.47-.79.07-1.12.13-4.03.53-.97,3.34-2.53,8.54-7.94,10.74l-.07-.13c2.55-2.13,4.91-4.88,6.51-10.41-1.67.24-2.77.4-3.41.73-.59.31-.66.33-.86.33-.46,0-1.72-.99-1.72-2.22,0-.24.07-.37.15-.62.33.55,1.28,1.12,2.07,1.12.24,0,1.54-.11,2.31-.2l1.74-.2c.48-1.94.48-2.84.48-3.04,0-.95-.42-1.14-1.25-1.52.29-.15.64-.35,1.21-.35.66,0,2.29.7,2.29,1.3,0,.18-.13.33-.4.66-.11.13-.18.26-.33.84-.09.31-.44,1.69-.51,1.96.42-.04,2.9-.31,3.06-.37.18-.09.86-.73,1.03-.73.33,0,2,1.17,2,1.61,0,.2-.09.26-.42.53Z"/>
        <path class="cls-2" d="M152.13,75.31c-.37,0-.48-.13-1.5-1.28-.97-1.08-2.64-2.35-4.16-3.01-.02.18-.02,3.61,0,4,0,.26.13,4.16.13,5.17,0,.37,0,1.72-.84,1.72-.64,0-1.06-1.08-1.06-1.91,0-.35.11-.99.15-1.28.2-1.12.26-7.42.26-10.47s-.09-3.41-1.96-3.83c.29-.2.77-.53,1.47-.53.97,0,2.46.62,2.46,1.1,0,.11-.31,1.1-.35,1.23-.18.55-.26,3.01-.29,4.33,1.54.33,3.28.81,4.73,1.65.84.48,1.67,1.36,1.67,2.2,0,.42-.26.9-.75.9ZM153.87,69.33c-.33,0-.42-.11-1.3-.99-.84-.84-1.8-1.39-2.29-1.65,1.65-.13,4.09.62,4.09,2,0,.46-.29.64-.51.64ZM155.83,67.5c-.26,0-.9-.55-1.32-.9-.73-.64-1.8-1.21-2.22-1.43.33-.04.42-.04.64-.04.09,0,3.34,0,3.34,1.74,0,.35-.18.64-.44.64Z"/>
        <path class="cls-2" d="M173.43,73.62c-.2,0-.73-.04-.77-.04-.79-.07-1.01-.09-2.49-.09-6.71,0-8.69.13-9.68.4-.07.02-.77.2-.84.2-.57,0-1.76-1.41-1.76-2.42,0-.13.02-.55.26-1.06.75,1.67,1.43,1.67,3.72,1.67,1.52,0,8.67-.02,9.68-.26.13-.02.77-.2.9-.2s2.33.24,2.33,1.1c0,.68-1.1.7-1.36.7Z"/>
        <path class="cls-2" d="M44.65,100.19c-.37.29-.37.4-.51,1.23-.55,3.34-1.17,6.98-2.79,8.67-.57.62-1.06.79-1.3.79-.33,0-.42-.33-.48-.64-.18-.9-.24-1.19-1.8-2.79l.07-.11c1.12.53,2.24,1.08,2.57,1.08.22,0,.37-.09.51-.31,1.52-2.64,1.91-6.69,1.8-8.47-.79.07-1.12.13-4.03.53-.97,3.34-2.53,8.54-7.94,10.74l-.07-.13c2.55-2.13,4.91-4.88,6.51-10.41-1.67.24-2.77.4-3.41.73-.59.31-.66.33-.86.33-.46,0-1.72-.99-1.72-2.22,0-.24.07-.37.15-.62.33.55,1.28,1.12,2.07,1.12.24,0,1.54-.11,2.31-.2l1.74-.2c.48-1.94.48-2.84.48-3.04,0-.95-.42-1.14-1.25-1.52.29-.15.64-.35,1.21-.35.66,0,2.29.7,2.29,1.3,0,.18-.13.33-.4.66-.11.13-.18.26-.33.84-.09.31-.44,1.69-.51,1.96.42-.04,2.91-.31,3.06-.37.18-.09.86-.73,1.03-.73.33,0,2,1.17,2,1.61,0,.2-.09.26-.42.53Z"/>
        <path class="cls-2" d="M53.37,99.13c-.04.51-.22,2.77-.26,3.23-.57,4.73-3.41,7.24-5.28,8.01l-.11-.13c4.07-3.83,4.07-8.58,4.07-10.43s-.02-1.83-1.69-2.27c.35-.24.84-.57,1.45-.57.57,0,2.07.48,2.07,1.1,0,.18-.22.9-.24,1.06ZM58.72,108.22c-.75.53-.81.62-1.39,1.23-.11.11-.31.33-.44.33-.42,0-1.41-1.8-1.41-2.09,0-.15.26-.81.29-.97.2-.92.2-3.78.2-4.38,0-.81-.02-4.88-.13-5.41-.09-.4-.53-.68-1.58-1.03.29-.18.73-.46,1.23-.46.66,0,2.38.66,2.38,1.32,0,.2-.26,1.08-.31,1.25-.22,1.12-.33,7.28-.33,8.63,0,.09,0,.37.15.37.53,0,4.51-2.53,7.96-6.93l.18.13c-1.5,3.61-4.66,6.49-6.8,8.01Z"/>
        <path class="cls-2" d="M84.63,101.53c-.4,0-.86-.09-1.45-.2-1.06-.2-1.78-.24-2.77-.24-1.34,0-2.49.13-2.9.15.18.15.86.7.97.79.04.04.13.13.13.24s-.42.75-.51.86c-.22.59-.79,2.07-1.14,2.86-1.1,2.42-2.73,4.93-5.88,6.03l-.02-.18c3.74-2.71,5.46-8.25,5.46-9.33,0-.31,0-.59-.42-1.12-2.22.29-4.14.7-4.47.86-.73.33-.79.37-1.01.37-.51,0-1.89-.92-1.89-2.44,0-.26.04-.46.13-.75.59.92,1.08,1.47,2.13,1.47.44,0,6.38-.7,7.57-.79,1.23-.11,3.19-.26,3.61-.42.55-.22.62-.24.75-.24.09,0,2.38.57,2.38,1.45,0,.42-.29.62-.66.62ZM80.05,96.95c-1.25,0-2.13.09-5.04.4-.42.04-.95.09-1.3.09-.95,0-1.69-1.06-1.69-1.69,0-.13.04-.29.07-.4.48.59,1.5.86,2.22.86,1.23,0,3.43-.22,4.6-.57.37-.11.77-.24.9-.24.37,0,1.83.26,1.83.95,0,.62-.66.62-1.58.62ZM85.55,99.17c-.29,0-.37-.09-1.06-.9-.62-.7-1.32-1.32-2.09-1.83.84.02,3.63.33,3.63,2.02,0,.37-.18.7-.48.7ZM87.25,97.72c-.2,0-.29-.11-1.1-.97-.81-.88-1.14-1.14-2.24-1.8.79.07,3.83.31,3.83,2,0,.22-.07.77-.48.77Z"/>
        <path class="cls-2" d="M97.92,99.02c-.64.33-2.79,2.75-3.26,3.19.7.48.79.53.79.75,0,.09-.11.57-.13.66-.09.53-.11,1.67-.11,2.88,0,.7.07,3.76.07,4.4,0,.26,0,.95-.64.95-.55,0-.86-.81-.86-1.23,0-.18.13-.97.15-1.12.11-1.3.2-3.23.2-4.53,0-1.39-.04-1.69-.2-2.09-.97.84-3.79,3.23-6.34,4.05l-.07-.22c3.74-2.24,8.87-7.7,8.87-8.71,0-.33-.31-.51-1.03-.95.35-.07.51-.11.7-.11,1.32,0,2.38,1.3,2.38,1.56,0,.24-.18.33-.53.53Z"/>
        <path class="cls-2" d="M118.45,99.22c-.31.22-.4.33-.48.7-.35,1.43-.53,2.53-1.23,6.65.42.09,1.03.42,1.03.9,0,.59-.57.59-1.19.59-.42,0-2.25-.09-2.62-.09-2.79,0-5.19.35-6.14.66-.2.07-.99.37-1.17.37-.68,0-1.83-1.58-1.83-2.44,0-.33.09-.53.15-.73.26.31,1.17,1.41,2.35,1.41.75,0,1.67-.09,8.05-.59.68-4.55,1.03-6.95,1.03-7.81,0-.2-.09-.26-.31-.26-1.63,0-7.68.77-8.18.99-.15.07-.86.35-.99.35-.73,0-1.96-1.45-1.96-2.55,0-.35.04-.55.11-.75.57.86,1.39,1.56,2.51,1.56,1.03,0,7.92-.51,8.51-.73.18-.09.92-.59,1.08-.59.24,0,1.8,1.32,1.8,1.76,0,.24-.11.31-.55.59Z"/>
        <path class="cls-2" d="M138.18,103.62c-.2,0-.73-.04-.77-.04-.79-.07-1.01-.09-2.49-.09-6.71,0-8.69.13-9.68.4-.07.02-.77.2-.84.2-.57,0-1.76-1.41-1.76-2.42,0-.13.02-.55.26-1.06.75,1.67,1.43,1.67,3.72,1.67,1.52,0,8.67-.02,9.68-.26.13-.02.77-.2.9-.2s2.33.24,2.33,1.1c0,.68-1.1.7-1.36.7Z"/>
        <path class="cls-2" d="M156.37,109.56c-.86.35-4.22.35-5.61.35-5.79,0-5.99-1.08-5.99-6.12,0-.81.09-4.49.09-5.24,0-1.85,0-2.11-1.78-2.88.51-.42.95-.48,1.12-.48.77,0,2.68.9,2.68,1.56,0,.15-.29.77-.33.9-.29,1.14-.44,4.97-.46,5.39,3.17-1.14,7.33-3.92,7.33-4.6,0-.37-.55-.75-.95-1.01.26-.07.42-.11.7-.11,1.39,0,2.75,1.47,2.75,2.02,0,.35-.13.4-.9.62-.35.09-2.75,1.36-3.26,1.61-2,.97-3.54,1.52-5.68,2-.09,4.4-.11,5.08,3.81,5.08,2.46,0,3.7-.37,4.4-.59.29-.09.48-.13.86-.13.55,0,1.8.07,1.8.92,0,.46-.4.62-.59.7Z"/>
        <path class="cls-2" d="M175.86,103.62c-.2,0-.73-.04-.77-.04-.79-.07-1.01-.09-2.49-.09-6.71,0-8.69.13-9.68.4-.07.02-.77.2-.84.2-.57,0-1.76-1.41-1.76-2.42,0-.13.02-.55.26-1.06.75,1.67,1.43,1.67,3.72,1.67,1.52,0,8.67-.02,9.68-.26.13-.02.77-.2.9-.2s2.33.24,2.33,1.1c0,.68-1.1.7-1.36.7Z"/>
        <path class="cls-2" d="M193.41,98.76c-.4.24-.57.64-.84,1.41-1.28,3.67-3.32,7.17-6.6,9.29-1.85,1.19-3.41,1.58-4.09,1.76l-.04-.18c4-2.07,8.41-6.86,9.75-13.16-1.5-.02-7.83.9-8.98,1.23-.2.07-1.19.51-1.23.51-.42,0-1.78-1.12-1.78-2.57,0-.29.11-.53.2-.7.99,1.17,1.17,1.39,2.13,1.39.62,0,8.82-.68,9.48-.97.15-.07.7-.53.84-.53.26,0,1.89,1.43,1.89,1.85,0,.26-.02.26-.73.68Z"/>
        <path class="cls-2" d="M210.52,101.29c-.35.04-.4.09-.92.44-1.58,1.03-2.51,1.63-3.48,2.09-1.19,5.63-3.32,7.11-4.71,7.97l-.11-.15c2.66-2.75,3.56-7.46,3.56-8.1,0-.35-.04-.64-1.23-1.1.29-.15.53-.26.95-.26.59,0,1.63.44,1.74.99.42-.33,2.05-1.63,2.9-2.86-1.36.04-5.61.48-7.39.95-.2.04-1.03.37-1.21.37-.35,0-1.5-.84-1.5-1.78,0-.4.09-.57.18-.77.51.97.99,1.1,1.56,1.1.73,0,7.22-.62,8.14-.84.15-.04.81-.29.95-.29.22,0,1.5,1.45,1.5,1.83,0,.33-.11.35-.92.42Z"/>
        <path class="cls-2" d="M231.58,103.62c-.2,0-.73-.04-.77-.04-.79-.07-1.01-.09-2.49-.09-6.71,0-8.69.13-9.68.4-.07.02-.77.2-.84.2-.57,0-1.76-1.41-1.76-2.42,0-.13.02-.55.26-1.06.75,1.67,1.43,1.67,3.72,1.67,1.52,0,8.67-.02,9.68-.26.13-.02.77-.2.9-.2s2.33.24,2.33,1.1c0,.68-1.1.7-1.36.7Z"/>
        <path class="cls-2" d="M249.89,109.98c-.57,0-.77-.57-.95-1.14-.24-.81-.44-1.45-.88-2.46-2.09.73-6.89,1.85-9.59,2.46-.4.09-.48.15-.73.42-.2.24-.33.33-.48.33-.42,0-1.98-1.61-1.8-3.28.68.73.9.9,1.94.9.13,0,.59-.02.75-.04,2.84-6.09,4.25-9.13,4.25-10.32,0-.73-.62-1.1-1.52-1.61.51-.13.88-.22,1.19-.22,1.01,0,2.6,1.3,2.6,2.09,0,.26-.09.4-.55.81-.33.29-.84,1.58-1.28,2.46-.81,1.61-2.42,4.51-3.94,6.71,3.04-.31,3.54-.37,8.96-1.21-.73-1.5-1.5-2.57-2.95-4.27,1.74.77,3.17,2.2,4.42,3.87.88,1.17,1.39,2.13,1.39,3.3,0,.77-.44,1.19-.81,1.19Z"/>
        <path class="cls-2" d="M39.37,134.87c1.98,2.31,5.5,4.44,9.46,4.62v.18c-1.3.33-1.98,1.21-2.35,2-.68-.22-5.59-2.75-7.5-6.69.02.99.04,5.32.09,6.21,0,.11.02.64.02.75,0,.77-.7,1.08-1.23,1.08-.46,0-.57-.33-.57-.62,0-.07,0-.24.02-.48.11-1.52.24-3.41.24-5.98-2.02,2.42-6.03,5.04-9.29,5.81l-.07-.18c3.32-1.34,7.9-5.96,8.34-6.69h-2.95c0,.75-.15,1.3-1.14,1.3-.46,0-.55-.22-.55-.48,0-.24.11-1.32.11-1.54.04-.73.07-1.91.07-3.1,0-2-.07-2.71-.29-3.59l2.05.9h3.74c0-.51-.02-1.72-.04-2.27h-5.98c-.4,0-1.54,0-2.6.2l-.44-.88c1.63.13,3.06.15,3.39.15h5.61c-.07-1.34-.13-2.13-.44-2.86l2.29.59c.2.04.37.13.37.31,0,.24-.53.59-.73.73v1.23h5.99l.95-1.1c.15-.18.24-.29.35-.29s.24.11.4.24l1.34,1.1c.15.13.22.22.22.33,0,.2-.2.24-.33.24h-8.93v2.27h3.76l.73-.64s.18-.15.26-.15c.11,0,.24.09.31.15l.99.79c.13.11.22.22.22.35,0,.2-.13.29-.7.64-.02.48-.02,1.12.04,2.75.02.31.13,2.66.13,2.86,0,.7-.64.92-1.12.92-.59,0-.57-.46-.53-1.17h-3.7ZM33.56,128.89v2.38h3.98l.02-2.38h-4ZM37.55,134.34v-2.55h-3.98v2.55h3.98ZM43.07,134.34v-2.55h-4.09c0,.35-.02,2.16-.02,2.55h4.11ZM43.07,131.26v-2.38h-4.09v2.38h4.09Z"/>
        <path class="cls-2" d="M51.44,141.56c-.57,0-.95-.51-.95-.95,0-.55.48-.92,1.17-1.45.97-.77,1.47-1.69,1.69-2.35h.13c.02.26.04.55.04.95,0,2.05-.86,3.81-2.09,3.81ZM68.14,128.91c-.29.2-.37.26-.48.35.04,2.22.07,3.08.11,3.96,0,.2.07,1.01.07,1.19,0,.7-.62.92-1.01.92-.68,0-.68-.44-.68-.7v-.29h-10.19c-.4,0-1.52,0-2.6.2l-.42-.88c1.39.11,2.77.15,3.37.15h9.83v-2.33h-9.86c-.4,0-1.54,0-2.6.2l-.44-.86c1.36.11,2.73.13,3.39.13h9.5v-2.24h-12.08c-.73.59-1.58,1.21-3.08,2l-.07-.09c2.95-2.82,4.91-5.81,5.39-6.8.22-.46.24-.7.31-1.23l1.94.95c.11.04.31.2.31.42s-.46.37-.81.46c-.11.13-.33.4-.51.59h4.91l.79-.66c.13-.11.29-.24.37-.24.13,0,.35.15.46.24l1.03.81c.11.09.22.18.22.33,0,.26-.18.29-.84.44-.26.07-.42.18-2.25,1.45-.37.26-.86.59-1.17.79h4.77l.64-.62c.11-.11.26-.26.35-.26.11,0,.24.13.33.2l.95.75c.13.11.24.22.24.35,0,.11-.09.2-.22.31ZM57.05,125.54c-.31.33-2.07,2.29-2.4,2.64h5.9c.24-.33,1.28-1.91,1.63-2.64h-5.13ZM64.93,142.2c-.75.15-5.02.15-6.29.15-2.42,0-2.6-.46-2.6-2.55,0-3.61,0-3.76-.18-4.53l2.07.66c.13.04.35.18.35.31,0,.11-.09.2-.18.26-.07.07-.42.33-.48.4,0,.29-.04,3.23,0,3.59.04.4.48.42,1.01.42.99-.02,4.45.02,4.93-.15.26-.09.51-.26.66-.66.26-.68.55-1.96.66-2.49h.15c.13.73.42,2.38.84,2.75.35.33.48.46.48.73s-.24.9-1.43,1.12ZM61.85,138.64c-.59,0-.7-.26-1.23-1.54-.13-.31-.51-1.19-1.17-1.76l.09-.13c2.88.81,3.15,1.96,3.15,2.29,0,.51-.2,1.14-.84,1.14ZM69.53,140.42c-.62,0-.68-.15-1.3-1.54-.44-1.01-.75-1.67-1.52-2.44l.02-.04c1.19.2,3.72,1.52,3.72,3.06,0,.59-.42.97-.92.97Z"/>
        <path class="cls-2" d="M80.74,130.05c-.2.22-1.3,2.29-1.56,2.71-1.14,1.83-3.1,4.62-6.42,5.94l-.09-.15c4.75-4.25,6.25-8.76,6.25-9.35,0-.7-1.03-1.23-1.41-1.41.22-.13.4-.22.92-.22,1.34,0,2.79,1.25,2.79,1.83,0,.18-.13.29-.48.66ZM90.4,137.62c-.59,0-.75-.53-.86-1.01-.77-3.37-2.64-6.36-5.13-8.76,2.82,1.14,4.67,3.39,5.81,5.17.79,1.21,1.1,2.18,1.1,3.28,0,.2,0,1.32-.92,1.32Z"/>
        <path class="cls-2" d="M100.33,129.31c-.37,0-.64-.26-1.34-.97-1.54-1.56-2.77-2.13-3.61-2.51,2.64-.18,5.76.77,5.76,2.6,0,.48-.37.88-.81.88ZM102.25,136.85c-.46.35-2.53,1.85-2.9,2.22-.11.11-.59.66-.7.77-.09.09-.26.13-.37.13-.77,0-2.22-1.85-2.22-2.88,0-.4.13-.73.22-.97.51.99,1.14,1.45,1.61,1.45.73,0,4.14-2.53,5.08-3.26,3.54-2.71,5.24-4.6,7.02-6.64l.11.07c-.53,1.61-2.99,5.39-7.83,9.11Z"/>
        <path class="cls-2" d="M127.45,140.42c-.48,0-.57-.15-1.43-1.65-.09-.13-1.52-2.6-4.47-4.86-2.6,3.12-5.85,5.77-9.83,6.56v-.13c5.7-2.51,10.67-9,11.79-12.81-1.32.22-5.21.81-6.14,1.39-.37.24-.51.31-.66.31-.31,0-1.54-1.21-1.54-2.09,0-.55.09-.77.22-1.06.68,1.19,1.01,1.34,1.58,1.34.92,0,5.52-.55,6.18-.84.18-.07.92-.68,1.1-.68.29,0,1.89,1.41,1.89,1.72,0,.22-.09.26-.81.59-.2.09-.29.22-.4.44-1.28,2.4-1.65,3.1-3.1,4.93,1.94.9,6.25,3.39,6.25,5.79,0,.73-.35,1.06-.64,1.06ZM127.48,126.73c-.26,0-.37-.11-1.1-1.03-.18-.22-.9-1.12-2.24-1.78.55-.02,1.21-.02,2.71.64.53.24,1.12.55,1.12,1.45,0,.7-.4.73-.48.73ZM129.72,125.5c-.26,0-.37-.11-1.32-1.1-.64-.66-1.39-1.21-2.2-1.61.7-.02,3.96.22,3.96,2.09,0,.55-.33.62-.44.62Z"/>
        <path class="cls-2" d="M44.89,159.26c-.2.13-.44.33-.57.92-.26,1.19-1.06,5.65-1.17,6.42.75.37,1.03.51,1.03.86,0,.64-.7.64-.84.64-.44,0-2.38-.11-2.77-.11-3.17,0-6.07.4-6.86.77-.44.2-.48.22-.64.22-.57,0-1.85-1.61-1.85-2.51,0-.29.07-.44.2-.68.13.22,1.08,1.45,2.35,1.45.29,0,4.16-.29,4.95-.33,1.03-.04,2.49-.13,3.06-.22.46-2.46,1.08-7.37,1.08-7.75,0-.31-.13-.33-.4-.33-1.8,0-7.17.59-8.14.95-.15.07-.79.35-.92.35-.57,0-1.94-1.36-1.94-2.44,0-.35.07-.55.15-.77,1.28,1.45,1.65,1.45,2.33,1.45.81,0,8.12-.37,8.8-.68.13-.07.66-.48.79-.48.26,0,1.85,1.41,1.85,1.74,0,.2-.04.22-.51.53ZM46.46,157.74c-.29,0-.35-.09-1.03-.84-1.12-1.28-1.98-1.69-2.35-1.89,1.83-.11,3.94.73,3.94,2,0,.37-.24.73-.55.73ZM48.44,156.36c-.26,0-.37-.11-1.32-1.08-1.08-1.08-1.61-1.34-2.2-1.63,1.45-.09,4.05.55,4.05,1.98,0,.51-.29.73-.53.73Z"/>
        <path class="cls-2" d="M65.9,161.53c-.4,0-.86-.09-1.45-.2-1.06-.2-1.78-.24-2.77-.24-1.34,0-2.49.13-2.9.15.18.15.86.7.97.79.04.04.13.13.13.24s-.42.75-.51.86c-.22.59-.79,2.07-1.14,2.86-1.1,2.42-2.73,4.93-5.88,6.03l-.02-.18c3.74-2.71,5.46-8.25,5.46-9.33,0-.31,0-.59-.42-1.12-2.22.29-4.14.7-4.47.86-.73.33-.79.37-1.01.37-.51,0-1.89-.92-1.89-2.44,0-.26.04-.46.13-.75.59.92,1.08,1.47,2.13,1.47.44,0,6.38-.7,7.57-.79,1.23-.11,3.19-.26,3.61-.42.55-.22.62-.24.75-.24.09,0,2.38.57,2.38,1.45,0,.42-.29.62-.66.62ZM61.32,156.95c-1.25,0-2.13.09-5.04.4-.42.04-.95.09-1.3.09-.95,0-1.69-1.06-1.69-1.69,0-.13.04-.29.07-.4.48.59,1.5.86,2.22.86,1.23,0,3.43-.22,4.6-.57.37-.11.77-.24.9-.24.37,0,1.83.26,1.83.95,0,.62-.66.62-1.58.62ZM66.82,159.17c-.29,0-.37-.09-1.06-.9-.62-.7-1.32-1.32-2.09-1.83.84.02,3.63.33,3.63,2.02,0,.37-.18.7-.48.7ZM68.51,157.72c-.2,0-.29-.11-1.1-.97-.81-.88-1.14-1.14-2.24-1.8.79.07,3.83.31,3.83,2,0,.22-.07.77-.48.77Z"/>
        <path class="cls-2" d="M79.19,159.02c-.64.33-2.79,2.75-3.26,3.19.7.48.79.53.79.75,0,.09-.11.57-.13.66-.09.53-.11,1.67-.11,2.88,0,.7.07,3.76.07,4.4,0,.26,0,.95-.64.95-.55,0-.86-.81-.86-1.23,0-.18.13-.97.15-1.12.11-1.3.2-3.23.2-4.53,0-1.39-.04-1.69-.2-2.09-.97.84-3.79,3.23-6.34,4.05l-.07-.22c3.74-2.24,8.87-7.7,8.87-8.71,0-.33-.31-.51-1.03-.95.35-.07.51-.11.7-.11,1.32,0,2.38,1.3,2.38,1.56,0,.24-.18.33-.53.53Z"/>
        <path class="cls-2" d="M91.13,160.25c-.37.46-1.65,2.71-1.94,3.15-1.32,2.09-2.9,3.89-6.09,5.54l-.04-.2c4.14-3.65,6.18-8.23,6.18-9.18,0-.55-.2-1.06-1.39-1.58.24-.09.68-.2,1.12-.2,1.03,0,2.62,1.43,2.62,1.8,0,.11-.24.42-.46.66ZM100.85,167.76c-.64,0-.77-.48-1.34-2.29-.9-2.93-3.3-5.98-4.75-7.37,2.79.84,6.91,5.17,6.91,8.45,0,.59-.33,1.21-.81,1.21ZM100.26,159.02c-.31,0-.4-.11-1.17-1.01-.09-.11-.9-1.08-2.07-1.76,1.39-.02,3.74.75,3.74,2.11,0,.44-.26.66-.51.66ZM102.08,157.02c-.26,0-.33-.07-.92-.7-.2-.22-1.19-1.1-2.44-1.72,1.41-.09,3.89.53,3.89,1.8,0,.42-.29.62-.53.62Z"/>
      </g>
      <g>
        <path class="cls-2" d="M299.14,78.09c-.07,0-1.03-.24-1.1-.26-1.56-.4-2.77-.55-4.86-.55-3.46,0-7.64.68-9.09,1.28-1.01.42-1.12.48-1.36.48-.59,0-2.13-1.28-2.13-2.53,0-.29.04-.51.13-.79.7.99,1.34,1.47,2.05,1.47.18,0,7.15-.77,8.49-.86,1.03-5.9,1.1-6.21,1.25-7.88-1.34.11-4.82.86-5.15,1.03-.09.04-.92.42-1.06.42-.51,0-1.83-1.25-1.83-2.27,0-.22.07-.4.18-.66.68,1.03,1.14,1.17,2.18,1.17s5.08-.57,5.52-.84c.13-.09.73-.55.86-.55s1.3.92,1.47,1.08c.37.31.51.46.51.68s-.15.37-.51.59c-.53.33-.55.4-.73,1.1-.22.86-.26,1.06-1.39,6.05.84-.04,3.54-.18,4.07-.24.15-.02.84-.13.97-.13.31,0,2.09.62,2.09,1.65,0,.55-.4.55-.57.55Z"/>
        <path class="cls-2" d="M319.12,77.6s-1.14-.2-1.72-.29c-.73-.13-2-.24-3.32-.24-2.02,0-6.49.37-8.23.92-.9.29-.99.31-1.19.31-.57,0-2.02-1.08-2.02-2.57,0-.24.04-.37.09-.57.79.97,1.36,1.36,2.6,1.36.13,0,6.09-.51,7.24-.55,1.34-.07,3.28-.15,3.96-.37.73-.22.79-.24.92-.24.46,0,2.22.77,2.22,1.63,0,.33-.2.62-.55.62ZM315.16,68.95c-.48.04-2.2.15-3.39.22-1.28.07-2.53.13-3.94.46-.15.04-.26.04-.4.04-.55,0-1.91-.48-2.02-2.16.4.26,1.17.77,2.71.77.73,0,3.89-.15,5.48-.59.2-.04,1.1-.4,1.3-.4.42,0,1.76.33,1.76,1.01,0,.53-.4.57-1.5.64Z"/>
        <path class="cls-2" d="M335.84,69.48c-.51.22-.7.42-1.19,1.36-2.11,4.11-4.42,6.87-7.79,8.96-1.17.73-2.66,1.5-4.31,1.87l-.04-.15c4.8-2.66,9.24-7.53,11.27-12.65-.9.09-2.4.31-3.3.44-.15.02-.59.09-.7.09-.22,0-.62-.09-1.12-.37-2.05,2.71-3.65,3.96-5.83,5.1l-.11-.18c3.61-3.3,5.74-7.26,5.74-7.96,0-.22-.04-.4-1.21-1.1.53-.18,1.01-.18,1.08-.18.88,0,2.49,1.01,2.49,1.58,0,.2-.09.31-.51.7-.22.2-.79.95-1.08,1.3.99.11,3.74-.2,4.31-.4.2-.07.95-.66,1.17-.66.24,0,1.83,1.32,1.83,1.74,0,.15-.07.22-.68.51Z"/>
        <path class="cls-2" d="M355.56,68.84c-.51.35-.53.37-.86,2.09-.33,1.76-.75,4.05-1.03,5.24-.02.07-.04.18-.04.24,0,.15.04.2.42.46.53.37.68.51.68.81,0,.53-.51.53-.59.53-.11,0-.26-.02-.42-.04-1.06-.13-1.5-.2-3.92-.2-2.66,0-4.29.15-5.08.24,0,.42-.04,1.23-.59,1.23-.77,0-1.14-1.54-1.14-2.13,0-.15.09-.84.09-.97,0-.57-.18-6.07-.66-7.85-.22-.77-.59-.99-1.5-1.32.26-.15.64-.37,1.12-.37.57,0,.9.18,1.96.81.29.18.51.18.7.18.24,0,1.34-.11,1.56-.13,1.03-.07,5.54-.33,6.45-.48.7-.11.84-.24,1.14-.51.13-.13.22-.15.29-.15.26,0,1.94,1.43,1.94,1.78,0,.18-.13.31-.51.55ZM352.83,68.25c-.64,0-3.45.15-6.05.42-.22.02-1.3.18-1.56.18-.15,0-.86-.26-1.03-.26-.07,0-.09.02-.09.2,0,.42.48,8.29.48,8.34.7,0,6.84-.33,7.75-.4.09-.73.92-6.71.92-7.99,0-.24-.09-.48-.42-.48Z"/>
        <path class="cls-2" d="M292.27,110.75c-.42-.11-.59-.18-.9-.18-.18,0-.44.02-1.34.4-1.5.64-2.29.68-2.97.68-4.38,0-6.82-3.61-6.82-8.32,0-5,2.73-8.58,6.54-8.58.4,0,.95.02,2.11.37.7.22.88.22,1.03.22.22,0,.77,0,1.45-.55l1.43,4.22-.66.29c-.42-.79-.75-1.39-1.52-2.13-.48-.44-1.94-1.69-3.76-1.69-2.97,0-4.64,3.92-4.64,7.75,0,4.05,1.85,7.72,5.04,7.72,1.74,0,3.32-1.17,3.32-3.01v-1.28c0-1.17-.81-1.61-1.65-1.61h-.9v-.7h5.83v.7c-.4,0-.59,0-.92.22-.57.4-.66,1.08-.66,1.45v4.03Z"/>
        <path class="cls-2" d="M300.81,95.9h-.64c-.95,0-1.58.51-1.58,1.52v9.13c0,2.38,1.47,4.27,4.14,4.27,2.16,0,4.11-1.39,4.11-4.44v-8.54c0-1.94-1.19-1.94-2.09-1.94v-.73h5.02v.73h-.46c-1.28,0-1.74.79-1.74,1.94v8.65c0,2.66-1.54,5.17-5.15,5.17-2.22,0-5.57-1.17-5.57-4.88v-9.35c0-.99-.62-1.52-1.56-1.52h-.77v-.73h6.29v.73Z"/>
        <path class="cls-2" d="M284.68,135.58l-1.08,3.34c-.07.18-.13.4-.13.73,0,.81.62.88.92.88h.62v.7h-4.78v-.7h.73c.92,0,1.72-.95,2.07-2.02l4.33-13.33,1.94-.42,4.82,14.28c.44,1.28,1.01,1.5,1.63,1.5h.48v.7h-5.41v-.7h.66c.33,0,.9-.31.9-.97,0-.24-.07-.4-.2-.81l-1.06-3.17h-6.45ZM287.85,125.9l-2.93,8.98h5.96l-3.04-8.98Z"/>
        <path class="cls-2" d="M298.07,125.17h7.33c3.37,0,5.59,1.32,5.59,3.56,0,1.54-1.03,2.53-1.52,2.9-.68.53-1.23.73-2.18.97.86.13,1.85.29,2.95,1.1.95.73,1.67,1.85,1.67,3.1,0,1.96-1.72,4.42-5.99,4.42h-7.85v-.7h.88c.92,0,1.56-.51,1.56-1.52v-11.6c0-.95-.57-1.52-1.56-1.52h-.88v-.73ZM302.27,132.39h2.93c1.91,0,3.74-.99,3.74-3.39,0-1.98-1.34-3.1-3.54-3.1h-1.56c-.92,0-1.56.51-1.56,1.52v4.97ZM302.27,133.09v5.92c0,.95.55,1.52,1.56,1.52h1.91c2.35,0,4.07-1.32,4.07-3.65,0-1.98-1.34-3.78-4-3.78h-3.54Z"/>
        <path class="cls-2" d="M326.11,129.11c-.81-1.23-2.4-3.63-5.35-3.63-3.52,0-5.26,3.59-5.26,7.42,0,4.27,2.07,7.75,5.77,7.75,3.12,0,4.66-2.86,5.24-3.98l.59.35c-.86,1.69-2.4,4.64-6.49,4.64-4.64,0-6.91-3.76-6.91-8.1,0-5.15,3.19-8.8,6.91-8.8.55,0,1.19.07,1.85.26.18.04,1.21.33,1.34.33.46,0,1.06-.26,1.47-.53l1.56,3.96-.73.33Z"/>
        <path class="cls-2" d="M333.55,136.74h-4.73v-1.43h4.73v1.43Z"/>
        <path class="cls-2" d="M349.72,125.96l-5.92,15.27h-.66l-5.52-14.06v11.84c0,.99.62,1.52,1.56,1.52h.42v.7h-4.88v-.7h.64c.92,0,1.56-.51,1.56-1.52v-11.6c0-.99-.62-1.52-1.56-1.52h-.64v-.73h4.07l5.24,13.55,5.26-13.55h4.33v.73h-.59c-1.21,0-1.56.55-1.56,1.52v11.6c0,.95.57,1.52,1.56,1.52h.59v.7h-6.16v-.7h.68c.95,0,1.58-.53,1.58-1.52v-13.05Z"/>
        <path class="cls-2" d="M360.12,135.58l-1.08,3.34c-.07.18-.13.4-.13.73,0,.81.62.88.92.88h.62v.7h-4.78v-.7h.73c.92,0,1.72-.95,2.07-2.02l4.33-13.33,1.94-.42,4.82,14.28c.44,1.28,1.01,1.5,1.63,1.5h.48v.7h-5.41v-.7h.66c.33,0,.9-.31.9-.97,0-.24-.07-.4-.2-.81l-1.06-3.17h-6.45ZM363.29,125.9l-2.93,8.98h5.96l-3.04-8.98Z"/>
        <path class="cls-2" d="M379.94,125.17c2.71,0,6.07.77,6.07,3.83,0,1.01-.37,2.05-1.45,2.95-.9.75-1.72.99-2.62,1.23l2.51,5.5c.51,1.1,1.39,1.85,2.64,1.85h.37v.7h-3.76l-3.56-7.85h-2.55v5.63c0,.97.62,1.52,1.56,1.52h.7v.7h-6.27v-.7h.68c.97,0,1.58-.55,1.58-1.52v-11.6c0-.95-.57-1.52-1.58-1.52h-.68v-.73h6.36ZM377.58,132.67h2.35c2.05,0,3.98-1.1,3.98-3.48,0-1.52-.81-3.3-3.7-3.3h-1.08c-.95,0-1.56.53-1.56,1.52v5.26Z"/>
        <path class="cls-2" d="M402.03,125.17l1.54,4.18-.64.29c-.79-1.39-2.13-3.74-4.47-3.74-1.12,0-1.56.64-1.56,1.52v11.6c0,.97.62,1.52,1.58,1.52h1.1v.7h-7.11v-.7h1.12c.92,0,1.56-.51,1.56-1.52v-11.6c0-1.08-.62-1.52-1.54-1.52-2.35,0-3.7,2.38-4.49,3.74l-.64-.29,1.54-4.18h11.99Z"/>
        <path class="cls-2" d="M424.71,140.75c-.42-.11-.59-.18-.9-.18-.18,0-.44.02-1.34.4-1.5.64-2.29.68-2.97.68-4.38,0-6.82-3.61-6.82-8.32,0-5,2.73-8.58,6.54-8.58.4,0,.95.02,2.11.37.7.22.88.22,1.03.22.22,0,.77,0,1.45-.55l1.43,4.22-.66.29c-.42-.79-.75-1.39-1.52-2.13-.48-.44-1.94-1.69-3.76-1.69-2.97,0-4.64,3.92-4.64,7.75,0,4.05,1.85,7.72,5.04,7.72,1.74,0,3.32-1.17,3.32-3.01v-1.28c0-1.17-.81-1.61-1.65-1.61h-.9v-.7h5.83v.7c-.4,0-.59,0-.92.22-.57.4-.66,1.08-.66,1.45v4.03Z"/>
        <path class="cls-2" d="M433.51,125.17c2.71,0,6.07.77,6.07,3.83,0,1.01-.37,2.05-1.45,2.95-.9.75-1.72.99-2.62,1.23l2.51,5.5c.51,1.1,1.39,1.85,2.64,1.85h.37v.7h-3.76l-3.56-7.85h-2.55v5.63c0,.97.62,1.52,1.56,1.52h.7v.7h-6.27v-.7h.68c.97,0,1.58-.55,1.58-1.52v-11.6c0-.95-.57-1.52-1.58-1.52h-.68v-.73h6.36ZM431.15,132.67h2.35c2.05,0,3.98-1.1,3.98-3.48,0-1.52-.81-3.3-3.7-3.3h-1.08c-.95,0-1.56.53-1.56,1.52v5.26Z"/>
        <path class="cls-2" d="M447.33,135.58l-1.08,3.34c-.07.18-.13.4-.13.73,0,.81.62.88.92.88h.62v.7h-4.78v-.7h.73c.92,0,1.72-.95,2.07-2.02l4.33-13.33,1.94-.42,4.82,14.28c.44,1.28,1.01,1.5,1.63,1.5h.48v.7h-5.41v-.7h.66c.33,0,.9-.31.9-.97,0-.24-.07-.4-.2-.81l-1.06-3.17h-6.45ZM450.5,125.9l-2.93,8.98h5.96l-3.04-8.98Z"/>
        <path class="cls-2" d="M473.18,141.23l-9.22-14.15v11.53c0,1.14.7,1.91,1.92,1.91h.59v.7h-5.72v-.7h.7c1.08,0,1.8-.64,1.8-1.91v-11c0-1.08-.79-1.72-1.8-1.72h-.7v-.73h4.07l8.27,12.83v-10.36c0-1.06-.75-1.74-1.72-1.74h-.79v-.73h5.74v.73h-.84c-1.03,0-1.67.59-1.67,1.74v13.6h-.64Z"/>
        <path class="cls-2" d="M478.15,125.17h6.32c5.15,0,8.34,2.64,8.34,7.92,0,3.76-1.98,8.14-8.14,8.14h-6.51v-.7h.75c.95,0,1.58-.51,1.58-1.52v-11.6c0-.99-.62-1.52-1.58-1.52h-.75v-.73ZM482.22,139.01c0,.92.55,1.52,1.56,1.52h1.06c3.98,0,5.98-3.56,5.98-7.61,0-2.79-1.14-7.02-5.9-7.02h-1.14c-.95,0-1.56.53-1.56,1.52v11.6Z"/>
        <path class="cls-2" d="M512.54,128.62l-.66.26c-.7-1.23-1.98-3.41-4.8-3.41-2.49,0-3.01,1.96-3.01,2.9,0,1.83,1.32,2.51,4.2,3.52.75.26,1.47.57,2.16.92,1.72.88,2.88,1.91,2.88,4.07,0,2.97-2.33,4.75-4.77,4.75-.77,0-1.54-.18-2.35-.44-.62-.22-.77-.22-.9-.22-.7,0-1.5.46-1.76.62l-1.63-4.25.84-.4c.59,1.03.95,1.58,1.74,2.29.92.81,2.33,1.63,3.96,1.63,1.47,0,3.26-.99,3.26-3.32,0-2.02-1.3-2.73-4.09-3.7-3.1-1.06-5.1-2.2-5.1-4.84,0-2.31,1.61-4.27,4.42-4.27.42,0,.97.04,1.56.18.24.07,1.14.24,1.32.24.77,0,1.01-.22,1.23-.42l1.52,3.87Z"/>
        <path class="cls-2" d="M528.18,125.17l1.54,4.18-.64.29c-.79-1.39-2.13-3.74-4.47-3.74-1.12,0-1.56.64-1.56,1.52v11.6c0,.97.62,1.52,1.58,1.52h1.1v.7h-7.11v-.7h1.12c.92,0,1.56-.51,1.56-1.52v-11.6c0-1.08-.62-1.52-1.54-1.52-2.35,0-3.7,2.38-4.49,3.74l-.64-.29,1.54-4.18h11.99Z"/>
        <path class="cls-2" d="M534.11,135.58l-1.08,3.34c-.07.18-.13.4-.13.73,0,.81.62.88.92.88h.62v.7h-4.78v-.7h.73c.92,0,1.72-.95,2.07-2.02l4.33-13.33,1.94-.42,4.82,14.28c.44,1.28,1.01,1.5,1.63,1.5h.48v.7h-5.41v-.7h.66c.33,0,.9-.31.9-.97,0-.24-.07-.4-.2-.81l-1.06-3.17h-6.45ZM537.28,125.9l-2.93,8.98h5.96l-3.04-8.98Z"/>
        <path class="cls-2" d="M558.46,140.75c-.42-.11-.59-.18-.9-.18-.18,0-.44.02-1.34.4-1.5.64-2.29.68-2.97.68-4.38,0-6.82-3.61-6.82-8.32,0-5,2.73-8.58,6.54-8.58.4,0,.95.02,2.11.37.7.22.88.22,1.03.22.22,0,.77,0,1.45-.55l1.43,4.22-.66.29c-.42-.79-.75-1.39-1.52-2.13-.48-.44-1.94-1.69-3.76-1.69-2.97,0-4.64,3.92-4.64,7.75,0,4.05,1.85,7.72,5.04,7.72,1.74,0,3.32-1.17,3.32-3.01v-1.28c0-1.17-.81-1.61-1.65-1.61h-.9v-.7h5.83v.7c-.4,0-.59,0-.92.22-.57.4-.66,1.08-.66,1.45v4.03Z"/>
        <path class="cls-2" d="M565.09,133.27v5.74c0,.95.55,1.52,1.56,1.52h1.69c3.7,0,4.86-2.02,5.81-3.63l.64.29-1.54,4.05h-12.3v-.7h.81c.9,0,1.56-.48,1.56-1.52v-11.6c0-.99-.62-1.52-1.56-1.52h-.81v-.73h12.01l1.43,3.56-.59.37c-1.21-1.94-2.62-3.21-4.71-3.21h-2.44c-.92,0-1.56.51-1.56,1.52v5.15h2.51c1.67,0,2.49-.7,2.49-2.18v-.57h.7v6.29h-.7v-.66c0-1.58-1.14-2.18-2.49-2.18h-2.51Z"/>
        <path class="cls-2" d="M295.99,169.76c-1.65.29-4.47.31-5.11.31-5.9,0-6.01-1.43-6.01-5.57,0-.9.09-4.93.09-5.74,0-1.83,0-2.31-1.8-2.99.64-.42.75-.51,1.06-.51.84,0,2.79.79,2.79,1.54,0,.18-.37.77-.42.9-.11.37-.33,4.71-.37,5.41,3.43-1.1,7.53-4.05,7.53-4.62,0-.26-.66-.79-.92-1.01.22-.04.33-.07.51-.07,1.45,0,2.82,1.45,2.82,2.11,0,.33-.11.35-1.01.62-.26.09-.42.13-.68.26-5.21,2.51-5.77,2.79-8.25,3.19-.02.46-.02.92-.02,1.67,0,2.77,0,3.5,4.09,3.5,2.13,0,3.17-.33,3.98-.57.57-.18.73-.18.92-.18.53,0,1.89.11,1.89.92,0,.57-.75.75-1.08.81ZM296.79,157.13c-.29,0-.35-.09-.99-.81-.77-.88-1.85-1.56-2.4-1.94,2.11.18,3.92.86,3.92,2,0,.35-.22.75-.53.75ZM299.05,155.87c-.24,0-.35-.09-1.36-1.01-.92-.81-1.41-1.14-2.29-1.54.26-.02.31-.04.48-.04.77,0,3.67.46,3.67,1.89,0,.33-.2.7-.51.7Z"/>
        <path class="cls-2" d="M304.44,163.77c-.48,0-.7-.51-.95-1.06-.29-.62-.88-1.61-1.61-2.38,1.45.22,3.19,1.41,3.19,2.62,0,.44-.22.81-.64.81ZM313.5,161.55c-.13.15-1.03,2.09-1.23,2.46-3.17,5.96-7.08,7-8.62,7.42l-.04-.22c6.6-3.08,8.49-10.12,8.49-10.43,0-.53-.88-1.03-1.17-1.19.29-.07.57-.15.97-.15.95,0,2.07,1.17,2.07,1.43,0,.15-.04.22-.46.68ZM308.22,162.83c-.46,0-.53-.2-.9-1.21-.29-.81-.81-1.61-1.32-2.27,1.5.44,2.88,1.67,2.88,2.62,0,.46-.24.86-.66.86Z"/>
        <path class="cls-2" d="M331.73,159.48c-.51.22-.7.42-1.19,1.36-2.11,4.11-4.42,6.87-7.79,8.96-1.17.73-2.66,1.5-4.31,1.87l-.04-.15c4.8-2.66,9.24-7.53,11.27-12.65-.9.09-2.4.31-3.3.44-.15.02-.59.09-.7.09-.22,0-.62-.09-1.12-.37-2.05,2.71-3.65,3.96-5.83,5.1l-.11-.18c3.61-3.3,5.74-7.26,5.74-7.96,0-.22-.04-.4-1.21-1.1.53-.18,1.01-.18,1.08-.18.88,0,2.49,1.01,2.49,1.58,0,.2-.09.31-.51.7-.22.2-.79.95-1.08,1.3.99.11,3.74-.2,4.31-.4.2-.07.95-.66,1.17-.66.24,0,1.83,1.32,1.83,1.74,0,.15-.07.22-.68.51Z"/>
        <path class="cls-2" d="M351.15,160.19c-.37.29-.37.4-.51,1.23-.55,3.34-1.17,6.98-2.79,8.67-.57.62-1.06.79-1.3.79-.33,0-.42-.33-.48-.64-.18-.9-.24-1.19-1.8-2.79l.07-.11c1.12.53,2.24,1.08,2.57,1.08.22,0,.37-.09.51-.31,1.52-2.64,1.91-6.69,1.8-8.47-.79.07-1.12.13-4.03.53-.97,3.34-2.53,8.54-7.94,10.74l-.07-.13c2.55-2.13,4.91-4.88,6.51-10.41-1.67.24-2.77.4-3.41.73-.59.31-.66.33-.86.33-.46,0-1.72-.99-1.72-2.22,0-.24.07-.37.15-.62.33.55,1.28,1.12,2.07,1.12.24,0,1.54-.11,2.31-.2l1.74-.2c.48-1.94.48-2.84.48-3.04,0-.95-.42-1.14-1.25-1.52.29-.15.64-.35,1.21-.35.66,0,2.29.7,2.29,1.3,0,.18-.13.33-.4.66-.11.13-.18.26-.33.84-.09.31-.44,1.69-.51,1.96.42-.04,2.9-.31,3.06-.37.18-.09.86-.73,1.03-.73.33,0,2,1.17,2,1.61,0,.2-.09.26-.42.53Z"/>
        <path class="cls-2" d="M367.24,157.96c-.29.24-.44.55-.66,1.1-.7,1.67-1.14,2.44-1.76,3.5.55.42,2.73,2.16,2.73,3.65,0,.4-.24.97-.77.97-.4,0-.57-.24-.97-.88-.55-.88-1.14-1.69-1.83-2.46-3.23,4.6-7.39,6.47-9.64,7l-.09-.15c2.27-1.06,6.18-4.09,8.6-7.94-1.45-1.32-3.26-2.29-4.93-3.12,1.54.13,3.17.53,5.59,2.02.55-.97,1.98-4,1.98-4.64,0-.73-.9-1.21-1.41-1.47.33-.11.73-.24,1.14-.24,1.01,0,2.62,1.32,2.62,1.91,0,.22-.11.31-.62.77Z"/>
        <path class="cls-2" d="M386.48,161.26c-.42.22-.46.31-.75.97-3.56,8.54-9.48,9.64-10.69,9.75l-.04-.15c1.36-.57,7.53-4.05,9.33-11.02-.64.04-6.98.62-8.38,1.23-.13.07-.66.4-.79.4-.55,0-2.16-1.3-2.16-2.62,0-.2.02-.37.15-.75.37.57,1.12,1.43,2.29,1.43,1.06,0,8.49-.57,8.82-.73.2-.09.81-.79.99-.79.24,0,1.87,1.17,1.87,1.67,0,.29-.29.44-.64.62ZM383.84,157c-1.69.09-5.26.4-5.76.48-1.08.15-1.19.18-1.54.18-.71,0-1.76-.99-1.76-2.38.97.9,1.65,1.03,2.86,1.03,1.47,0,4.31-.31,5.24-.73.44-.2.51-.24.71-.24.4,0,1.8.31,1.8.99,0,.44-.29.59-1.54.66Z"/>
        <path class="cls-2" d="M426.43,157.46c-.35.18-2.07.66-4.55,1.25-.57,1.14-2.97,6.25-3.54,7.24-.51.86-.97,1.67-1.41,1.67-.15,0-.62-.09-.62-.84,0-.62.31-1.01.53-1.32,1.58-2.09,2.99-5,3.65-6.43-.48.11-1.14.29-1.98.29-1.3,0-2.4-.68-2.22-2,.53.75,1.25.88,2.13.88.79,0,1.69-.15,2.58-.35.51-1.25.92-2.33.92-2.79,0-.24-.13-.77-1.3-1.08.33-.29.64-.44,1.08-.44.86,0,2.2.92,2.2,1.5q0,.22-.55,1.01c-.31.44-.48.75-.81,1.39.44-.15,1.19-.42,1.65-.64.97-.44,1.08-.51,1.34-.51.29,0,1.25.31,1.25.73,0,.22-.18.35-.35.44ZM431.94,162.94c-.13,0-.37-.02-.77-.24-.75-.4-1.01-.55-1.87-.55-2.31,0-2.64,1.25-2.64,2.29,0,1.28.24,2.51.37,3.19,1.76.37,4.18,1.3,4.18,2.73,0,.33-.22.73-.62.73-.26,0-1.14-.62-1.69-1.01-.88-.62-1.28-.77-1.72-.92-.02.46-.07,1.39-.84,2.09-.9.84-2.16.92-2.66.92-1.83,0-3.41-.99-3.41-2.35,0-1.65,2-2.44,4.14-2.44.48,0,.81.04,1.14.07-.07-.77-.15-1.8-.15-2.31,0-2.42,2.33-3.37,3.85-3.65.18-.04.37-.09.37-.35,0-.29-.79-1.1-3.01-1.67.33-.11.75-.22,1.41-.22,2.73,0,4.49,2.05,4.49,3.08,0,.4-.22.64-.57.64ZM423.99,168.42c-.84,0-2.88.18-2.88,1.36,0,.92,1.41,1.17,2.16,1.17s2.44-.2,2.38-2.31c-.42-.11-.77-.22-1.65-.22Z"/>
        <path class="cls-2" d="M448.05,170.79c-.92.37-4.31.42-5.13.42-1.94,0-3.06-.11-4.29-.59-1.08-.42-2.38-1.34-2.38-3.06,0-2.73,2.95-4.71,4.18-5.5-.95-1.17-.95-1.54-1.03-5.21-.07-2.27-.44-2.44-1.83-3.06.31-.29.77-.4,1.19-.4.57,0,1.58.51,2.05.81.44.29.51.42.51.7,0,.22-.07.46-.09.53-.29.77-.42,1.23-.42,2.82,0,1.85.26,2.71.55,3.23,1.72-.92,2.29-1.14,4.22-1.91.26-.11.4-.24.4-.53,0-.22-.11-.44-.18-.62,1.28.04,2.05.97,2.05,1.8,0,.62-.15.64-1.43.86-3.96.66-9.44,3.56-9.44,6.25,0,2.27,2.99,2.46,4.25,2.46.37,0,2.79-.09,5.06-.51.55-.11.7-.13.99-.13.64,0,1.5.29,1.5.88,0,.35-.26.55-.73.75ZM450.91,159.77c-.31,0-.4-.11-1.39-1.1-.99-.99-1.69-1.36-2.33-1.69,1.41-.04,4.16.55,4.16,2.16,0,.31-.11.64-.44.64ZM452.34,157.52c-.22,0-.31-.07-.97-.7-1.17-1.12-1.45-1.39-2.66-1.96.29-.04.48-.07.75-.07,1.14,0,3.34.66,3.34,2.07,0,.4-.22.66-.46.66Z"/>
      </g>
    </g>
  </g>
</svg>