<?xml version="1.0" encoding="UTF-8"?>
<svg id="_レイヤー_2" data-name="レイヤー 2" xmlns="http://www.w3.org/2000/svg" viewBox="0 0 620 200.4">
  <defs>
    <style>
      .cls-1 {
        fill: none;
        stroke: #e5da99;
        stroke-miterlimit: 10;
        stroke-width: 1.2px;
      }

      .cls-2 {
        fill: #fff;
      }

      .cls-2, .cls-3, .cls-4 {
        stroke-width: 0px;
      }

      .cls-3 {
        fill: #e5da99;
      }

      .cls-4 {
        fill: #638bc7;
      }
    </style>
  </defs>
  <g id="_レイヤー_2-2" data-name="レイヤー 2">
    <g>
      <g>
        <polygon class="cls-4" points="594.97 200.4 0 200.4 0 .4 620 .4 620 176.76 594.97 200.4"/>
        <g>
          <path class="cls-3" d="M44.96,24.47c0,1.43-.55,2.65-1.64,3.66-1.09,1.01-2.4,1.51-3.94,1.51-.9,0-1.98-.27-3.23-.82-.33-.15-.58-.23-.75-.23-.2,0-.33.23-.38.69-.02.24-.12.36-.33.36-.17,0-.25-.1-.25-.3,0-.13,0-.23.03-.3.13-1.02.2-1.96.2-2.83,0-.17-.02-.63-.05-1.4-.02-.1-.03-.23-.03-.4,0-.25.1-.38.3-.38.17,0,.28.2.35.61.43,3,1.84,4.49,4.22,4.49,1.02,0,1.8-.29,2.36-.86s.84-1.39.84-2.44c0-.93-.27-1.73-.81-2.39-.54-.66-1.47-1.31-2.79-1.96-1.58-.78-2.68-1.54-3.3-2.27s-.92-1.64-.92-2.73c0-1.38.45-2.52,1.34-3.42.89-.9,2.02-1.35,3.39-1.35.57,0,1.35.19,2.35.58.35.13.61.2.77.2.18,0,.3-.03.36-.1.06-.07.11-.24.16-.52.03-.17.12-.25.28-.25.17,0,.25.1.25.3,0,.13,0,.23-.03.3-.05.4-.08.88-.08,1.45,0,.8.04,1.43.12,1.9l.03.4c.02.18-.06.27-.23.27-.18,0-.31-.19-.38-.57-.18-.98-.62-1.8-1.3-2.46-.68-.66-1.45-.99-2.3-.99s-1.5.27-1.99.8c-.49.53-.74,1.26-.74,2.18,0,1.07.36,1.92,1.07,2.57.4.37,1.27.88,2.6,1.55,1.57.78,2.69,1.58,3.38,2.39.68.81,1.02,1.73,1.02,2.76Z"/>
          <path class="cls-3" d="M64.95,29.12c0,.15-.16.23-.47.23h-5.43c-.33,0-.5-.07-.5-.2s.39-.22,1.16-.27c.41-.03.65-.1.72-.21.07-.11.1-.49.1-1.16v-7.28h-7.53v7.08c0,.75.06,1.19.17,1.32.12.13.51.23,1.17.27.43.03.65.11.65.23,0,.15-.17.23-.5.23h-5.42c-.33,0-.5-.07-.5-.2s.17-.22.5-.25c.22-.02.44-.03.67-.05.37-.03.6-.12.7-.25.05-.08.08-.55.08-1.4v-13.18c0-.75-.04-1.19-.11-1.32-.07-.13-.34-.21-.79-.22-.52-.04-.82-.06-.91-.08-.09-.02-.14-.09-.14-.21,0-.14.11-.21.33-.21.07,0,.21,0,.42.02.42.03,1.4.05,2.95.05.85,0,1.44-.01,1.77-.04.12-.02.27-.04.45-.04.3,0,.45.08.45.25,0,.15-.27.23-.81.23s-.87.06-.98.19c-.11.12-.16.52-.16,1.19v5.77h7.53v-5.39c0-.89-.07-1.41-.2-1.57-.13-.16-.6-.23-1.4-.21-.25,0-.38-.08-.38-.23s.14-.23.42-.23h5.45c.35,0,.53.08.53.23s-.37.23-1.1.25c-.22,0-.38.02-.47.05-.17.05-.27.14-.31.27-.04.13-.06.53-.06,1.18v13.3c0,.8.04,1.27.12,1.4.17.18.64.28,1.43.28.26-.03.4.03.4.2Z"/>
          <path class="cls-3" d="M84.63,20.77c0,2.48-.75,4.58-2.24,6.3-1.49,1.72-3.32,2.57-5.49,2.57-2.3,0-4.23-.87-5.8-2.61-1.57-1.74-2.35-3.89-2.35-6.44s.75-4.73,2.26-6.39c1.51-1.66,3.44-2.49,5.79-2.49,2.22,0,4.08.87,5.58,2.6s2.25,3.88,2.25,6.45ZM81.83,20.9c0-3.06-.62-5.44-1.88-7.15-.78-1.07-1.88-1.6-3.28-1.6s-2.37.41-3.1,1.23c-1.35,1.5-2.03,3.95-2.03,7.35,0,2.69.47,4.78,1.41,6.27.94,1.49,2.26,2.23,3.96,2.23,1.58,0,2.78-.7,3.58-2.11.88-1.55,1.33-3.63,1.33-6.22Z"/>
          <path class="cls-3" d="M100.14,16.14c0,1.62-.69,2.88-2.08,3.78-.87.57-1.97.85-3.3.85-.57,0-1.21-.06-1.92-.17v7.1c0,.38.02.62.05.73.08.23.27.38.55.42.48.07.95.1,1.4.1.18,0,.27.06.27.17,0,.17-.12.25-.35.25h-5.75c-.5,0-.75-.08-.75-.25,0-.12.17-.18.52-.18.78,0,1.23-.07,1.35-.23.13-.07.21-.23.22-.5v-14.77c0-.52-.14-.83-.42-.95-.17-.07-.46-.1-.88-.1h-.42c-.25,0-.38-.07-.38-.2,0-.15.23-.22.7-.22h5.5c1.9,0,3.29.33,4.17,1,1,.75,1.5,1.81,1.5,3.17ZM97.52,16.17c0-2.52-1.05-3.77-3.15-3.77-.7,0-1.16.12-1.38.35-.1.1-.15.36-.15.78v6.69c.13.02.28.02.45.02,1.1,0,2.03-.24,2.8-.73.95-.6,1.42-1.72,1.42-3.35Z"/>
          <path class="cls-3" d="M123.79,27.37c0,.43-.02,1.15-.07,2.15h-.27c-.1,0-.34-.02-.72-.05-.38-.03-.82-.05-1.3-.05l-10.38-.08c-.28,0-.42-.08-.42-.23,0-.12.23-.19.67-.23.63-.03,1.01-.1,1.14-.21.12-.11.19-.42.19-.94v-14.05c0-.62-.06-.98-.19-1.08s-.57-.15-1.34-.15c-.32,0-.48-.09-.48-.27,0-.15.1-.23.3-.23h.23c.55.05,1.64.08,3.27.08.15,0,.44-.01.88-.04s.79-.04,1.08-.04h.28c.3,0,.45.08.45.25,0,.1-.05.16-.14.19-.09.02-.38.05-.86.06-.48.02-.77.1-.86.24-.09.14-.14.58-.14,1.31v14.75c.45.02,1.07.03,1.88.03,1.95,0,3.32-.1,4.12-.3.8-.2,1.34-.57,1.62-1.12.28-.55.45-1.29.5-2.23.02-.22.11-.32.29-.32.21,0,.3.12.29.38v2.17Z"/>
          <path class="cls-3" d="M134.23,29.13c0,.14-.1.21-.3.21h-.25c-.1-.05-1.23-.08-3.4-.08-.42,0-.83.02-1.25.05-.22.02-.55.02-1,.02-.22,0-.33-.08-.33-.23,0-.13.22-.21.65-.23.67-.02,1.06-.1,1.17-.24.12-.14.17-.62.17-1.44v-13.19c0-.82-.04-1.28-.13-1.38-.1-.17-.57-.27-1.39-.3-.32-.01-.48-.07-.48-.18,0-.13.1-.2.3-.2h3.4c.25,0,.74,0,1.46.02l.96-.02c.27,0,.4.07.4.21,0,.13-.37.21-1.11.24-.42.02-.68.09-.77.22-.09.13-.14.48-.14,1.05v13.35c0,.95.04,1.47.12,1.55.18.18.73.29,1.62.33.18,0,.28.07.28.21Z"/>
          <path class="cls-3" d="M149.13,24.47c0,1.43-.55,2.65-1.64,3.66-1.09,1.01-2.4,1.51-3.94,1.51-.9,0-1.98-.27-3.23-.82-.33-.15-.58-.23-.75-.23-.2,0-.33.23-.38.69-.02.24-.12.36-.33.36-.17,0-.25-.1-.25-.3,0-.13,0-.23.03-.3.13-1.02.2-1.96.2-2.83,0-.17-.02-.63-.05-1.4-.02-.1-.03-.23-.03-.4,0-.25.1-.38.3-.38.17,0,.28.2.35.61.43,3,1.84,4.49,4.22,4.49,1.02,0,1.8-.29,2.36-.86s.84-1.39.84-2.44c0-.93-.27-1.73-.81-2.39-.54-.66-1.47-1.31-2.79-1.96-1.58-.78-2.68-1.54-3.3-2.27s-.92-1.64-.92-2.73c0-1.38.45-2.52,1.34-3.42.89-.9,2.02-1.35,3.39-1.35.57,0,1.35.19,2.35.58.35.13.61.2.77.2.18,0,.3-.03.36-.1.06-.07.11-.24.16-.52.03-.17.12-.25.28-.25.17,0,.25.1.25.3,0,.13,0,.23-.03.3-.05.4-.08.88-.08,1.45,0,.8.04,1.43.12,1.9l.03.4c.02.18-.06.27-.23.27-.18,0-.31-.19-.38-.57-.18-.98-.62-1.8-1.3-2.46-.68-.66-1.45-.99-2.3-.99s-1.5.27-1.99.8c-.49.53-.74,1.26-.74,2.18,0,1.07.36,1.92,1.07,2.57.4.37,1.27.88,2.6,1.55,1.57.78,2.69,1.58,3.38,2.39.68.81,1.02,1.73,1.02,2.76Z"/>
          <path class="cls-3" d="M166.43,16.44c0,.22-.1.32-.3.32s-.34-.22-.42-.65c-.03-.3-.07-.6-.1-.9-.12-.6-.31-1.11-.58-1.52-.35-.55-.92-.9-1.72-1.05-.52-.1-.93-.14-1.25-.12-.78.02-1.26.04-1.43.05v15.1c0,.6.16.98.48,1.13.17.08.63.13,1.4.15.2.02.3.09.3.21,0,.14-.13.21-.4.21-.13,0-.25,0-.35-.02-1-.03-1.71-.05-2.12-.05-.55,0-1.07.01-1.55.04-.48.03-1.1.04-1.85.04-.38,0-.58-.07-.58-.2,0-.15.36-.23,1.08-.25.52,0,.85-.11,1-.33.08-.13.12-.48.12-1.03v-15c-1.65.02-2.67.1-3.08.25-1.05.38-1.67,1.41-1.85,3.07-.05.5-.17.75-.35.75-.2,0-.3-.17-.3-.52,0-.18,0-.37.03-.55l.05-.58c.05-.77.12-1.77.22-3.02h1.12l5.1.08c.6.02,1.53.02,2.8,0l4.15-.08c.03.93.14,2.32.32,4.15,0,.05,0,.11.03.19.02.08.03.12.03.14Z"/>
        </g>
        <polyline class="cls-1" points="0 34.98 169.73 34.98 201.19 .4"/>
      </g>
      <g>
        <path class="cls-2" d="M30.53,85.46c4.94-2.76,9.64-7.8,11.77-13.22-.92.09-2.48.34-3.45.46-.11.02-.62.09-.74.09-.39,0-.92-.25-1.17-.39-1.47,1.86-2.85,3.63-6.09,5.33l-.12-.18c3.77-3.45,6-7.57,6-8.32,0-.23-.05-.41-1.26-1.15.55-.18,1.06-.18,1.13-.18.92,0,2.6,1.06,2.6,1.66,0,.25-.09.32-.53.74-.32.3-.46.48-1.13,1.36,1.01.12,3.91-.21,4.51-.41.21-.07,1.01-.69,1.22-.69s1.91,1.36,1.91,1.82c0,.18-.07.23-.71.53-.53.25-.74.44-1.24,1.43-2.05,3.96-3.98,6.14-5.91,7.75-.94.78-3.63,2.87-6.74,3.56l-.05-.16ZM46.72,70.38c0,.32-.16.67-.6.67-.28,0-.44-.12-.74-.46-.83-.97-1.38-1.66-2.67-2.53,2.09.18,4,1.08,4,2.32ZM48.93,69.29c0,.6-.39.6-.55.6-.25,0-.3-.05-1.29-.99-.18-.18-1.1-1.08-2.35-1.63,1.77.05,4.19.46,4.19,2.02Z"/>
        <path class="cls-2" d="M53.51,77.27c-.51,0-.74-.53-.99-1.1-.3-.64-.92-1.68-1.68-2.48,1.52.23,3.33,1.47,3.33,2.74,0,.46-.23.85-.67.85ZM62.98,74.95c-.14.16-1.08,2.18-1.29,2.58-3.31,6.23-7.4,7.31-9.01,7.75l-.05-.23c6.9-3.22,8.88-10.58,8.88-10.9,0-.55-.92-1.08-1.22-1.24.3-.07.6-.16,1.01-.16.99,0,2.16,1.22,2.16,1.49,0,.16-.05.23-.48.71ZM57.47,76.29c-.48,0-.55-.21-.94-1.26-.3-.85-.85-1.68-1.38-2.37,1.56.46,3.01,1.75,3.01,2.74,0,.48-.25.9-.69.9Z"/>
        <path class="cls-2" d="M86.42,75.48c-.18,0-.41-.05-.55-.07-1.4-.28-2.8-.39-4.18-.39-.76,0-1.68.05-2.81.12-.32,3.22-.69,5.24-2.64,7.52-1.2,1.4-2.39,2.23-4.09,2.99l-.12-.11c2.74-2.37,4.85-5.01,5.36-10.23-3.79.46-5.11.97-6.07,1.33-.16.07-.6.25-.76.25-.55,0-1.4-.78-1.75-1.17-.3-.35-.48-.6-.48-1.47,0-.21.02-.35.05-.55.83.99,1.43,1.38,2.3,1.38.71,0,5.63-.62,6.76-.76.05-2.55-.3-2.87-.99-3.5-1.31.25-3.22.64-5.22.53v-.18c1.68-.21,5.13-1.22,8.12-2.71.3-.16.46-.3.46-.51,0-.23-.3-.44-.6-.64.25-.07.37-.07.51-.07,1.17,0,2.9,1.43,2.9,1.93,0,.32-.25.39-.67.39-.44,0-.58,0-.94.09-.53.14-2.88.78-3.36.9.39.16,1.56.62,1.75.8.12.09.14.18.14.32s-.23.62-.3.74c-.14.3-.14.39-.28,1.75.64-.05,3.4-.28,3.98-.34.32-.05.6-.09.85-.16.51-.14.6-.18.76-.18.62,0,2.41.62,2.41,1.43,0,.23-.14.6-.53.6Z"/>
        <path class="cls-2" d="M45.09,102.47c-.41.23-.44.28-.71,1.03-1.52,4.12-2.97,6.42-5.04,8.32-1.17,1.06-3.63,2.94-6.32,3.56l-.02-.16c2.76-1.49,5.47-4.28,6.65-5.89,1.08-1.45,2.64-4.23,3.56-7.8-4.74.28-8.9,1.01-9.66,1.33-.16.07-.9.46-1.06.46-.21,0-1.84-1.08-1.84-2.58,0-.41.09-.67.21-.9.51.8,1.26,1.52,2.28,1.52.32,0,8.69-.69,9.8-1.01.18-.05.8-.55.97-.55.25,0,1.93,1.59,1.93,2,0,.23-.25.39-.74.64ZM47.22,100.93c-1.2,0-2.16-.97-2.16-2.18s.97-2.16,2.16-2.16,2.18.97,2.18,2.16-.99,2.18-2.18,2.18ZM47.2,97.41c-.74,0-1.31.6-1.31,1.31s.57,1.33,1.31,1.33,1.33-.6,1.33-1.33-.6-1.31-1.33-1.31Z"/>
        <path class="cls-2" d="M66.16,104.65c-.44.23-.48.32-.78,1.01-3.72,8.92-9.91,10.07-11.17,10.19l-.05-.16c1.43-.6,7.87-4.23,9.75-11.52-.67.05-7.29.64-8.76,1.29-.14.07-.69.41-.83.41-.57,0-2.25-1.36-2.25-2.74,0-.21.02-.39.16-.78.39.6,1.17,1.49,2.39,1.49,1.1,0,8.88-.6,9.22-.76.21-.09.85-.83,1.03-.83.25,0,1.96,1.22,1.96,1.75,0,.3-.3.46-.67.64ZM63.4,100.19c-1.77.09-5.5.41-6.02.51-1.13.16-1.24.18-1.61.18-.74,0-1.84-1.03-1.84-2.48,1.01.94,1.72,1.08,2.99,1.08,1.54,0,4.51-.32,5.47-.76.46-.21.53-.25.74-.25.41,0,1.89.32,1.89,1.04,0,.46-.3.62-1.61.69Z"/>
        <path class="cls-2" d="M84.18,102.42c-.37.16-.51.28-.8.9-4.09,8.14-7.27,10.62-12.69,12.39l-.09-.18c4.07-2.21,6.74-5.13,8.03-7.01-.16,0-.37,0-.97-.71-.87-1.03-1.43-1.68-2.99-2.64-1.56,1.7-3.13,2.55-3.93,2.99l-.07-.12c2.64-2.58,5.7-7.45,5.7-8.62,0-.51-.51-.8-1.31-1.22.53-.18.8-.28,1.13-.28.85,0,2.58,1.13,2.58,1.63,0,.21-.09.28-.41.6-.25.25-.3.32-.76,1.01.55.09,4.02-.11,4.9-.67.07-.05.6-.37.64-.37.21,0,1.77,1.4,1.77,1.79,0,.18-.23.28-.71.51ZM78.32,102.28c-.3,0-.64-.05-1.26-.39-.32.51-1.43,2.12-2.14,2.94.87.14,2.67.58,3.63,1.33.37.3.69.85.64,1.49,1.47-2.3,2.69-4.81,3.01-5.91-.67.11-3.38.53-3.89.53ZM85.68,100.86c-.37,0-.51-.18-1.2-1.06-.74-.92-1.43-1.38-2.21-1.86,2.62.18,3.93,1.13,3.93,2.18,0,.41-.23.74-.53.74ZM88.09,99.96c-.16,0-.37-.02-.94-.71-.69-.83-1.22-1.38-2.53-2.09,1.15-.02,3.96.34,3.96,2.07,0,.48-.21.74-.48.74Z"/>
        <path class="cls-2" d="M31.08,142.24c-.51,0-.87-.37-.87-.94,0-.78.6-1.2,1.49-1.75,1.54-.97,2.64-2.76,3.13-3.56-.25,3.36-2.35,6.25-3.75,6.25ZM46.95,134.17c-.23,0-1.63-.25-1.93-.3-.62-.07-1.66-.16-2.99-.16-1.2,0-1.93.05-2.48.07-.05,1.86,0,5.61.12,7.45.02.23.07,1.4.07,1.54,0,.53-.18,2.6-1.15,2.6-.37,0-.41-.11-.92-1.15-.39-.81-.48-.9-2.53-2.37l.02-.12c.74.16,2.21.51,2.69.51.21,0,.3-.05.35-.23.11-.46.11-3.29.11-3.98s-.05-3.22-.07-4.14c-2.02.21-4.37.69-5.06,1.06-.21.11-.46.25-.71.25-.57,0-1.95-1.24-1.95-2.51,0-.3.07-.62.14-.92,1.1,1.59,1.84,1.59,2.25,1.59.18,0,.37-.02.48-.02,2.37-.18,3.54-.28,4.85-.39-.05-1.66-.09-3.33-.16-3.63-.23-.83-.58-.99-2-1.36.28-.21.78-.6,1.47-.6.94,0,2.67.85,2.67,1.45,0,.14-.02.21-.28.83-.32.74-.37,2.28-.37,3.22.76-.05,4.32-.34,4.83-.48.09-.02.83-.21.9-.21.37,0,2.16.53,2.16,1.43,0,.46-.25.58-.51.58ZM46.54,141.76c-.41,0-.48-.11-1.66-1.89-1.54-2.3-2.71-3.29-3.45-3.91,2.23.41,5.89,2.9,5.89,4.69,0,.6-.39,1.1-.78,1.1ZM46.74,131c-.39,0-.48-.12-1.31-1.04-.92-.99-1.59-1.45-2.12-1.82,1.29-.02,3.98.62,3.98,2.23,0,.53-.41.62-.55.62ZM48.95,129.39c-.35,0-.46-.11-1.47-1.17-.81-.85-1.5-1.17-2.09-1.45,1.15-.07,4.07.21,4.07,1.93,0,.55-.32.69-.51.69Z"/>
        <path class="cls-2" d="M55.13,137.27c-.51,0-.74-.53-.99-1.1-.3-.64-.92-1.68-1.68-2.48,1.52.23,3.33,1.47,3.33,2.74,0,.46-.23.85-.67.85ZM64.6,134.95c-.14.16-1.08,2.18-1.29,2.58-3.31,6.23-7.4,7.31-9.01,7.75l-.05-.23c6.9-3.22,8.88-10.58,8.88-10.9,0-.55-.92-1.08-1.22-1.24.3-.07.6-.16,1.01-.16.99,0,2.16,1.22,2.16,1.49,0,.16-.05.23-.48.71ZM59.08,136.29c-.48,0-.55-.21-.94-1.26-.3-.85-.85-1.68-1.38-2.37,1.56.46,3.01,1.75,3.01,2.74,0,.48-.25.9-.69.9Z"/>
        <path class="cls-2" d="M87.03,134.86s-1.84-.21-2.39-.28c-.87-.09-1.68-.14-2.3-.14-.71,0-1.24.05-2.83.16.18.12.87.64,1.01.76.07.07.14.16.14.28s-.41.74-.48.85c-.09.16-.14.39-.16.51-1.1,3.75-3.31,7.63-7.2,8.81l-.07-.11c3.61-2.71,5.68-8.26,5.68-9.89,0-.55-.18-.76-.44-1.03-3.4.48-4.12.74-5.01,1.08-.44.16-.55.21-.71.21-.44,0-1.93-1.06-1.93-2.48,0-.34.07-.55.14-.78.71,1.08,1.31,1.47,2.23,1.47.25,0,9.66-1.03,11.08-1.17.23-.02,1.2-.37,1.4-.37.12,0,2.46.44,2.46,1.49,0,.64-.44.64-.62.64ZM81.86,130.12c-.74.02-1.91.07-2.62.14-1.2.14-3.47.37-3.61.37-.39,0-2-.32-1.82-2.16.76.64,1.54.85,2.76.85,1.31,0,2.97-.21,4.28-.6.48-.14.83-.25,1.01-.25.6,0,1.95.25,1.95.99,0,.6-.53.62-1.95.67Z"/>
        <path class="cls-2" d="M105.59,133.76c-.14.11-.16.21-.3,1.03-.53,3.2-1.27,7.57-3.17,9.27-.41.34-.9.55-1.15.55-.39,0-.44-.23-.62-1.03-.16-.8-1.38-2.14-1.68-2.51l.05-.09c1.22.64,2.37,1.04,2.64,1.04.62,0,1.15-1.52,1.4-2.23.53-1.59,1.08-4.09,1.1-6.81-.37.05-1.47.14-2.23.21-.28.02-1.68.16-1.96.18-.69,2.37-1.24,4.3-3.01,6.78-2.16,3.04-4.39,3.96-5.33,4.35l-.12-.16c1.66-1.24,4.71-3.82,6.88-10.78-1.66.25-3.54.71-3.72.83-.51.28-.55.32-.76.32-.48,0-1.82-1.15-1.82-2.21,0-.35.09-.62.14-.83.85.87,1.24,1.22,2.18,1.22.39,0,.46,0,2.62-.21l1.66-.16c.25-1.03.51-2.35.51-3.13,0-1.08-.53-1.29-1.33-1.61.3-.16.76-.41,1.17-.41.46,0,2.48.71,2.48,1.43,0,.11-.51.9-.62,1.03-.05.05-.55,2.14-.64,2.53.53-.05,2.83-.28,2.92-.3.46-.12.67-.32.99-.64.07-.09.21-.16.34-.16.3,0,2.07,1.22,2.07,1.7,0,.21-.28.44-.69.8ZM107.2,131.34c-.34,0-.58-.34-.99-.97-.97-1.45-1.86-2.12-2.28-2.44,1.79.21,3.91,1.29,3.91,2.55,0,.32-.18.85-.64.85ZM109.75,130.21c-.3,0-.39-.11-1.08-1.01-.34-.44-1.08-1.33-2.35-2.16,1.47-.02,3.96.71,3.96,2.35,0,.46-.23.83-.53.83Z"/>
        <path class="cls-2" d="M116.86,138.17c-1.01,0-1.84-.83-1.84-1.84s.83-1.84,1.84-1.84,1.84.78,1.84,1.84-.85,1.84-1.84,1.84Z"/>
        <path class="cls-2" d="M141.1,133.92c-.48.3-.62.39-.78.92-.85,2.94-2.64,9.01-9.77,11.08l-.07-.16c2.78-1.72,5.27-3.93,6.83-7.06,1.31-2.58,1.68-4.85,1.68-5.13s-.09-.28-.34-.28c-.51,0-4.12.05-7.36.34-.25.02-1.47.23-1.75.23-.16,0-.23-.02-.74-.28,0,.67.16,4,.16,4.23,0,.58,0,1.17-.55,1.17-.44,0-1.1-.78-1.1-1.4,0-.14.05-.87.05-1.04,0-2.85,0-3.7-1.47-4.39.28-.09.51-.16,1.01-.16.55,0,.69.09,1.43.46.44.23.6.37,1.26.37,1.08,0,2.78-.21,3.54-.28q0-3.2-2.05-3.56c.67-.48.99-.71,1.52-.71.58,0,2.42.55,2.42,1.13,0,.12-.18.64-.23.76-.11.32-.23.78-.25,2.3.99-.05,1.98-.12,3.54-.18.44-.02.62-.09.76-.16.11-.07.71-.53.87-.53.25,0,1.89,1.49,1.89,1.84,0,.18-.12.25-.48.48ZM141.97,131.82c-.3,0-.37-.09-.99-.85-.16-.18-1.47-1.68-2.35-2.3,1.5.18,3.91.85,3.91,2.37,0,.34-.12.78-.58.78ZM143.76,130.03c-.28,0-.44-.14-.71-.51-.12-.14-.99-1.31-2.69-2.44,1.47.11,3.93.55,3.93,2.18,0,.51-.28.76-.53.76Z"/>
        <path class="cls-2" d="M160.08,143.37c-.21,0-1.2-.28-1.29-.3-1.45-.3-2.94-.35-4.02-.35-.64,0-6.53.05-7.86,1.08-.09.07-.21.11-.3.11-.48,0-1.68-1.15-1.68-2.09,0-.3.05-.51.09-.71.48.69,1.03,1.29,1.93,1.29.55,0,4.14-.39,4.94-.44.05-.76.14-2.35.14-3.59,0-1.7-.09-1.91-.48-2.55-1.01.14-1.63.23-1.75.25-.14.02-.67.12-.76.12-.57,0-1.56-1.01-1.54-1.77.8.57,1.49.64,2.37.64,2.32,0,4.94-.37,5.17-.41.16-.05.85-.37.99-.37.11,0,1.49.21,1.49.8,0,.41-.48.48-.74.48-1.66,0-1.84,0-3.56.14.23.23.37.37.37.53,0,.09-.16.6-.21.69-.05.09-.35,4.14-.39,4.97.74-.05,4.07-.14,4.74-.18.12,0,.67-.16.76-.16.18,0,2,.62,2,1.36,0,.14-.07.46-.41.46Z"/>
        <path class="cls-2" d="M177.08,132.45c-.64.21-.8.32-1.29.9-.51.64-1.24,1.52-2.34,2.76.71.41.78.46.78.67,0,.12-.12.57-.14.69-.05.3-.14,1.36-.14,2.78,0,.71.11,3.93.11,4.6,0,.16,0,1.22-.71,1.22-.57,0-1.03-.97-1.03-1.49,0-.23.14-1.22.16-1.43.09-1.1.09-3.2.09-3.73s0-1.98-.14-2.25c-1.93,1.91-4.16,3.79-7.47,4.97l-.09-.23c5.1-3.13,9.52-9.17,9.52-9.68,0-.02-.02-.09-.14-.09-.14,0-3.29.87-4.44,1.36-.18.07-.9.53-1.08.53-.64,0-1.75-1.45-1.75-2.32,0-.46.07-.64.14-.83.85,1.08,1.33,1.2,1.84,1.2,1.06,0,5.22-.51,6.3-1.36.39-.3.44-.34.57-.34.35,0,1.91,1.1,1.91,1.56,0,.23-.14.37-.67.53ZM174.65,129.36c-.32,0-.34,0-1.63-1.15-1.38-1.24-2.53-1.63-3.24-1.89.39-.07.62-.12,1.2-.12,1.77,0,3.5.71,4.05,1.24.3.3.39.83.39,1.06,0,.44-.21.85-.76.85ZM180.81,141.02c-.53,0-.81-.39-1.04-.71-1.59-2.25-3.73-3.63-5.29-4.6,3.82.39,7.04,2.76,7.04,4.46,0,.11-.02.85-.71.85Z"/>
        <path class="cls-2" d="M199.36,132.01c-.46.18-.62.32-1.38,1.82-3.54,6.88-7.11,10.03-12.16,11.45l-.07-.16c3.08-1.77,5.84-4.07,7.91-6.92-.23-.02-.48-.23-.9-.69-1.59-1.82-1.82-2.07-3.06-2.76-1.24,1.36-2.51,2.35-3.84,2.99l-.07-.14c2.9-2.81,5.66-7.54,5.66-8.44,0-.76-.9-1.1-1.36-1.29.3-.14.62-.28,1.15-.28,1.31,0,2.55,1.13,2.55,1.61,0,.25-.05.3-.58.76-.18.18-.46.62-.62.85.16,0,.39.02.83.02,1.13,0,3.45-.37,3.77-.53.16-.09.8-.55.96-.55.28,0,1.79,1.47,1.79,1.79,0,.23-.09.25-.6.46ZM193.34,131.94c-.18,0-.44,0-1.2-.44-1.2,1.77-2.09,2.83-2.21,2.97,1.29.16,4.23.74,4.37,2.81.6-.9,1.7-2.58,2.92-5.86-.62.07-3.36.53-3.89.53Z"/>
        <path class="cls-2" d="M46.95,164.86s-1.84-.21-2.39-.28c-.87-.09-1.68-.14-2.3-.14-.71,0-1.24.05-2.83.16.18.12.87.64,1.01.76.07.07.14.16.14.28s-.41.74-.48.85c-.09.16-.14.39-.16.51-1.1,3.75-3.31,7.63-7.2,8.81l-.07-.11c3.61-2.71,5.68-8.26,5.68-9.89,0-.55-.18-.76-.44-1.03-3.4.48-4.12.74-5.01,1.08-.44.16-.55.21-.71.21-.44,0-1.93-1.06-1.93-2.48,0-.34.07-.55.14-.78.71,1.08,1.31,1.47,2.23,1.47.25,0,9.66-1.03,11.08-1.17.23-.02,1.2-.37,1.4-.37.12,0,2.46.44,2.46,1.49,0,.64-.44.64-.62.64ZM41.78,160.12c-.74.02-1.91.07-2.62.14-1.2.14-3.47.37-3.61.37-.39,0-2-.32-1.82-2.16.76.64,1.54.85,2.76.85,1.31,0,2.97-.21,4.28-.6.48-.14.83-.25,1.01-.25.6,0,1.95.25,1.95.99,0,.6-.53.62-1.95.67Z"/>
        <path class="cls-2" d="M60.59,162.31c-.67.34-2.92,2.87-3.4,3.33.74.51.83.55.83.78,0,.09-.12.6-.14.69-.09.55-.12,1.75-.12,3.01,0,.74.07,3.93.07,4.6,0,.28,0,.99-.67.99-.58,0-.9-.85-.9-1.29,0-.18.14-1.01.16-1.17.12-1.36.21-3.38.21-4.74,0-1.45-.05-1.77-.21-2.18-1.01.87-3.96,3.38-6.62,4.23l-.07-.23c3.91-2.35,9.27-8.05,9.27-9.11,0-.35-.32-.53-1.08-.99.37-.07.53-.12.74-.12,1.38,0,2.48,1.36,2.48,1.63,0,.25-.18.34-.55.55Z"/>
        <path class="cls-2" d="M82.12,162.03c-.41.25-.6.67-.87,1.47-1.33,3.84-3.47,7.5-6.9,9.7-1.93,1.24-3.56,1.66-4.28,1.84l-.05-.18c4.19-2.16,8.78-7.17,10.19-13.75-1.56-.02-8.19.94-9.38,1.29-.21.07-1.24.53-1.29.53-.44,0-1.86-1.17-1.86-2.69,0-.3.11-.55.21-.74,1.03,1.22,1.22,1.45,2.23,1.45.64,0,9.22-.71,9.91-1.01.16-.07.74-.55.87-.55.28,0,1.98,1.49,1.98,1.93,0,.28-.02.28-.76.71Z"/>
        <path class="cls-2" d="M100,164.68c-.37.05-.41.09-.97.46-1.66,1.08-2.62,1.7-3.63,2.18-1.24,5.89-3.47,7.43-4.92,8.32l-.11-.16c2.78-2.87,3.72-7.8,3.72-8.46,0-.37-.05-.67-1.29-1.15.3-.16.55-.28.99-.28.62,0,1.7.46,1.82,1.04.44-.35,2.14-1.7,3.04-2.99-1.43.05-5.86.51-7.73.99-.21.05-1.08.39-1.26.39-.37,0-1.56-.87-1.56-1.86,0-.41.09-.6.18-.8.53,1.01,1.04,1.15,1.63,1.15.76,0,7.54-.64,8.51-.87.16-.05.85-.3.99-.3.23,0,1.56,1.52,1.56,1.91,0,.34-.12.37-.97.44Z"/>
        <path class="cls-2" d="M121.1,171.28s-1.2-.21-1.79-.3c-.76-.14-2.09-.25-3.47-.25-2.12,0-6.78.39-8.6.97-.94.3-1.04.32-1.24.32-.6,0-2.12-1.13-2.12-2.69,0-.25.05-.39.09-.6.83,1.01,1.43,1.43,2.71,1.43.14,0,6.37-.53,7.57-.57,1.4-.07,3.43-.16,4.14-.39.76-.23.83-.25.97-.25.48,0,2.32.8,2.32,1.7,0,.34-.21.64-.57.64ZM116.96,162.24c-.51.05-2.3.16-3.54.23-1.33.07-2.64.14-4.12.48-.16.05-.28.05-.41.05-.57,0-2-.51-2.12-2.25.41.28,1.22.8,2.83.8.76,0,4.07-.16,5.73-.62.21-.05,1.15-.41,1.36-.41.44,0,1.84.34,1.84,1.06,0,.55-.41.6-1.56.67Z"/>
        <path class="cls-2" d="M140.03,167.11c-.21,0-.76-.05-.8-.05-.83-.07-1.06-.09-2.6-.09-7.01,0-9.08.14-10.12.41-.07.02-.8.21-.87.21-.6,0-1.84-1.47-1.84-2.53,0-.14.02-.57.28-1.1.78,1.75,1.5,1.75,3.89,1.75,1.59,0,9.06-.02,10.12-.28.14-.02.8-.21.94-.21s2.44.25,2.44,1.15c0,.71-1.15.74-1.43.74Z"/>
      </g>
      <g>
        <path class="cls-2" d="M304.76,72.42c-.05.53-.23,2.9-.28,3.38-.6,4.94-3.56,7.57-5.52,8.37l-.12-.14c4.25-4,4.25-8.97,4.25-10.9s-.02-1.91-1.77-2.37c.37-.25.87-.6,1.52-.6.6,0,2.16.51,2.16,1.15,0,.18-.23.94-.25,1.1ZM310.35,81.92c-.78.55-.85.64-1.45,1.29-.11.12-.32.35-.46.35-.44,0-1.47-1.89-1.47-2.18,0-.16.28-.85.3-1.01.21-.97.21-3.96.21-4.58,0-.85-.02-5.1-.14-5.66-.09-.41-.55-.71-1.66-1.08.3-.18.76-.48,1.29-.48.69,0,2.48.69,2.48,1.38,0,.21-.28,1.13-.32,1.31-.23,1.17-.34,7.61-.34,9.01,0,.09,0,.39.16.39.55,0,4.71-2.64,8.32-7.24l.18.14c-1.56,3.77-4.88,6.78-7.11,8.37Z"/>
        <path class="cls-2" d="M332.26,69.48c-.21.12-.41.3-.87.71-.14.14-2.78,2.92-3.31,3.47.37.18,1.15.67,1.15.99,0,.14-.21.74-.28.85-.05.09-.07,1.91-.07,2.37,0,1.03.09,5.59.09,6.51,0,.48-.07,1.43-.71,1.43-.76,0-1.22-1.26-1.22-1.75,0-.21.23-1.1.25-1.29.16-1.2.25-2.87.25-4.12,0-.78-.09-3.29-.18-3.66-.05-.16-.12-.3-.28-.41-1.47,1.38-4.37,3.86-8.12,5.31l-.09-.12c5.33-3.54,11.41-10.51,11.41-11.5,0-.55-.25-.74-1.17-1.4.28-.07.55-.14.92-.14,1.36,0,2.85,1.54,2.85,2.14,0,.18-.05.23-.62.6Z"/>
        <path class="cls-2" d="M344.75,78.17c-1.01,0-1.84-.83-1.84-1.84s.83-1.84,1.84-1.84,1.84.78,1.84,1.84-.85,1.84-1.84,1.84Z"/>
        <path class="cls-2" d="M368.99,73.92c-.48.3-.62.39-.78.92-.85,2.94-2.64,9.01-9.77,11.08l-.07-.16c2.78-1.72,5.27-3.93,6.83-7.06,1.31-2.58,1.68-4.85,1.68-5.13s-.09-.28-.34-.28c-.51,0-4.12.05-7.36.34-.25.02-1.47.23-1.75.23-.16,0-.23-.02-.74-.28,0,.67.16,4,.16,4.23,0,.58,0,1.17-.55,1.17-.44,0-1.1-.78-1.1-1.4,0-.14.05-.87.05-1.04,0-2.85,0-3.7-1.47-4.39.28-.09.51-.16,1.01-.16.55,0,.69.09,1.43.46.44.23.6.37,1.26.37,1.08,0,2.78-.21,3.54-.28q0-3.2-2.05-3.56c.67-.48.99-.71,1.52-.71.58,0,2.42.55,2.42,1.13,0,.12-.18.64-.23.76-.11.32-.23.78-.25,2.3.99-.05,1.98-.12,3.54-.18.44-.02.62-.09.76-.16.11-.07.71-.53.87-.53.25,0,1.89,1.49,1.89,1.84,0,.18-.12.25-.48.48ZM369.87,71.82c-.3,0-.37-.09-.99-.85-.16-.18-1.47-1.68-2.35-2.3,1.5.18,3.91.85,3.91,2.37,0,.34-.12.78-.58.78ZM371.66,70.03c-.28,0-.44-.14-.71-.51-.12-.14-.99-1.31-2.69-2.44,1.47.11,3.93.55,3.93,2.18,0,.51-.28.76-.53.76Z"/>
        <path class="cls-2" d="M383.89,72.31c-.67.34-2.92,2.87-3.4,3.33.74.51.83.55.83.78,0,.09-.12.6-.14.69-.09.55-.12,1.75-.12,3.01,0,.74.07,3.93.07,4.6,0,.28,0,.99-.67.99-.58,0-.9-.85-.9-1.29,0-.18.14-1.01.16-1.17.12-1.36.21-3.38.21-4.74,0-1.45-.05-1.77-.21-2.18-1.01.87-3.96,3.38-6.62,4.23l-.07-.23c3.91-2.35,9.27-8.05,9.27-9.11,0-.35-.32-.53-1.08-.99.37-.07.53-.12.74-.12,1.38,0,2.48,1.36,2.48,1.63,0,.25-.18.34-.55.55Z"/>
        <path class="cls-2" d="M401.15,78.93c-.34,0-.64-.3-1.01-.69-2.12-2.35-3.31-3.17-4.9-3.77,0,.9-.05,4.9-.02,5.73,0,.6.14,3.24.14,3.77,0,.48,0,1.84-.9,1.84-.76,0-1.08-1.33-1.08-1.93,0-.34.02-.55.16-1.54.28-1.82.3-5.45.3-7.4,0-.99-.02-5.56-.21-6.3-.14-.51-.64-.74-1.84-1.15.46-.28,1.01-.55,1.52-.55.35,0,2.6.48,2.6,1.22,0,.18-.28.97-.32,1.15-.25.87-.3,3.52-.32,4.65,2.35.37,4.67,1.38,5.93,2.48.41.37.69.94.69,1.54,0,.76-.46.97-.74.97Z"/>
        <path class="cls-2" d="M412.22,72.61c-.39,0-.67-.28-1.4-1.01-1.61-1.63-2.9-2.23-3.77-2.62,2.76-.18,6.03.81,6.03,2.71,0,.51-.39.92-.85.92ZM414.23,80.49c-.48.37-2.64,1.93-3.04,2.32-.12.11-.62.69-.74.8-.09.09-.28.14-.39.14-.8,0-2.32-1.93-2.32-3.01,0-.41.14-.76.23-1.01.53,1.03,1.2,1.52,1.68,1.52.76,0,4.32-2.64,5.31-3.4,3.7-2.83,5.47-4.81,7.34-6.94l.12.07c-.55,1.68-3.13,5.63-8.19,9.52Z"/>
        <path class="cls-2" d="M314.35,103.53c-.39.3-.39.41-.53,1.29-.57,3.5-1.22,7.29-2.92,9.06-.6.64-1.1.83-1.36.83-.35,0-.44-.35-.51-.67-.18-.94-.25-1.24-1.89-2.92l.07-.12c1.17.55,2.35,1.13,2.69,1.13.23,0,.39-.09.53-.32,1.59-2.76,2-6.99,1.89-8.85-.83.07-1.17.14-4.21.55-1.01,3.5-2.64,8.92-8.3,11.22l-.07-.14c2.67-2.23,5.13-5.1,6.81-10.88-1.75.25-2.9.41-3.56.76-.62.32-.69.34-.9.34-.48,0-1.79-1.03-1.79-2.32,0-.25.07-.39.16-.64.34.57,1.33,1.17,2.16,1.17.25,0,1.61-.12,2.41-.21l1.82-.21c.51-2.02.51-2.97.51-3.17,0-.99-.44-1.2-1.31-1.59.3-.16.67-.37,1.26-.37.69,0,2.39.74,2.39,1.36,0,.18-.14.34-.41.69-.12.14-.18.28-.35.87-.09.32-.46,1.77-.53,2.05.44-.05,3.04-.32,3.2-.39.18-.09.9-.76,1.08-.76.35,0,2.09,1.22,2.09,1.68,0,.21-.09.28-.44.55Z"/>
        <path class="cls-2" d="M323.46,102.42c-.05.53-.23,2.9-.28,3.38-.6,4.94-3.56,7.57-5.52,8.37l-.12-.14c4.25-4,4.25-8.97,4.25-10.9s-.02-1.91-1.77-2.37c.37-.25.87-.6,1.52-.6.6,0,2.16.51,2.16,1.15,0,.18-.23.94-.25,1.1ZM329.05,111.92c-.78.55-.85.64-1.45,1.29-.12.12-.32.35-.46.35-.44,0-1.47-1.89-1.47-2.18,0-.16.28-.85.3-1.01.21-.97.21-3.96.21-4.58,0-.85-.02-5.1-.14-5.66-.09-.41-.55-.71-1.66-1.08.3-.18.76-.48,1.29-.48.69,0,2.48.69,2.48,1.38,0,.21-.28,1.13-.32,1.31-.23,1.17-.35,7.61-.35,9.01,0,.09,0,.39.16.39.55,0,4.71-2.64,8.32-7.24l.18.14c-1.56,3.77-4.88,6.78-7.11,8.37Z"/>
        <path class="cls-2" d="M356.34,104.86s-1.84-.21-2.39-.28c-.87-.09-1.68-.14-2.3-.14-.71,0-1.24.05-2.83.16.18.12.87.64,1.01.76.07.07.14.16.14.28s-.41.74-.48.85c-.09.16-.14.39-.16.51-1.1,3.75-3.31,7.63-7.2,8.81l-.07-.11c3.61-2.71,5.68-8.26,5.68-9.89,0-.55-.18-.76-.44-1.03-3.4.48-4.12.74-5.01,1.08-.44.16-.55.21-.71.21-.44,0-1.93-1.06-1.93-2.48,0-.34.07-.55.14-.78.71,1.08,1.31,1.47,2.23,1.47.25,0,9.66-1.03,11.08-1.17.23-.02,1.2-.37,1.4-.37.12,0,2.46.44,2.46,1.49,0,.64-.44.64-.62.64ZM351.16,100.12c-.74.02-1.91.07-2.62.14-1.2.14-3.47.37-3.61.37-.39,0-2-.32-1.82-2.16.76.64,1.54.85,2.76.85,1.31,0,2.97-.21,4.28-.6.48-.14.83-.25,1.01-.25.6,0,1.95.25,1.95.99,0,.6-.53.62-1.95.67Z"/>
        <path class="cls-2" d="M369.98,102.31c-.67.34-2.92,2.87-3.4,3.33.74.51.83.55.83.78,0,.09-.12.6-.14.69-.09.55-.11,1.75-.11,3.01,0,.74.07,3.93.07,4.6,0,.28,0,.99-.67.99-.58,0-.9-.85-.9-1.29,0-.18.14-1.01.16-1.17.12-1.36.21-3.38.21-4.74,0-1.45-.05-1.77-.21-2.18-1.01.87-3.96,3.38-6.62,4.23l-.07-.23c3.91-2.35,9.27-8.05,9.27-9.11,0-.35-.32-.53-1.08-.99.37-.07.53-.12.74-.12,1.38,0,2.48,1.36,2.48,1.63,0,.25-.18.34-.55.55Z"/>
        <path class="cls-2" d="M393.19,111.83c-.25,0-1.36-.32-1.59-.37-1.49-.3-3.68-.48-5.17-.48-2.39,0-7.22.44-8.85.94-.18.05-1.06.44-1.15.44-.67,0-2-1.43-2-2.51,0-.25.05-.44.14-.74.25.44.85,1.47,2.39,1.47.16,0,2.53-.21,2.85-.23.53-.05,2.85-.23,3.31-.28.11-3.63.14-4.39.14-4.99,0-2.16-.3-2.39-.83-2.76-1.43.18-1.49.18-2.16.3-.12.02-.64.12-.71.12-.67,0-1.89-1.17-1.93-2.18,1.08.87,2.51.87,2.87.87.8,0,6.21-.41,6.94-.69.14-.05.74-.35.87-.35.23,0,1.77.37,1.77,1.1,0,.48-.55.51-.74.51-1.89,0-3.66.05-4.85.14.55.46.62.51.62.71,0,.18-.28,1.03-.3,1.22-.09.67-.09.85-.37,5.93,3.45-.14,3.82-.16,4.6-.16.99,0,1.08,0,1.36-.05.18-.02.85-.16.97-.16.76,0,2.25.85,2.25,1.7,0,.25-.11.48-.44.48Z"/>
        <path class="cls-2" d="M313.78,132.47c-.3.16-.34.25-.67,1.13-1.47,3.82-2.83,6.19-5.13,8.26-1.7,1.52-4.21,3.04-6.37,3.47l-.02-.16c2.74-1.38,5.52-4.07,6.9-5.98,1.17-1.63,2.92-4.92,3.47-7.66-2.97.05-8.78.9-9.82,1.33-.09.05-.71.37-.85.37-.18,0-.3-.09-.51-.28-.57-.53-1.36-1.29-1.36-2.25,0-.34.14-.67.23-.94.94,1.54,1.82,1.54,2.3,1.54.32,0,4.44-.39,5.29-.44.99-.05,4.25-.23,4.94-.78.3-.23.37-.28.48-.28.3,0,1.93,1.7,1.93,2,0,.21-.21.32-.83.67ZM316.22,131.27c-.34,0-.41-.09-1.13-1.06-.21-.3-.85-1.15-2.25-2.21,1.61.16,3.93,1.06,3.93,2.48,0,.32-.18.78-.55.78ZM318.03,129.73c-.21,0-.3-.09-1.03-.99-.21-.25-1.2-1.29-2.35-1.98,1.01.02,3.86.41,3.86,2.16,0,.41-.18.8-.48.8Z"/>
        <path class="cls-2" d="M325.51,132.42c-.05.53-.23,2.9-.28,3.38-.6,4.94-3.56,7.57-5.52,8.37l-.12-.14c4.25-4,4.25-8.97,4.25-10.9s-.02-1.91-1.77-2.37c.37-.25.87-.6,1.52-.6.6,0,2.16.51,2.16,1.15,0,.18-.23.94-.25,1.1ZM331.09,141.92c-.78.55-.85.64-1.45,1.29-.12.12-.32.35-.46.35-.44,0-1.47-1.89-1.47-2.18,0-.16.28-.85.3-1.01.21-.97.21-3.96.21-4.58,0-.85-.02-5.1-.14-5.66-.09-.41-.55-.71-1.66-1.08.3-.18.76-.48,1.29-.48.69,0,2.48.69,2.48,1.38,0,.21-.28,1.13-.32,1.31-.23,1.17-.35,7.61-.35,9.01,0,.09,0,.39.16.39.55,0,4.71-2.64,8.32-7.24l.18.14c-1.56,3.77-4.88,6.78-7.11,8.37Z"/>
        <path class="cls-2" d="M355.78,133.76c-.14.11-.16.21-.3,1.03-.53,3.2-1.27,7.57-3.17,9.27-.41.34-.9.55-1.15.55-.39,0-.44-.23-.62-1.03-.16-.8-1.38-2.14-1.68-2.51l.05-.09c1.22.64,2.37,1.04,2.64,1.04.62,0,1.15-1.52,1.4-2.23.53-1.59,1.08-4.09,1.1-6.81-.37.05-1.47.14-2.23.21-.28.02-1.68.16-1.96.18-.69,2.37-1.24,4.3-3.01,6.78-2.16,3.04-4.39,3.96-5.33,4.35l-.12-.16c1.66-1.24,4.71-3.82,6.88-10.78-1.66.25-3.54.71-3.72.83-.51.28-.55.32-.76.32-.48,0-1.82-1.15-1.82-2.21,0-.35.09-.62.14-.83.85.87,1.24,1.22,2.18,1.22.39,0,.46,0,2.62-.21l1.66-.16c.25-1.03.51-2.35.51-3.13,0-1.08-.53-1.29-1.33-1.61.3-.16.76-.41,1.17-.41.46,0,2.48.71,2.48,1.43,0,.11-.51.9-.62,1.03-.05.05-.55,2.14-.64,2.53.53-.05,2.83-.28,2.92-.3.46-.12.67-.32.99-.64.07-.09.21-.16.34-.16.3,0,2.07,1.22,2.07,1.7,0,.21-.28.44-.69.8ZM357.39,131.34c-.34,0-.58-.34-.99-.97-.97-1.45-1.86-2.12-2.28-2.44,1.79.21,3.91,1.29,3.91,2.55,0,.32-.18.85-.64.85ZM359.94,130.21c-.3,0-.39-.11-1.08-1.01-.34-.44-1.08-1.33-2.35-2.16,1.47-.02,3.96.71,3.96,2.35,0,.46-.23.83-.53.83Z"/>
        <path class="cls-2" d="M367.87,130.7c-.21.64-.21,2.69-.21,3.47,0,.41.02,2.3.02,2.69,0,.34,0,1.68-.74,1.68-.62,0-1.06-.97-1.06-1.89,0-.23.14-1.26.16-1.47.05-.37.07-1.17.07-2.46q0-2.97-1.82-3.47c.44-.28.85-.53,1.33-.53.55,0,2.48.53,2.48,1.2,0,.09-.23.71-.25.78ZM375.96,130.26c-.05.3-.14,4.3-.16,5.13-.16,4.23-1.2,6.32-2.69,7.98-1.75,1.98-3.5,2.39-4.16,2.53l-.07-.16c5.13-3.29,5.4-8.32,5.4-13.59,0-3.52-.07-3.66-2.12-3.98.3-.28.78-.67,1.56-.67.83,0,2.6.53,2.6,1.15,0,.25-.34,1.38-.37,1.61Z"/>
        <path class="cls-2" d="M419.59,130.67c-.37.18-2.16.69-4.76,1.31-.6,1.2-3.1,6.53-3.7,7.56-.53.9-1.01,1.75-1.47,1.75-.16,0-.64-.09-.64-.87,0-.64.32-1.06.55-1.38,1.66-2.18,3.13-5.22,3.82-6.71-.51.12-1.2.3-2.07.3-1.36,0-2.51-.71-2.32-2.09.55.78,1.31.92,2.23.92.83,0,1.77-.16,2.69-.37.53-1.31.97-2.44.97-2.92,0-.25-.14-.8-1.36-1.13.34-.3.67-.46,1.13-.46.9,0,2.3.97,2.3,1.56q0,.23-.57,1.06c-.32.46-.51.78-.85,1.45.46-.16,1.24-.44,1.72-.67,1.01-.46,1.13-.53,1.4-.53.3,0,1.31.32,1.31.76,0,.23-.18.37-.37.46ZM425.34,136.4c-.14,0-.39-.02-.8-.25-.78-.41-1.06-.58-1.96-.58-2.41,0-2.76,1.31-2.76,2.39,0,1.33.25,2.62.39,3.33,1.84.39,4.37,1.36,4.37,2.85,0,.35-.23.76-.64.76-.28,0-1.2-.64-1.77-1.06-.92-.64-1.33-.8-1.79-.97-.02.48-.07,1.45-.87,2.18-.94.87-2.25.97-2.78.97-1.91,0-3.56-1.03-3.56-2.46,0-1.72,2.09-2.55,4.32-2.55.51,0,.85.05,1.2.07-.07-.8-.16-1.89-.16-2.41,0-2.53,2.44-3.52,4.02-3.82.18-.05.39-.09.39-.37,0-.3-.83-1.15-3.15-1.75.34-.12.78-.23,1.47-.23,2.85,0,4.69,2.14,4.69,3.22,0,.41-.23.67-.6.67ZM417.04,142.13c-.87,0-3.01.18-3.01,1.43,0,.97,1.47,1.22,2.25,1.22s2.55-.21,2.48-2.41c-.44-.12-.81-.23-1.72-.23Z"/>
        <path class="cls-2" d="M442.18,144.61c-.97.39-4.51.44-5.36.44-2.02,0-3.2-.12-4.48-.62-1.13-.44-2.48-1.4-2.48-3.2,0-2.85,3.08-4.92,4.37-5.75-.99-1.22-.99-1.61-1.08-5.45-.07-2.37-.46-2.55-1.91-3.2.32-.3.8-.41,1.24-.41.6,0,1.66.53,2.14.85.46.3.53.44.53.74,0,.23-.07.48-.09.55-.3.8-.44,1.29-.44,2.94,0,1.93.28,2.83.58,3.38,1.79-.97,2.39-1.2,4.42-2,.28-.11.41-.25.41-.55,0-.23-.11-.46-.18-.64,1.33.05,2.14,1.01,2.14,1.89,0,.64-.16.67-1.5.9-4.14.69-9.86,3.73-9.86,6.53,0,2.37,3.13,2.58,4.44,2.58.39,0,2.92-.09,5.29-.53.58-.12.74-.14,1.04-.14.67,0,1.56.3,1.56.92,0,.37-.28.57-.76.78ZM445.17,133.09c-.32,0-.41-.11-1.45-1.15-1.04-1.03-1.77-1.43-2.44-1.77,1.47-.05,4.35.58,4.35,2.25,0,.32-.12.67-.46.67ZM446.67,130.74c-.23,0-.32-.07-1.01-.74-1.22-1.17-1.52-1.45-2.78-2.05.3-.05.51-.07.78-.07,1.2,0,3.5.69,3.5,2.16,0,.41-.23.69-.48.69Z"/>
      </g>
    </g>
  </g>
</svg>