<?xml version="1.0" encoding="UTF-8"?>
<svg id="_レイヤー_2" data-name="レイヤー 2" xmlns="http://www.w3.org/2000/svg" viewBox="0 0 620 200.4">
  <defs>
    <style>
      .cls-1 {
        fill: none;
        stroke: #e5da99;
        stroke-miterlimit: 10;
        stroke-width: 1.2px;
      }

      .cls-2 {
        fill: #fff;
      }

      .cls-2, .cls-3, .cls-4 {
        stroke-width: 0px;
      }

      .cls-3 {
        fill: #e5da99;
      }

      .cls-4 {
        fill: #638bc7;
      }
    </style>
  </defs>
  <g id="_レイヤー_2-2" data-name="レイヤー 2">
    <g>
      <g>
        <polygon class="cls-4" points="594.97 200.4 0 200.4 0 .4 620 .4 620 176.76 594.97 200.4"/>
        <g>
          <path class="cls-3" d="M42.78,24.47c0,1.43-.55,2.65-1.64,3.66-1.09,1.01-2.4,1.51-3.94,1.51-.9,0-1.98-.28-3.23-.83-.33-.15-.58-.22-.75-.22-.2,0-.33.23-.38.69-.02.24-.12.36-.33.36-.17,0-.25-.1-.25-.3,0-.13,0-.23.03-.3.13-1.02.2-1.96.2-2.83,0-.17-.02-.63-.05-1.4-.02-.1-.03-.23-.03-.4,0-.25.1-.38.3-.38.17,0,.28.2.35.61.43,3,1.84,4.49,4.22,4.49,1.02,0,1.8-.29,2.36-.86s.84-1.39.84-2.44c0-.93-.27-1.73-.81-2.39-.54-.66-1.47-1.31-2.79-1.96-1.58-.78-2.68-1.54-3.3-2.27s-.92-1.64-.92-2.73c0-1.38.45-2.52,1.34-3.42.89-.9,2.02-1.35,3.39-1.35.57,0,1.35.19,2.35.58.35.13.61.2.77.2.18,0,.3-.03.36-.1.06-.07.11-.24.16-.53.03-.17.12-.25.28-.25.17,0,.25.1.25.3,0,.13,0,.23-.03.3-.05.4-.08.88-.08,1.45,0,.8.04,1.43.12,1.9l.03.4c.02.18-.06.27-.23.27-.18,0-.31-.19-.38-.57-.18-.98-.62-1.8-1.3-2.46s-1.45-.99-2.3-.99-1.5.27-1.99.8c-.49.53-.74,1.26-.74,2.17,0,1.07.36,1.92,1.07,2.58.4.37,1.27.88,2.6,1.55,1.57.78,2.69,1.58,3.38,2.39.68.81,1.02,1.73,1.02,2.76Z"/>
          <path class="cls-3" d="M62.77,29.12c0,.15-.16.23-.47.23h-5.43c-.33,0-.5-.07-.5-.2s.39-.22,1.16-.27c.41-.03.65-.1.72-.21.07-.11.1-.5.1-1.16v-7.28h-7.53v7.08c0,.75.06,1.19.17,1.32.12.13.51.23,1.17.28.43.03.65.11.65.22,0,.15-.17.23-.5.23h-5.42c-.33,0-.5-.07-.5-.2s.17-.22.5-.25c.22-.02.44-.03.67-.05.37-.03.6-.12.7-.25.05-.08.08-.55.08-1.4v-13.18c0-.75-.04-1.19-.11-1.32-.07-.13-.34-.21-.79-.22-.52-.04-.82-.06-.91-.08-.09-.02-.14-.09-.14-.21,0-.14.11-.21.33-.21.07,0,.21,0,.42.02.42.03,1.4.05,2.95.05.85,0,1.44-.01,1.77-.04.12-.02.27-.04.45-.04.3,0,.45.08.45.25,0,.15-.27.23-.81.23s-.87.06-.98.19c-.11.12-.16.52-.16,1.19v5.77h7.53v-5.39c0-.89-.07-1.41-.2-1.57-.13-.16-.6-.23-1.4-.21-.25,0-.38-.08-.38-.23s.14-.23.42-.23h5.45c.35,0,.53.08.53.22s-.37.23-1.1.25c-.22,0-.38.02-.47.05-.17.05-.27.14-.31.28-.04.13-.06.53-.06,1.17v13.3c0,.8.04,1.27.12,1.4.17.18.64.28,1.43.28.26-.03.4.03.4.2Z"/>
          <path class="cls-3" d="M82.45,20.77c0,2.48-.75,4.58-2.24,6.3-1.49,1.72-3.32,2.58-5.49,2.58-2.3,0-4.23-.87-5.8-2.61s-2.35-3.89-2.35-6.44.75-4.73,2.26-6.39c1.51-1.66,3.44-2.49,5.79-2.49,2.22,0,4.08.87,5.58,2.6s2.25,3.88,2.25,6.45ZM79.65,20.9c0-3.06-.62-5.44-1.88-7.15-.78-1.07-1.88-1.6-3.28-1.6s-2.37.41-3.1,1.23c-1.35,1.5-2.03,3.95-2.03,7.35,0,2.69.47,4.78,1.41,6.27s2.26,2.23,3.96,2.23c1.58,0,2.78-.7,3.58-2.11.88-1.55,1.33-3.63,1.33-6.22Z"/>
          <path class="cls-3" d="M97.97,16.14c0,1.62-.69,2.88-2.08,3.78-.87.57-1.97.85-3.3.85-.57,0-1.21-.06-1.92-.17v7.1c0,.38.02.62.05.73.08.23.27.38.55.42.48.07.95.1,1.4.1.18,0,.27.06.27.17,0,.17-.12.25-.35.25h-5.75c-.5,0-.75-.08-.75-.25,0-.12.17-.18.52-.18.78,0,1.23-.07,1.35-.22.13-.07.21-.23.22-.5v-14.77c0-.52-.14-.83-.42-.95-.17-.07-.46-.1-.88-.1h-.42c-.25,0-.38-.07-.38-.2,0-.15.23-.22.7-.22h5.5c1.9,0,3.29.33,4.17,1,1,.75,1.5,1.81,1.5,3.17ZM95.34,16.17c0-2.52-1.05-3.77-3.15-3.77-.7,0-1.16.12-1.38.35-.1.1-.15.36-.15.78v6.69c.13.02.28.02.45.02,1.1,0,2.03-.24,2.8-.73.95-.6,1.42-1.72,1.42-3.35Z"/>
          <path class="cls-3" d="M121.62,27.37c0,.43-.02,1.15-.07,2.15h-.27c-.1,0-.34-.02-.72-.05-.38-.03-.82-.05-1.3-.05l-10.38-.08c-.28,0-.42-.08-.42-.23,0-.12.23-.19.67-.22.63-.03,1.01-.1,1.14-.21.12-.11.19-.42.19-.94v-14.05c0-.62-.06-.97-.19-1.08-.12-.1-.57-.15-1.34-.15-.32,0-.48-.09-.48-.28,0-.15.1-.22.3-.22h.23c.55.05,1.64.08,3.27.08.15,0,.44-.01.88-.04.43-.02.79-.04,1.08-.04h.28c.3,0,.45.08.45.25,0,.1-.05.16-.14.19-.09.02-.38.05-.86.06-.48.02-.77.1-.86.24s-.14.58-.14,1.31v14.75c.45.02,1.07.03,1.88.03,1.95,0,3.32-.1,4.12-.3.8-.2,1.34-.57,1.62-1.12.28-.55.45-1.29.5-2.22.02-.22.11-.33.29-.33.21,0,.3.12.29.38v2.17Z"/>
          <path class="cls-3" d="M132.05,29.13c0,.14-.1.21-.3.21h-.25c-.1-.05-1.23-.08-3.4-.08-.42,0-.83.02-1.25.05-.22.02-.55.03-1,.03-.22,0-.33-.08-.33-.23,0-.13.22-.21.65-.22.67-.02,1.06-.1,1.17-.24.12-.14.17-.62.17-1.44v-13.19c0-.82-.04-1.28-.13-1.38-.1-.17-.57-.27-1.39-.3-.32-.01-.48-.07-.48-.18,0-.13.1-.2.3-.2h3.4c.25,0,.74,0,1.46.02l.96-.02c.27,0,.4.07.4.21,0,.13-.37.21-1.11.24-.42.02-.68.09-.77.22-.09.13-.14.48-.14,1.05v13.35c0,.95.04,1.47.12,1.55.18.18.73.29,1.62.33.18,0,.28.07.28.21Z"/>
          <path class="cls-3" d="M146.95,24.47c0,1.43-.55,2.65-1.64,3.66-1.09,1.01-2.4,1.51-3.94,1.51-.9,0-1.98-.28-3.23-.83-.33-.15-.58-.22-.75-.22-.2,0-.33.23-.38.69-.02.24-.12.36-.33.36-.17,0-.25-.1-.25-.3,0-.13,0-.23.03-.3.13-1.02.2-1.96.2-2.83,0-.17-.02-.63-.05-1.4-.02-.1-.03-.23-.03-.4,0-.25.1-.38.3-.38.17,0,.28.2.35.61.43,3,1.84,4.49,4.22,4.49,1.02,0,1.8-.29,2.36-.86s.84-1.39.84-2.44c0-.93-.27-1.73-.81-2.39-.54-.66-1.47-1.31-2.79-1.96-1.58-.78-2.68-1.54-3.3-2.27s-.92-1.64-.92-2.73c0-1.38.45-2.52,1.34-3.42.89-.9,2.02-1.35,3.39-1.35.57,0,1.35.19,2.35.58.35.13.61.2.77.2.18,0,.3-.03.36-.1.06-.07.11-.24.16-.53.03-.17.12-.25.28-.25.17,0,.25.1.25.3,0,.13,0,.23-.03.3-.05.4-.08.88-.08,1.45,0,.8.04,1.43.12,1.9l.03.4c.02.18-.06.27-.23.27-.18,0-.31-.19-.38-.57-.18-.98-.62-1.8-1.3-2.46s-1.45-.99-2.3-.99-1.5.27-1.99.8c-.49.53-.74,1.26-.74,2.17,0,1.07.36,1.92,1.07,2.58.4.37,1.27.88,2.6,1.55,1.57.78,2.69,1.58,3.38,2.39.68.81,1.02,1.73,1.02,2.76Z"/>
          <path class="cls-3" d="M164.26,16.44c0,.22-.1.33-.3.33s-.34-.22-.42-.65l-.1-.9c-.12-.6-.31-1.11-.58-1.53-.35-.55-.92-.9-1.72-1.05-.52-.1-.93-.14-1.25-.12-.78.02-1.26.04-1.43.05v15.1c0,.6.16.98.48,1.13.17.08.63.13,1.4.15.2.02.3.09.3.21,0,.14-.13.21-.4.21-.13,0-.25,0-.35-.02-1-.03-1.71-.05-2.12-.05-.55,0-1.07.01-1.55.04s-1.1.04-1.85.04c-.38,0-.58-.07-.58-.2,0-.15.36-.23,1.08-.25.52,0,.85-.11,1-.33.08-.13.12-.48.12-1.03v-15c-1.65.02-2.67.1-3.08.25-1.05.38-1.67,1.41-1.85,3.08-.05.5-.17.75-.35.75-.2,0-.3-.17-.3-.53,0-.18,0-.37.03-.55l.05-.58c.05-.77.12-1.77.22-3.02h1.12l5.1.08c.6.02,1.53.02,2.8,0l4.15-.08c.03.93.14,2.32.32,4.15,0,.05,0,.11.03.19.02.08.03.12.03.14Z"/>
        </g>
        <polyline class="cls-1" points="0 34.98 169.73 34.98 201.19 .4"/>
      </g>
      <g>
        <path class="cls-2" d="M54.28,77.21c-1.65.29-4.47.31-5.1.31-5.9,0-6.01-1.43-6.01-5.57,0-.9.09-4.93.09-5.74,0-1.83,0-2.31-1.8-2.99.64-.42.75-.51,1.06-.51.84,0,2.79.79,2.79,1.54,0,.18-.37.77-.42.9-.11.37-.33,4.71-.37,5.41,3.43-1.1,7.53-4.05,7.53-4.62,0-.26-.66-.79-.92-1.01.22-.04.33-.07.51-.07,1.45,0,2.82,1.45,2.82,2.11,0,.33-.11.35-1.01.62-.26.09-.42.13-.68.26-5.21,2.51-5.77,2.79-8.25,3.19-.02.46-.02.92-.02,1.67,0,2.77,0,3.5,4.09,3.5,2.13,0,3.17-.33,3.98-.57.57-.18.73-.18.92-.18.53,0,1.89.11,1.89.92,0,.57-.75.75-1.08.81ZM55.07,64.58c-.29,0-.35-.09-.99-.81-.77-.88-1.85-1.56-2.4-1.94,2.11.18,3.92.86,3.92,2,0,.35-.22.75-.53.75ZM57.34,63.32c-.24,0-.35-.09-1.36-1.01-.92-.81-1.41-1.14-2.29-1.54.26-.02.31-.04.48-.04.77,0,3.67.46,3.67,1.89,0,.33-.2.71-.51.71Z"/>
        <path class="cls-2" d="M74.38,71.07c-.2,0-.73-.04-.77-.04-.79-.07-1.01-.09-2.49-.09-6.71,0-8.69.13-9.68.4-.07.02-.77.2-.84.2-.57,0-1.76-1.41-1.76-2.42,0-.13.02-.55.26-1.06.75,1.67,1.43,1.67,3.72,1.67,1.52,0,8.67-.02,9.68-.26.13-.02.77-.2.9-.2s2.33.24,2.33,1.1c0,.68-1.1.7-1.36.7Z"/>
        <path class="cls-2" d="M92.69,77.43c-.57,0-.77-.57-.95-1.14-.24-.81-.44-1.45-.88-2.46-2.09.73-6.89,1.85-9.59,2.46-.4.09-.48.15-.73.42-.2.24-.33.33-.48.33-.42,0-1.98-1.61-1.8-3.28.68.73.9.9,1.94.9.13,0,.59-.02.75-.04,2.84-6.09,4.25-9.13,4.25-10.32,0-.73-.62-1.1-1.52-1.61.51-.13.88-.22,1.19-.22,1.01,0,2.6,1.3,2.6,2.09,0,.26-.09.4-.55.81-.33.29-.84,1.58-1.28,2.46-.81,1.61-2.42,4.51-3.94,6.71,3.04-.31,3.54-.37,8.96-1.21-.73-1.5-1.5-2.57-2.95-4.27,1.74.77,3.17,2.2,4.42,3.87.88,1.17,1.39,2.13,1.39,3.3,0,.77-.44,1.19-.81,1.19Z"/>
        <path class="cls-2" d="M112.72,77.76c-.46,0-.7-.37-.9-.7-1.76-2.9-2.97-4.36-4.93-5.81-3.92,4.93-7.66,6.32-9.73,6.73l-.02-.18c5.1-2.25,10.47-8.98,11.68-13.07-.84.11-4.49.79-5.68,1.25-.2.09-1.01.53-1.19.53-.33,0-1.54-1.08-1.54-2.22,0-.44.09-.73.2-.95.84,1.32,1.21,1.34,1.65,1.34.62,0,5.39-.46,6.29-.99.15-.09.84-.62,1.01-.62.24,0,1.87,1.39,1.87,1.76,0,.24-.15.29-.86.55-.15.07-.18.11-.46.64-.97,1.87-1.52,2.95-2.93,4.84,2.64,1.17,6.29,3.79,6.29,5.85,0,.59-.24,1.03-.77,1.03Z"/>
        <path class="cls-2" d="M55.18,96.21c-.4.24-.57.64-.84,1.41-1.28,3.67-3.32,7.17-6.6,9.29-1.85,1.19-3.41,1.58-4.09,1.76l-.04-.18c4-2.07,8.41-6.87,9.75-13.16-1.5-.02-7.83.9-8.98,1.23-.2.07-1.19.51-1.23.51-.42,0-1.78-1.12-1.78-2.57,0-.29.11-.53.2-.7.99,1.17,1.17,1.39,2.13,1.39.62,0,8.82-.68,9.48-.97.15-.07.7-.53.84-.53.26,0,1.89,1.43,1.89,1.85,0,.26-.02.26-.73.68Z"/>
        <path class="cls-2" d="M73.91,98.71c-.42.22-.46.31-.75.97-3.57,8.54-9.48,9.64-10.69,9.75l-.04-.15c1.36-.57,7.53-4.05,9.33-11.02-.64.04-6.98.62-8.38,1.23-.13.07-.66.4-.79.4-.55,0-2.16-1.3-2.16-2.62,0-.2.02-.37.15-.75.37.57,1.12,1.43,2.29,1.43,1.06,0,8.49-.57,8.82-.73.2-.09.81-.79.99-.79.24,0,1.87,1.17,1.87,1.67,0,.29-.29.44-.64.62ZM71.27,94.45c-1.69.09-5.26.4-5.76.48-1.08.15-1.19.18-1.54.18-.7,0-1.76-.99-1.76-2.38.97.9,1.65,1.03,2.86,1.03,1.47,0,4.31-.31,5.24-.73.44-.2.51-.24.7-.24.4,0,1.8.31,1.8.99,0,.44-.29.59-1.54.66Z"/>
        <path class="cls-2" d="M83.84,96.76c-.37,0-.64-.26-1.34-.97-1.54-1.56-2.77-2.13-3.61-2.51,2.64-.18,5.76.77,5.76,2.6,0,.48-.37.88-.81.88ZM85.75,104.3c-.46.35-2.53,1.85-2.9,2.22-.11.11-.59.66-.7.77-.09.09-.26.13-.37.13-.77,0-2.22-1.85-2.22-2.88,0-.4.13-.73.22-.97.51.99,1.14,1.45,1.61,1.45.73,0,4.14-2.53,5.08-3.26,3.54-2.71,5.24-4.6,7.02-6.64l.11.07c-.53,1.61-2.99,5.39-7.83,9.11Z"/>
        <path class="cls-2" d="M111.79,96.21c-.4.24-.57.64-.84,1.41-1.28,3.67-3.32,7.17-6.6,9.29-1.85,1.19-3.41,1.58-4.09,1.76l-.04-.18c4-2.07,8.41-6.87,9.75-13.16-1.5-.02-7.83.9-8.98,1.23-.2.07-1.19.51-1.23.51-.42,0-1.78-1.12-1.78-2.57,0-.29.11-.53.2-.7.99,1.17,1.17,1.39,2.13,1.39.62,0,8.82-.68,9.48-.97.15-.07.7-.53.84-.53.26,0,1.89,1.43,1.89,1.85,0,.26-.02.26-.73.68Z"/>
        <path class="cls-2" d="M130.52,98.71c-.42.22-.46.31-.75.97-3.56,8.54-9.48,9.64-10.69,9.75l-.04-.15c1.36-.57,7.53-4.05,9.33-11.02-.64.04-6.98.62-8.38,1.23-.13.07-.66.4-.79.4-.55,0-2.16-1.3-2.16-2.62,0-.2.02-.37.15-.75.37.57,1.12,1.43,2.29,1.43,1.06,0,8.49-.57,8.82-.73.2-.09.81-.79.99-.79.24,0,1.87,1.17,1.87,1.67,0,.29-.29.44-.64.62ZM127.88,94.45c-1.69.09-5.26.4-5.76.48-1.08.15-1.19.18-1.54.18-.71,0-1.76-.99-1.76-2.38.97.9,1.65,1.03,2.86,1.03,1.47,0,4.31-.31,5.24-.73.44-.2.51-.24.71-.24.4,0,1.8.31,1.8.99,0,.44-.29.59-1.54.66Z"/>
        <path class="cls-2" d="M140.45,96.76c-.37,0-.64-.26-1.34-.97-1.54-1.56-2.77-2.13-3.61-2.51,2.64-.18,5.76.77,5.76,2.6,0,.48-.37.88-.81.88ZM142.36,104.3c-.46.35-2.53,1.85-2.9,2.22-.11.11-.59.66-.7.77-.09.09-.26.13-.37.13-.77,0-2.22-1.85-2.22-2.88,0-.4.13-.73.22-.97.51.99,1.14,1.45,1.61,1.45.73,0,4.14-2.53,5.08-3.26,3.54-2.71,5.24-4.6,7.02-6.64l.11.07c-.53,1.61-2.99,5.39-7.83,9.11Z"/>
        <path class="cls-2" d="M55.27,125.46c-.42.26-.42.37-.59,1.32-.77,4.33-1.69,6.58-3.3,8.54-1.41,1.69-3.63,3.41-5.81,4.05l-.09-.13c5.52-3.87,7.2-8.08,7.75-14.41-2.46.11-4.91.37-7.37.66-.15.02-.88.18-1.03.18s-.75-.33-.88-.37c.02.26.02.46.04,2.22,0,.13.09,2.77.09,2.99,0,.92-.53,1.06-.68,1.06-.4,0-.95-.7-.95-1.54,0-.4.09-2.13.09-2.49,0-3.06-.44-3.32-1.52-3.94.22-.09.51-.2.84-.2.2,0,.81.07,1.89.84.2.15.53.2.88.2.02,0,7.63-.4,8.38-.66.29-.11.44-.24.7-.51.13-.13.2-.15.29-.15.15,0,1.83,1.34,1.83,1.76,0,.24-.15.33-.55.59Z"/>
        <path class="cls-2" d="M74.88,131.07c-.2,0-.73-.04-.77-.04-.79-.07-1.01-.09-2.49-.09-6.71,0-8.69.13-9.68.4-.07.02-.77.2-.84.2-.57,0-1.76-1.41-1.76-2.42,0-.13.02-.55.26-1.06.75,1.67,1.43,1.67,3.72,1.67,1.52,0,8.67-.02,9.68-.26.13-.02.77-.2.9-.2s2.33.24,2.33,1.1c0,.68-1.1.7-1.36.7Z"/>
        <path class="cls-2" d="M93.34,126.93c-.51.22-.7.42-1.19,1.36-2.11,4.11-4.42,6.87-7.79,8.96-1.17.73-2.66,1.5-4.31,1.87l-.04-.15c4.8-2.66,9.24-7.53,11.27-12.65-.9.09-2.4.31-3.3.44-.15.02-.59.09-.7.09-.22,0-.62-.09-1.12-.37-2.05,2.71-3.65,3.96-5.83,5.1l-.11-.18c3.61-3.3,5.74-7.26,5.74-7.96,0-.22-.04-.4-1.21-1.1.53-.18,1.01-.18,1.08-.18.88,0,2.49,1.01,2.49,1.58,0,.2-.09.31-.51.7-.22.2-.79.95-1.08,1.3.99.11,3.74-.2,4.31-.4.2-.07.95-.66,1.17-.66.24,0,1.83,1.32,1.83,1.74,0,.15-.07.22-.68.51Z"/>
        <path class="cls-2" d="M115.06,127.15c-.44.11-.57.24-1.06.68-4.14,3.94-4.73,4.31-5.72,4.95,1.58,1.25,2.27,2.4,2.27,3.28,0,.53-.29,1.03-.86,1.03-.48,0-.7-.35-1.3-1.34-.24-.4-1.8-2.88-5.52-5.41,1.01.2,2.75.55,5,2.13,1.28-1.19,3.98-4.4,5.13-6.25-4,.26-4.47.31-8.56.84-.48.07-2.62.33-3.59.88-.4.24-.44.24-.53.24-.46,0-1.92-1.39-1.92-2.57,0-.4.09-.68.2-1.01.77,1.41,1.12,1.47,2.13,1.47.86,0,11.16-.66,11.84-.79.46-.09.66-.24,1.01-.48.29-.2.42-.24.53-.24.37,0,1.89,1.78,1.89,2.07s-.09.29-.95.53Z"/>
        <path class="cls-2" d="M123.62,126.76c-.37,0-.64-.26-1.34-.97-1.54-1.56-2.77-2.13-3.61-2.51,2.64-.18,5.76.77,5.76,2.6,0,.48-.37.88-.81.88ZM125.53,134.3c-.46.35-2.53,1.85-2.9,2.22-.11.11-.59.66-.7.77-.09.09-.26.13-.37.13-.77,0-2.22-1.85-2.22-2.88,0-.4.13-.73.22-.97.51.99,1.14,1.45,1.61,1.45.73,0,4.14-2.53,5.08-3.26,3.54-2.71,5.24-4.6,7.02-6.64l.11.07c-.53,1.61-2.99,5.39-7.83,9.11Z"/>
        <path class="cls-2" d="M155.95,126.62h-5.92l1.36.88c.11.07.24.15.24.29,0,.22-.22.33-1.03.62-.77,2.84-1.69,4.55-2.51,5.81,3.12,1.14,6.23,3.15,6.23,4.75,0,.18-.02.88-.88.88-.18,0-.57,0-1.14-.68-.88-1.03-1.94-2.27-4.95-3.92-3.24,3.94-7.66,4.75-10.45,4.86l-.04-.18c3.43-.81,6.69-2.42,9.15-5.35-.99-.44-2.29-.97-4.2-1.39-.48,1.12-.62,1.43-1.43,1.43-.13,0-.81,0-.81-.68,0-.26.59-1.3.68-1.52,1.17-2.68,2.07-5,2.4-5.81h-3.28c-.2,0-1.56,0-2.57.2l-.44-.88c1.45.13,2.97.15,3.37.15h3.12c.51-1.45,1.52-4.25,1.52-5.59,0-.22-.02-.33-.07-.53l2.42.99c.11.04.29.15.29.33,0,.29-.37.4-.95.55-.29.68-.77,1.87-1.63,4.25h8.25l1.03-1.28c.11-.13.22-.29.33-.29.13,0,.26.13.42.24l1.61,1.28c.11.09.22.2.22.33,0,.22-.2.24-.33.24ZM144.25,126.62c-.15.42-.2.53-.53,1.45-.4,1.17-1.06,3.06-1.76,4.78.77.07,2.42.22,4.69.88,1.85-2.77,2.38-5.74,2.38-7.11h-4.77Z"/>
        <path class="cls-2" d="M176.57,130.43h-8.87v7.17c0,.84,0,2.44-2.82,2.73-.07-.66-.22-1.43-2.58-2.51l.02-.15c.97.13,1.72.22,2.4.22,1.03,0,1.34-.09,1.34-.92v-6.53h-6.07c-.4,0-1.54,0-2.6.2l-.44-.88c1.36.11,2.73.15,3.39.15h5.72v-2.22c0-1.63-.15-2-.37-2.6l2.05.57c1.61-2.35,1.91-2.77,2.2-3.37h-7.53c-.4,0-1.52,0-2.6.2l-.42-.88c1.36.11,2.71.15,3.37.15h7.3l.86-.75c.22-.18.26-.22.42-.22.09,0,.18.07.37.22l1.54,1.25c.18.15.22.29.22.37,0,.33-.26.42-1.63.46-2.27,1.74-2.51,1.94-3.67,2.68.15.04.26.18.26.29,0,.29-.35.48-.75.73v3.1h5.57l1.14-1.25c.2-.2.24-.29.33-.29.11,0,.22.09.42.24l1.52,1.25c.11.09.22.2.22.35,0,.2-.18.22-.33.22Z"/>
        <path class="cls-2" d="M39.47,164.08c.57.07,1.39.13,3.26.15v-4.84h-1.06c-.53,0-1.63.02-2.6.2l-.42-.88c1.72.13,2.99.15,3.37.15h.7v-4.14c-1.34,1.85-2.42,2.64-2.93,3.01l-.11-.09c1.43-1.91,2.84-4.99,3.19-6.03.24-.7.22-1.17.22-1.54l2.07,1.1c.09.04.2.13.2.31,0,.15,0,.24-.86.44-.4.68-.62,1.03-1.03,1.69h10.06l.9-.92c.13-.15.26-.29.35-.29.11,0,.26.13.4.24l1.17.92c.13.09.22.18.22.33,0,.22-.22.24-.33.24h-2.27v4.71h1.58l.86-.9c.15-.15.26-.26.35-.26.13,0,.26.09.42.22l1.08.9c.09.07.22.18.22.33,0,.22-.22.24-.33.24h-4.18v4.84h1.25l.84-.92c.22-.24.24-.29.33-.29.13,0,.31.15.42.24l1.17.92c.09.07.22.2.22.33,0,.24-.22.24-.33.24h-15.36c-.59,0-1.63.02-2.6.2l-.44-.88ZM42.13,166c.09.37.18.81.18,1.43,0,1.91-.92,2.79-1.74,2.79-.35,0-.86-.2-.86-.86,0-.48.29-.68.81-1.06.66-.46,1.3-1.45,1.45-2.31h.15ZM44.11,154.16v4.71h1.94v-4.71h-1.94ZM44.11,159.4v4.84h1.94v-4.84h-1.94ZM45.01,166.13c.92.66,2.11,1.56,2.11,2.77,0,.53-.33,1.03-.88,1.03-.88,0-.88-1.06-.88-1.39-.02-.35-.02-1.39-.44-2.29l.09-.13ZM47.46,154.16v4.71h1.94v-4.71h-1.94ZM47.46,159.4v4.84h1.94v-4.84h-1.94ZM49.48,166.15c.95.57,2.31,1.43,2.31,2.64,0,.46-.29.97-.86.97-.77,0-.84-.73-.88-1.06-.13-1.12-.26-1.74-.66-2.44l.09-.11ZM50.71,154.16v4.71h1.94v-4.71h-1.94ZM50.71,159.4v4.84h1.94v-4.84h-1.94ZM53.9,166c2.55.97,3.15,2.35,3.15,2.99,0,.53-.33.99-.92.99-.73,0-.88-.62-1.06-1.28-.46-1.72-.95-2.29-1.23-2.6l.07-.11Z"/>
        <path class="cls-2" d="M66.61,158.8l.7-.99c.11-.15.2-.29.33-.29.11,0,.31.15.4.22l1.28,1.01c.09.07.22.18.22.33,0,.2-.2.24-.33.24h-6.42c0,1.28,0,1.7.04,5.59h4.14l.84-1.01c.11-.13.22-.26.35-.26s.29.11.37.2l1.21,1.03c.11.09.22.2.22.35,0,.2-.18.22-.33.22h-6.8c0,.31.02,1.65,0,1.94-.02.86-1.03.99-1.14.99-.53,0-.57-.48-.57-.84,0-.18.02-.7.02-.79.11-2.62.18-6.54.18-8.96,0-1.67,0-3.67-.29-5.04l1.8.55c.09.04.15.09.22.09,2.53-1.23,3.87-2.38,3.98-2.49.31-.26.42-.42.64-.81l1.67,1.28c.15.11.31.24.31.4,0,.24-.24.29-.42.29-.11,0-.51-.04-.57-.04-2.11.73-3.65,1.25-5.43,1.69-.02.11-.04.2-.46.59,0,.7.02,3.87.02,4.51h3.83ZM76.97,152.6l.62-.64c.07-.07.15-.18.26-.18s.24.07.35.18l.92.81c.09.09.24.24.24.44,0,.22-.13.35-.64.66,0,1.56.07,4.47.09,6.21.02.7.13,3.81.13,4.44,0,.68,0,1.8-2.46,2.4-.09-.46-.31-1.39-1.72-2.22l.07-.18c.4.07.92.15,1.89.15.53,0,.64-.07.64-.57,0-3.63-.18-7.26-.18-10.98h-4.49c0,.51-.04,13.73.11,15.71.02.18.02.33.02.51,0,1.1-1.1,1.1-1.19,1.1-.53,0-.57-.35-.57-.79,0-.51.09-2.79.09-3.26.02-2.49.04-6.12.04-8.67,0-2,0-4.58-.26-5.96l1.87.84h4.16Z"/>
        <path class="cls-2" d="M86.2,161.77v5.88c2.16-.26,3.89-.51,6.01-.95l.02.15c-2.82,1.23-6.84,2.36-9.37,2.82-.13.31-.24.55-.46.55-.15,0-.22-.13-.35-.42l-.97-2.07c.31.09.77.2,1.36.2s1.98-.11,2.22-.13c0-2.13.07-8.01.07-9.62,0-3.5-.09-3.96-.37-5.61l2.11,1.17h2.86c.04-2.07-.09-2.57-.46-3.74l2.38.66c.09.02.37.13.37.35s-.18.37-.75.66c-.02.62-.02,1.89-.02,2.07h3.06l.59-.66c.07-.09.2-.18.33-.18.11,0,.22.09.33.18l1.03.84c.11.09.22.2.22.35,0,.24-.22.38-.81.59-.11,1.8.15,4.71.15,6.51,0,1.01-.99,1.08-1.03,1.08-.62,0-.62-.44-.62-.68h-4.31c.26.64.84,1.78,2.31,3.12,1.61-.84,3.26-2.11,3.72-2.51.37-.33.46-.59.53-.84l1.65,1.47c.11.11.22.22.22.37,0,.33-.35.31-.97.26-1.54.64-4.05,1.32-4.88,1.5,2.24,1.89,5.15,2.75,8.1,2.84l.04.15c-1.34.79-1.74,1.58-1.94,2-4.71-1.58-8.07-4.29-9.15-8.38h-3.21ZM86.2,154.27v3.23h7.9v-3.23h-7.9ZM94.1,161.24v-3.21h-7.9v3.21h7.9Z"/>
        <path class="cls-2" d="M110.09,162.37c.02.97.11,5.28.11,6.16,0,.35,0,.97-1.01.97-.51,0-.68-.22-.59-1.21h-3.83c.02.7.02,1.58-1.01,1.58-.62,0-.62-.53-.62-.77,0-.22.04-1.17.04-1.36.04-1.04.07-2.4.07-3.94,0-2.57-.07-2.86-.2-3.56l1.94,1.1h3.37l.53-.59c.13-.13.24-.24.35-.24s.26.11.44.24l.86.64c.15.11.24.2.24.35,0,.13-.26.35-.68.64ZM108.61,161.86h-3.85v5.9h3.85v-5.9ZM116.97,152.47c-.02.31-.04.64-.04,1.14,0,.64.13,3.54.13,4.14,0,.99-1.01.99-1.08.99-.53,0-.59-.35-.55-1.01h-7.08c0,.4,0,1.12-1.01,1.12-.64,0-.64-.42-.64-.66,0-.42.04-1.08.07-1.5.02-.51.09-1.98.09-3.26,0-1.08-.02-1.74-.24-3.04l1.98,1.01h6.62l.51-.57c.15-.18.29-.26.42-.26s.24.07.48.24l.84.59c.13.09.24.22.24.35,0,.2-.29.42-.73.7ZM115.45,151.94h-7.11v5.26h7.11v-5.26ZM120.23,162.32l.02,3.15c0,.13.11,3.34.11,3.45,0,.95-.7.99-1.01.99-.66,0-.68-.42-.66-1.58h-4.11c0,.77,0,1.14-.11,1.3-.2.29-.51.42-.88.42-.68,0-.68-.42-.68-.66,0-.92.18-5.02.18-5.85,0-2.2-.13-2.66-.31-3.28l2.02,1.08h3.63l.55-.59c.18-.18.26-.26.4-.26s.31.11.46.24l.81.62c.13.09.24.22.24.35,0,.18-.31.42-.66.64ZM118.69,161.86h-4.11v5.94h4.11v-5.94Z"/>
      </g>
      <g>
        <path class="cls-2" d="M235.2,70.3c-.22,0-.33-.02-1.3-.13-.44-.04-1.19-.11-2.25-.11-.26,0-1.89,0-4.49.24-.07,1.41-.09,1.78-.09,3.54,0,1.47.07,2.27,1.76,2.27.79,0,1.78-.04,2.66-.29.62-.18.75-.2,1.03-.2.46,0,1.78.24,1.78.97,0,.37-.2.59-.88.73-.57.11-2.22.13-2.88.13-3.83,0-4.77-.33-4.77-3.74,0-.73.02-1.74.04-3.23-1.36.2-3.43.66-4.4,1.12-.35.18-.81.4-.97.4-.33,0-2.09-.99-2.09-2.4,0-.15.02-.4.04-.48.7.81,1.23,1.12,2.13,1.12.33,0,.95-.09,1.3-.13l4-.53c0-.31.04-1.63.04-1.89,0-1.87-.22-2.18-.64-2.44-.59.11-1.5.29-1.72.35-.46.13-.51.13-.66.13-.4,0-1.78-1.06-1.61-2.29.88.7,1.28.81,2.2.81.77,0,5.83-.46,6.97-.92.75-.29.84-.33,1.06-.33.26,0,1.06.18,1.54.46.15.09.31.33.31.57,0,.53-.48.53-.92.53-2.93.04-4,.18-5.79.44.42.2,1.32.64,1.32.97,0,.2-.13.4-.37.81-.13.2-.31,1.85-.37,2.6.9-.13,5.57-.57,5.74-.62.11-.04.97-.24,1.08-.24.13,0,1.98.26,1.98,1.14,0,.24-.18.64-.81.64Z"/>
        <path class="cls-2" d="M243.91,66.76c-.37,0-.64-.26-1.34-.97-1.54-1.56-2.77-2.13-3.61-2.51,2.64-.18,5.76.77,5.76,2.6,0,.48-.37.88-.81.88ZM245.83,74.3c-.46.35-2.53,1.85-2.9,2.22-.11.11-.59.66-.7.77-.09.09-.26.13-.37.13-.77,0-2.22-1.85-2.22-2.88,0-.4.13-.73.22-.97.51.99,1.14,1.45,1.61,1.45.73,0,4.14-2.53,5.08-3.26,3.54-2.71,5.24-4.6,7.02-6.64l.11.07c-.53,1.61-2.99,5.39-7.83,9.11Z"/>
        <path class="cls-2" d="M273.74,75.8c-1.19,0-6.31-5.52-7.66-7.06-.97-1.14-2.07-2.44-2.71-2.44-.75,0-1.85,1.54-2.42,2.31-1.87,2.6-2.02,2.99-2.44,3.96-.18.4-.31.46-.51.46-.57,0-2.35-1.36-2.35-2.73,0-.2.04-.4.09-.7.73.86,1.08,1.1,1.39,1.1s.62-.33.9-.66c1.01-1.14,3.89-4.31,4.6-4.71.18-.11.46-.22.81-.22.73,0,1.19.24,3.32,2.6,2.75,3.01,3.78,3.7,5.9,5.08.64.42,1.63,1.36,1.63,2.27,0,.35-.15.75-.55.75ZM271.41,67.42c-.33,0-.42-.11-1.12-1.04-.68-.9-1.56-1.52-2.22-1.94,2.29.22,3.85,1.17,3.85,2.22,0,.4-.22.75-.51.75ZM273.56,65.5c-.26,0-.37-.11-1.39-1.12-.15-.15-.88-.88-2.16-1.58,1.74-.07,4.05.84,4.05,2.07,0,.4-.26.64-.51.64Z"/>
        <path class="cls-2" d="M282.28,66.58c-.04.51-.22,2.77-.26,3.23-.57,4.73-3.41,7.24-5.28,8.01l-.11-.13c4.07-3.83,4.07-8.58,4.07-10.43s-.02-1.83-1.69-2.27c.35-.24.84-.57,1.45-.57.57,0,2.07.48,2.07,1.1,0,.18-.22.9-.24,1.06ZM287.62,75.67c-.75.53-.81.62-1.39,1.23-.11.11-.31.33-.44.33-.42,0-1.41-1.8-1.41-2.09,0-.15.26-.81.29-.97.2-.92.2-3.78.2-4.38,0-.81-.02-4.88-.13-5.41-.09-.4-.53-.68-1.58-1.03.29-.18.73-.46,1.23-.46.66,0,2.38.66,2.38,1.32,0,.2-.26,1.08-.31,1.25-.22,1.12-.33,7.28-.33,8.62,0,.09,0,.38.15.38.53,0,4.51-2.53,7.96-6.93l.18.13c-1.5,3.61-4.66,6.49-6.8,8.01Z"/>
        <path class="cls-2" d="M234.19,95.7c-.57.09-.77.24-1.58.79-1.39.95-3.17,2.16-4.25,2.68-.13.42-.66,2.35-.77,2.73-1.54,5.3-4.2,6.8-5.3,7.42l-.07-.13c3.39-3.59,4.55-9.29,4.55-10.56,0-.64-.37-.9-1.52-1.32.55-.24.77-.35,1.12-.35.81,0,2.18.51,2.18,1.1,0,.13-.02.33-.04.44,2.2-1.74,3.67-3.56,3.67-3.85,0-.07-.02-.13-.31-.13-1.14,0-7.79.75-9.33,1.25-.2.07-1.01.46-1.19.46-.22,0-1.96-.9-1.96-2.11,0-.37.04-.7.15-1.06.81,1.37,1.76,1.37,2.27,1.37.97,0,9.31-.84,10.3-1.04.18-.02.92-.35,1.08-.35.35,0,2.05,1.78,2.05,2.16s-.09.37-1.06.51Z"/>
        <path class="cls-2" d="M253.53,96.2c-.4.24-.57.64-.84,1.41-1.28,3.67-3.32,7.17-6.6,9.29-1.85,1.19-3.41,1.58-4.09,1.76l-.04-.18c4-2.07,8.41-6.86,9.75-13.16-1.5-.02-7.83.9-8.98,1.23-.2.07-1.19.51-1.23.51-.42,0-1.78-1.12-1.78-2.57,0-.29.11-.53.2-.7.99,1.17,1.17,1.39,2.13,1.39.62,0,8.82-.68,9.48-.97.15-.07.7-.53.84-.53.26,0,1.89,1.43,1.89,1.85,0,.26-.02.26-.73.68Z"/>
        <path class="cls-2" d="M270.59,96.18c-.44.18-.59.31-1.32,1.74-3.39,6.58-6.8,9.59-11.64,10.96l-.07-.15c2.95-1.69,5.59-3.89,7.57-6.62-.22-.02-.46-.22-.86-.66-1.52-1.74-1.74-1.98-2.93-2.64-1.19,1.3-2.4,2.24-3.67,2.86l-.07-.13c2.77-2.68,5.41-7.22,5.41-8.08,0-.73-.86-1.06-1.3-1.23.29-.13.59-.26,1.1-.26,1.25,0,2.44,1.08,2.44,1.54,0,.24-.04.29-.55.73-.18.18-.44.59-.59.81.15,0,.37.02.79.02,1.08,0,3.3-.35,3.61-.51.15-.09.77-.53.92-.53.26,0,1.72,1.41,1.72,1.72,0,.22-.09.24-.57.44ZM264.83,96.12c-.18,0-.42,0-1.14-.42-1.14,1.69-2,2.71-2.11,2.84,1.23.15,4.05.71,4.18,2.69.57-.86,1.63-2.46,2.79-5.61-.59.07-3.21.51-3.72.51Z"/>
        <path class="cls-2" d="M287.94,106.28c-.42,0-.66-.29-.92-.62-1.06-1.28-1.54-1.87-3.17-3.28-2.57,3.15-6.36,5.59-9.73,6.07l-.04-.18c4.58-2.18,7.02-4.69,8.6-6.8-1.98-1.47-3.63-2.22-4.58-2.64.84.09,2.38.26,5.21,1.74,1.56-2.33,2.22-4.45,2.57-5.57-3.54.75-5.7,1.25-6.56,1.74-.4.22-.48.26-.68.26-.68,0-1.74-1.45-1.74-2.33,0-.38.11-.59.2-.81.66.9,1.1,1.28,1.96,1.28.64,0,6.25-.81,6.93-1.28.11-.07.57-.59.7-.59.09,0,1.83,1.14,1.83,1.61,0,.31-.18.38-.77.62-.22.09-.35.42-.42.57-1.17,2.86-1.41,3.48-2.68,5.26,1.45.88,3.92,2.64,3.92,4.16,0,.11,0,.79-.64.79Z"/>
        <path class="cls-2" d="M307.82,101.07c-.2,0-.73-.04-.77-.04-.79-.07-1.01-.09-2.49-.09-6.71,0-8.69.13-9.68.4-.07.02-.77.2-.84.2-.57,0-1.76-1.41-1.76-2.42,0-.13.02-.55.26-1.06.75,1.67,1.43,1.67,3.72,1.67,1.52,0,8.67-.02,9.68-.26.13-.02.77-.2.9-.2s2.33.24,2.33,1.1c0,.68-1.1.71-1.36.71Z"/>
        <path class="cls-2" d="M317.08,96.76c-.37,0-.64-.26-1.34-.97-1.54-1.56-2.77-2.13-3.61-2.51,2.64-.18,5.76.77,5.76,2.6,0,.48-.37.88-.81.88ZM318.99,104.3c-.46.35-2.53,1.85-2.9,2.22-.11.11-.59.66-.7.77-.09.09-.26.13-.37.13-.77,0-2.22-1.85-2.22-2.88,0-.4.13-.73.22-.97.51.99,1.14,1.45,1.61,1.45.73,0,4.14-2.53,5.08-3.26,3.54-2.71,5.24-4.6,7.02-6.64l.11.07c-.53,1.61-2.99,5.39-7.83,9.11Z"/>
        <path class="cls-2" d="M346.3,98.91s-1.76-.2-2.29-.26c-.84-.09-1.61-.13-2.2-.13-.68,0-1.19.04-2.71.15.18.11.84.62.97.73.07.07.13.15.13.26s-.4.7-.46.81c-.09.15-.13.37-.15.48-1.06,3.59-3.17,7.31-6.89,8.43l-.07-.11c3.45-2.6,5.43-7.9,5.43-9.46,0-.53-.18-.73-.42-.99-3.26.46-3.94.7-4.8,1.03-.42.15-.53.2-.68.2-.42,0-1.85-1.01-1.85-2.38,0-.33.07-.53.13-.75.68,1.03,1.25,1.41,2.13,1.41.24,0,9.24-.99,10.61-1.12.22-.02,1.14-.35,1.34-.35.11,0,2.35.42,2.35,1.43,0,.62-.42.62-.59.62ZM341.35,94.38c-.7.02-1.83.07-2.51.13-1.14.13-3.32.35-3.46.35-.37,0-1.91-.31-1.74-2.07.73.62,1.47.81,2.64.81,1.25,0,2.84-.2,4.09-.57.46-.13.79-.24.97-.24.57,0,1.87.24,1.87.95,0,.57-.51.59-1.87.64Z"/>
        <path class="cls-2" d="M359.37,96.47c-.64.33-2.79,2.75-3.26,3.19.7.48.79.53.79.75,0,.09-.11.57-.13.66-.09.53-.11,1.67-.11,2.88,0,.7.07,3.76.07,4.4,0,.26,0,.95-.64.95-.55,0-.86-.81-.86-1.23,0-.18.13-.97.15-1.12.11-1.3.2-3.23.2-4.53,0-1.39-.04-1.69-.2-2.09-.97.84-3.79,3.23-6.34,4.05l-.07-.22c3.74-2.24,8.87-7.7,8.87-8.71,0-.33-.31-.51-1.03-.95.35-.07.51-.11.7-.11,1.32,0,2.38,1.3,2.38,1.56,0,.24-.18.33-.53.53Z"/>
        <path class="cls-2" d="M380.24,101.07c-.2,0-.73-.04-.77-.04-.79-.07-1.01-.09-2.49-.09-6.71,0-8.69.13-9.68.4-.07.02-.77.2-.84.2-.57,0-1.76-1.41-1.76-2.42,0-.13.02-.55.26-1.06.75,1.67,1.43,1.67,3.72,1.67,1.52,0,8.67-.02,9.68-.26.13-.02.77-.2.9-.2s2.33.24,2.33,1.1c0,.68-1.1.71-1.36.71Z"/>
        <path class="cls-2" d="M389.81,102.08c-.97,0-1.76-.79-1.76-1.76s.79-1.76,1.76-1.76,1.76.75,1.76,1.76-.81,1.76-1.76,1.76Z"/>
        <path class="cls-2" d="M403.12,94.93c-.2.62-.2,2.57-.2,3.32,0,.4.02,2.2.02,2.57,0,.33,0,1.61-.7,1.61-.59,0-1.01-.92-1.01-1.8,0-.22.13-1.21.15-1.41.04-.35.07-1.12.07-2.35q0-2.84-1.74-3.32c.42-.26.81-.51,1.28-.51.53,0,2.38.51,2.38,1.14,0,.09-.22.68-.24.75ZM410.86,94.51c-.04.29-.13,4.11-.15,4.91-.15,4.05-1.14,6.05-2.57,7.63-1.67,1.89-3.34,2.29-3.98,2.42l-.07-.15c4.91-3.15,5.17-7.97,5.17-13,0-3.37-.07-3.5-2.02-3.81.29-.26.75-.64,1.5-.64.79,0,2.49.51,2.49,1.1,0,.24-.33,1.32-.35,1.54Z"/>
        <path class="cls-2" d="M430.06,107.21c-1.65.29-4.47.31-5.11.31-5.9,0-6.01-1.43-6.01-5.57,0-.9.09-4.93.09-5.74,0-1.83,0-2.31-1.8-2.99.64-.42.75-.51,1.06-.51.84,0,2.79.79,2.79,1.54,0,.18-.37.77-.42.9-.11.37-.33,4.71-.37,5.41,3.43-1.1,7.53-4.05,7.53-4.62,0-.26-.66-.79-.92-1.01.22-.04.33-.07.51-.07,1.45,0,2.82,1.45,2.82,2.11,0,.33-.11.35-1.01.62-.26.09-.42.13-.68.26-5.21,2.51-5.77,2.79-8.25,3.19-.02.46-.02.92-.02,1.67,0,2.77,0,3.5,4.09,3.5,2.13,0,3.17-.33,3.98-.57.57-.18.73-.18.92-.18.53,0,1.89.11,1.89.92,0,.57-.75.75-1.08.81ZM430.85,94.58c-.29,0-.35-.09-.99-.81-.77-.88-1.85-1.56-2.4-1.94,2.11.18,3.92.86,3.92,2,0,.35-.22.75-.53.75ZM433.12,93.32c-.24,0-.35-.09-1.36-1.01-.92-.81-1.41-1.14-2.29-1.54.26-.02.31-.04.48-.04.77,0,3.67.46,3.67,1.89,0,.33-.2.7-.51.7Z"/>
        <path class="cls-2" d="M442.66,96.76c-.37,0-.64-.26-1.34-.97-1.54-1.56-2.77-2.13-3.61-2.51,2.64-.18,5.76.77,5.76,2.6,0,.48-.37.88-.81.88ZM444.57,104.3c-.46.35-2.53,1.85-2.9,2.22-.11.11-.59.66-.7.77-.09.09-.26.13-.37.13-.77,0-2.22-1.85-2.22-2.88,0-.4.13-.73.22-.97.51.99,1.14,1.45,1.61,1.45.73,0,4.14-2.53,5.08-3.26,3.54-2.71,5.24-4.6,7.02-6.64l.11.07c-.53,1.61-2.99,5.39-7.83,9.11Z"/>
        <path class="cls-2" d="M454.24,109.05c4.73-2.64,9.22-7.46,11.27-12.65-.88.09-2.38.33-3.3.44-.11.02-.59.09-.7.09-.37,0-.88-.24-1.12-.37-1.41,1.78-2.73,3.48-5.83,5.1l-.11-.18c3.61-3.3,5.74-7.24,5.74-7.96,0-.22-.04-.4-1.21-1.1.53-.18,1.01-.18,1.08-.18.88,0,2.49,1.01,2.49,1.58,0,.24-.09.31-.51.7-.31.29-.44.46-1.08,1.3.97.11,3.74-.2,4.31-.4.2-.07.97-.66,1.17-.66s1.83,1.3,1.83,1.74c0,.18-.07.22-.68.51-.51.24-.7.42-1.19,1.36-1.96,3.78-3.81,5.87-5.66,7.42-.9.75-3.48,2.75-6.45,3.41l-.04-.15ZM469.73,94.62c0,.31-.15.64-.57.64-.26,0-.42-.11-.7-.44-.79-.92-1.32-1.58-2.55-2.42,2,.18,3.83,1.04,3.83,2.22ZM471.84,93.59c0,.57-.37.57-.53.57-.24,0-.29-.04-1.23-.95-.18-.18-1.06-1.03-2.24-1.56,1.69.04,4,.44,4,1.94Z"/>
        <path class="cls-2" d="M233.9,126.2c-.4.24-.57.64-.84,1.41-1.28,3.67-3.32,7.17-6.6,9.29-1.85,1.19-3.41,1.58-4.09,1.76l-.04-.18c4-2.07,8.41-6.86,9.75-13.16-1.5-.02-7.83.9-8.98,1.23-.2.07-1.19.51-1.23.51-.42,0-1.78-1.12-1.78-2.57,0-.29.11-.53.2-.7.99,1.17,1.17,1.39,2.13,1.39.62,0,8.82-.68,9.48-.97.15-.07.7-.53.84-.53.26,0,1.89,1.43,1.89,1.85,0,.26-.02.26-.73.68Z"/>
        <path class="cls-2" d="M252.63,128.71c-.42.22-.46.31-.75.97-3.56,8.54-9.48,9.64-10.69,9.75l-.04-.15c1.36-.57,7.53-4.05,9.33-11.02-.64.04-6.98.62-8.38,1.23-.13.07-.66.4-.79.4-.55,0-2.16-1.3-2.16-2.62,0-.2.02-.38.15-.75.37.57,1.12,1.43,2.29,1.43,1.06,0,8.49-.57,8.82-.73.2-.09.81-.79.99-.79.24,0,1.87,1.17,1.87,1.67,0,.29-.29.44-.64.62ZM249.99,124.44c-1.69.09-5.26.4-5.76.48-1.08.15-1.19.18-1.54.18-.71,0-1.76-.99-1.76-2.38.97.9,1.65,1.04,2.86,1.04,1.47,0,4.31-.31,5.24-.73.44-.2.51-.24.71-.24.4,0,1.8.31,1.8.99,0,.44-.29.59-1.54.66Z"/>
        <path class="cls-2" d="M268.87,123.76c-.2.11-.4.29-.84.68-.13.13-2.66,2.79-3.17,3.32.35.18,1.1.64,1.1.95,0,.13-.2.7-.26.81-.04.09-.07,1.83-.07,2.27,0,.99.09,5.35.09,6.23,0,.46-.07,1.36-.68,1.36-.73,0-1.17-1.21-1.17-1.67,0-.2.22-1.06.24-1.23.15-1.14.24-2.75.24-3.94,0-.75-.09-3.15-.18-3.5-.04-.15-.11-.29-.26-.4-1.41,1.32-4.18,3.7-7.77,5.08l-.09-.11c5.11-3.39,10.91-10.06,10.91-11,0-.53-.24-.71-1.12-1.34.26-.07.53-.13.88-.13,1.3,0,2.73,1.47,2.73,2.05,0,.18-.04.22-.59.57Z"/>
        <path class="cls-2" d="M280.55,126.76c-.37,0-.64-.26-1.34-.97-1.54-1.56-2.77-2.13-3.61-2.51,2.64-.18,5.76.77,5.76,2.6,0,.48-.37.88-.81.88ZM282.47,134.3c-.46.35-2.53,1.85-2.9,2.22-.11.11-.59.66-.7.77-.09.09-.26.13-.37.13-.77,0-2.22-1.85-2.22-2.88,0-.4.13-.73.22-.97.51.99,1.14,1.45,1.61,1.45.73,0,4.14-2.53,5.08-3.26,3.54-2.71,5.24-4.6,7.02-6.64l.11.07c-.53,1.61-2.99,5.39-7.83,9.11Z"/>
        <path class="cls-2" d="M292.13,139.05c4.73-2.64,9.22-7.46,11.27-12.65-.88.09-2.38.33-3.3.44-.11.02-.59.09-.7.09-.37,0-.88-.24-1.12-.37-1.41,1.78-2.73,3.48-5.83,5.1l-.11-.18c3.61-3.3,5.74-7.24,5.74-7.96,0-.22-.04-.4-1.21-1.1.53-.18,1.01-.18,1.08-.18.88,0,2.49,1.01,2.49,1.58,0,.24-.09.31-.51.7-.31.29-.44.46-1.08,1.3.97.11,3.74-.2,4.31-.4.2-.07.97-.66,1.17-.66s1.83,1.3,1.83,1.74c0,.18-.07.22-.68.51-.51.24-.7.42-1.19,1.36-1.96,3.78-3.81,5.87-5.66,7.42-.9.75-3.48,2.75-6.45,3.41l-.04-.15ZM307.63,124.62c0,.31-.15.64-.57.64-.26,0-.42-.11-.71-.44-.79-.92-1.32-1.58-2.55-2.42,2,.18,3.83,1.04,3.83,2.22ZM309.74,123.59c0,.57-.37.57-.53.57-.24,0-.29-.04-1.23-.95-.18-.18-1.06-1.03-2.24-1.56,1.69.04,4,.44,4,1.94Z"/>
        <path class="cls-2" d="M324.17,126.18c-.44.18-.59.31-1.32,1.74-3.39,6.58-6.8,9.59-11.64,10.96l-.07-.15c2.95-1.69,5.59-3.89,7.57-6.62-.22-.02-.46-.22-.86-.66-1.52-1.74-1.74-1.98-2.93-2.64-1.19,1.3-2.4,2.24-3.67,2.86l-.07-.13c2.77-2.68,5.41-7.22,5.41-8.08,0-.73-.86-1.06-1.3-1.23.29-.13.59-.26,1.1-.26,1.25,0,2.44,1.08,2.44,1.54,0,.24-.04.29-.55.73-.18.18-.44.59-.59.81.15,0,.37.02.79.02,1.08,0,3.3-.35,3.61-.51.15-.09.77-.53.92-.53.26,0,1.72,1.41,1.72,1.72,0,.22-.09.24-.57.44ZM318.4,126.12c-.18,0-.42,0-1.14-.42-1.14,1.69-2,2.71-2.11,2.84,1.23.15,4.05.71,4.18,2.69.57-.86,1.63-2.46,2.79-5.61-.59.07-3.21.51-3.72.51Z"/>
        <path class="cls-2" d="M339.48,123.76c-.2.11-.4.29-.84.68-.13.13-2.66,2.79-3.17,3.32.35.18,1.1.64,1.1.95,0,.13-.2.7-.26.81-.04.09-.07,1.83-.07,2.27,0,.99.09,5.35.09,6.23,0,.46-.07,1.36-.68,1.36-.73,0-1.17-1.21-1.17-1.67,0-.2.22-1.06.24-1.23.15-1.14.24-2.75.24-3.94,0-.75-.09-3.15-.18-3.5-.04-.15-.11-.29-.26-.4-1.41,1.32-4.18,3.7-7.77,5.08l-.09-.11c5.11-3.39,10.91-10.06,10.91-11,0-.53-.24-.71-1.12-1.34.26-.07.53-.13.88-.13,1.3,0,2.73,1.47,2.73,2.05,0,.18-.04.22-.59.57Z"/>
        <path class="cls-2" d="M357.9,127.85c-.13.11-.15.2-.29.99-.51,3.06-1.21,7.24-3.04,8.87-.4.33-.86.53-1.1.53-.37,0-.42-.22-.59-.99-.15-.77-1.32-2.05-1.61-2.4l.04-.09c1.17.62,2.27.99,2.53.99.59,0,1.1-1.45,1.34-2.13.51-1.52,1.03-3.92,1.06-6.51-.35.04-1.41.13-2.13.2-.26.02-1.61.15-1.87.18-.66,2.27-1.19,4.11-2.88,6.49-2.07,2.9-4.2,3.78-5.11,4.16l-.11-.15c1.58-1.19,4.51-3.65,6.58-10.32-1.58.24-3.39.68-3.57.79-.48.26-.53.31-.73.31-.46,0-1.74-1.1-1.74-2.11,0-.33.09-.59.13-.79.81.84,1.19,1.17,2.09,1.17.37,0,.44,0,2.51-.2l1.58-.15c.24-.99.48-2.24.48-2.99,0-1.03-.51-1.23-1.28-1.54.29-.15.73-.4,1.12-.4.44,0,2.38.68,2.38,1.37,0,.11-.48.86-.59.99-.04.04-.53,2.04-.62,2.42.51-.04,2.71-.26,2.79-.29.44-.11.64-.31.95-.62.07-.09.2-.15.33-.15.29,0,1.98,1.17,1.98,1.63,0,.2-.26.42-.66.77ZM359.44,125.54c-.33,0-.55-.33-.95-.92-.92-1.39-1.78-2.02-2.18-2.33,1.72.2,3.74,1.23,3.74,2.44,0,.31-.18.81-.62.81ZM361.89,124.47c-.29,0-.37-.11-1.03-.97-.33-.42-1.03-1.28-2.24-2.07,1.41-.02,3.78.68,3.78,2.24,0,.44-.22.79-.51.79Z"/>
        <path class="cls-2" d="M378.37,131.07c-.2,0-.73-.04-.77-.04-.79-.07-1.01-.09-2.49-.09-6.71,0-8.69.13-9.68.4-.07.02-.77.2-.84.2-.57,0-1.76-1.41-1.76-2.42,0-.13.02-.55.26-1.06.75,1.67,1.43,1.67,3.72,1.67,1.52,0,8.67-.02,9.68-.26.13-.02.77-.2.9-.2s2.33.24,2.33,1.1c0,.68-1.1.71-1.36.71Z"/>
        <path class="cls-2" d="M396.64,126.67c-.31.22-.4.33-.48.7-.35,1.43-.53,2.53-1.23,6.65.42.09,1.03.42,1.03.9,0,.59-.57.59-1.19.59-.42,0-2.25-.09-2.62-.09-2.79,0-5.19.35-6.14.66-.2.07-.99.37-1.17.37-.68,0-1.83-1.58-1.83-2.44,0-.33.09-.53.15-.73.26.31,1.17,1.41,2.35,1.41.75,0,1.67-.09,8.05-.59.68-4.55,1.03-6.95,1.03-7.81,0-.2-.09-.26-.31-.26-1.63,0-7.68.77-8.18.99-.15.07-.86.35-.99.35-.73,0-1.96-1.45-1.96-2.55,0-.35.04-.55.11-.75.57.86,1.39,1.56,2.51,1.56,1.03,0,7.92-.51,8.51-.73.18-.09.92-.59,1.08-.59.24,0,1.8,1.32,1.8,1.76,0,.24-.11.31-.55.59Z"/>
        <path class="cls-2" d="M418.23,135.86c-1.41,0-7.72-6.98-7.75-7.02-.64-.73-1.67-1.89-2.24-2.24-.09-.07-.24-.15-.48-.15-.73,0-1.8,1.54-2.31,2.27-.62.88-2.02,2.93-2.27,3.54-.33.88-.37.97-.77.97-.55,0-2.29-1.34-2.29-2.77,0-.22.02-.37.09-.62.35.42.92,1.08,1.34,1.08.35,0,.37,0,2.73-2.62,2.46-2.73,2.75-3.04,3.61-3.04.75,0,1.32.42,3.15,2.44,1.78,1.96,3.74,3.76,6.01,5.13,1.19.73,1.72,1.67,1.72,2.35,0,.46-.31.68-.53.68ZM415.63,127.24c-1.14,0-2.09-.95-2.09-2.09s.95-2.09,2.09-2.09,2.09.95,2.09,2.09-.95,2.09-2.09,2.09ZM415.63,123.89c-.7,0-1.25.55-1.25,1.25s.55,1.28,1.25,1.28,1.28-.57,1.28-1.28-.57-1.25-1.28-1.25Z"/>
        <path class="cls-2" d="M427.51,126.76c-.37,0-.64-.26-1.34-.97-1.54-1.56-2.77-2.13-3.61-2.51,2.64-.18,5.76.77,5.76,2.6,0,.48-.37.88-.81.88ZM429.43,134.3c-.46.35-2.53,1.85-2.9,2.22-.11.11-.59.66-.7.77-.09.09-.26.13-.37.13-.77,0-2.22-1.85-2.22-2.88,0-.4.13-.73.22-.97.51.99,1.14,1.45,1.61,1.45.73,0,4.14-2.53,5.08-3.26,3.54-2.71,5.24-4.6,7.02-6.64l.11.07c-.53,1.61-2.99,5.39-7.83,9.11Z"/>
        <path class="cls-2" d="M445.94,127.5c-.2.22-1.3,2.29-1.56,2.71-1.14,1.83-3.1,4.62-6.42,5.94l-.09-.15c4.75-4.25,6.25-8.76,6.25-9.35,0-.7-1.03-1.23-1.41-1.41.22-.13.4-.22.92-.22,1.34,0,2.79,1.25,2.79,1.83,0,.18-.13.29-.48.66ZM455.6,135.07c-.59,0-.75-.53-.86-1.01-.77-3.37-2.64-6.36-5.13-8.76,2.82,1.14,4.67,3.39,5.81,5.17.79,1.21,1.1,2.18,1.1,3.28,0,.2,0,1.32-.92,1.32Z"/>
        <path class="cls-2" d="M475.02,131.07c-.2,0-.73-.04-.77-.04-.79-.07-1.01-.09-2.49-.09-6.71,0-8.69.13-9.68.4-.07.02-.77.2-.84.2-.57,0-1.76-1.41-1.76-2.42,0-.13.02-.55.26-1.06.75,1.67,1.43,1.67,3.72,1.67,1.52,0,8.67-.02,9.68-.26.13-.02.77-.2.9-.2s2.33.24,2.33,1.1c0,.68-1.1.71-1.36.71Z"/>
        <path class="cls-2" d="M495.38,127.72c-.2,0-1.01-.02-1.19-.02-.07,0-4.03.18-4.11.18.24.18,1.06.77,1.06.9,0,.18-.57.71-.62.84-.13.33-.59,1.78-.7,2.09-.62,1.74-2.11,5.7-7.46,7.83l-.07-.15c2.88-1.98,4.27-4.22,4.55-4.71,1.56-2.53,2.09-5.15,2.09-5.79,0-.51-.13-.59-.59-.9-.42.02-2.22.33-2.6.33-.33,0-.57-.07-1.32-.57-1.12,1.45-2.49,3.1-4.88,4.29l-.09-.13c2.91-2.6,5.7-7.72,5.7-8.8,0-.48-.35-.66-1.14-1.1.22-.13.46-.26.92-.26,1.14,0,2.6,1.17,2.6,1.72,0,.15-.11.26-.48.66-.31.33-.4.42-.48.55-.24.37-1.34,1.98-1.56,2.31.37.04.51.07.97.07,1.39,0,6.16-.46,7.17-.68.2-.04,1.06-.33,1.23-.33.29,0,2.05.4,2.05,1.12,0,.57-.37.57-1.03.57ZM496.37,125.72c-.26,0-.37-.11-1.23-1.03-.68-.75-1.25-1.25-2.02-1.78,1.03.15,3.72.53,3.72,2.16,0,.53-.29.66-.46.66ZM498.19,124.11c-.26,0-.31-.09-.99-.79-.22-.24-1.39-1.32-2.51-1.85,1.19-.02,3.98.29,3.98,2,0,.48-.26.64-.48.64Z"/>
        <path class="cls-2" d="M507.24,126.76c-.37,0-.64-.26-1.34-.97-1.54-1.56-2.77-2.13-3.61-2.51,2.64-.18,5.76.77,5.76,2.6,0,.48-.37.88-.81.88ZM509.15,134.3c-.46.35-2.53,1.85-2.9,2.22-.11.11-.59.66-.7.77-.09.09-.26.13-.37.13-.77,0-2.22-1.85-2.22-2.88,0-.4.13-.73.22-.97.51.99,1.14,1.45,1.61,1.45.73,0,4.14-2.53,5.08-3.26,3.54-2.71,5.24-4.6,7.02-6.64l.11.07c-.53,1.61-2.99,5.39-7.83,9.11Z"/>
        <path class="cls-2" d="M555.18,124.91c-.35.18-2.07.66-4.55,1.25-.57,1.14-2.97,6.25-3.54,7.24-.51.86-.97,1.67-1.41,1.67-.15,0-.62-.09-.62-.84,0-.62.31-1.01.53-1.32,1.58-2.09,2.99-4.99,3.65-6.42-.48.11-1.14.29-1.98.29-1.3,0-2.4-.68-2.22-2,.53.75,1.25.88,2.13.88.79,0,1.69-.15,2.58-.35.51-1.25.92-2.33.92-2.79,0-.24-.13-.77-1.3-1.08.33-.29.64-.44,1.08-.44.86,0,2.2.92,2.2,1.5q0,.22-.55,1.01c-.31.44-.48.75-.81,1.39.44-.15,1.19-.42,1.65-.64.97-.44,1.08-.51,1.34-.51.29,0,1.25.31,1.25.73,0,.22-.18.35-.35.44ZM560.68,130.39c-.13,0-.37-.02-.77-.24-.75-.4-1.01-.55-1.87-.55-2.31,0-2.64,1.25-2.64,2.29,0,1.28.24,2.51.37,3.19,1.76.38,4.18,1.3,4.18,2.73,0,.33-.22.73-.62.73-.26,0-1.14-.62-1.69-1.01-.88-.62-1.28-.77-1.72-.92-.02.46-.07,1.39-.84,2.09-.9.84-2.16.92-2.66.92-1.83,0-3.41-.99-3.41-2.35,0-1.65,2-2.44,4.14-2.44.48,0,.81.04,1.14.07-.07-.77-.15-1.8-.15-2.31,0-2.42,2.33-3.37,3.85-3.65.18-.04.37-.09.37-.35,0-.29-.79-1.1-3.01-1.67.33-.11.75-.22,1.41-.22,2.73,0,4.49,2.05,4.49,3.08,0,.4-.22.64-.57.64ZM552.73,135.86c-.84,0-2.88.18-2.88,1.36,0,.92,1.41,1.17,2.16,1.17s2.44-.2,2.38-2.31c-.42-.11-.77-.22-1.65-.22Z"/>
        <path class="cls-2" d="M576.8,138.24c-.92.37-4.31.42-5.13.42-1.94,0-3.06-.11-4.29-.59-1.08-.42-2.38-1.34-2.38-3.06,0-2.73,2.95-4.71,4.18-5.5-.95-1.17-.95-1.54-1.03-5.21-.07-2.27-.44-2.44-1.83-3.06.31-.29.77-.4,1.19-.4.57,0,1.58.51,2.05.81.44.29.51.42.51.71,0,.22-.07.46-.09.53-.29.77-.42,1.23-.42,2.82,0,1.85.26,2.71.55,3.23,1.72-.92,2.29-1.14,4.22-1.91.26-.11.4-.24.4-.53,0-.22-.11-.44-.18-.62,1.28.04,2.05.97,2.05,1.8,0,.62-.15.64-1.43.86-3.96.66-9.44,3.56-9.44,6.25,0,2.27,2.99,2.46,4.25,2.46.37,0,2.79-.09,5.06-.51.55-.11.7-.13.99-.13.64,0,1.5.29,1.5.88,0,.35-.26.55-.73.75ZM579.66,127.22c-.31,0-.4-.11-1.39-1.1s-1.69-1.36-2.33-1.69c1.41-.04,4.16.55,4.16,2.16,0,.31-.11.64-.44.64ZM581.09,124.97c-.22,0-.31-.07-.97-.7-1.17-1.12-1.45-1.39-2.66-1.96.29-.04.48-.07.75-.07,1.14,0,3.34.66,3.34,2.07,0,.4-.22.66-.46.66Z"/>
      </g>
    </g>
  </g>
</svg>