<?xml version="1.0" encoding="UTF-8"?>
<svg id="_レイヤー_2" data-name="レイヤー 2" xmlns="http://www.w3.org/2000/svg" viewBox="0 0 620 200.4">
  <defs>
    <style>
      .cls-1 {
        fill: none;
        stroke: #e5da99;
        stroke-miterlimit: 10;
        stroke-width: 1.2px;
      }

      .cls-2 {
        fill: #fff;
      }

      .cls-2, .cls-3, .cls-4 {
        stroke-width: 0px;
      }

      .cls-3 {
        fill: #e5da99;
      }

      .cls-4 {
        fill: #638bc7;
      }
    </style>
  </defs>
  <g id="_レイヤー_2-2" data-name="レイヤー 2">
    <g>
      <g>
        <polygon class="cls-4" points="594.97 200.4 0 200.4 0 .4 620 .4 620 176.76 594.97 200.4"/>
        <g>
          <path class="cls-3" d="M44.72,24.47c0,1.43-.55,2.65-1.64,3.66-1.09,1.01-2.4,1.51-3.94,1.51-.9,0-1.98-.27-3.23-.82-.33-.15-.58-.23-.75-.23-.2,0-.33.23-.38.69-.02.24-.12.36-.33.36-.17,0-.25-.1-.25-.3,0-.13,0-.23.03-.3.13-1.02.2-1.96.2-2.83,0-.17-.02-.63-.05-1.4-.02-.1-.03-.23-.03-.4,0-.25.1-.38.3-.38.17,0,.28.2.35.61.43,3,1.84,4.49,4.22,4.49,1.02,0,1.8-.29,2.36-.86s.84-1.39.84-2.44c0-.93-.27-1.73-.81-2.39-.54-.66-1.47-1.31-2.79-1.96-1.58-.78-2.68-1.54-3.3-2.27s-.92-1.64-.92-2.73c0-1.38.45-2.52,1.34-3.42.89-.9,2.02-1.35,3.39-1.35.57,0,1.35.19,2.35.58.35.13.61.2.77.2.18,0,.3-.03.36-.1.06-.07.11-.24.16-.52.03-.17.12-.25.28-.25.17,0,.25.1.25.3,0,.13,0,.23-.03.3-.05.4-.08.88-.08,1.45,0,.8.04,1.43.12,1.9l.03.4c.02.18-.06.27-.23.27-.18,0-.31-.19-.38-.57-.18-.98-.62-1.8-1.3-2.46-.68-.66-1.45-.99-2.3-.99s-1.5.27-1.99.8c-.49.53-.74,1.26-.74,2.18,0,1.07.36,1.92,1.07,2.57.4.37,1.27.88,2.6,1.55,1.57.78,2.69,1.58,3.38,2.39.68.81,1.02,1.73,1.02,2.76Z"/>
          <path class="cls-3" d="M64.72,29.12c0,.15-.16.23-.47.23h-5.43c-.33,0-.5-.07-.5-.2s.39-.22,1.16-.27c.41-.03.65-.1.72-.21.07-.11.1-.49.1-1.16v-7.28h-7.53v7.08c0,.75.06,1.19.17,1.32.12.13.51.23,1.17.27.43.03.65.11.65.23,0,.15-.17.23-.5.23h-5.42c-.33,0-.5-.07-.5-.2s.17-.22.5-.25c.22-.02.44-.03.67-.05.37-.03.6-.12.7-.25.05-.08.08-.55.08-1.4v-13.18c0-.75-.04-1.19-.11-1.32-.07-.13-.34-.21-.79-.22-.52-.04-.82-.06-.91-.08-.09-.02-.14-.09-.14-.21,0-.14.11-.21.33-.21.07,0,.21,0,.42.02.42.03,1.4.05,2.95.05.85,0,1.44-.01,1.77-.04.12-.02.27-.04.45-.04.3,0,.45.08.45.25,0,.15-.27.23-.81.23s-.87.06-.98.19c-.11.12-.16.52-.16,1.19v5.77h7.53v-5.39c0-.89-.07-1.41-.2-1.57-.13-.16-.6-.23-1.4-.21-.25,0-.38-.08-.38-.23s.14-.23.42-.23h5.45c.35,0,.53.08.53.23s-.37.23-1.1.25c-.22,0-.38.02-.47.05-.17.05-.27.14-.31.27-.04.13-.06.53-.06,1.18v13.3c0,.8.04,1.27.12,1.4.17.18.64.28,1.43.28.26-.03.4.03.4.2Z"/>
          <path class="cls-3" d="M84.39,20.77c0,2.48-.75,4.58-2.24,6.3-1.49,1.72-3.32,2.57-5.49,2.57-2.3,0-4.23-.87-5.8-2.61-1.57-1.74-2.35-3.89-2.35-6.44s.75-4.73,2.26-6.39c1.51-1.66,3.44-2.49,5.79-2.49,2.22,0,4.08.87,5.58,2.6s2.25,3.88,2.25,6.45ZM81.59,20.9c0-3.06-.62-5.44-1.88-7.15-.78-1.07-1.88-1.6-3.28-1.6s-2.37.41-3.1,1.23c-1.35,1.5-2.03,3.95-2.03,7.35,0,2.69.47,4.78,1.41,6.27.94,1.49,2.26,2.23,3.96,2.23,1.58,0,2.78-.7,3.58-2.11.88-1.55,1.33-3.63,1.33-6.22Z"/>
          <path class="cls-3" d="M99.91,16.14c0,1.62-.69,2.88-2.08,3.78-.87.57-1.97.85-3.3.85-.57,0-1.21-.06-1.92-.17v7.1c0,.38.02.62.05.73.08.23.27.38.55.42.48.07.95.1,1.4.1.18,0,.27.06.27.17,0,.17-.12.25-.35.25h-5.75c-.5,0-.75-.08-.75-.25,0-.12.17-.18.52-.18.78,0,1.23-.07,1.35-.23.13-.07.21-.23.22-.5v-14.77c0-.52-.14-.83-.42-.95-.17-.07-.46-.1-.88-.1h-.42c-.25,0-.38-.07-.38-.2,0-.15.23-.22.7-.22h5.5c1.9,0,3.29.33,4.17,1,1,.75,1.5,1.81,1.5,3.17ZM97.29,16.17c0-2.52-1.05-3.77-3.15-3.77-.7,0-1.16.12-1.38.35-.1.1-.15.36-.15.78v6.69c.13.02.28.02.45.02,1.1,0,2.03-.24,2.8-.73.95-.6,1.42-1.72,1.42-3.35Z"/>
          <path class="cls-3" d="M123.56,27.37c0,.43-.02,1.15-.07,2.15h-.27c-.1,0-.34-.02-.72-.05-.38-.03-.82-.05-1.3-.05l-10.38-.08c-.28,0-.42-.08-.42-.23,0-.12.23-.19.67-.23.63-.03,1.01-.1,1.14-.21.12-.11.19-.42.19-.94v-14.05c0-.62-.06-.98-.19-1.08s-.57-.15-1.34-.15c-.32,0-.48-.09-.48-.27,0-.15.1-.23.3-.23h.23c.55.05,1.64.08,3.27.08.15,0,.44-.01.88-.04s.79-.04,1.08-.04h.28c.3,0,.45.08.45.25,0,.1-.05.16-.14.19-.09.02-.38.05-.86.06-.48.02-.77.1-.86.24-.09.14-.14.58-.14,1.31v14.75c.45.02,1.07.03,1.88.03,1.95,0,3.32-.1,4.12-.3.8-.2,1.34-.57,1.62-1.12.28-.55.45-1.29.5-2.23.02-.22.11-.32.29-.32.21,0,.3.12.29.38v2.17Z"/>
          <path class="cls-3" d="M134,29.13c0,.14-.1.21-.3.21h-.25c-.1-.05-1.23-.08-3.4-.08-.42,0-.83.02-1.25.05-.22.02-.55.02-1,.02-.22,0-.33-.08-.33-.23,0-.13.22-.21.65-.23.67-.02,1.06-.1,1.17-.24.12-.14.17-.62.17-1.44v-13.19c0-.82-.04-1.28-.13-1.38-.1-.17-.57-.27-1.39-.3-.32-.01-.48-.07-.48-.18,0-.13.1-.2.3-.2h3.4c.25,0,.74,0,1.46.02l.96-.02c.27,0,.4.07.4.21,0,.13-.37.21-1.11.24-.42.02-.68.09-.77.22-.09.13-.14.48-.14,1.05v13.35c0,.95.04,1.47.12,1.55.18.18.73.29,1.62.33.18,0,.28.07.28.21Z"/>
          <path class="cls-3" d="M148.89,24.47c0,1.43-.55,2.65-1.64,3.66-1.09,1.01-2.4,1.51-3.94,1.51-.9,0-1.98-.27-3.23-.82-.33-.15-.58-.23-.75-.23-.2,0-.33.23-.38.69-.02.24-.12.36-.33.36-.17,0-.25-.1-.25-.3,0-.13,0-.23.03-.3.13-1.02.2-1.96.2-2.83,0-.17-.02-.63-.05-1.4-.02-.1-.03-.23-.03-.4,0-.25.1-.38.3-.38.17,0,.28.2.35.61.43,3,1.84,4.49,4.22,4.49,1.02,0,1.8-.29,2.36-.86s.84-1.39.84-2.44c0-.93-.27-1.73-.81-2.39-.54-.66-1.47-1.31-2.79-1.96-1.58-.78-2.68-1.54-3.3-2.27s-.92-1.64-.92-2.73c0-1.38.45-2.52,1.34-3.42.89-.9,2.02-1.35,3.39-1.35.57,0,1.35.19,2.35.58.35.13.61.2.77.2.18,0,.3-.03.36-.1.06-.07.11-.24.16-.52.03-.17.12-.25.28-.25.17,0,.25.1.25.3,0,.13,0,.23-.03.3-.05.4-.08.88-.08,1.45,0,.8.04,1.43.12,1.9l.03.4c.02.18-.06.27-.23.27-.18,0-.31-.19-.38-.57-.18-.98-.62-1.8-1.3-2.46-.68-.66-1.45-.99-2.3-.99s-1.5.27-1.99.8c-.49.53-.74,1.26-.74,2.18,0,1.07.36,1.92,1.07,2.57.4.37,1.27.88,2.6,1.55,1.57.78,2.69,1.58,3.38,2.39.68.81,1.02,1.73,1.02,2.76Z"/>
          <path class="cls-3" d="M166.2,16.44c0,.22-.1.32-.3.32s-.34-.22-.42-.65c-.03-.3-.07-.6-.1-.9-.12-.6-.31-1.11-.58-1.52-.35-.55-.92-.9-1.72-1.05-.52-.1-.93-.14-1.25-.12-.78.02-1.26.04-1.43.05v15.1c0,.6.16.98.48,1.13.17.08.63.13,1.4.15.2.02.3.09.3.21,0,.14-.13.21-.4.21-.13,0-.25,0-.35-.02-1-.03-1.71-.05-2.12-.05-.55,0-1.07.01-1.55.04-.48.03-1.1.04-1.85.04-.38,0-.58-.07-.58-.2,0-.15.36-.23,1.08-.25.52,0,.85-.11,1-.33.08-.13.12-.48.12-1.03v-15c-1.65.02-2.67.1-3.08.25-1.05.38-1.67,1.41-1.85,3.07-.05.5-.17.75-.35.75-.2,0-.3-.17-.3-.52,0-.18,0-.37.03-.55l.05-.58c.05-.77.12-1.77.22-3.02h1.12l5.1.08c.6.02,1.53.02,2.8,0l4.15-.08c.03.93.14,2.32.32,4.15,0,.05,0,.11.03.19.02.08.03.12.03.14Z"/>
        </g>
        <polyline class="cls-1" points="0 34.98 169.73 34.98 201.19 .4"/>
      </g>
      <g>
        <path class="cls-2" d="M46.74,81.8c-.9,0-3.52-.95-5.68-3.98-1.94,2.29-4.73,3.61-7.7,4.05l-.02-.15c3.43-1.17,5.65-3.43,6.95-5.17-.73-1.39-1.17-2.88-1.45-4.27-.48-2.24-.66-4.07-.73-5.04h-6.01c.13,2.64.13,2.71.11,3.81h2.84l.4-.53c.15-.2.26-.26.38-.26s.26.07.48.24l.86.64c.11.09.22.22.22.35,0,.15-.13.31-.62.62-.07.62-.11,3.3-.18,3.85-.11,1.14-.29,3.15-2.73,3.63-.09-.42-.18-.75-.64-1.34-.11-.15-.75-.68-1.06-.86v-.15c.46.07,1.58.2,2,.2.73,0,.84-.4.97-2.05.11-1.58.09-2.9.07-3.81h-3.01c-.04,2.35-.15,7.55-3.67,10.36l-.13-.09c1.34-1.87,2.27-5.39,2.27-10.21,0-.73-.02-3.72-.64-6.14l2.2,1.21h5.85c-.02-.35-.13-1.96-.15-2.27-.09-1.28-.26-1.67-.51-2.29l2.35.59c.18.04.42.13.42.33,0,.24-.15.42-.73.64,0,.79.02,1.67.11,2.99h4.69l1.03-1.21c.13-.15.22-.22.33-.22.13,0,.24.09.4.22l1.36,1.17c.13.11.22.26.22.35,0,.15-.15.22-.33.22h-7.68c.42,5.15,1.17,6.89,1.63,7.92,1.32-2.16,1.87-4.33,1.87-5.19,0-.2,0-.31-.09-.68l2.24,1.23c.2.11.31.22.31.37,0,.26-.29.37-.95.51-.84,2.2-1.63,3.81-2.62,5.19.95,1.5,2.31,2.82,3.23,2.82.37,0,.57-.35.81-.84.42-.88.88-2.07,1.03-2.53l.13.02c0,.55-.13,2.95-.13,3.43,0,.57.09.64.46,1.03.11.13.33.42.33.62,0,.35-.48.66-1.12.66ZM42.98,65.9c-.55,0-.73-.4-1.06-1.14-.29-.62-.64-1.14-1.12-1.58l.02-.13c1.63.09,2.95.79,2.95,1.98,0,.53-.33.88-.79.88Z"/>
        <path class="cls-2" d="M70,80.33s0,.44.09.77c.02.11.15.55.15.64,0,.18,0,.59-.62.59-.77,0-2.82-.68-4.6-4.12-2.49,2.62-5.24,3.43-6.78,3.83l-.02-.13c1.69-.9,4.14-2.33,6.21-5.04-.68-1.85-1.12-3.89-1.32-8.71h-4.07v.31c0,.22-.11,2.62-.13,3.01h1.94l.46-.55c.13-.18.24-.29.33-.29s.22.07.29.13l.81.75c.18.15.26.22.26.35,0,.15-.07.2-.57.57-.02.46-.18,2.44-.22,2.86-.13,1.1-.4,3.37-2.71,3.56-.24-1.21-.77-1.61-1.36-1.98-.84,2.53-2.35,3.92-5.04,5.48l-.09-.18c2.11-1.63,3.63-4,4.16-7.3-.84.62-4.36,2.84-5.17,3.23-.15.46-.18.57-.44.57-.18,0-.18-.07-.35-.46l-.88-1.89c.29.07.44.09.64.09.31,0,.53,0,2.42-.55v-6.54c-.79,0-1.56.02-2.44.2l-.44-.88c1.03.09,1.69.11,2.88.13,0-.7.02-2.55.02-2.97,0-1.61-.13-2-.31-2.55l2.09.64c.37.11.42.35.42.42,0,.24-.48.51-.66.62,0,.26-.07,2.79-.09,3.87h.22l.46-.73c.07-.11.24-.26.35-.26.13,0,.33.13.42.24l.59.68c.13.15.22.26.22.35,0,.22-.18.24-.33.24h-1.94c-.04,1.61-.04,1.78-.04,2.9,0,1.92,0,1.96-.02,3.19.4-.11,2.07-.62,2.4-.73.33-2.29.33-4.27.33-4.64,0-1.63-.09-2.29-.29-3.59l2.05,1.14h3.81c-.02-.62-.07-3.32-.11-3.87-.02-.46-.07-.73-.15-1.14l2.22.75c.18.07.35.11.35.29,0,.07-.04.13-.07.15,1.21.22,2.86.51,2.86,1.89,0,.51-.42.84-.86.84-.33,0-.53-.11-.97-1.08-.35-.73-.62-1.08-1.12-1.52-.15.13-.29.22-.68.44-.04.68-.07,1.52-.07,3.26h3.06l.73-1.01c.09-.13.22-.29.33-.29.13,0,.33.15.42.24l1.19,1.01c.13.11.22.2.22.35,0,.2-.2.22-.33.22h-5.61c.15,3.81.46,5.48.99,7.17,1.1-1.85,1.91-4.09,1.96-5.11l1.74.84c.15.07.37.24.37.46,0,.31-.48.42-.81.51-.95,2.44-1.78,3.78-2.66,4.93.68,1.61,1.58,2.53,2.29,2.53.35,0,.46-.18.86-.81.24-.37.81-1.34,1.25-2.22l.15.04c-.13.48-.64,3.1-.64,3.83ZM58.89,72.01c-.09,2.79-.64,4.58-.7,4.75.26.02,1.41.2,1.63.2.18,0,.68-.09.81-.59.04-.13.37-1.08.44-4.36h-2.18Z"/>
        <path class="cls-2" d="M92.7,65.06h-9.9c-.95,2.44-1.72,4.25-2.82,6.14l.29.2h7.96l.55-.68c.13-.15.22-.24.33-.24.13,0,.26.07.42.2l1.01.81c.11.09.24.22.24.37,0,.2-.26.44-.79.79,0,1.94.02,3.89.09,6.03.02.33.11,1.94.11,2.29,0,1.01-.88,1.1-1.08,1.1-.77,0-.75-.42-.7-1.58h-8.27c.02.97.04,1.78-1.08,1.78-.64,0-.66-.42-.66-.73,0-1.17.24-6.89.2-8.18-2.11,3.01-3.83,4.4-5.61,5.21l-.07-.13c4-3.74,6.62-9.11,7.97-13.38h-4.31c-.59,0-1.63.02-2.6.2l-.42-.86c1.12.09,2.24.13,3.37.13h12.76l.95-1.21c.13-.18.24-.26.35-.26.13,0,.26.11.4.22l1.43,1.21c.11.11.22.26.22.35,0,.18-.15.22-.33.22ZM88.41,71.92h-8.27v8.03h8.27v-8.03Z"/>
        <path class="cls-2" d="M106.6,67.88c0-1.76,0-3.61-.33-5.26l2.18.51c.24.07.4.13.4.35,0,.15-.22.37-.66.7-.04.66-.04.75-.04,1.32v2.38h1.69l.95-1.14c.09-.11.22-.26.35-.26.15,0,.29.11.4.22l1.19,1.14c.09.07.22.2.22.33,0,.22-.2.24-.35.24h-4.45c0,.62-.02,3.32-.02,3.87,0,.22.02,1.3.04,1.94h2.75l1.06-1.19c.13-.15.2-.26.35-.26s.29.11.4.22l1.23,1.19c.09.07.22.22.22.35,0,.2-.2.22-.33.22h-5.68c.04,1.56.13,5.3.13,6.8,0,.7-.84.92-1.17.92-.75,0-.75-.44-.75-.81,0-.57.13-5.81.15-6.91h-4.71c-.57,2.84-2.66,5.99-7.02,7.11l-.02-.18c3.01-1.12,4.95-3.89,5.5-6.93h-2.93c-.4,0-1.52,0-2.6.2l-.44-.88c1.36.11,2.73.15,3.39.15h2.66c.04-.44.24-2.33.18-5.81h-2c-.55,0-1.61.02-2.6.2l-.42-.88c1.5.13,3.06.15,3.37.15h1.65c-.02-1.14-.11-4.2-.4-5.11l2.22.57c.13.04.33.07.33.29,0,.13-.13.24-.22.33-.13.13-.22.2-.44.4.04,2.62.07,2.9.07,3.52h4.49ZM102.12,68.4c0,1.45,0,4.47-.2,5.81h4.62c.07-2.58.09-3.21.09-5.81h-4.51Z"/>
        <path class="cls-2" d="M42.92,95.76c-.2.11-.4.29-.84.68-.13.13-2.66,2.79-3.17,3.32.35.18,1.1.64,1.1.95,0,.13-.2.7-.26.81-.04.09-.07,1.83-.07,2.27,0,.99.09,5.35.09,6.23,0,.46-.07,1.36-.68,1.36-.73,0-1.17-1.21-1.17-1.67,0-.2.22-1.06.24-1.23.15-1.14.24-2.75.24-3.94,0-.75-.09-3.15-.18-3.5-.04-.15-.11-.29-.26-.4-1.41,1.32-4.18,3.7-7.77,5.08l-.09-.11c5.11-3.39,10.91-10.06,10.91-11,0-.53-.24-.7-1.12-1.34.26-.07.53-.13.88-.13,1.3,0,2.73,1.47,2.73,2.05,0,.18-.04.22-.59.57Z"/>
        <path class="cls-2" d="M53.11,98.58c-.04.51-.22,2.77-.26,3.23-.57,4.73-3.41,7.24-5.28,8.01l-.11-.13c4.07-3.83,4.07-8.58,4.07-10.43s-.02-1.83-1.69-2.27c.35-.24.84-.57,1.45-.57.57,0,2.07.48,2.07,1.1,0,.18-.22.9-.24,1.06ZM58.45,107.67c-.75.53-.81.62-1.39,1.23-.11.11-.31.33-.44.33-.42,0-1.41-1.8-1.41-2.09,0-.15.26-.81.29-.97.2-.92.2-3.79.2-4.38,0-.81-.02-4.88-.13-5.41-.09-.4-.53-.68-1.58-1.03.29-.18.73-.46,1.23-.46.66,0,2.38.66,2.38,1.32,0,.2-.26,1.08-.31,1.25-.22,1.12-.33,7.28-.33,8.63,0,.09,0,.37.15.37.53,0,4.51-2.53,7.96-6.93l.18.13c-1.5,3.61-4.66,6.49-6.8,8.01Z"/>
        <path class="cls-2" d="M92.14,109.21c-1.65.29-4.47.31-5.1.31-5.9,0-6.01-1.43-6.01-5.57,0-.9.09-4.93.09-5.74,0-1.83,0-2.31-1.8-2.99.64-.42.75-.51,1.06-.51.84,0,2.79.79,2.79,1.54,0,.18-.37.77-.42.9-.11.37-.33,4.71-.37,5.41,3.43-1.1,7.53-4.05,7.53-4.62,0-.26-.66-.79-.92-1.01.22-.04.33-.07.51-.07,1.45,0,2.82,1.45,2.82,2.11,0,.33-.11.35-1.01.62-.26.09-.42.13-.68.26-5.21,2.51-5.77,2.79-8.25,3.19-.02.46-.02.92-.02,1.67,0,2.77,0,3.5,4.09,3.5,2.13,0,3.17-.33,3.98-.57.57-.18.73-.18.92-.18.53,0,1.89.11,1.89.92,0,.57-.75.75-1.08.81ZM92.93,96.58c-.29,0-.35-.09-.99-.81-.77-.88-1.85-1.56-2.4-1.94,2.11.18,3.92.86,3.92,2,0,.35-.22.75-.53.75ZM95.19,95.32c-.24,0-.35-.09-1.36-1.01-.92-.81-1.41-1.14-2.29-1.54.26-.02.31-.04.48-.04.77,0,3.67.46,3.67,1.89,0,.33-.2.7-.51.7Z"/>
        <path class="cls-2" d="M103.19,101.07c-.48,0-.57-.15-1.34-1.5-.7-1.25-1.58-2.44-2.77-3.28,2.38.42,4.91,1.98,4.91,3.59,0,.57-.31,1.19-.79,1.19ZM113.47,98.71c-.15.15-.24.29-.48.92-1.28,3.19-3.12,6.14-5.81,8.25-2.53,1.96-4.95,2.53-5.85,2.73l-.02-.15c.88-.37,5.81-2.77,8.8-8.45.99-1.87,1.67-3.85,1.67-4.4,0-.48-.62-1.08-1.5-1.56.2-.09.44-.18,1.03-.18,1.06,0,2.82,1.5,2.82,2.05,0,.2-.07.26-.66.79ZM115.56,96.89c-.31,0-.4-.11-1.17-.99-.68-.77-1.32-1.36-2.16-1.89,2-.09,3.89,1.03,3.89,2.13,0,.31-.18.75-.57.75ZM117.52,95.59c-.29,0-.37-.11-1.12-1.1-.2-.26-.79-1.03-2.16-1.83.97,0,3.81.46,3.81,2.22,0,.51-.29.7-.53.7Z"/>
        <path class="cls-2" d="M126.95,98.76c-.37,0-.64-.26-1.34-.97-1.54-1.56-2.77-2.13-3.61-2.51,2.64-.18,5.76.77,5.76,2.6,0,.48-.37.88-.81.88ZM128.87,106.3c-.46.35-2.53,1.85-2.9,2.22-.11.11-.59.66-.7.77-.09.09-.26.13-.37.13-.77,0-2.22-1.85-2.22-2.88,0-.4.13-.73.22-.97.51.99,1.14,1.45,1.61,1.45.73,0,4.14-2.53,5.08-3.26,3.54-2.71,5.24-4.6,7.02-6.64l.11.07c-.53,1.61-2.99,5.39-7.83,9.11Z"/>
        <path class="cls-2" d="M156.73,100.91s-1.76-.2-2.29-.26c-.84-.09-1.61-.13-2.2-.13-.68,0-1.19.04-2.71.15.18.11.84.62.97.73.07.07.13.15.13.26s-.4.7-.46.81c-.09.15-.13.37-.15.48-1.06,3.59-3.17,7.31-6.89,8.43l-.07-.11c3.45-2.6,5.43-7.9,5.43-9.46,0-.53-.18-.73-.42-.99-3.26.46-3.94.7-4.8,1.03-.42.15-.53.2-.68.2-.42,0-1.85-1.01-1.85-2.38,0-.33.07-.53.13-.75.68,1.03,1.25,1.41,2.13,1.41.24,0,9.24-.99,10.61-1.12.22-.02,1.14-.35,1.34-.35.11,0,2.35.42,2.35,1.43,0,.62-.42.62-.59.62ZM151.78,96.38c-.7.02-1.83.07-2.51.13-1.14.13-3.32.35-3.46.35-.37,0-1.91-.31-1.74-2.07.73.62,1.47.81,2.64.81,1.25,0,2.84-.2,4.09-.57.46-.13.79-.24.97-.24.57,0,1.87.24,1.87.95,0,.57-.51.59-1.87.64Z"/>
        <path class="cls-2" d="M45.25,128.29c-.51.35-.53.37-.86,2.09-.33,1.76-.75,4.05-1.03,5.24-.02.07-.04.18-.04.24,0,.15.04.2.42.46.53.37.68.51.68.81,0,.53-.51.53-.59.53-.11,0-.26-.02-.42-.04-1.06-.13-1.5-.2-3.92-.2-2.66,0-4.29.15-5.08.24,0,.42-.04,1.23-.59,1.23-.77,0-1.14-1.54-1.14-2.13,0-.15.09-.84.09-.97,0-.57-.18-6.07-.66-7.86-.22-.77-.59-.99-1.5-1.32.26-.15.64-.37,1.12-.37.57,0,.9.18,1.96.81.29.18.51.18.7.18.24,0,1.34-.11,1.56-.13,1.03-.07,5.54-.33,6.45-.48.7-.11.84-.24,1.14-.51.13-.13.22-.15.29-.15.26,0,1.94,1.43,1.94,1.78,0,.18-.13.31-.51.55ZM42.52,127.7c-.64,0-3.45.15-6.05.42-.22.02-1.3.18-1.56.18-.15,0-.86-.26-1.03-.26-.07,0-.09.02-.09.2,0,.42.48,8.29.48,8.34.7,0,6.84-.33,7.75-.4.09-.73.92-6.71.92-7.99,0-.24-.09-.48-.42-.48Z"/>
        <path class="cls-2" d="M64.79,128.21c-.4.24-.57.64-.84,1.41-1.28,3.67-3.32,7.17-6.6,9.29-1.85,1.19-3.41,1.58-4.09,1.76l-.04-.18c4-2.07,8.41-6.87,9.75-13.16-1.5-.02-7.83.9-8.98,1.23-.2.07-1.19.51-1.23.51-.42,0-1.78-1.12-1.78-2.57,0-.29.11-.53.2-.7.99,1.17,1.17,1.39,2.13,1.39.62,0,8.82-.68,9.48-.97.15-.07.7-.53.84-.53.26,0,1.89,1.43,1.89,1.85,0,.26-.02.26-.73.68Z"/>
        <path class="cls-2" d="M80.48,134.81c-.33,0-.62-.29-.97-.66-2.02-2.24-3.17-3.04-4.69-3.61,0,.86-.04,4.69-.02,5.48,0,.57.13,3.1.13,3.61,0,.46,0,1.76-.86,1.76-.73,0-1.03-1.28-1.03-1.85,0-.33.02-.53.15-1.47.26-1.74.29-5.21.29-7.09,0-.95-.02-5.32-.2-6.03-.13-.48-.62-.7-1.76-1.1.44-.26.97-.53,1.45-.53.33,0,2.49.46,2.49,1.17,0,.18-.26.92-.31,1.1-.24.84-.29,3.37-.31,4.45,2.25.35,4.47,1.32,5.68,2.38.4.35.66.9.66,1.47,0,.73-.44.92-.7.92Z"/>
        <path class="cls-2" d="M32.77,165.03l-1.08,3.34c-.07.18-.13.4-.13.73,0,.81.62.88.92.88h.62v.7h-4.78v-.7h.73c.92,0,1.72-.95,2.07-2.02l4.33-13.33,1.94-.42,4.82,14.28c.44,1.28,1.01,1.5,1.63,1.5h.48v.7h-5.41v-.7h.66c.33,0,.9-.31.9-.97,0-.24-.07-.4-.2-.81l-1.06-3.17h-6.45ZM35.94,155.34l-2.93,8.98h5.96l-3.04-8.98Z"/>
        <path class="cls-2" d="M46.7,154.62h7.33c3.37,0,5.59,1.32,5.59,3.56,0,1.54-1.03,2.53-1.52,2.9-.68.53-1.23.73-2.18.97.86.13,1.85.29,2.95,1.1.95.73,1.67,1.85,1.67,3.1,0,1.96-1.72,4.42-5.99,4.42h-7.85v-.7h.88c.92,0,1.56-.51,1.56-1.52v-11.6c0-.95-.57-1.52-1.56-1.52h-.88v-.73ZM50.91,161.84h2.93c1.91,0,3.74-.99,3.74-3.39,0-1.98-1.34-3.1-3.54-3.1h-1.56c-.92,0-1.56.51-1.56,1.52v4.97ZM50.91,162.54v5.92c0,.95.55,1.52,1.56,1.52h1.91c2.35,0,4.07-1.32,4.07-3.65,0-1.98-1.34-3.79-4-3.79h-3.54Z"/>
        <path class="cls-2" d="M75.3,158.56c-.81-1.23-2.4-3.63-5.35-3.63-3.52,0-5.26,3.59-5.26,7.42,0,4.27,2.07,7.75,5.77,7.75,3.12,0,4.66-2.86,5.24-3.98l.59.35c-.86,1.69-2.4,4.64-6.49,4.64-4.64,0-6.91-3.76-6.91-8.1,0-5.15,3.19-8.8,6.91-8.8.55,0,1.19.07,1.85.26.18.04,1.21.33,1.34.33.46,0,1.06-.26,1.47-.53l1.56,3.96-.73.33Z"/>
        <path class="cls-2" d="M91.94,158.93c-.51.22-.7.42-1.19,1.36-2.11,4.11-4.42,6.87-7.79,8.96-1.17.73-2.66,1.5-4.31,1.87l-.04-.15c4.8-2.66,9.24-7.53,11.27-12.65-.9.09-2.4.31-3.3.44-.15.02-.59.09-.7.09-.22,0-.62-.09-1.12-.37-2.05,2.71-3.65,3.96-5.83,5.1l-.11-.18c3.61-3.3,5.74-7.26,5.74-7.96,0-.22-.04-.4-1.21-1.1.53-.18,1.01-.18,1.08-.18.88,0,2.49,1.01,2.49,1.58,0,.2-.09.31-.51.7-.22.2-.79.95-1.08,1.3.99.11,3.74-.2,4.31-.4.2-.07.95-.66,1.17-.66.24,0,1.83,1.32,1.83,1.74,0,.15-.07.22-.68.51Z"/>
        <path class="cls-2" d="M100.96,163.22c-.48,0-.7-.51-.95-1.06-.29-.62-.88-1.61-1.61-2.38,1.45.22,3.19,1.41,3.19,2.62,0,.44-.22.81-.64.81ZM110.03,161c-.13.15-1.03,2.09-1.23,2.46-3.17,5.96-7.08,7-8.62,7.42l-.04-.22c6.6-3.08,8.49-10.12,8.49-10.43,0-.53-.88-1.03-1.17-1.19.29-.07.57-.15.97-.15.95,0,2.07,1.17,2.07,1.43,0,.15-.04.22-.46.68ZM104.75,162.28c-.46,0-.53-.2-.9-1.21-.29-.81-.81-1.61-1.32-2.27,1.5.44,2.88,1.67,2.88,2.62,0,.46-.24.86-.66.86Z"/>
        <path class="cls-2" d="M130.79,162.67c-1.61,0-2.62,0-5.83.59.22,1.03,1.45,6.75,1.45,7.11,0,.68-.42.97-.7.97-.53,0-1.19-.99-1.23-2.24-.04-.92-.09-1.92-.75-5.59-2.82.57-4.47,1.14-4.73,1.25-1.19.55-1.21.55-1.39.55-.4,0-2.16-.88-2.16-2.29,0-.18.04-.31.07-.51.51.73,1.34,1.14,2.02,1.14.57,0,5.06-.95,6.01-1.1-.07-.35-.48-2.51-.75-3.76-1.52.35-2.55.73-3.28,1.03-.4.18-.44.2-.55.2-.15,0-.79-.13-1.56-1.12-.37-.48-.37-.86-.35-1.3.84.79,1.72.84,2.16.84.73,0,3.1-.48,3.41-.55-.68-3.37-.7-3.54-2.62-3.89.62-.44.95-.64,1.43-.64.04,0,2.38.15,2.38,1.01,0,.15-.15.79-.15.95,0,.31.09,1.21.26,2.31.44-.11,2.42-.51,2.79-.64.18-.07.92-.42,1.1-.42.15,0,1.3.18,1.58.44.11.11.2.26.2.46,0,.29-.22.59-.84.59-1.58,0-3.15.18-4.69.46.31,1.91.44,2.71.68,3.78.4-.07,3.34-.68,3.45-.73.26-.11,1.08-.44,1.36-.51.13-.02.24-.04.4-.04.77,0,1.74.29,2,.48.13.11.22.31.22.53,0,.62-.35.62-1.41.62Z"/>
        <path class="cls-2" d="M140.47,158.76c-.37,0-.64-.26-1.34-.97-1.54-1.56-2.77-2.13-3.61-2.51,2.64-.18,5.76.77,5.76,2.6,0,.48-.37.88-.81.88ZM142.38,166.3c-.46.35-2.53,1.85-2.9,2.22-.11.11-.59.66-.7.77-.09.09-.26.13-.37.13-.77,0-2.22-1.85-2.22-2.88,0-.4.13-.73.22-.97.51.99,1.14,1.45,1.61,1.45.73,0,4.14-2.53,5.08-3.26,3.54-2.71,5.24-4.6,7.02-6.64l.11.07c-.53,1.61-2.99,5.39-7.83,9.11Z"/>
        <path class="cls-2" d="M152.6,171.06c4.73-2.64,9.22-7.46,11.27-12.65-.88.09-2.38.33-3.3.44-.11.02-.59.09-.7.09-.37,0-.88-.24-1.12-.37-1.41,1.78-2.73,3.48-5.83,5.1l-.11-.18c3.61-3.3,5.74-7.24,5.74-7.96,0-.22-.04-.4-1.21-1.1.53-.18,1.01-.18,1.08-.18.88,0,2.49,1.01,2.49,1.58,0,.24-.09.31-.51.7-.31.29-.44.46-1.08,1.3.97.11,3.74-.2,4.31-.4.2-.07.97-.66,1.17-.66s1.83,1.3,1.83,1.74c0,.18-.07.22-.68.51-.51.24-.7.42-1.19,1.36-1.96,3.79-3.81,5.88-5.66,7.42-.9.75-3.48,2.75-6.45,3.41l-.04-.15ZM168.09,156.62c0,.31-.15.64-.57.64-.26,0-.42-.11-.7-.44-.79-.92-1.32-1.58-2.55-2.42,2,.18,3.83,1.03,3.83,2.22ZM170.2,155.59c0,.57-.37.57-.53.57-.24,0-.29-.04-1.23-.95-.18-.18-1.06-1.03-2.24-1.56,1.69.04,4,.44,4,1.94Z"/>
        <path class="cls-2" d="M187.37,169.76c-.46,0-.7-.37-.9-.7-1.76-2.9-2.97-4.36-4.93-5.81-3.92,4.93-7.66,6.32-9.73,6.73l-.02-.18c5.1-2.25,10.47-8.98,11.68-13.07-.84.11-4.49.79-5.68,1.25-.2.09-1.01.53-1.19.53-.33,0-1.54-1.08-1.54-2.22,0-.44.09-.73.2-.95.84,1.32,1.21,1.34,1.65,1.34.62,0,5.39-.46,6.29-.99.15-.09.84-.62,1.01-.62.24,0,1.87,1.39,1.87,1.76,0,.24-.15.29-.86.55-.15.07-.18.11-.46.64-.97,1.87-1.52,2.95-2.93,4.84,2.64,1.17,6.29,3.79,6.29,5.85,0,.59-.24,1.03-.77,1.03Z"/>
        <path class="cls-2" d="M205.93,158.18c-.44.18-.59.31-1.32,1.74-3.39,6.58-6.8,9.59-11.64,10.96l-.07-.15c2.95-1.69,5.59-3.89,7.57-6.62-.22-.02-.46-.22-.86-.66-1.52-1.74-1.74-1.98-2.93-2.64-1.19,1.3-2.4,2.24-3.67,2.86l-.07-.13c2.77-2.68,5.41-7.22,5.41-8.08,0-.73-.86-1.06-1.3-1.23.29-.13.59-.26,1.1-.26,1.25,0,2.44,1.08,2.44,1.54,0,.24-.04.29-.55.73-.18.18-.44.59-.59.81.15,0,.37.02.79.02,1.08,0,3.3-.35,3.61-.51.15-.09.77-.53.92-.53.26,0,1.72,1.41,1.72,1.72,0,.22-.09.24-.57.44ZM200.16,158.12c-.18,0-.42,0-1.14-.42-1.14,1.69-2,2.71-2.11,2.84,1.23.15,4.05.7,4.18,2.68.57-.86,1.63-2.46,2.79-5.61-.59.07-3.21.51-3.72.51Z"/>
        <path class="cls-2" d="M216.43,162.25c-.22,0-.4-.11-1.8-1.06-1.12-.75-2.27-1.21-3.41-1.65.46-.07.92-.13,1.65-.13.22,0,2.11,0,3.06.53,1.03.57,1.12,1.41,1.12,1.58,0,.51-.37.73-.62.73ZM217.02,169.45c-.35.24-.4.29-.77.7-.18.22-.35.42-.66.42-.59,0-2.09-1.47-2.09-2.93,0-.18.02-.31.07-.57.22.24,1.1,1.3,1.72,1.3.26,0,.51-.09.77-.24,3.59-2.05,7.44-5.3,11.27-9.86l.15.11c-2.64,4.93-5.88,7.99-10.45,11.07ZM218.34,157.44c-.29,0-.4-.09-1.45-.97-1.41-1.17-2.51-1.67-3.32-2.05.42-.07.59-.09,1.01-.09.13,0,4.36.04,4.36,2.38,0,.62-.44.73-.59.73ZM226.13,157.57c-.26,0-.29-.02-1.1-.92-.66-.73-1.39-1.36-2.2-1.87,1.39.02,3.83.64,3.83,2.11,0,.48-.31.68-.53.68ZM228,155.54c-.24,0-.31-.09-1.03-.79-.68-.66-1.47-1.21-2.4-1.63.29-.02.44-.04.64-.04.88,0,3.37.37,3.37,1.83,0,.44-.33.64-.57.64Z"/>
        <path class="cls-2" d="M231.36,168.63c2.9-1.96,6.78-5.46,8.54-8.82-2.62.26-4.64.79-5.19,1.01-.31.13-.48.2-.66.2-.57,0-2-.84-2-2.31,0-.24.02-.42.07-.77.84,1.08,1.14,1.45,2.6,1.45.42,0,4.31-.37,5.68-.48-.02-2.91-.04-3.3-.26-3.85-.2-.48-.62-.64-1.72-1.06.26-.2.73-.51,1.34-.51,1.08,0,2.46.84,2.46,1.25,0,.11-.07.24-.26.68-.31.64-.33,1.74-.35,3.34,2.22-.22,2.46-.24,2.84-.33.18-.04.92-.29,1.1-.29.4,0,2.09.44,2.09,1.17,0,.35-.22.53-.51.53-.26,0-1.47-.15-1.72-.18-.75-.04-1.36-.07-1.8-.07-.88,0-1.69.04-2,.07v3.1c0,.81.13,4.44.13,5.19,0,2.62-.88,3.28-1.3,3.28-.35,0-.46-.24-.79-1.03-.4-.92-1.83-1.92-2.4-2.29l.09-.18c.53.18,2.4.66,2.57.66.35,0,.35-.15.4-.77.11-2,.15-4.18.13-6.18-1.14,1.89-4.29,5.7-8.98,7.35l-.09-.18Z"/>
        <path class="cls-2" d="M287.15,156.91c-.35.18-2.07.66-4.55,1.25-.57,1.14-2.97,6.25-3.54,7.24-.51.86-.97,1.67-1.41,1.67-.15,0-.62-.09-.62-.84,0-.62.31-1.01.53-1.32,1.58-2.09,2.99-5,3.65-6.43-.48.11-1.14.29-1.98.29-1.3,0-2.4-.68-2.22-2,.53.75,1.25.88,2.13.88.79,0,1.69-.15,2.58-.35.51-1.25.92-2.33.92-2.79,0-.24-.13-.77-1.3-1.08.33-.29.64-.44,1.08-.44.86,0,2.2.92,2.2,1.5q0,.22-.55,1.01c-.31.44-.48.75-.81,1.39.44-.15,1.19-.42,1.65-.64.97-.44,1.08-.51,1.34-.51.29,0,1.25.31,1.25.73,0,.22-.18.35-.35.44ZM292.65,162.39c-.13,0-.37-.02-.77-.24-.75-.4-1.01-.55-1.87-.55-2.31,0-2.64,1.25-2.64,2.29,0,1.28.24,2.51.37,3.19,1.76.37,4.18,1.3,4.18,2.73,0,.33-.22.73-.62.73-.26,0-1.14-.62-1.69-1.01-.88-.62-1.28-.77-1.72-.92-.02.46-.07,1.39-.84,2.09-.9.84-2.16.92-2.66.92-1.83,0-3.41-.99-3.41-2.35,0-1.65,2-2.44,4.14-2.44.48,0,.81.04,1.14.07-.07-.77-.15-1.8-.15-2.31,0-2.42,2.33-3.37,3.85-3.65.18-.04.37-.09.37-.35,0-.29-.79-1.1-3.01-1.67.33-.11.75-.22,1.41-.22,2.73,0,4.49,2.05,4.49,3.08,0,.4-.22.64-.57.64ZM284.71,167.86c-.84,0-2.88.18-2.88,1.36,0,.92,1.41,1.17,2.16,1.17s2.44-.2,2.38-2.31c-.42-.11-.77-.22-1.65-.22Z"/>
        <path class="cls-2" d="M309.32,170.24c-.92.37-4.31.42-5.13.42-1.94,0-3.06-.11-4.29-.59-1.08-.42-2.38-1.34-2.38-3.06,0-2.73,2.95-4.71,4.18-5.5-.95-1.17-.95-1.54-1.03-5.21-.07-2.27-.44-2.44-1.83-3.06.31-.29.77-.4,1.19-.4.57,0,1.58.51,2.05.81.44.29.51.42.51.7,0,.22-.07.46-.09.53-.29.77-.42,1.23-.42,2.82,0,1.85.26,2.71.55,3.23,1.72-.92,2.29-1.14,4.22-1.91.26-.11.4-.24.4-.53,0-.22-.11-.44-.18-.62,1.28.04,2.05.97,2.05,1.8,0,.62-.15.64-1.43.86-3.96.66-9.44,3.56-9.44,6.25,0,2.27,2.99,2.46,4.25,2.46.37,0,2.79-.09,5.06-.51.55-.11.7-.13.99-.13.64,0,1.5.29,1.5.88,0,.35-.26.55-.73.75ZM312.18,159.22c-.31,0-.4-.11-1.39-1.1-.99-.99-1.69-1.36-2.33-1.69,1.41-.04,4.16.55,4.16,2.16,0,.31-.11.64-.44.64ZM313.61,156.97c-.22,0-.31-.07-.97-.7-1.17-1.12-1.45-1.39-2.66-1.96.29-.04.48-.07.75-.07,1.14,0,3.34.66,3.34,2.07,0,.4-.22.66-.46.66Z"/>
      </g>
    </g>
  </g>
</svg>