<?xml version="1.0" encoding="UTF-8"?>
<svg id="_レイヤー_2" data-name="レイヤー 2" xmlns="http://www.w3.org/2000/svg" viewBox="0 0 620 200">
  <defs>
    <style>
      .cls-1 {
        fill: none;
        stroke: #e5da99;
        stroke-miterlimit: 10;
        stroke-width: 1.2px;
      }

      .cls-2 {
        fill: #fff;
      }

      .cls-2, .cls-3, .cls-4 {
        stroke-width: 0px;
      }

      .cls-3 {
        fill: #e5da99;
      }

      .cls-4 {
        fill: #638bc7;
      }
    </style>
  </defs>
  <g id="_背景2" data-name="背景2">
    <polygon class="cls-4" points="594.97 200 0 200 0 0 620 0 620 176.35 594.97 200"/>
  </g>
  <g id="_レイヤー_2-2" data-name="レイヤー 2">
    <polyline class="cls-1" points="0 41.05 169.73 41.05 201.19 6.48"/>
    <g>
      <g>
        <path class="cls-3" d="M45.61,24.07c0,1.43-.55,2.65-1.64,3.66-1.09,1.01-2.4,1.51-3.94,1.51-.9,0-1.98-.27-3.23-.83-.33-.15-.58-.22-.75-.22-.2,0-.33.23-.38.69-.02.24-.12.36-.33.36-.17,0-.25-.1-.25-.3,0-.13,0-.23.03-.3.13-1.02.2-1.96.2-2.83,0-.17-.02-.63-.05-1.4-.02-.1-.03-.23-.03-.4,0-.25.1-.38.3-.38.17,0,.28.2.35.61.43,3,1.84,4.49,4.22,4.49,1.02,0,1.8-.29,2.36-.86s.84-1.39.84-2.44c0-.93-.27-1.73-.81-2.39-.54-.66-1.47-1.31-2.79-1.96-1.58-.78-2.68-1.54-3.3-2.28s-.92-1.64-.92-2.72c0-1.38.45-2.53,1.34-3.43.89-.9,2.02-1.35,3.39-1.35.57,0,1.35.19,2.35.58.35.13.61.2.77.2.18,0,.3-.03.36-.1.06-.07.11-.24.16-.52.03-.17.12-.25.28-.25.17,0,.25.1.25.3,0,.13,0,.23-.03.3-.05.4-.08.88-.08,1.45,0,.8.04,1.43.12,1.9l.03.4c.02.18-.06.28-.23.28-.18,0-.31-.19-.38-.58-.18-.98-.62-1.8-1.3-2.46-.68-.66-1.45-.99-2.3-.99s-1.5.27-1.99.8c-.49.53-.74,1.26-.74,2.17,0,1.07.36,1.93,1.07,2.58.4.37,1.27.88,2.6,1.55,1.57.78,2.69,1.58,3.38,2.39.68.81,1.02,1.73,1.02,2.76Z"/>
        <path class="cls-3" d="M65.6,28.72c0,.15-.16.22-.47.22h-5.43c-.33,0-.5-.07-.5-.2s.39-.22,1.16-.27c.41-.03.65-.1.72-.21.07-.11.1-.49.1-1.16v-7.28h-7.53v7.08c0,.75.06,1.19.17,1.33.12.13.51.22,1.17.27.43.03.65.11.65.23,0,.15-.17.22-.5.22h-5.42c-.33,0-.5-.07-.5-.2s.17-.22.5-.25c.22-.02.44-.03.67-.05.37-.03.6-.12.7-.25.05-.08.08-.55.08-1.4v-13.18c0-.75-.04-1.19-.11-1.32-.07-.13-.34-.21-.79-.22-.52-.04-.82-.06-.91-.08-.09-.02-.14-.09-.14-.21,0-.14.11-.21.33-.21.07,0,.21,0,.42.03.42.03,1.4.05,2.95.05.85,0,1.44-.01,1.77-.04.12-.02.27-.04.45-.04.3,0,.45.08.45.25,0,.15-.27.23-.81.23s-.87.06-.98.19c-.11.12-.16.52-.16,1.19v5.77h7.53v-5.39c0-.89-.07-1.41-.2-1.57-.13-.16-.6-.23-1.4-.21-.25,0-.38-.07-.38-.23s.14-.23.42-.23h5.45c.35,0,.53.08.53.22s-.37.23-1.1.25c-.22,0-.38.02-.47.05-.17.05-.27.14-.31.27-.04.13-.06.53-.06,1.17v13.3c0,.8.04,1.27.12,1.4.17.18.64.28,1.43.28.26-.03.4.03.4.2Z"/>
        <path class="cls-3" d="M85.28,20.37c0,2.48-.75,4.58-2.24,6.3-1.49,1.72-3.32,2.58-5.49,2.58-2.3,0-4.23-.87-5.8-2.61-1.57-1.74-2.35-3.89-2.35-6.44s.75-4.73,2.26-6.39c1.51-1.66,3.44-2.49,5.79-2.49,2.22,0,4.08.87,5.58,2.6,1.5,1.73,2.25,3.88,2.25,6.45ZM82.48,20.49c0-3.06-.62-5.44-1.88-7.15-.78-1.07-1.88-1.6-3.28-1.6s-2.37.41-3.1,1.23c-1.35,1.5-2.03,3.95-2.03,7.35,0,2.69.47,4.78,1.41,6.27s2.26,2.23,3.96,2.23c1.58,0,2.78-.7,3.58-2.11.88-1.55,1.33-3.63,1.33-6.22Z"/>
        <path class="cls-3" d="M100.79,15.74c0,1.62-.69,2.88-2.08,3.78-.87.57-1.97.85-3.3.85-.57,0-1.21-.06-1.92-.17v7.1c0,.38.02.62.05.73.08.23.27.38.55.42.48.07.95.1,1.4.1.18,0,.27.06.27.18,0,.17-.12.25-.35.25h-5.75c-.5,0-.75-.08-.75-.25,0-.12.17-.17.52-.17.78,0,1.23-.08,1.35-.23.13-.07.21-.23.22-.5v-14.77c0-.52-.14-.83-.42-.95-.17-.07-.46-.1-.88-.1h-.42c-.25,0-.38-.07-.38-.2,0-.15.23-.22.7-.22h5.5c1.9,0,3.29.33,4.17,1,1,.75,1.5,1.81,1.5,3.17ZM98.17,15.77c0-2.52-1.05-3.77-3.15-3.77-.7,0-1.16.12-1.38.35-.1.1-.15.36-.15.78v6.69c.13.02.28.03.45.03,1.1,0,2.03-.24,2.8-.73.95-.6,1.42-1.72,1.42-3.35Z"/>
        <path class="cls-3" d="M124.44,26.97c0,.43-.02,1.15-.07,2.15h-.27c-.1,0-.34-.02-.72-.05-.38-.03-.82-.05-1.3-.05l-10.38-.08c-.28,0-.42-.08-.42-.22,0-.12.23-.19.67-.23.63-.03,1.01-.1,1.14-.21s.19-.42.19-.94v-14.05c0-.62-.06-.97-.19-1.07-.12-.1-.57-.15-1.34-.15-.32,0-.48-.09-.48-.28,0-.15.1-.22.3-.22h.23c.55.05,1.64.08,3.27.08.15,0,.44-.01.88-.04.43-.02.79-.04,1.08-.04h.28c.3,0,.45.08.45.25,0,.1-.05.16-.14.19-.09.03-.38.05-.86.06-.48.02-.77.1-.86.24s-.14.58-.14,1.31v14.75c.45.02,1.07.03,1.88.03,1.95,0,3.32-.1,4.12-.3.8-.2,1.34-.58,1.62-1.12.28-.55.45-1.29.5-2.23.02-.22.11-.33.29-.33.21,0,.3.12.29.38v2.18Z"/>
        <path class="cls-3" d="M134.88,28.73c0,.14-.1.21-.3.21h-.25c-.1-.05-1.23-.08-3.4-.08-.42,0-.83.02-1.25.05-.22.02-.55.03-1,.03-.22,0-.33-.08-.33-.22,0-.13.22-.21.65-.23.67-.02,1.06-.1,1.17-.24.12-.14.17-.62.17-1.44v-13.19c0-.82-.04-1.28-.13-1.38-.1-.17-.57-.27-1.39-.3-.32-.01-.48-.07-.48-.18,0-.13.1-.2.3-.2h3.4c.25,0,.74,0,1.46.03l.96-.03c.27,0,.4.07.4.21,0,.13-.37.21-1.11.24-.42.02-.68.09-.77.22-.09.13-.14.48-.14,1.05v13.35c0,.95.04,1.47.12,1.55.18.18.73.29,1.62.33.18,0,.28.07.28.21Z"/>
        <path class="cls-3" d="M149.78,24.07c0,1.43-.55,2.65-1.64,3.66-1.09,1.01-2.4,1.51-3.94,1.51-.9,0-1.98-.27-3.23-.83-.33-.15-.58-.22-.75-.22-.2,0-.33.23-.38.69-.02.24-.12.36-.33.36-.17,0-.25-.1-.25-.3,0-.13,0-.23.03-.3.13-1.02.2-1.96.2-2.83,0-.17-.02-.63-.05-1.4-.02-.1-.03-.23-.03-.4,0-.25.1-.38.3-.38.17,0,.28.2.35.61.43,3,1.84,4.49,4.22,4.49,1.02,0,1.8-.29,2.36-.86s.84-1.39.84-2.44c0-.93-.27-1.73-.81-2.39-.54-.66-1.47-1.31-2.79-1.96-1.58-.78-2.68-1.54-3.3-2.28s-.92-1.64-.92-2.72c0-1.38.45-2.53,1.34-3.43.89-.9,2.02-1.35,3.39-1.35.57,0,1.35.19,2.35.58.35.13.61.2.77.2.18,0,.3-.03.36-.1.06-.07.11-.24.16-.52.03-.17.12-.25.28-.25.17,0,.25.1.25.3,0,.13,0,.23-.03.3-.05.4-.08.88-.08,1.45,0,.8.04,1.43.12,1.9l.03.4c.02.18-.06.28-.23.28-.18,0-.31-.19-.38-.58-.18-.98-.62-1.8-1.3-2.46-.68-.66-1.45-.99-2.3-.99s-1.5.27-1.99.8c-.49.53-.74,1.26-.74,2.17,0,1.07.36,1.93,1.07,2.58.4.37,1.27.88,2.6,1.55,1.57.78,2.69,1.58,3.38,2.39.68.81,1.02,1.73,1.02,2.76Z"/>
        <path class="cls-3" d="M167.08,16.04c0,.22-.1.33-.3.33s-.34-.22-.42-.65c-.03-.3-.07-.6-.1-.9-.12-.6-.31-1.11-.58-1.53-.35-.55-.92-.9-1.72-1.05-.52-.1-.93-.14-1.25-.12-.78.02-1.26.04-1.43.05v15.1c0,.6.16.98.48,1.13.17.08.63.13,1.4.15.2.02.3.09.3.21,0,.14-.13.21-.4.21-.13,0-.25,0-.35-.03-1-.03-1.71-.05-2.12-.05-.55,0-1.07.01-1.55.04-.48.03-1.1.04-1.85.04-.38,0-.58-.07-.58-.2,0-.15.36-.23,1.08-.25.52,0,.85-.11,1-.33.08-.13.12-.48.12-1.03v-15c-1.65.02-2.67.1-3.08.25-1.05.38-1.67,1.41-1.85,3.08-.05.5-.17.75-.35.75-.2,0-.3-.17-.3-.52,0-.18,0-.37.03-.55l.05-.57c.05-.77.12-1.78.22-3.03h1.12l5.1.08c.6.02,1.53.02,2.8,0l4.15-.08c.03.93.14,2.32.32,4.15,0,.05,0,.11.03.19.02.07.03.12.03.14Z"/>
      </g>
      <g>
        <path class="cls-2" d="M51.74,97.17c1.98,2.31,5.5,4.44,9.46,4.62v.18c-1.3.33-1.98,1.21-2.35,2-.68-.22-5.59-2.75-7.5-6.69.02.99.04,5.33.09,6.21,0,.11.02.64.02.75,0,.77-.7,1.08-1.23,1.08-.46,0-.57-.33-.57-.62,0-.07,0-.24.02-.48.11-1.52.24-3.41.24-5.99-2.02,2.42-6.03,5.04-9.29,5.81l-.07-.18c3.32-1.34,7.9-5.96,8.34-6.69h-2.95c0,.75-.15,1.3-1.14,1.3-.46,0-.55-.22-.55-.48,0-.24.11-1.32.11-1.54.04-.73.07-1.91.07-3.1,0-2-.07-2.71-.29-3.59l2.05.9h3.74c0-.51-.02-1.72-.04-2.27h-5.98c-.4,0-1.54,0-2.6.2l-.44-.88c1.63.13,3.06.15,3.39.15h5.61c-.07-1.34-.13-2.13-.44-2.86l2.29.59c.2.04.37.13.37.31,0,.24-.53.59-.73.73v1.23h5.99l.95-1.1c.15-.18.24-.29.35-.29s.24.11.4.24l1.34,1.1c.15.13.22.22.22.33,0,.2-.2.24-.33.24h-8.93v2.27h3.76l.73-.64s.18-.15.26-.15c.11,0,.24.09.31.15l.99.79c.13.11.22.22.22.35,0,.2-.13.29-.7.64-.02.48-.02,1.12.04,2.75.02.31.13,2.66.13,2.86,0,.7-.64.92-1.12.92-.59,0-.57-.46-.53-1.17h-3.7ZM45.94,91.18v2.38h3.98l.02-2.38h-4ZM49.92,96.64v-2.55h-3.98v2.55h3.98ZM55.44,96.64v-2.55h-4.09c0,.35-.02,2.16-.02,2.55h4.11ZM55.44,93.56v-2.38h-4.09v2.38h4.09Z"/>
        <path class="cls-2" d="M63.81,103.86c-.57,0-.95-.51-.95-.95,0-.55.48-.92,1.17-1.45.97-.77,1.47-1.69,1.69-2.35h.13c.02.26.04.55.04.95,0,2.05-.86,3.81-2.09,3.81ZM80.51,91.21c-.29.2-.37.26-.48.35.04,2.22.07,3.08.11,3.96,0,.2.07,1.01.07,1.19,0,.7-.62.92-1.01.92-.68,0-.68-.44-.68-.7v-.29h-10.19c-.4,0-1.52,0-2.6.2l-.42-.88c1.39.11,2.77.15,3.37.15h9.83v-2.33h-9.86c-.4,0-1.54,0-2.6.2l-.44-.86c1.36.11,2.73.13,3.39.13h9.5v-2.24h-12.08c-.73.59-1.58,1.21-3.08,2l-.07-.09c2.95-2.82,4.91-5.81,5.39-6.8.22-.46.24-.7.31-1.23l1.94.95c.11.04.31.2.31.42s-.46.37-.81.46c-.11.13-.33.4-.51.59h4.91l.79-.66c.13-.11.29-.24.37-.24.13,0,.35.15.46.24l1.03.81c.11.09.22.18.22.33,0,.26-.18.29-.84.44-.26.07-.42.18-2.25,1.45-.37.26-.86.59-1.17.79h4.77l.64-.62c.11-.11.26-.26.35-.26.11,0,.24.13.33.2l.95.75c.13.11.24.22.24.35,0,.11-.09.2-.22.31ZM69.42,87.84c-.31.33-2.07,2.29-2.4,2.64h5.9c.24-.33,1.28-1.91,1.63-2.64h-5.13ZM77.3,104.5c-.75.15-5.02.15-6.29.15-2.42,0-2.6-.46-2.6-2.55,0-3.61,0-3.76-.18-4.53l2.07.66c.13.04.35.18.35.31,0,.11-.09.2-.18.26-.07.07-.42.33-.48.4,0,.29-.04,3.23,0,3.59.04.4.48.42,1.01.42.99-.02,4.45.02,4.93-.15.26-.09.51-.26.66-.66.26-.68.55-1.96.66-2.49h.15c.13.73.42,2.38.84,2.75.35.33.48.46.48.73s-.24.9-1.43,1.12ZM74.22,100.93c-.59,0-.7-.26-1.23-1.54-.13-.31-.51-1.19-1.17-1.76l.09-.13c2.88.81,3.15,1.96,3.15,2.29,0,.51-.2,1.14-.84,1.14ZM81.9,102.71c-.62,0-.68-.15-1.3-1.54-.44-1.01-.75-1.67-1.52-2.44l.02-.04c1.19.2,3.72,1.52,3.72,3.06,0,.59-.42.97-.92.97Z"/>
        <path class="cls-2" d="M101.02,102.6c-.46,0-.7-.37-.9-.7-1.76-2.9-2.97-4.36-4.93-5.81-3.92,4.93-7.66,6.31-9.73,6.73l-.02-.18c5.1-2.24,10.47-8.98,11.68-13.07-.84.11-4.49.79-5.68,1.25-.2.09-1.01.53-1.19.53-.33,0-1.54-1.08-1.54-2.22,0-.44.09-.73.2-.95.84,1.32,1.21,1.34,1.65,1.34.62,0,5.39-.46,6.29-.99.15-.09.84-.62,1.01-.62.24,0,1.87,1.39,1.87,1.76,0,.24-.15.29-.86.55-.15.07-.18.11-.46.64-.97,1.87-1.52,2.95-2.93,4.84,2.64,1.17,6.29,3.78,6.29,5.85,0,.59-.24,1.03-.77,1.03Z"/>
        <path class="cls-2" d="M106.72,100.8c-.13,0-.86,0-.86-.88,0-.68.29-.88,1.43-1.67.88-.62,1.65-1.17,3.01-3.46-.2,2.71-2.09,6.01-3.59,6.01ZM121.95,93.16c-.33,0-1.8-.29-2.02-.31-.37-.04-1.72-.13-3.19-.13-.9,0-1.47.02-1.87.04-.04,2.02-.07,4.82.04,6.84,0,.18.09,1.61.09,1.63,0,.26-.07,2.6-1.14,2.6-.42,0-.55-.29-1.06-1.47-.15-.35-.53-.68-2.22-1.91l.02-.11c1.96.44,2.22.51,2.62.51.29,0,.31-.13.33-.55.09-1.47.11-2.09.07-7.42-.4.04-4.14.53-4.82.9-.44.24-.59.24-.7.24-.88,0-1.87-1.43-1.87-2.31,0-.29.04-.57.11-.9.33.53.77,1.03,1.32,1.34.15.09.35.15.92.15.04,0,4.36-.31,5.02-.35-.02-2.93-.04-3.26-.2-3.74-.22-.62-.95-.81-1.87-1.06.33-.22.84-.57,1.41-.57.86,0,2.6.81,2.6,1.41,0,.11-.26.73-.33.86-.22.55-.29,2.31-.31,2.99.62-.02,4.36-.33,4.64-.4.13-.02.68-.2.77-.2.33,0,2.09.46,2.09,1.41,0,.13-.02.51-.44.51ZM121.49,100.42c-.4,0-.51-.18-1.56-1.8-1.56-2.35-2.6-3.19-3.26-3.72,1.14.13,2.24.75,3.67,1.83.51.37,1.89,1.41,1.89,2.62,0,.68-.44,1.08-.75,1.08ZM121.47,90.24c-1.17,0-2.09-.92-2.09-2.07s.92-2.09,2.09-2.09,2.07.92,2.07,2.09-.92,2.07-2.07,2.07ZM121.47,86.87c-.7,0-1.28.57-1.28,1.28s.57,1.28,1.28,1.28,1.28-.57,1.28-1.28-.57-1.28-1.28-1.28Z"/>
        <path class="cls-2" d="M141.6,95.91c-.2,0-.73-.04-.77-.04-.79-.07-1.01-.09-2.49-.09-6.71,0-8.69.13-9.68.4-.07.02-.77.2-.84.2-.57,0-1.76-1.41-1.76-2.42,0-.13.02-.55.26-1.06.75,1.67,1.43,1.67,3.72,1.67,1.52,0,8.67-.02,9.68-.26.13-.02.77-.2.9-.2s2.33.24,2.33,1.1c0,.68-1.1.7-1.36.7Z"/>
        <path class="cls-2" d="M148.44,94.09c-.46,0-.68-.42-.84-.77-.68-1.54-1.19-2.29-2.27-3.54,3.06.9,3.94,2.31,3.94,3.28,0,.59-.35,1.03-.84,1.03ZM160.05,91.01c-.26.2-.35.4-.88,1.58-2.88,6.42-6.16,9.29-11.55,11.16l-.09-.22c8.45-4.36,10.58-12.85,10.58-13.18,0-.42-.4-.88-1.36-1.43.24-.11.42-.2.95-.2.59,0,.99.09,2.16,1.06.35.29.51.48.51.73,0,.2-.11.35-.31.51ZM153.06,92.88c-.4,0-.57-.29-.73-.73-.53-1.47-.77-2.18-1.83-3.54,2.35.81,3.48,2.18,3.48,3.17,0,.46-.22,1.1-.92,1.1Z"/>
        <path class="cls-2" d="M164.22,101.48c2.9-1.96,6.78-5.46,8.54-8.82-2.62.26-4.64.79-5.19,1.01-.31.13-.48.2-.66.2-.57,0-2-.84-2-2.31,0-.24.02-.42.07-.77.84,1.08,1.14,1.45,2.6,1.45.42,0,4.31-.37,5.68-.48-.02-2.9-.04-3.3-.26-3.85-.2-.48-.62-.64-1.72-1.06.26-.2.73-.51,1.34-.51,1.08,0,2.46.84,2.46,1.25,0,.11-.07.24-.26.68-.31.64-.33,1.74-.35,3.34,2.22-.22,2.46-.24,2.84-.33.18-.04.92-.29,1.1-.29.4,0,2.09.44,2.09,1.17,0,.35-.22.53-.51.53-.26,0-1.47-.15-1.72-.18-.75-.04-1.36-.07-1.8-.07-.88,0-1.69.04-2,.07v3.1c0,.81.13,4.44.13,5.19,0,2.62-.88,3.28-1.3,3.28-.35,0-.46-.24-.79-1.03-.4-.92-1.83-1.91-2.4-2.29l.09-.18c.53.18,2.4.66,2.57.66.35,0,.35-.15.4-.77.11-2,.15-4.18.13-6.18-1.14,1.89-4.29,5.7-8.98,7.35l-.09-.18Z"/>
        <path class="cls-2" d="M198.54,90.55c-.57.09-.77.24-1.58.79-1.39.95-3.17,2.16-4.25,2.68-.13.42-.66,2.35-.77,2.73-1.54,5.3-4.2,6.8-5.3,7.42l-.07-.13c3.39-3.59,4.55-9.29,4.55-10.56,0-.64-.37-.9-1.52-1.32.55-.24.77-.35,1.12-.35.81,0,2.18.51,2.18,1.1,0,.13-.02.33-.04.44,2.2-1.74,3.67-3.56,3.67-3.85,0-.07-.02-.13-.31-.13-1.14,0-7.79.75-9.33,1.25-.2.07-1.01.46-1.19.46-.22,0-1.96-.9-1.96-2.11,0-.37.04-.7.15-1.06.81,1.36,1.76,1.36,2.27,1.36.97,0,9.31-.84,10.3-1.03.18-.02.92-.35,1.08-.35.35,0,2.05,1.78,2.05,2.16s-.09.37-1.06.51Z"/>
        <path class="cls-2" d="M208.26,95.01c-.31,0-.51-.15-1.06-.55-2.11-1.47-3.19-1.85-4.18-2.18.59-.09,1.1-.15,1.87-.15,2.66,0,3.96,1.01,3.96,2.09,0,.51-.24.79-.59.79ZM210.02,90.19c-.24,0-.48-.18-.79-.46-2.13-1.94-3.37-2.31-4-2.51.48-.07.86-.11,1.39-.11,2.82,0,4.09,1.25,4.09,2.24,0,.33-.15.84-.68.84ZM209.51,101.68c-.84.62-.92.7-1.5,1.28-.15.18-.37.33-.57.33-.46,0-2.13-1.21-2.13-2.97,0-.18.02-.31.07-.51.44.57,1.41,1.28,1.74,1.28,1.41,0,8.29-5.59,11.86-10.12l.13.09c-.75,1.89-3.28,6.09-9.59,10.63Z"/>
        <path class="cls-2" d="M236.03,102.6c-.46,0-.7-.37-.9-.7-1.76-2.9-2.97-4.36-4.93-5.81-3.92,4.93-7.66,6.31-9.73,6.73l-.02-.18c5.1-2.24,10.47-8.98,11.68-13.07-.84.11-4.49.79-5.68,1.25-.2.09-1.01.53-1.19.53-.33,0-1.54-1.08-1.54-2.22,0-.44.09-.73.2-.95.84,1.32,1.21,1.34,1.65,1.34.62,0,5.39-.46,6.29-.99.15-.09.84-.62,1.01-.62.24,0,1.87,1.39,1.87,1.76,0,.24-.15.29-.86.55-.15.07-.18.11-.46.64-.97,1.87-1.52,2.95-2.93,4.84,2.64,1.17,6.29,3.78,6.29,5.85,0,.59-.24,1.03-.77,1.03Z"/>
        <path class="cls-2" d="M249.9,104.78v-.18c.68-.13,2.49-.51,4.53-2.31,1.14-1.01,1.74-2.16,1.74-3.74,0-2.86-2.11-3.74-3.32-4.03-.33.81-2.62,4.18-4.2,5.5.07.11.13.26.2.42.37.79.44.9.44,1.12,0,.42-.24.9-.68.9-.53,0-.9-.59-1.23-1.39-1.85,1.39-3.56,2.13-4.31,2.13-.68,0-.9-.37-1.23-.95-.04-.09-.64-.86-.7-.95-.15-.22-.2-.48-.2-.73,0-1.69,1.96-4.4,5.59-5.99.04-.64.11-1.65.37-3.3-1.1.2-1.8.31-2.64.31-.9,0-2.09-.18-2.6-1.47.29.11,1.01.4,2.4.4.9,0,2.05-.22,3.06-.42.04-.18.18-.88.22-1.06s.22-1.01.22-1.54c0-.92-.57-1.28-1.3-1.69.18-.13.31-.22.95-.22,1.32,0,2.4.95,2.4,1.41,0,.24-.07.35-.53,1.3-.13.24-.37.88-.55,1.47,1.5-.4,1.87-.57,2.86-1.03.22-.09.37-.18.62-.18.51,0,1.36.48,1.36.86,0,.31-.09.33-1.01.64-1.03.35-3.1.77-4.18.99-.35,1.45-.42,2.51-.46,3.08,1.52-.48,2.75-.55,3.59-.57-.04-.31-.11-.48-.53-1.23,1.12-.13,1.98.66,2.18,1.34,2.33.37,5.08,1.8,5.08,4.97,0,3.54-3.65,6.05-8.12,6.12ZM246.49,95.43c-3.26,1.78-4.31,4.58-4.31,5.46,0,.68.33,1.1.99,1.1.57,0,2.2-.53,3.89-1.89-.24-.9-.64-2.49-.57-4.66ZM247.68,94.9c0,2.16.37,3.41.57,4.05,1.69-1.8,2.79-4.05,2.97-4.64-1.45-.04-2.64.26-3.54.59Z"/>
        <path class="cls-2" d="M280.04,100.98c-.97,0-4.36-2.44-6.29-4.14-1.32-1.14-3.34-3.06-4.69-4.18-.2-.18-.51-.48-1.08-.48-.88,0-2.02,1.3-2.64,2-.2.22-2.09,2.4-2.33,2.66-.2.2-.46.24-.55.24-.57,0-2.02-.68-2.02-1.85,0-.13.02-.29.04-.42.2.18.44.37,1.12.37.84,0,2.18-1.19,2.95-1.94,1.03-1.01,2.35-2.29,3.43-2.29.79,0,1.34.42,2.02,1.03,4.82,4.29,5.52,4.64,9.17,6.51.75.37,1.5.95,1.5,1.72,0,.33-.13.75-.64.75ZM275.99,92.24q-.24,0-1.23-.95c-1.03-1.01-1.94-1.45-2.64-1.78.51-.02,4.4-.07,4.4,2,0,.33-.11.73-.53.73ZM278.52,90.13c-.24,0-.62-.31-1.25-.84-1.17-.95-1.65-1.19-2.82-1.74,1.65-.09,4.55.26,4.55,1.91,0,.04,0,.66-.48.66Z"/>
        <path class="cls-2" d="M291.78,103.04l-.02-.18c4.71-1.67,6.91-4.77,6.91-8.12,0-3.72-2.99-5.92-6.82-5.92-.55,0-.66.02-.9.13,1.19.64,1.52,1.45,1.52,1.76,0,.24-.07.4-.75,1.83-1.41,3.01-3.48,7.44-4.97,8.67-.15.11-.42.24-.7.24-.51,0-.7-.29-1.36-1.21-.15-.22-1.03-1.03-1.19-1.23-.24-.35-.62-1.14-.62-2.24,0-4.73,4-8.62,9.37-8.62,4.27,0,8.14,2.49,8.14,6.91s-3.56,7.55-8.6,7.99ZM290.04,89.09c-2.42.4-5.79,3.52-5.79,7.57,0,1.5.86,3.15,1.72,3.15.59,0,1.45-1.56,1.83-2.31,2.2-4.42,2.93-5.85,2.93-7,0-.55-.26-1.01-.68-1.41Z"/>
        <path class="cls-2" d="M310.89,103.53h-8.65v-.59c.44-1.39,1.47-2.93,3.23-4.93,3.23-3.74,4.33-5,4.33-7.2,0-1.65-1.06-3.01-2.93-3.01-1.54,0-2.46.92-2.46,1.72,0,.07,0,.35.22.68.29.44.46.68.46,1.1,0,.66-.53,1.23-1.19,1.23-.77,0-1.25-.73-1.25-1.54,0-1.61,1.56-3.94,4.73-3.94,2.73,0,4.4,1.72,4.4,4.09,0,2.22-1.28,3.43-3.26,5.13-.75.62-3.65,3.1-4.75,5.52h3.04c3.08,0,3.81-1.19,4.47-3.01l.66.24-1.06,4.51Z"/>
        <path class="cls-2" d="M320.41,87.05h.9v11.18h2.49v.7h-2.49v2.55c0,.97.48,1.34,1.54,1.34h.35v.7h-5.59v-.7h.35c1.03,0,1.54-.35,1.54-1.34v-2.55h-5.92v-.77l6.82-11.11ZM319.51,89.95l-5.08,8.27h5.08v-8.27Z"/>
        <path class="cls-2" d="M325.1,87.46h6.18c3.04,0,6.27.97,6.27,4.18,0,2.27-1.72,4.27-5.7,4.27h-2.68v5.39c0,.97.62,1.52,1.56,1.52h.7v.7h-6.34v-.7h.77c.92,0,1.56-.51,1.56-1.52v-11.6c0-.99-.62-1.52-1.56-1.52h-.77v-.73ZM329.17,95.21h2.24c2.4,0,4.05-1.14,4.05-3.52,0-2.22-1.61-3.5-3.79-3.5h-.95c-.95,0-1.56.53-1.56,1.52v5.5Z"/>
        <path class="cls-2" d="M338.32,102.82h.42c.59,0,1.1-.42,1.1-1.32v-12.39c0-.46-.18-.81-.68-.81-.04,0-.4,0-.73.09l-.11-.4,3.08-.92v14.43c0,.88.46,1.32,1.1,1.32h.42v.7h-4.6v-.7Z"/>
        <path class="cls-2" d="M351.47,103.53v-1.39c-.7.66-1.89,1.8-3.59,1.8-1.8,0-3.1-1.39-3.1-3.41v-5.76c0-.95-.33-.95-.77-.95-.26,0-.4.02-.53.07l-.11-.44,2.97-.75v7.7c0,1.83,1.08,2.6,2.13,2.6.22,0,1.72-.09,2.99-1.74v-6.49c0-.77-.35-.95-.79-.95-.07,0-.37,0-.79.11l-.15-.44,3.3-.79v8.8c0,.88.46,1.32,1.1,1.32h.42v.7h-3.08Z"/>
        <path class="cls-2" d="M363.37,95.94l-.53.26c-1.25-2.27-3.04-2.9-3.74-2.9-.79,0-1.89.57-1.89,1.78,0,.9.59,1.41,2.82,2.2,2.53.9,3.85,1.69,3.85,3.48,0,1.47-1.03,3.19-3.34,3.19-.64,0-.88-.09-1.78-.37-.15-.04-.46-.04-.53-.04-.2,0-.81,0-1.5.42l-1.32-3.45.68-.31c1.41,2.55,3.39,3.17,4.42,3.17,1.14,0,1.91-.97,1.91-2s-.64-1.52-3.17-2.4c-2.35-.81-3.5-1.61-3.5-3.28,0-1.52,1.06-2.97,2.97-2.97.59,0,.95.09,1.83.42.09.04.2.07.31.07.42,0,.68-.15,1.12-.48l1.39,3.23Z"/>
        <path class="cls-2" d="M51.13,134.78v-.18c.68-.13,2.49-.51,4.53-2.31,1.14-1.01,1.74-2.16,1.74-3.74,0-2.86-2.11-3.74-3.32-4.03-.33.81-2.62,4.18-4.2,5.5.07.11.13.26.2.42.37.79.44.9.44,1.12,0,.42-.24.9-.68.9-.53,0-.9-.59-1.23-1.39-1.85,1.39-3.56,2.13-4.31,2.13-.68,0-.9-.37-1.23-.95-.04-.09-.64-.86-.7-.95-.15-.22-.2-.48-.2-.73,0-1.69,1.96-4.4,5.59-5.99.04-.64.11-1.65.37-3.3-1.1.2-1.8.31-2.64.31-.9,0-2.09-.18-2.6-1.47.29.11,1.01.4,2.4.4.9,0,2.05-.22,3.06-.42.04-.18.18-.88.22-1.06s.22-1.01.22-1.54c0-.92-.57-1.28-1.3-1.69.18-.13.31-.22.95-.22,1.32,0,2.4.95,2.4,1.41,0,.24-.07.35-.53,1.3-.13.24-.37.88-.55,1.47,1.5-.4,1.87-.57,2.86-1.03.22-.09.37-.18.62-.18.51,0,1.36.48,1.36.86,0,.31-.09.33-1.01.64-1.03.35-3.1.77-4.18.99-.35,1.45-.42,2.51-.46,3.08,1.52-.48,2.75-.55,3.59-.57-.04-.31-.11-.48-.53-1.23,1.12-.13,1.98.66,2.18,1.34,2.33.37,5.08,1.8,5.08,4.97,0,3.54-3.65,6.05-8.12,6.12ZM47.72,125.43c-3.26,1.78-4.31,4.58-4.31,5.46,0,.68.33,1.1.99,1.1.57,0,2.2-.53,3.89-1.89-.24-.9-.64-2.49-.57-4.66ZM48.91,124.9c0,2.16.37,3.41.57,4.05,1.69-1.8,2.79-4.05,2.97-4.64-1.45-.04-2.64.26-3.54.59Z"/>
        <path class="cls-2" d="M81.26,130.98c-.97,0-4.36-2.44-6.29-4.14-1.32-1.14-3.34-3.06-4.69-4.18-.2-.18-.51-.48-1.08-.48-.88,0-2.02,1.3-2.64,2-.2.22-2.09,2.4-2.33,2.66-.2.2-.46.24-.55.24-.57,0-2.02-.68-2.02-1.85,0-.13.02-.29.04-.42.2.18.44.37,1.12.37.84,0,2.18-1.19,2.95-1.94,1.03-1.01,2.35-2.29,3.43-2.29.79,0,1.34.42,2.02,1.03,4.82,4.29,5.52,4.64,9.17,6.51.75.37,1.5.95,1.5,1.72,0,.33-.13.75-.64.75ZM77.21,122.24q-.24,0-1.23-.95c-1.03-1.01-1.94-1.45-2.64-1.78.51-.02,4.4-.07,4.4,2,0,.33-.11.73-.53.73ZM79.75,120.13c-.24,0-.62-.31-1.25-.84-1.17-.95-1.65-1.19-2.82-1.74,1.65-.09,4.55.26,4.55,1.91,0,.04,0,.66-.48.66Z"/>
        <path class="cls-2" d="M93.01,133.04l-.02-.18c4.71-1.67,6.91-4.77,6.91-8.12,0-3.72-2.99-5.92-6.82-5.92-.55,0-.66.02-.9.13,1.19.64,1.52,1.45,1.52,1.76,0,.24-.07.4-.75,1.83-1.41,3.01-3.48,7.44-4.97,8.67-.15.11-.42.24-.7.24-.51,0-.7-.29-1.36-1.21-.15-.22-1.03-1.03-1.19-1.23-.24-.35-.62-1.14-.62-2.24,0-4.73,4-8.62,9.37-8.62,4.27,0,8.14,2.49,8.14,6.91s-3.56,7.55-8.6,7.99ZM91.27,119.09c-2.42.4-5.79,3.52-5.79,7.57,0,1.5.86,3.15,1.72,3.15.59,0,1.45-1.56,1.83-2.31,2.2-4.42,2.93-5.85,2.93-7,0-.55-.26-1.01-.68-1.41Z"/>
        <path class="cls-2" d="M118.95,120.55c-.57.09-.77.24-1.58.79-1.39.95-3.17,2.16-4.25,2.68-.13.42-.66,2.35-.77,2.73-1.54,5.3-4.2,6.8-5.3,7.42l-.07-.13c3.39-3.59,4.55-9.29,4.55-10.56,0-.64-.37-.9-1.52-1.32.55-.24.77-.35,1.12-.35.81,0,2.18.51,2.18,1.1,0,.13-.02.33-.04.44,2.2-1.74,3.67-3.56,3.67-3.85,0-.07-.02-.13-.31-.13-1.14,0-7.79.75-9.33,1.25-.2.07-1.01.46-1.19.46-.22,0-1.96-.9-1.96-2.11,0-.37.04-.7.15-1.06.81,1.36,1.76,1.36,2.27,1.36.97,0,9.31-.84,10.3-1.03.18-.02.92-.35,1.08-.35.35,0,2.05,1.78,2.05,2.16s-.09.37-1.06.51Z"/>
        <path class="cls-2" d="M124.38,130.8c-.13,0-.86,0-.86-.88,0-.68.29-.88,1.43-1.67.88-.62,1.65-1.17,3.01-3.46-.2,2.71-2.09,6.01-3.59,6.01ZM139.61,123.16c-.33,0-1.8-.29-2.02-.31-.37-.04-1.72-.13-3.19-.13-.9,0-1.47.02-1.87.04-.04,2.02-.07,4.82.04,6.84,0,.18.09,1.61.09,1.63,0,.26-.07,2.6-1.14,2.6-.42,0-.55-.29-1.06-1.47-.15-.35-.53-.68-2.22-1.91l.02-.11c1.96.44,2.22.51,2.62.51.29,0,.31-.13.33-.55.09-1.47.11-2.09.07-7.42-.4.04-4.14.53-4.82.9-.44.24-.59.24-.7.24-.88,0-1.87-1.43-1.87-2.31,0-.29.04-.57.11-.9.33.53.77,1.03,1.32,1.34.15.09.35.15.92.15.04,0,4.36-.31,5.02-.35-.02-2.93-.04-3.26-.2-3.74-.22-.62-.95-.81-1.87-1.06.33-.22.84-.57,1.41-.57.86,0,2.6.81,2.6,1.41,0,.11-.26.73-.33.86-.22.55-.29,2.31-.31,2.99.62-.02,4.36-.33,4.64-.4.13-.02.68-.2.77-.2.33,0,2.09.46,2.09,1.41,0,.13-.02.51-.44.51ZM139.14,130.42c-.4,0-.51-.18-1.56-1.8-1.56-2.35-2.6-3.19-3.26-3.72,1.14.13,2.24.75,3.67,1.83.51.37,1.89,1.41,1.89,2.62,0,.68-.44,1.08-.75,1.08ZM139.12,120.24c-1.17,0-2.09-.92-2.09-2.07s.92-2.09,2.09-2.09,2.07.92,2.07,2.09-.92,2.07-2.07,2.07ZM139.12,116.87c-.7,0-1.28.57-1.28,1.28s.57,1.28,1.28,1.28,1.28-.57,1.28-1.28-.57-1.28-1.28-1.28Z"/>
        <path class="cls-2" d="M159.33,121.14c-.51.35-.53.37-.86,2.09-.33,1.76-.75,4.05-1.03,5.24-.02.07-.04.18-.04.24,0,.15.04.2.42.46.53.37.68.51.68.81,0,.53-.51.53-.59.53-.11,0-.26-.02-.42-.04-1.06-.13-1.5-.2-3.92-.2-2.66,0-4.29.15-5.08.24,0,.42-.04,1.23-.59,1.23-.77,0-1.14-1.54-1.14-2.13,0-.15.09-.84.09-.97,0-.57-.18-6.07-.66-7.85-.22-.77-.59-.99-1.5-1.32.26-.15.64-.37,1.12-.37.57,0,.9.18,1.96.81.29.18.51.18.7.18.24,0,1.34-.11,1.56-.13,1.03-.07,5.54-.33,6.45-.48.7-.11.84-.24,1.14-.51.13-.13.22-.15.29-.15.26,0,1.94,1.43,1.94,1.78,0,.18-.13.31-.51.55ZM156.6,120.55c-.64,0-3.45.15-6.05.42-.22.02-1.3.18-1.56.18-.15,0-.86-.26-1.03-.26-.07,0-.09.02-.09.2,0,.42.48,8.29.48,8.34.7,0,6.84-.33,7.75-.4.09-.73.92-6.71.92-7.99,0-.24-.09-.48-.42-.48Z"/>
        <path class="cls-2" d="M169.02,125.01c-.31,0-.51-.15-1.06-.55-2.11-1.47-3.19-1.85-4.18-2.18.59-.09,1.1-.15,1.87-.15,2.66,0,3.96,1.01,3.96,2.09,0,.51-.24.79-.59.79ZM170.78,120.19c-.24,0-.48-.18-.79-.46-2.13-1.94-3.37-2.31-4-2.51.48-.07.86-.11,1.39-.11,2.82,0,4.09,1.25,4.09,2.24,0,.33-.15.84-.68.84ZM170.27,131.68c-.84.62-.92.7-1.5,1.28-.15.18-.37.33-.57.33-.46,0-2.13-1.21-2.13-2.97,0-.18.02-.31.07-.51.44.57,1.41,1.28,1.74,1.28,1.41,0,8.29-5.59,11.86-10.12l.13.09c-.75,1.89-3.28,6.09-9.59,10.63Z"/>
        <path class="cls-2" d="M194.31,121.45c-.62.2-.77.31-1.23.86-.48.62-1.19,1.45-2.24,2.64.68.4.75.44.75.64,0,.11-.11.55-.13.66-.04.29-.13,1.3-.13,2.66,0,.68.11,3.76.11,4.4,0,.15,0,1.17-.68,1.17-.55,0-.99-.92-.99-1.43,0-.22.13-1.17.15-1.36.09-1.06.09-3.06.09-3.56s0-1.89-.13-2.16c-1.85,1.83-3.98,3.63-7.15,4.75l-.09-.22c4.88-2.99,9.11-8.78,9.11-9.26,0-.02-.02-.09-.13-.09-.13,0-3.15.84-4.25,1.3-.18.07-.86.51-1.03.51-.62,0-1.67-1.39-1.67-2.22,0-.44.07-.62.13-.79.81,1.03,1.28,1.14,1.76,1.14,1.01,0,5-.48,6.03-1.3.37-.29.42-.33.55-.33.33,0,1.83,1.06,1.83,1.5,0,.22-.13.35-.64.51ZM191.97,118.5c-.31,0-.33,0-1.56-1.1-1.32-1.19-2.42-1.56-3.1-1.8.37-.07.59-.11,1.14-.11,1.69,0,3.34.68,3.87,1.19.29.29.37.79.37,1.01,0,.42-.2.81-.73.81ZM197.87,129.65c-.51,0-.77-.37-.99-.68-1.52-2.16-3.56-3.48-5.06-4.4,3.65.37,6.73,2.64,6.73,4.27,0,.11-.02.81-.68.81Z"/>
        <path class="cls-2" d="M217.05,122c-.44.11-.57.24-1.06.68-4.14,3.94-4.73,4.31-5.72,4.95,1.58,1.25,2.27,2.4,2.27,3.28,0,.53-.29,1.03-.86,1.03-.48,0-.7-.35-1.3-1.34-.24-.4-1.8-2.88-5.52-5.41,1.01.2,2.75.55,5,2.13,1.28-1.19,3.98-4.4,5.13-6.25-4,.26-4.47.31-8.56.84-.48.07-2.62.33-3.59.88-.4.24-.44.24-.53.24-.46,0-1.92-1.39-1.92-2.57,0-.4.09-.68.2-1.01.77,1.41,1.12,1.47,2.13,1.47.86,0,11.16-.66,11.84-.79.46-.09.66-.24,1.01-.48.29-.2.42-.24.53-.24.37,0,1.89,1.78,1.89,2.07s-.09.29-.95.53Z"/>
        <path class="cls-2" d="M59.38,153.25c-.18,0-2.24-.33-2.68-.37-1.23-.13-1.96-.13-2.53-.13,0,4.75-.22,8.62-5.1,11.66l-.15-.15c3.63-3.67,3.7-6.95,3.78-11.46-.57.02-2.31.09-4.6.46,0,.68.09,3.7.09,4.31s0,1.28-.62,1.28-.92-1.17-.92-1.54c0-.24.13-1.25.13-1.45,0-.37.02-2.02.02-2.35-.84.18-2.35.48-2.99.77-.44.2-.48.22-.59.22-.77,0-1.67-1.39-1.67-2.22,0-.33.04-.62.18-.9.86,1.14.99,1.32,1.91,1.32.33,0,2.66-.29,3.17-.33,0-.75-.04-3.21-.33-3.78-.2-.4-.59-.53-1.52-.79.48-.33.84-.53,1.34-.53.57,0,2.11.57,2.11,1.14,0,.13-.18.66-.2.77-.18.73-.15,1.54-.13,3.06,1.54-.15,3.34-.35,4.64-.44,0-3.26,0-3.63-.13-4.05-.2-.66-1.43-.86-1.78-.92.55-.33.9-.55,1.39-.55.64,0,2.44.44,2.44,1.19,0,.15-.2.86-.22,1.01-.15.84-.2,2.13-.22,3.26.9-.02,2.24-.09,2.73-.18.15-.02.77-.26.9-.26.35,0,1.14.26,1.83.75.24.18.33.31.33.62,0,.62-.37.62-.59.62Z"/>
        <path class="cls-2" d="M67.28,151.6c-.37,0-.64-.26-1.34-.97-1.54-1.56-2.77-2.13-3.61-2.51,2.64-.18,5.76.77,5.76,2.6,0,.48-.37.88-.81.88ZM69.19,159.15c-.46.35-2.53,1.85-2.9,2.22-.11.11-.59.66-.7.77-.09.09-.26.13-.37.13-.77,0-2.22-1.85-2.22-2.88,0-.4.13-.73.22-.97.51.99,1.14,1.45,1.61,1.45.73,0,4.14-2.53,5.08-3.26,3.54-2.71,5.24-4.6,7.02-6.64l.11.07c-.53,1.61-2.99,5.39-7.83,9.11Z"/>
        <path class="cls-2" d="M95.38,155.52c-1.61,0-2.62,0-5.83.59.22,1.03,1.45,6.75,1.45,7.11,0,.68-.42.97-.7.97-.53,0-1.19-.99-1.23-2.24-.04-.92-.09-1.91-.75-5.59-2.82.57-4.47,1.14-4.73,1.25-1.19.55-1.21.55-1.39.55-.4,0-2.16-.88-2.16-2.29,0-.18.04-.31.07-.51.51.73,1.34,1.14,2.02,1.14.57,0,5.06-.95,6.01-1.1-.07-.35-.48-2.51-.75-3.76-1.52.35-2.55.73-3.28,1.03-.4.18-.44.2-.55.2-.15,0-.79-.13-1.56-1.12-.37-.48-.37-.86-.35-1.3.84.79,1.72.84,2.16.84.73,0,3.1-.48,3.41-.55-.68-3.37-.7-3.54-2.62-3.89.62-.44.95-.64,1.43-.64.04,0,2.38.15,2.38,1.01,0,.15-.15.79-.15.95,0,.31.09,1.21.26,2.31.44-.11,2.42-.51,2.79-.64.18-.07.92-.42,1.1-.42.15,0,1.3.18,1.58.44.11.11.2.26.2.46,0,.29-.22.59-.84.59-1.58,0-3.15.18-4.69.46.31,1.91.44,2.71.68,3.78.4-.07,3.34-.68,3.45-.73.26-.11,1.08-.44,1.36-.51.13-.02.24-.04.4-.04.77,0,1.74.29,2,.48.13.11.22.31.22.53,0,.62-.35.62-1.41.62Z"/>
        <path class="cls-2" d="M113.88,161.39c-.15,0-.4-.09-.97-.26-1.21-.4-2.31-.37-2.95-.37-1.47,0-5.76.2-7.9.97-.2.07-1.01.46-1.19.46-.04,0-1.74-.51-1.74-2.22,0-.15.02-.26.04-.46.51.59,1.03,1.14,1.83,1.14.04,0,1.56-.18,1.69-.2.77-.09,4.18-.42,4.86-.48.11-.42.59-2.64,1.03-6.14-1.17.13-2.31.35-3.43.64-.26.07-1.54.48-1.58.48-.37,0-1.39-.95-1.39-1.8,0-.2.04-.31.11-.53.24.37.64.95,1.58.95.04,0,3.76-.35,4.49-.66.13-.07.59-.51.73-.51.31,0,1.67,1.12,1.67,1.5,0,.18-.07.22-.59.55-.24.13-.24.18-.37.66-.18.75-1.03,4.58-1.1,4.77.48-.04,2.57-.07,2.99-.13.18-.02.88-.18,1.03-.18.31,0,1.74.68,1.74,1.3,0,.04,0,.53-.59.53Z"/>
        <path class="cls-2" d="M132.16,155.91c-.2,0-.73-.04-.77-.04-.79-.07-1.01-.09-2.49-.09-6.71,0-8.69.13-9.68.4-.07.02-.77.2-.84.2-.57,0-1.76-1.41-1.76-2.42,0-.13.02-.55.26-1.06.75,1.67,1.43,1.67,3.72,1.67,1.52,0,8.67-.02,9.68-.26.13-.02.77-.2.9-.2s2.33.24,2.33,1.1c0,.68-1.1.7-1.36.7Z"/>
        <path class="cls-2" d="M152.11,152c-.44.11-.57.24-1.06.68-4.14,3.94-4.73,4.31-5.72,4.95,1.58,1.25,2.27,2.4,2.27,3.28,0,.53-.29,1.03-.86,1.03-.48,0-.7-.35-1.3-1.34-.24-.4-1.8-2.88-5.52-5.41,1.01.2,2.75.55,5,2.13,1.28-1.19,3.98-4.4,5.13-6.25-4,.26-4.47.31-8.56.84-.48.07-2.62.33-3.59.88-.4.24-.44.24-.53.24-.46,0-1.92-1.39-1.92-2.57,0-.4.09-.68.2-1.01.77,1.41,1.12,1.47,2.13,1.47.86,0,11.16-.66,11.84-.79.46-.09.66-.24,1.01-.48.29-.2.42-.24.53-.24.37,0,1.89,1.78,1.89,2.07s-.09.29-.95.53Z"/>
        <path class="cls-2" d="M171.51,155.91c-.2,0-.73-.04-.77-.04-.79-.07-1.01-.09-2.49-.09-6.71,0-8.69.13-9.68.4-.07.02-.77.2-.84.2-.57,0-1.76-1.41-1.76-2.42,0-.13.02-.55.26-1.06.75,1.67,1.43,1.67,3.72,1.67,1.52,0,8.67-.02,9.68-.26.13-.02.77-.2.9-.2s2.33.24,2.33,1.1c0,.68-1.1.7-1.36.7Z"/>
        <path class="cls-2" d="M186.82,157.65c-.33,0-.62-.29-.97-.66-2.02-2.24-3.17-3.04-4.69-3.61,0,.86-.04,4.69-.02,5.48,0,.57.13,3.1.13,3.61,0,.46,0,1.76-.86,1.76-.73,0-1.03-1.28-1.03-1.85,0-.33.02-.53.15-1.47.26-1.74.29-5.21.29-7.08,0-.95-.02-5.33-.2-6.03-.13-.48-.62-.7-1.76-1.1.44-.26.97-.53,1.45-.53.33,0,2.49.46,2.49,1.17,0,.18-.26.92-.31,1.1-.24.84-.29,3.37-.31,4.44,2.25.35,4.47,1.32,5.68,2.38.4.35.66.9.66,1.47,0,.73-.44.92-.7.92Z"/>
        <path class="cls-2" d="M227.94,149.75c-.35.18-2.07.66-4.55,1.25-.57,1.14-2.97,6.25-3.54,7.24-.51.86-.97,1.67-1.41,1.67-.15,0-.62-.09-.62-.84,0-.62.31-1.01.53-1.32,1.58-2.09,2.99-5,3.65-6.42-.48.11-1.14.29-1.98.29-1.3,0-2.4-.68-2.22-2,.53.75,1.25.88,2.13.88.79,0,1.69-.15,2.57-.35.51-1.25.92-2.33.92-2.79,0-.24-.13-.77-1.3-1.08.33-.29.64-.44,1.08-.44.86,0,2.2.92,2.2,1.5q0,.22-.55,1.01c-.31.44-.48.75-.81,1.39.44-.15,1.19-.42,1.65-.64.97-.44,1.08-.51,1.34-.51.29,0,1.25.31,1.25.73,0,.22-.18.35-.35.44ZM233.44,155.23c-.13,0-.37-.02-.77-.24-.75-.4-1.01-.55-1.87-.55-2.31,0-2.64,1.25-2.64,2.29,0,1.28.24,2.51.37,3.19,1.76.37,4.18,1.3,4.18,2.73,0,.33-.22.73-.62.73-.26,0-1.14-.62-1.69-1.01-.88-.62-1.28-.77-1.72-.92-.02.46-.07,1.39-.84,2.09-.9.84-2.16.92-2.66.92-1.83,0-3.41-.99-3.41-2.35,0-1.65,2-2.44,4.14-2.44.48,0,.81.04,1.14.07-.07-.77-.15-1.8-.15-2.31,0-2.42,2.33-3.37,3.85-3.65.18-.04.37-.09.37-.35,0-.29-.79-1.1-3.01-1.67.33-.11.75-.22,1.41-.22,2.73,0,4.49,2.05,4.49,3.08,0,.4-.22.64-.57.64ZM225.5,160.71c-.84,0-2.88.18-2.88,1.36,0,.92,1.41,1.17,2.16,1.17s2.44-.2,2.38-2.31c-.42-.11-.77-.22-1.65-.22Z"/>
        <path class="cls-2" d="M249.56,163.09c-.92.37-4.31.42-5.13.42-1.94,0-3.06-.11-4.29-.59-1.08-.42-2.38-1.34-2.38-3.06,0-2.73,2.95-4.71,4.18-5.5-.95-1.17-.95-1.54-1.03-5.21-.07-2.27-.44-2.44-1.83-3.06.31-.29.77-.4,1.19-.4.57,0,1.58.51,2.05.81.44.29.51.42.51.7,0,.22-.07.46-.09.53-.29.77-.42,1.23-.42,2.82,0,1.85.26,2.71.55,3.23,1.72-.92,2.29-1.14,4.22-1.91.26-.11.4-.24.4-.53,0-.22-.11-.44-.18-.62,1.28.04,2.05.97,2.05,1.8,0,.62-.15.64-1.43.86-3.96.66-9.44,3.56-9.44,6.25,0,2.27,2.99,2.46,4.25,2.46.37,0,2.79-.09,5.06-.51.55-.11.7-.13.99-.13.64,0,1.5.29,1.5.88,0,.35-.26.55-.73.75ZM252.42,152.06c-.31,0-.4-.11-1.39-1.1s-1.69-1.36-2.33-1.69c1.41-.04,4.16.55,4.16,2.16,0,.31-.11.64-.44.64ZM253.85,149.82c-.22,0-.31-.07-.97-.7-1.17-1.12-1.45-1.39-2.66-1.96.29-.04.48-.07.75-.07,1.14,0,3.34.66,3.34,2.07,0,.4-.22.66-.46.66Z"/>
      </g>
    </g>
  </g>
</svg>