<?xml version="1.0" encoding="UTF-8"?>
<svg id="_レイヤー_2" data-name="レイヤー 2" xmlns="http://www.w3.org/2000/svg" viewBox="0 0 620 200.4">
  <defs>
    <style>
      .cls-1 {
        fill: none;
        stroke: #e5da99;
        stroke-miterlimit: 10;
        stroke-width: 1.2px;
      }

      .cls-2 {
        fill: #fff;
      }

      .cls-2, .cls-3, .cls-4 {
        stroke-width: 0px;
      }

      .cls-3 {
        fill: #e5da99;
      }

      .cls-4 {
        fill: #638bc7;
      }
    </style>
  </defs>
  <g id="_レイヤー_2-2" data-name="レイヤー 2">
    <g>
      <g>
        <polygon class="cls-4" points="594.97 200.4 0 200.4 0 .4 620 .4 620 176.76 594.97 200.4"/>
        <g>
          <path class="cls-3" d="M44.96,24.47c0,1.43-.55,2.65-1.64,3.66-1.09,1.01-2.4,1.51-3.94,1.51-.9,0-1.98-.27-3.23-.82-.33-.15-.58-.23-.75-.23-.2,0-.33.23-.38.69-.02.24-.12.36-.33.36-.17,0-.25-.1-.25-.3,0-.13,0-.23.03-.3.13-1.02.2-1.96.2-2.83,0-.17-.02-.63-.05-1.4-.02-.1-.03-.23-.03-.4,0-.25.1-.38.3-.38.17,0,.28.2.35.61.43,3,1.84,4.49,4.22,4.49,1.02,0,1.8-.29,2.36-.86s.84-1.39.84-2.44c0-.93-.27-1.73-.81-2.39-.54-.66-1.47-1.31-2.79-1.96-1.58-.78-2.68-1.54-3.3-2.27s-.92-1.64-.92-2.73c0-1.38.45-2.52,1.34-3.42.89-.9,2.02-1.35,3.39-1.35.57,0,1.35.19,2.35.58.35.13.61.2.77.2.18,0,.3-.03.36-.1.06-.07.11-.24.16-.52.03-.17.12-.25.28-.25.17,0,.25.1.25.3,0,.13,0,.23-.03.3-.05.4-.08.88-.08,1.45,0,.8.04,1.43.12,1.9l.03.4c.02.18-.06.27-.23.27-.18,0-.31-.19-.38-.57-.18-.98-.62-1.8-1.3-2.46-.68-.66-1.45-.99-2.3-.99s-1.5.27-1.99.8c-.49.53-.74,1.26-.74,2.18,0,1.07.36,1.92,1.07,2.57.4.37,1.27.88,2.6,1.55,1.57.78,2.69,1.58,3.38,2.39.68.81,1.02,1.73,1.02,2.76Z"/>
          <path class="cls-3" d="M64.95,29.12c0,.15-.16.23-.47.23h-5.43c-.33,0-.5-.07-.5-.2s.39-.22,1.16-.27c.41-.03.65-.1.72-.21.07-.11.1-.49.1-1.16v-7.28h-7.53v7.08c0,.75.06,1.19.17,1.32.12.13.51.23,1.17.27.43.03.65.11.65.23,0,.15-.17.23-.5.23h-5.42c-.33,0-.5-.07-.5-.2s.17-.22.5-.25c.22-.02.44-.03.67-.05.37-.03.6-.12.7-.25.05-.08.08-.55.08-1.4v-13.18c0-.75-.04-1.19-.11-1.32-.07-.13-.34-.21-.79-.22-.52-.04-.82-.06-.91-.08-.09-.02-.14-.09-.14-.21,0-.14.11-.21.33-.21.07,0,.21,0,.42.02.42.03,1.4.05,2.95.05.85,0,1.44-.01,1.77-.04.12-.02.27-.04.45-.04.3,0,.45.08.45.25,0,.15-.27.23-.81.23s-.87.06-.98.19c-.11.12-.16.52-.16,1.19v5.77h7.53v-5.39c0-.89-.07-1.41-.2-1.57-.13-.16-.6-.23-1.4-.21-.25,0-.38-.08-.38-.23s.14-.23.42-.23h5.45c.35,0,.53.08.53.23s-.37.23-1.1.25c-.22,0-.38.02-.47.05-.17.05-.27.14-.31.27-.04.13-.06.53-.06,1.18v13.3c0,.8.04,1.27.12,1.4.17.18.64.28,1.43.28.26-.03.4.03.4.2Z"/>
          <path class="cls-3" d="M84.63,20.77c0,2.48-.75,4.58-2.24,6.3-1.49,1.72-3.32,2.57-5.49,2.57-2.3,0-4.23-.87-5.8-2.61-1.57-1.74-2.35-3.89-2.35-6.44s.75-4.73,2.26-6.39c1.51-1.66,3.44-2.49,5.79-2.49,2.22,0,4.08.87,5.58,2.6s2.25,3.88,2.25,6.45ZM81.83,20.9c0-3.06-.62-5.44-1.88-7.15-.78-1.07-1.88-1.6-3.28-1.6s-2.37.41-3.1,1.23c-1.35,1.5-2.03,3.95-2.03,7.35,0,2.69.47,4.78,1.41,6.27.94,1.49,2.26,2.23,3.96,2.23,1.58,0,2.78-.7,3.58-2.11.88-1.55,1.33-3.63,1.33-6.22Z"/>
          <path class="cls-3" d="M100.14,16.14c0,1.62-.69,2.88-2.08,3.78-.87.57-1.97.85-3.3.85-.57,0-1.21-.06-1.92-.17v7.1c0,.38.02.62.05.73.08.23.27.38.55.42.48.07.95.1,1.4.1.18,0,.27.06.27.17,0,.17-.12.25-.35.25h-5.75c-.5,0-.75-.08-.75-.25,0-.12.17-.18.52-.18.78,0,1.23-.07,1.35-.23.13-.07.21-.23.22-.5v-14.77c0-.52-.14-.83-.42-.95-.17-.07-.46-.1-.88-.1h-.42c-.25,0-.38-.07-.38-.2,0-.15.23-.22.7-.22h5.5c1.9,0,3.29.33,4.17,1,1,.75,1.5,1.81,1.5,3.17ZM97.52,16.17c0-2.52-1.05-3.77-3.15-3.77-.7,0-1.16.12-1.38.35-.1.1-.15.36-.15.78v6.69c.13.02.28.02.45.02,1.1,0,2.03-.24,2.8-.73.95-.6,1.42-1.72,1.42-3.35Z"/>
          <path class="cls-3" d="M123.79,27.37c0,.43-.02,1.15-.07,2.15h-.27c-.1,0-.34-.02-.72-.05-.38-.03-.82-.05-1.3-.05l-10.38-.08c-.28,0-.42-.08-.42-.23,0-.12.23-.19.67-.23.63-.03,1.01-.1,1.14-.21.12-.11.19-.42.19-.94v-14.05c0-.62-.06-.98-.19-1.08s-.57-.15-1.34-.15c-.32,0-.48-.09-.48-.27,0-.15.1-.23.3-.23h.23c.55.05,1.64.08,3.27.08.15,0,.44-.01.88-.04s.79-.04,1.08-.04h.28c.3,0,.45.08.45.25,0,.1-.05.16-.14.19-.09.02-.38.05-.86.06-.48.02-.77.1-.86.24-.09.14-.14.58-.14,1.31v14.75c.45.02,1.07.03,1.88.03,1.95,0,3.32-.1,4.12-.3.8-.2,1.34-.57,1.62-1.12.28-.55.45-1.29.5-2.23.02-.22.11-.32.29-.32.21,0,.3.12.29.38v2.17Z"/>
          <path class="cls-3" d="M134.23,29.13c0,.14-.1.21-.3.21h-.25c-.1-.05-1.23-.08-3.4-.08-.42,0-.83.02-1.25.05-.22.02-.55.02-1,.02-.22,0-.33-.08-.33-.23,0-.13.22-.21.65-.23.67-.02,1.06-.1,1.17-.24.12-.14.17-.62.17-1.44v-13.19c0-.82-.04-1.28-.13-1.38-.1-.17-.57-.27-1.39-.3-.32-.01-.48-.07-.48-.18,0-.13.1-.2.3-.2h3.4c.25,0,.74,0,1.46.02l.96-.02c.27,0,.4.07.4.21,0,.13-.37.21-1.11.24-.42.02-.68.09-.77.22-.09.13-.14.48-.14,1.05v13.35c0,.95.04,1.47.12,1.55.18.18.73.29,1.62.33.18,0,.28.07.28.21Z"/>
          <path class="cls-3" d="M149.13,24.47c0,1.43-.55,2.65-1.64,3.66-1.09,1.01-2.4,1.51-3.94,1.51-.9,0-1.98-.27-3.23-.82-.33-.15-.58-.23-.75-.23-.2,0-.33.23-.38.69-.02.24-.12.36-.33.36-.17,0-.25-.1-.25-.3,0-.13,0-.23.03-.3.13-1.02.2-1.96.2-2.83,0-.17-.02-.63-.05-1.4-.02-.1-.03-.23-.03-.4,0-.25.1-.38.3-.38.17,0,.28.2.35.61.43,3,1.84,4.49,4.22,4.49,1.02,0,1.8-.29,2.36-.86s.84-1.39.84-2.44c0-.93-.27-1.73-.81-2.39-.54-.66-1.47-1.31-2.79-1.96-1.58-.78-2.68-1.54-3.3-2.27s-.92-1.64-.92-2.73c0-1.38.45-2.52,1.34-3.42.89-.9,2.02-1.35,3.39-1.35.57,0,1.35.19,2.35.58.35.13.61.2.77.2.18,0,.3-.03.36-.1.06-.07.11-.24.16-.52.03-.17.12-.25.28-.25.17,0,.25.1.25.3,0,.13,0,.23-.03.3-.05.4-.08.88-.08,1.45,0,.8.04,1.43.12,1.9l.03.4c.02.18-.06.27-.23.27-.18,0-.31-.19-.38-.57-.18-.98-.62-1.8-1.3-2.46-.68-.66-1.45-.99-2.3-.99s-1.5.27-1.99.8c-.49.53-.74,1.26-.74,2.18,0,1.07.36,1.92,1.07,2.57.4.37,1.27.88,2.6,1.55,1.57.78,2.69,1.58,3.38,2.39.68.81,1.02,1.73,1.02,2.76Z"/>
          <path class="cls-3" d="M166.43,16.44c0,.22-.1.32-.3.32s-.34-.22-.42-.65c-.03-.3-.07-.6-.1-.9-.12-.6-.31-1.11-.58-1.52-.35-.55-.92-.9-1.72-1.05-.52-.1-.93-.14-1.25-.12-.78.02-1.26.04-1.43.05v15.1c0,.6.16.98.48,1.13.17.08.63.13,1.4.15.2.02.3.09.3.21,0,.14-.13.21-.4.21-.13,0-.25,0-.35-.02-1-.03-1.71-.05-2.12-.05-.55,0-1.07.01-1.55.04-.48.03-1.1.04-1.85.04-.38,0-.58-.07-.58-.2,0-.15.36-.23,1.08-.25.52,0,.85-.11,1-.33.08-.13.12-.48.12-1.03v-15c-1.65.02-2.67.1-3.08.25-1.05.38-1.67,1.41-1.85,3.07-.05.5-.17.75-.35.75-.2,0-.3-.17-.3-.52,0-.18,0-.37.03-.55l.05-.58c.05-.77.12-1.77.22-3.02h1.12l5.1.08c.6.02,1.53.02,2.8,0l4.15-.08c.03.93.14,2.32.32,4.15,0,.05,0,.11.03.19.02.08.03.12.03.14Z"/>
        </g>
        <polyline class="cls-1" points="0 34.98 169.73 34.98 201.19 .4"/>
      </g>
      <g>
        <path class="cls-2" d="M57.36,64.8c-.4.24-.57.64-.84,1.41-1.28,3.67-3.32,7.17-6.6,9.29-1.85,1.19-3.41,1.58-4.09,1.76l-.04-.18c4-2.07,8.41-6.87,9.75-13.16-1.5-.02-7.83.9-8.98,1.23-.2.07-1.19.51-1.23.51-.42,0-1.78-1.12-1.78-2.57,0-.29.11-.53.2-.7.99,1.17,1.17,1.39,2.13,1.39.62,0,8.82-.68,9.48-.97.15-.07.7-.53.84-.53.26,0,1.89,1.43,1.89,1.85,0,.26-.02.26-.73.68Z"/>
        <path class="cls-2" d="M65.75,63.53c-.2.62-.2,2.57-.2,3.32,0,.4.02,2.2.02,2.57,0,.33,0,1.61-.7,1.61-.59,0-1.01-.92-1.01-1.8,0-.22.13-1.21.15-1.41.04-.35.07-1.12.07-2.35q0-2.84-1.74-3.32c.42-.26.81-.51,1.28-.51.53,0,2.38.51,2.38,1.14,0,.09-.22.68-.24.75ZM73.49,63.11c-.04.29-.13,4.11-.15,4.91-.15,4.05-1.14,6.05-2.57,7.63-1.67,1.89-3.34,2.29-3.98,2.42l-.07-.15c4.91-3.15,5.17-7.96,5.17-13,0-3.37-.07-3.5-2.02-3.81.29-.26.75-.64,1.5-.64.79,0,2.49.51,2.49,1.1,0,.24-.33,1.32-.35,1.54Z"/>
        <path class="cls-2" d="M94.72,69.67c-.2,0-.73-.04-.77-.04-.79-.07-1.01-.09-2.49-.09-6.71,0-8.69.13-9.68.4-.07.02-.77.2-.84.2-.57,0-1.76-1.41-1.76-2.42,0-.13.02-.55.26-1.06.75,1.67,1.43,1.67,3.72,1.67,1.52,0,8.67-.02,9.68-.26.13-.02.77-.2.9-.2s2.33.24,2.33,1.1c0,.68-1.1.7-1.36.7Z"/>
        <path class="cls-2" d="M113.18,65.53c-.51.22-.7.42-1.19,1.36-2.11,4.11-4.42,6.87-7.79,8.96-1.17.73-2.66,1.5-4.31,1.87l-.04-.15c4.8-2.66,9.24-7.53,11.27-12.65-.9.09-2.4.31-3.3.44-.15.02-.59.09-.7.09-.22,0-.62-.09-1.12-.37-2.05,2.71-3.65,3.96-5.83,5.1l-.11-.18c3.61-3.3,5.74-7.26,5.74-7.96,0-.22-.04-.4-1.21-1.1.53-.18,1.01-.18,1.08-.18.88,0,2.49,1.01,2.49,1.58,0,.2-.09.31-.51.7-.22.2-.79.95-1.08,1.3.99.11,3.74-.2,4.31-.4.2-.07.95-.66,1.17-.66.24,0,1.83,1.32,1.83,1.74,0,.15-.07.22-.68.51Z"/>
        <path class="cls-2" d="M131.78,76.35c-.46,0-.7-.37-.9-.7-1.76-2.9-2.97-4.36-4.93-5.81-3.92,4.93-7.66,6.32-9.73,6.73l-.02-.18c5.1-2.25,10.47-8.98,11.68-13.07-.84.11-4.49.79-5.68,1.25-.2.09-1.01.53-1.19.53-.33,0-1.54-1.08-1.54-2.22,0-.44.09-.73.2-.95.84,1.32,1.21,1.34,1.65,1.34.62,0,5.39-.46,6.29-.99.15-.09.84-.62,1.01-.62.24,0,1.87,1.39,1.87,1.76,0,.24-.15.29-.86.55-.15.07-.18.11-.46.64-.97,1.87-1.52,2.95-2.93,4.84,2.64,1.17,6.29,3.79,6.29,5.85,0,.59-.24,1.03-.77,1.03Z"/>
        <path class="cls-2" d="M151.96,76.35c-.46,0-.7-.37-.9-.7-1.76-2.9-2.97-4.36-4.93-5.81-3.92,4.93-7.66,6.32-9.73,6.73l-.02-.18c5.1-2.25,10.47-8.98,11.68-13.07-.84.11-4.49.79-5.68,1.25-.2.09-1.01.53-1.19.53-.33,0-1.54-1.08-1.54-2.22,0-.44.09-.73.2-.95.84,1.32,1.21,1.34,1.65,1.34.62,0,5.39-.46,6.29-.99.15-.09.84-.62,1.01-.62.24,0,1.87,1.39,1.87,1.76,0,.24-.15.29-.86.55-.15.07-.18.11-.46.64-.97,1.87-1.52,2.95-2.93,4.84,2.64,1.17,6.29,3.79,6.29,5.85,0,.59-.24,1.03-.77,1.03Z"/>
        <path class="cls-2" d="M167.39,71.4c-.33,0-.62-.29-.97-.66-2.02-2.24-3.17-3.04-4.69-3.61,0,.86-.04,4.69-.02,5.48,0,.57.13,3.1.13,3.61,0,.46,0,1.76-.86,1.76-.73,0-1.03-1.28-1.03-1.85,0-.33.02-.53.15-1.47.26-1.74.29-5.21.29-7.09,0-.95-.02-5.32-.2-6.03-.13-.48-.62-.7-1.76-1.1.44-.26.97-.53,1.45-.53.33,0,2.49.46,2.49,1.17,0,.18-.26.92-.31,1.1-.24.84-.29,3.37-.31,4.45,2.25.35,4.47,1.32,5.68,2.38.4.35.66.9.66,1.47,0,.73-.44.92-.7.92Z"/>
        <path class="cls-2" d="M185.27,64.3c-.57.09-.77.24-1.58.79-1.39.95-3.17,2.16-4.25,2.68-.13.42-.66,2.35-.77,2.73-1.54,5.3-4.2,6.8-5.3,7.42l-.07-.13c3.39-3.59,4.55-9.29,4.55-10.56,0-.64-.37-.9-1.52-1.32.55-.24.77-.35,1.12-.35.81,0,2.18.51,2.18,1.1,0,.13-.02.33-.04.44,2.2-1.74,3.67-3.56,3.67-3.85,0-.07-.02-.13-.31-.13-1.14,0-7.79.75-9.33,1.25-.2.07-1.01.46-1.19.46-.22,0-1.96-.9-1.96-2.11,0-.37.04-.7.15-1.06.81,1.36,1.76,1.36,2.27,1.36.97,0,9.31-.84,10.3-1.03.18-.02.92-.35,1.08-.35.35,0,2.05,1.78,2.05,2.16s-.09.37-1.06.51Z"/>
        <path class="cls-2" d="M55.9,101.4c-.33,0-.62-.29-.97-.66-2.02-2.24-3.17-3.04-4.69-3.61,0,.86-.04,4.69-.02,5.48,0,.57.13,3.1.13,3.61,0,.46,0,1.76-.86,1.76-.73,0-1.03-1.28-1.03-1.85,0-.33.02-.53.15-1.47.26-1.74.29-5.21.29-7.09,0-.95-.02-5.32-.2-6.03-.13-.48-.62-.7-1.76-1.1.44-.26.97-.53,1.45-.53.33,0,2.49.46,2.49,1.17,0,.18-.26.92-.31,1.1-.24.84-.29,3.37-.31,4.45,2.25.35,4.47,1.32,5.68,2.38.4.35.66.9.66,1.47,0,.73-.44.92-.7.92Z"/>
        <path class="cls-2" d="M73.42,98.65c-.11.15-.42,1.32-.51,1.56-1.34,3.92-4.07,6.47-7.28,7.35l-.04-.22c1.63-.86,5.59-3.43,6.58-9.44-.73,0-4.4.11-6.4.4-.13.02-.7.11-.84.11-.22,0-.42-.13-.57-.22-.02.55.09,3.01.09,3.54s-.29.59-.42.59c-.42,0-.88-.81-.88-1.17,0-.07.04-1.12.04-1.32,0-1.98-.15-2.11-1.03-2.79.31-.07.57-.11.84-.11.37,0,.46.07,1.01.37.44.26.62.26.77.26.35,0,1.65-.11,2.88-.2,0-.46,0-1.87-.13-2.16-.11-.24-.29-.44-1.43-.59.24-.22.68-.59,1.34-.59s1.76.53,1.76.88c0,.11-.22.51-.24.59-.13.4-.15,1.23-.18,1.78.48-.02,2.6-.09,2.97-.15.26-.07.48-.22.59-.31.24-.2.31-.22.38-.22.24,0,1.47,1.3,1.47,1.45s-.68.48-.77.59Z"/>
        <path class="cls-2" d="M95.63,98.9c-.22,0-.33-.02-1.3-.13-.44-.04-1.19-.11-2.25-.11-.26,0-1.89,0-4.49.24-.07,1.41-.09,1.78-.09,3.54,0,1.47.07,2.27,1.76,2.27.79,0,1.78-.04,2.66-.29.62-.18.75-.2,1.03-.2.46,0,1.78.24,1.78.97,0,.37-.2.59-.88.73-.57.11-2.22.13-2.88.13-3.83,0-4.78-.33-4.78-3.74,0-.73.02-1.74.04-3.23-1.36.2-3.43.66-4.4,1.12-.35.18-.81.4-.97.4-.33,0-2.09-.99-2.09-2.4,0-.15.02-.4.04-.48.7.81,1.23,1.12,2.13,1.12.33,0,.95-.09,1.3-.13l4-.53c0-.31.04-1.63.04-1.89,0-1.87-.22-2.18-.64-2.44-.59.11-1.5.29-1.72.35-.46.13-.51.13-.66.13-.4,0-1.78-1.06-1.61-2.29.88.7,1.28.81,2.2.81.77,0,5.83-.46,6.97-.92.75-.29.84-.33,1.06-.33.26,0,1.06.18,1.54.46.15.09.31.33.31.57,0,.53-.48.53-.92.53-2.93.04-4,.18-5.79.44.42.2,1.32.64,1.32.97,0,.2-.13.4-.37.81-.13.2-.31,1.85-.37,2.6.9-.13,5.57-.57,5.74-.62.11-.04.97-.24,1.08-.24.13,0,1.98.26,1.98,1.14,0,.24-.18.64-.81.64Z"/>
        <path class="cls-2" d="M113.93,94.89c-.51.35-.53.37-.86,2.09-.33,1.76-.75,4.05-1.03,5.24-.02.07-.04.18-.04.24,0,.15.04.2.42.46.53.37.68.51.68.81,0,.53-.51.53-.59.53-.11,0-.26-.02-.42-.04-1.06-.13-1.5-.2-3.92-.2-2.66,0-4.29.15-5.08.24,0,.42-.04,1.23-.59,1.23-.77,0-1.14-1.54-1.14-2.13,0-.15.09-.84.09-.97,0-.57-.18-6.07-.66-7.86-.22-.77-.59-.99-1.5-1.32.26-.15.64-.37,1.12-.37.57,0,.9.18,1.96.81.29.18.51.18.7.18.24,0,1.34-.11,1.56-.13,1.03-.07,5.54-.33,6.45-.48.7-.11.84-.24,1.14-.51.13-.13.22-.15.29-.15.26,0,1.94,1.43,1.94,1.78,0,.18-.13.31-.51.55ZM111.2,94.3c-.64,0-3.45.15-6.05.42-.22.02-1.3.18-1.56.18-.15,0-.86-.26-1.03-.26-.07,0-.09.02-.09.2,0,.42.48,8.29.48,8.34.7,0,6.84-.33,7.75-.4.09-.73.92-6.71.92-7.99,0-.24-.09-.48-.42-.48Z"/>
        <path class="cls-2" d="M133.5,99.67c-.2,0-.73-.04-.77-.04-.79-.07-1.01-.09-2.49-.09-6.71,0-8.69.13-9.68.4-.07.02-.77.2-.84.2-.57,0-1.76-1.41-1.76-2.42,0-.13.02-.55.26-1.06.75,1.67,1.43,1.67,3.72,1.67,1.52,0,8.67-.02,9.68-.26.13-.02.77-.2.9-.2s2.33.24,2.33,1.1c0,.68-1.1.7-1.36.7Z"/>
        <path class="cls-2" d="M151.93,97.31c-.42.22-.46.31-.75.97-3.56,8.54-9.48,9.64-10.69,9.75l-.04-.15c1.36-.57,7.53-4.05,9.33-11.02-.64.04-6.98.62-8.38,1.23-.13.07-.66.4-.79.4-.55,0-2.16-1.3-2.16-2.62,0-.2.02-.37.15-.75.37.57,1.12,1.43,2.29,1.43,1.06,0,8.49-.57,8.82-.73.2-.09.81-.79.99-.79.24,0,1.87,1.17,1.87,1.67,0,.29-.29.44-.64.62ZM149.29,93.04c-1.69.09-5.26.4-5.76.48-1.08.15-1.19.18-1.54.18-.71,0-1.76-.99-1.76-2.38.97.9,1.65,1.03,2.86,1.03,1.47,0,4.31-.31,5.24-.73.44-.2.51-.24.71-.24.4,0,1.8.31,1.8.99,0,.44-.29.59-1.54.66Z"/>
        <path class="cls-2" d="M161.86,95.35c-.37,0-.64-.26-1.34-.97-1.54-1.56-2.77-2.13-3.61-2.51,2.64-.18,5.76.77,5.76,2.6,0,.48-.37.88-.81.88ZM163.78,102.9c-.46.35-2.53,1.85-2.9,2.22-.11.11-.59.66-.7.77-.09.09-.26.13-.37.13-.77,0-2.22-1.85-2.22-2.88,0-.4.13-.73.22-.97.51.99,1.14,1.45,1.61,1.45.73,0,4.14-2.53,5.08-3.26,3.54-2.71,5.24-4.6,7.02-6.64l.11.07c-.53,1.61-2.99,5.39-7.83,9.11Z"/>
        <path class="cls-2" d="M185.53,101.36c-.37,0-.48-.13-1.5-1.28-.97-1.08-2.64-2.35-4.16-3.01-.02.18-.02,3.61,0,4,0,.26.13,4.16.13,5.17,0,.37,0,1.72-.84,1.72-.64,0-1.06-1.08-1.06-1.91,0-.35.11-.99.15-1.28.2-1.12.26-7.42.26-10.47s-.09-3.41-1.96-3.83c.29-.2.77-.53,1.47-.53.97,0,2.46.62,2.46,1.1,0,.11-.31,1.1-.35,1.23-.18.55-.26,3.01-.29,4.33,1.54.33,3.28.81,4.73,1.65.84.48,1.67,1.36,1.67,2.2,0,.42-.26.9-.75.9ZM187.27,95.38c-.33,0-.42-.11-1.3-.99s-1.8-1.39-2.29-1.65c1.65-.13,4.09.62,4.09,2,0,.46-.29.64-.51.64ZM189.23,93.55c-.26,0-.9-.55-1.32-.9-.73-.64-1.8-1.21-2.22-1.43.33-.04.42-.04.64-.04.09,0,3.34,0,3.34,1.74,0,.35-.18.64-.44.64Z"/>
        <path class="cls-2" d="M48.75,126.3c-.37.46-1.65,2.71-1.94,3.15-1.32,2.09-2.9,3.89-6.09,5.54l-.04-.2c4.14-3.65,6.18-8.23,6.18-9.18,0-.55-.2-1.06-1.39-1.58.24-.09.68-.2,1.12-.2,1.03,0,2.62,1.43,2.62,1.8,0,.11-.24.42-.46.66ZM58.48,133.8c-.64,0-.77-.48-1.34-2.29-.9-2.93-3.3-5.99-4.75-7.37,2.79.84,6.91,5.17,6.91,8.45,0,.59-.33,1.21-.81,1.21ZM57.88,125.07c-.31,0-.4-.11-1.17-1.01-.09-.11-.9-1.08-2.07-1.76,1.39-.02,3.74.75,3.74,2.11,0,.44-.26.66-.51.66ZM59.71,123.07c-.26,0-.33-.07-.92-.7-.2-.22-1.19-1.1-2.44-1.72,1.41-.09,3.89.53,3.89,1.8,0,.42-.29.62-.53.62Z"/>
        <path class="cls-2" d="M78.53,127.38c-.18,0-1.94-.29-2.2-.33-.81-.13-1.41-.13-2.02-.13-1.17,0-1.87.04-2.4.09-.02.37-.11,2.93-.73,5.15-.53,1.98-2.38,5.21-6.03,6.23l-.04-.18c3.85-2.6,5.06-6.4,5.35-11.09-1.32.13-4.31.55-5.19,1.08-.44.26-.48.31-.75.31-.51,0-2.18-.95-2.18-2.6,0-.26.02-.46.07-.68.75,1.14,1.5,1.41,2.24,1.41.35,0,.46,0,1.52-.11.68-.07,3.7-.35,4.31-.42.02-.92.07-3.23-.15-4-.15-.57-.7-.81-1.74-1.1.59-.51,1.25-.57,1.47-.57.9,0,2.44.59,2.44,1.32,0,.18-.31.81-.38.95-.04.11-.15,1.56-.15,2.29,0,.57-.02.75-.02,1.01.4-.02,3.81-.2,3.85-.22.24-.04,1.21-.33,1.36-.33.09,0,2.2.29,2.2,1.25,0,.68-.55.68-.84.68Z"/>
        <path class="cls-2" d="M99.11,127.38c-.18,0-1.94-.29-2.2-.33-.81-.13-1.41-.13-2.02-.13-1.17,0-1.87.04-2.4.09-.02.37-.11,2.93-.73,5.15-.53,1.98-2.38,5.21-6.03,6.23l-.04-.18c3.85-2.6,5.06-6.4,5.35-11.09-1.32.13-4.31.55-5.19,1.08-.44.26-.48.31-.75.31-.51,0-2.18-.95-2.18-2.6,0-.26.02-.46.07-.68.75,1.14,1.5,1.41,2.24,1.41.35,0,.46,0,1.52-.11.68-.07,3.7-.35,4.31-.42.02-.92.07-3.23-.15-4-.15-.57-.7-.81-1.74-1.1.59-.51,1.25-.57,1.47-.57.9,0,2.44.59,2.44,1.32,0,.18-.31.81-.38.95-.04.11-.15,1.56-.15,2.29,0,.57-.02.75-.02,1.01.4-.02,3.81-.2,3.85-.22.24-.04,1.21-.33,1.36-.33.09,0,2.2.29,2.2,1.25,0,.68-.55.68-.84.68Z"/>
        <path class="cls-2" d="M107.89,130.68c-.97,0-1.76-.79-1.76-1.76s.79-1.76,1.76-1.76,1.76.75,1.76,1.76-.81,1.76-1.76,1.76Z"/>
        <path class="cls-2" d="M121.2,123.53c-.2.62-.2,2.57-.2,3.32,0,.4.02,2.2.02,2.57,0,.33,0,1.61-.7,1.61-.59,0-1.01-.92-1.01-1.8,0-.22.13-1.21.15-1.41.04-.35.07-1.12.07-2.35q0-2.84-1.74-3.32c.42-.26.81-.51,1.28-.51.53,0,2.38.51,2.38,1.14,0,.09-.22.68-.24.75ZM128.94,123.11c-.04.29-.13,4.11-.15,4.91-.15,4.05-1.14,6.05-2.57,7.63-1.67,1.89-3.34,2.29-3.98,2.42l-.07-.15c4.91-3.15,5.17-7.96,5.17-13,0-3.37-.07-3.5-2.02-3.81.29-.26.75-.64,1.5-.64.79,0,2.49.51,2.49,1.1,0,.24-.33,1.32-.35,1.54Z"/>
        <path class="cls-2" d="M140.66,126.56c-.26.4-1.28,2.2-1.52,2.57-1.03,1.63-2.93,4.36-6.29,5.74l-.02-.18c3.56-2.93,6.18-8.16,6.18-9.26,0-.48-.2-.86-1.39-1.45.26-.09.53-.2,1.08-.2,1.06,0,2.68,1.32,2.68,1.85,0,.18-.64.79-.73.92ZM150.59,133.76c-.59,0-.75-.44-1.14-1.76-1.03-3.45-3.17-6.27-4.91-7.92,3.21,1.03,6.91,5.54,6.91,8.32,0,.57-.22,1.36-.86,1.36ZM149.92,124.72c-1.17,0-2.09-.95-2.09-2.09s.92-2.09,2.09-2.09,2.09.92,2.09,2.09-.95,2.09-2.09,2.09ZM149.92,121.35c-.7,0-1.28.57-1.28,1.28s.57,1.25,1.28,1.25,1.28-.57,1.28-1.25-.57-1.28-1.28-1.28Z"/>
        <path class="cls-2" d="M169.24,125.22c-.29.15-.33.24-.64,1.08-1.41,3.65-2.71,5.92-4.91,7.9-1.63,1.45-4.03,2.91-6.09,3.32l-.02-.15c2.62-1.32,5.28-3.89,6.6-5.72,1.12-1.56,2.79-4.71,3.32-7.33-2.84.04-8.41.86-9.4,1.28-.09.04-.68.35-.81.35-.18,0-.29-.09-.48-.26-.55-.51-1.3-1.23-1.3-2.16,0-.33.13-.64.22-.9.9,1.47,1.74,1.47,2.2,1.47.31,0,4.25-.37,5.06-.42.95-.04,4.07-.22,4.73-.75.29-.22.35-.26.46-.26.29,0,1.85,1.63,1.85,1.91,0,.2-.2.31-.79.64ZM171.57,124.08c-.33,0-.4-.09-1.08-1.01-.2-.29-.81-1.1-2.16-2.11,1.54.15,3.76,1.01,3.76,2.38,0,.31-.18.75-.53.75ZM173.31,122.6c-.2,0-.29-.09-.99-.95-.2-.24-1.14-1.23-2.25-1.89.97.02,3.7.4,3.7,2.07,0,.4-.18.77-.46.77Z"/>
        <path class="cls-2" d="M180.82,123.53c-.2.62-.2,2.57-.2,3.32,0,.4.02,2.2.02,2.57,0,.33,0,1.61-.7,1.61-.59,0-1.01-.92-1.01-1.8,0-.22.13-1.21.15-1.41.04-.35.07-1.12.07-2.35q0-2.84-1.74-3.32c.42-.26.81-.51,1.28-.51.53,0,2.38.51,2.38,1.14,0,.09-.22.68-.24.75ZM188.56,123.11c-.04.29-.13,4.11-.15,4.91-.15,4.05-1.14,6.05-2.57,7.63-1.67,1.89-3.34,2.29-3.98,2.42l-.07-.15c4.91-3.15,5.17-7.96,5.17-13,0-3.37-.07-3.5-2.02-3.81.29-.26.75-.64,1.5-.64.79,0,2.49.51,2.49,1.1,0,.24-.33,1.32-.35,1.54Z"/>
        <path class="cls-2" d="M197.64,129.82c-.48,0-.7-.51-.95-1.06-.29-.62-.88-1.61-1.61-2.38,1.45.22,3.19,1.41,3.19,2.62,0,.44-.22.81-.64.81ZM206.71,127.6c-.13.15-1.03,2.09-1.23,2.46-3.17,5.96-7.08,7-8.62,7.42l-.04-.22c6.6-3.08,8.49-10.12,8.49-10.43,0-.53-.88-1.03-1.17-1.19.29-.07.57-.15.97-.15.95,0,2.07,1.17,2.07,1.43,0,.15-.04.22-.46.68ZM201.43,128.87c-.46,0-.53-.2-.9-1.21-.29-.81-.81-1.61-1.32-2.27,1.5.44,2.88,1.67,2.88,2.62,0,.46-.24.86-.66.86Z"/>
        <path class="cls-2" d="M224.94,125.53c-.51.22-.7.42-1.19,1.36-2.11,4.11-4.42,6.87-7.79,8.96-1.17.73-2.66,1.5-4.31,1.87l-.04-.15c4.8-2.66,9.24-7.53,11.27-12.65-.9.09-2.4.31-3.3.44-.15.02-.59.09-.7.09-.22,0-.62-.09-1.12-.37-2.05,2.71-3.65,3.96-5.83,5.1l-.11-.18c3.61-3.3,5.74-7.26,5.74-7.96,0-.22-.04-.4-1.21-1.1.53-.18,1.01-.18,1.08-.18.88,0,2.49,1.01,2.49,1.58,0,.2-.09.31-.51.7-.22.2-.79.95-1.08,1.3.99.11,3.74-.2,4.31-.4.2-.07.95-.66,1.17-.66.24,0,1.83,1.32,1.83,1.74,0,.15-.07.22-.68.51Z"/>
        <path class="cls-2" d="M58.13,157.58c-.4,0-.86-.09-1.45-.2-1.06-.2-1.78-.24-2.77-.24-1.34,0-2.49.13-2.9.15.18.15.86.7.97.79.04.04.13.13.13.24s-.42.75-.51.86c-.22.59-.79,2.07-1.14,2.86-1.1,2.42-2.73,4.93-5.88,6.03l-.02-.18c3.74-2.71,5.46-8.25,5.46-9.33,0-.31,0-.59-.42-1.12-2.22.29-4.14.7-4.47.86-.73.33-.79.37-1.01.37-.51,0-1.89-.92-1.89-2.44,0-.26.04-.46.13-.75.59.92,1.08,1.47,2.13,1.47.44,0,6.38-.7,7.57-.79,1.23-.11,3.19-.26,3.61-.42.55-.22.62-.24.75-.24.09,0,2.38.57,2.38,1.45,0,.42-.29.62-.66.62ZM53.55,153c-1.25,0-2.13.09-5.04.4-.42.04-.95.09-1.3.09-.95,0-1.69-1.06-1.69-1.69,0-.13.04-.29.07-.4.48.59,1.5.86,2.22.86,1.23,0,3.43-.22,4.6-.57.37-.11.77-.24.9-.24.37,0,1.83.26,1.83.95,0,.62-.66.62-1.58.62ZM59.05,155.22c-.29,0-.37-.09-1.06-.9-.62-.7-1.32-1.32-2.09-1.83.84.02,3.63.33,3.63,2.02,0,.37-.18.7-.48.7ZM60.74,153.77c-.2,0-.29-.11-1.1-.97-.81-.88-1.14-1.14-2.24-1.8.79.07,3.83.31,3.83,2,0,.22-.07.77-.48.77Z"/>
        <path class="cls-2" d="M71.42,155.07c-.64.33-2.79,2.75-3.26,3.19.7.48.79.53.79.75,0,.09-.11.57-.13.66-.09.53-.11,1.67-.11,2.88,0,.7.07,3.76.07,4.4,0,.26,0,.95-.64.95-.55,0-.86-.81-.86-1.23,0-.18.13-.97.15-1.12.11-1.3.2-3.23.2-4.53,0-1.39-.04-1.69-.2-2.09-.97.84-3.79,3.23-6.34,4.05l-.07-.22c3.74-2.24,8.87-7.7,8.87-8.71,0-.33-.31-.51-1.03-.95.35-.07.51-.11.7-.11,1.32,0,2.38,1.3,2.38,1.56,0,.24-.18.33-.53.53Z"/>
        <path class="cls-2" d="M92.29,159.67c-.2,0-.73-.04-.77-.04-.79-.07-1.01-.09-2.49-.09-6.71,0-8.69.13-9.68.4-.07.02-.77.2-.84.2-.57,0-1.76-1.41-1.76-2.42,0-.13.02-.55.26-1.06.75,1.67,1.43,1.67,3.72,1.67,1.52,0,8.67-.02,9.68-.26.13-.02.77-.2.9-.2s2.33.24,2.33,1.1c0,.68-1.1.7-1.36.7Z"/>
        <path class="cls-2" d="M113.36,157c-.51.09-.59.13-.88.4-2.31,2-2.93,2.49-3.94,3.08l-.04-.13c.57-.64,2.09-2.71,2.71-4.2-1.56.46-4.33,1.36-6.49,2.07-.04.51-.09,1.65-.09,3.01,0,3.34.02,3.89,2.9,3.89,1.3,0,2.05-.11,3.28-.46.2-.07.48-.11.75-.11,1.08,0,1.89.35,1.89.88,0,.33-.24.53-.53.64-.26.11-1.47.37-3.92.37-5.54,0-5.66-1.23-5.66-5.59,0-1.06.04-1.74.04-2.22-.53.2-2.95.9-3.39,1.17-.42.24-.73.44-.99.44-.29,0-1.89-.9-1.89-2.31,0-.42.11-.68.24-.95.42.75.88,1.47,1.74,1.47.31,0,.73-.07,1.25-.2.48-.13,2.62-.73,3.06-.84.04-3.17.07-3.83.07-3.98,0-1.54-.42-1.67-1.94-2.16.33-.22.88-.57,1.5-.57.81,0,2.53.53,2.53,1.17,0,.18-.04.24-.26.88-.22.66-.44,3.41-.53,4.31,4.31-1.08,6.12-1.72,6.38-1.91.07-.07.48-.4.57-.48.07-.09.24-.18.33-.18.22,0,2.29,1.34,2.29,1.94,0,.37-.11.4-.99.57ZM113.03,153.84c-.31,0-.4-.11-1.23-.88-.29-.29-1.03-.86-2.22-1.56,3.04-.09,4,1.01,4,1.83,0,.37-.26.62-.55.62ZM115.12,152.45c-.22,0-.26-.04-1.01-.73-1.01-.92-1.74-1.3-2.6-1.72.75-.04,4.09-.09,4.09,1.87,0,.09,0,.57-.48.57Z"/>
        <path class="cls-2" d="M123.06,155.18c-.04.51-.22,2.77-.26,3.23-.57,4.73-3.41,7.24-5.28,8.01l-.11-.13c4.07-3.83,4.07-8.58,4.07-10.43s-.02-1.83-1.69-2.27c.35-.24.84-.57,1.45-.57.57,0,2.07.48,2.07,1.1,0,.18-.22.9-.24,1.06ZM128.41,164.26c-.75.53-.81.62-1.39,1.23-.11.11-.31.33-.44.33-.42,0-1.41-1.8-1.41-2.09,0-.15.26-.81.29-.97.2-.92.2-3.79.2-4.38,0-.81-.02-4.88-.13-5.41-.09-.4-.53-.68-1.58-1.03.29-.18.73-.46,1.23-.46.66,0,2.38.66,2.38,1.32,0,.2-.26,1.08-.31,1.25-.22,1.12-.33,7.28-.33,8.63,0,.09,0,.37.15.37.53,0,4.51-2.53,7.96-6.93l.18.13c-1.5,3.61-4.66,6.49-6.8,8.01Z"/>
      </g>
      <g>
        <path class="cls-2" d="M297.18,64.3c-.57.09-.77.24-1.58.79-1.39.95-3.17,2.16-4.25,2.68-.13.42-.66,2.35-.77,2.73-1.54,5.3-4.2,6.8-5.3,7.42l-.07-.13c3.39-3.59,4.55-9.29,4.55-10.56,0-.64-.37-.9-1.52-1.32.55-.24.77-.35,1.12-.35.81,0,2.18.51,2.18,1.1,0,.13-.02.33-.04.44,2.2-1.74,3.67-3.56,3.67-3.85,0-.07-.02-.13-.31-.13-1.14,0-7.79.75-9.33,1.25-.2.07-1.01.46-1.19.46-.22,0-1.96-.9-1.96-2.11,0-.37.04-.7.15-1.06.81,1.36,1.76,1.36,2.27,1.36.97,0,9.31-.84,10.3-1.03.18-.02.92-.35,1.08-.35.35,0,2.05,1.78,2.05,2.16s-.09.37-1.06.51Z"/>
        <path class="cls-2" d="M317.33,67.58c-.4,0-.86-.09-1.45-.2-1.06-.2-1.78-.24-2.77-.24-1.34,0-2.49.13-2.9.15.18.15.86.7.97.79.04.04.13.13.13.24s-.42.75-.51.86c-.22.59-.79,2.07-1.14,2.86-1.1,2.42-2.73,4.93-5.88,6.03l-.02-.18c3.74-2.71,5.46-8.25,5.46-9.33,0-.31,0-.59-.42-1.12-2.22.29-4.14.7-4.47.86-.73.33-.79.37-1.01.37-.51,0-1.89-.92-1.89-2.44,0-.26.04-.46.13-.75.59.92,1.08,1.47,2.13,1.47.44,0,6.38-.7,7.57-.79,1.23-.11,3.19-.26,3.61-.42.55-.22.62-.24.75-.24.09,0,2.38.57,2.38,1.45,0,.42-.29.62-.66.62ZM312.75,63c-1.25,0-2.13.09-5.04.4-.42.04-.95.09-1.3.09-.95,0-1.69-1.06-1.69-1.69,0-.13.04-.29.07-.4.48.59,1.5.86,2.22.86,1.23,0,3.43-.22,4.6-.57.37-.11.77-.24.9-.24.37,0,1.83.26,1.83.95,0,.62-.66.62-1.58.62ZM318.25,65.22c-.29,0-.37-.09-1.06-.9-.62-.7-1.32-1.32-2.09-1.83.84.02,3.63.33,3.63,2.02,0,.37-.18.7-.48.7ZM319.95,63.77c-.2,0-.29-.11-1.1-.97-.81-.88-1.14-1.14-2.24-1.8.79.07,3.83.31,3.83,2,0,.22-.07.77-.48.77Z"/>
        <path class="cls-2" d="M330.62,65.07c-.64.33-2.79,2.75-3.26,3.19.7.48.79.53.79.75,0,.09-.11.57-.13.66-.09.53-.11,1.67-.11,2.88,0,.7.07,3.76.07,4.4,0,.26,0,.95-.64.95-.55,0-.86-.81-.86-1.23,0-.18.13-.97.15-1.12.11-1.3.2-3.23.2-4.53,0-1.39-.04-1.69-.2-2.09-.97.84-3.79,3.23-6.34,4.05l-.07-.22c3.74-2.24,8.87-7.7,8.87-8.71,0-.33-.31-.51-1.03-.95.35-.07.51-.11.7-.11,1.32,0,2.38,1.3,2.38,1.56,0,.24-.18.33-.53.53Z"/>
        <path class="cls-2" d="M348.71,65.18c-.35.15-.48.26-.77.86-3.92,7.79-6.95,10.17-12.15,11.86l-.09-.18c3.89-2.11,6.45-4.91,7.68-6.71-.15,0-.35,0-.92-.68-.84-.99-1.36-1.61-2.86-2.53-1.5,1.63-2.99,2.44-3.76,2.86l-.07-.11c2.53-2.46,5.46-7.13,5.46-8.25,0-.48-.48-.77-1.25-1.17.51-.18.77-.26,1.08-.26.81,0,2.46,1.08,2.46,1.56,0,.2-.09.26-.4.57-.24.24-.29.31-.73.97.53.09,3.85-.11,4.69-.64.07-.04.57-.35.62-.35.2,0,1.69,1.34,1.69,1.72,0,.18-.22.26-.68.48ZM343.1,65.05c-.29,0-.62-.04-1.21-.37-.31.48-1.36,2.02-2.05,2.82.84.13,2.55.55,3.48,1.28.35.29.66.81.62,1.43,1.41-2.2,2.57-4.6,2.88-5.66-.64.11-3.23.51-3.72.51ZM350.14,63.68c-.35,0-.48-.18-1.14-1.01-.7-.88-1.36-1.32-2.11-1.78,2.51.18,3.76,1.08,3.76,2.09,0,.4-.22.7-.51.7ZM352.45,62.82c-.15,0-.35-.02-.9-.68-.66-.79-1.17-1.32-2.42-2,1.1-.02,3.79.33,3.79,1.98,0,.46-.2.7-.46.7Z"/>
        <path class="cls-2" d="M369.52,76.35c-.46,0-.7-.37-.9-.7-1.76-2.9-2.97-4.36-4.93-5.81-3.92,4.93-7.66,6.32-9.73,6.73l-.02-.18c5.1-2.25,10.47-8.98,11.68-13.07-.84.11-4.49.79-5.68,1.25-.2.09-1.01.53-1.19.53-.33,0-1.54-1.08-1.54-2.22,0-.44.09-.73.2-.95.84,1.32,1.21,1.34,1.65,1.34.62,0,5.39-.46,6.29-.99.15-.09.84-.62,1.01-.62.24,0,1.87,1.39,1.87,1.76,0,.24-.15.29-.86.55-.15.07-.18.11-.46.64-.97,1.87-1.52,2.95-2.93,4.84,2.64,1.17,6.29,3.79,6.29,5.85,0,.59-.24,1.03-.77,1.03Z"/>
        <path class="cls-2" d="M398.63,75.23c2.9-1.96,6.78-5.46,8.54-8.82-2.62.26-4.64.79-5.19,1.01-.31.13-.48.2-.66.2-.57,0-2-.84-2-2.31,0-.24.02-.42.07-.77.84,1.08,1.14,1.45,2.6,1.45.42,0,4.31-.37,5.68-.48-.02-2.91-.04-3.3-.26-3.85-.2-.48-.62-.64-1.72-1.06.26-.2.73-.51,1.34-.51,1.08,0,2.46.84,2.46,1.25,0,.11-.07.24-.26.68-.31.64-.33,1.74-.35,3.34,2.22-.22,2.46-.24,2.84-.33.18-.04.92-.29,1.1-.29.4,0,2.09.44,2.09,1.17,0,.35-.22.53-.51.53-.26,0-1.47-.15-1.72-.18-.75-.04-1.36-.07-1.8-.07-.88,0-1.69.04-2,.07v3.1c0,.81.13,4.44.13,5.19,0,2.62-.88,3.28-1.3,3.28-.35,0-.46-.24-.79-1.03-.4-.92-1.83-1.92-2.4-2.29l.09-.18c.53.18,2.4.66,2.57.66.35,0,.35-.15.4-.77.11-2,.15-4.18.13-6.18-1.14,1.89-4.29,5.7-8.98,7.35l-.09-.18Z"/>
        <path class="cls-2" d="M422.24,63.53c-.2.62-.2,2.57-.2,3.32,0,.4.02,2.2.02,2.57,0,.33,0,1.61-.7,1.61-.59,0-1.01-.92-1.01-1.8,0-.22.13-1.21.15-1.41.04-.35.07-1.12.07-2.35q0-2.84-1.74-3.32c.42-.26.81-.51,1.28-.51.53,0,2.38.51,2.38,1.14,0,.09-.22.68-.24.75ZM429.99,63.11c-.04.29-.13,4.11-.15,4.91-.15,4.05-1.14,6.05-2.57,7.63-1.67,1.89-3.34,2.29-3.98,2.42l-.07-.15c4.91-3.15,5.17-7.96,5.17-13,0-3.37-.07-3.5-2.02-3.81.29-.26.75-.64,1.5-.64.79,0,2.49.51,2.49,1.1,0,.24-.33,1.32-.35,1.54Z"/>
        <path class="cls-2" d="M440.95,68.85c-.22,0-.4-.11-1.8-1.06-1.12-.75-2.27-1.21-3.41-1.65.46-.07.92-.13,1.65-.13.22,0,2.11,0,3.06.53,1.03.57,1.12,1.41,1.12,1.58,0,.51-.37.73-.62.73ZM441.55,76.05c-.35.24-.4.29-.77.7-.18.22-.35.42-.66.42-.59,0-2.09-1.47-2.09-2.93,0-.18.02-.31.07-.57.22.24,1.1,1.3,1.72,1.3.26,0,.51-.09.77-.24,3.59-2.05,7.44-5.3,11.27-9.86l.15.11c-2.64,4.93-5.88,7.99-10.45,11.07ZM442.87,64.03c-.29,0-.4-.09-1.45-.97-1.41-1.17-2.51-1.67-3.32-2.05.42-.07.59-.09,1.01-.09.13,0,4.36.04,4.36,2.38,0,.62-.44.73-.59.73ZM450.66,64.17c-.26,0-.29-.02-1.1-.92-.66-.73-1.39-1.36-2.2-1.87,1.39.02,3.83.64,3.83,2.11,0,.48-.31.68-.53.68ZM452.53,62.14c-.24,0-.31-.09-1.03-.79-.68-.66-1.47-1.21-2.4-1.63.29-.02.44-.04.64-.04.88,0,3.37.37,3.37,1.83,0,.44-.33.64-.57.64Z"/>
        <path class="cls-2" d="M471.82,67.38c-.18,0-1.94-.29-2.2-.33-.81-.13-1.41-.13-2.02-.13-1.17,0-1.87.04-2.4.09-.02.37-.11,2.93-.73,5.15-.53,1.98-2.38,5.21-6.03,6.23l-.04-.18c3.85-2.6,5.06-6.4,5.35-11.09-1.32.13-4.31.55-5.19,1.08-.44.26-.48.31-.75.31-.51,0-2.18-.95-2.18-2.6,0-.26.02-.46.07-.68.75,1.14,1.5,1.41,2.24,1.41.35,0,.46,0,1.52-.11.68-.07,3.7-.35,4.31-.42.02-.92.07-3.23-.15-4-.15-.57-.7-.81-1.74-1.1.59-.51,1.25-.57,1.47-.57.9,0,2.44.59,2.44,1.32,0,.18-.31.81-.37.95-.04.11-.15,1.56-.15,2.29,0,.57-.02.75-.02,1.01.4-.02,3.81-.2,3.85-.22.24-.04,1.21-.33,1.36-.33.09,0,2.2.29,2.2,1.25,0,.68-.55.68-.84.68Z"/>
        <path class="cls-2" d="M479.78,65.18c-.04.51-.22,2.77-.26,3.23-.57,4.73-3.41,7.24-5.28,8.01l-.11-.13c4.07-3.83,4.07-8.58,4.07-10.43s-.02-1.83-1.69-2.27c.35-.24.84-.57,1.45-.57.57,0,2.07.48,2.07,1.1,0,.18-.22.9-.24,1.06ZM485.12,74.26c-.75.53-.81.62-1.39,1.23-.11.11-.31.33-.44.33-.42,0-1.41-1.8-1.41-2.09,0-.15.26-.81.29-.97.2-.92.2-3.79.2-4.38,0-.81-.02-4.88-.13-5.41-.09-.4-.53-.68-1.58-1.03.29-.18.73-.46,1.23-.46.66,0,2.38.66,2.38,1.32,0,.2-.26,1.08-.31,1.25-.22,1.12-.33,7.28-.33,8.63,0,.09,0,.37.15.37.53,0,4.51-2.53,7.96-6.93l.18.13c-1.5,3.61-4.66,6.49-6.8,8.01Z"/>
        <path class="cls-2" d="M500.76,68.76c-.31,0-.51-.15-1.06-.55-2.11-1.47-3.19-1.85-4.18-2.18.59-.09,1.1-.15,1.87-.15,2.66,0,3.96,1.01,3.96,2.09,0,.51-.24.79-.59.79ZM502.52,63.95c-.24,0-.48-.18-.79-.46-2.13-1.94-3.37-2.31-4-2.51.48-.07.86-.11,1.39-.11,2.82,0,4.09,1.25,4.09,2.25,0,.33-.15.84-.68.84ZM502.01,75.43c-.84.62-.92.7-1.5,1.28-.15.18-.37.33-.57.33-.46,0-2.13-1.21-2.13-2.97,0-.18.02-.31.07-.51.44.57,1.41,1.28,1.74,1.28,1.41,0,8.29-5.59,11.86-10.12l.13.09c-.75,1.89-3.28,6.09-9.59,10.63Z"/>
        <path class="cls-2" d="M526.54,67.27c-.22.13-.22.2-.26.86-.07,1.17-.24,6.38-.44,7.44-.2.95-.62,1.06-.79,1.06-.51,0-.64-.53-.81-1.23-2.18.18-4.58.51-5.06.62-.15.04-.81.46-.97.46-.44,0-1.45-1.3-1.45-2,0-.2.04-.33.13-.64.24.4.64,1.08,1.61,1.08s4.93-.35,6.12-.46c.07-1.14.18-2.75.22-3.43-1.83,0-5,.4-5.68.55-.15.02-.75.35-.88.35-.31,0-1.32-.81-1.32-1.89,0-.11,0-.22.04-.46.7.9,1.14.97,1.47.97.2,0,5.41-.48,6.42-.53.09-1.78.11-1.96.13-3.15-1.08.09-5.13.44-6.01.64-.15.02-.86.26-1.01.26-.46,0-1.14-1.19-1.14-1.72,0-.22.07-.46.13-.79.68,1.08.9,1.08,2.13,1.08.44,0,5.24-.18,5.7-.57.07-.07.33-.31.42-.37.07-.07.15-.13.24-.13.29,0,1.61,1.21,1.61,1.5,0,.15-.07.2-.55.53Z"/>
        <path class="cls-2" d="M535.89,69.82c-.48,0-.7-.51-.95-1.06-.29-.62-.88-1.61-1.61-2.38,1.45.22,3.19,1.41,3.19,2.62,0,.44-.22.81-.64.81ZM544.95,67.6c-.13.15-1.03,2.09-1.23,2.46-3.17,5.96-7.08,7-8.62,7.42l-.04-.22c6.6-3.08,8.49-10.12,8.49-10.43,0-.53-.88-1.03-1.17-1.19.29-.07.57-.15.97-.15.95,0,2.07,1.17,2.07,1.43,0,.15-.04.22-.46.68ZM539.67,68.87c-.46,0-.53-.2-.9-1.21-.29-.81-.81-1.61-1.32-2.27,1.5.44,2.88,1.67,2.88,2.62,0,.46-.24.86-.66.86Z"/>
        <path class="cls-2" d="M563.59,65.22c-.4.22-.42.26-.68.99-1.45,3.94-2.84,6.14-4.82,7.96-1.12,1.01-3.48,2.82-6.05,3.41l-.02-.15c2.64-1.43,5.24-4.09,6.36-5.63,1.03-1.39,2.53-4.05,3.41-7.46-4.53.26-8.52.97-9.24,1.28-.15.07-.86.44-1.01.44-.2,0-1.76-1.03-1.76-2.46,0-.4.09-.64.2-.86.48.77,1.21,1.45,2.18,1.45.31,0,8.32-.66,9.37-.97.18-.04.77-.53.92-.53.24,0,1.85,1.52,1.85,1.91,0,.22-.24.37-.7.62ZM565.63,63.75c-1.14,0-2.07-.92-2.07-2.09s.92-2.07,2.07-2.07,2.09.92,2.09,2.07-.95,2.09-2.09,2.09ZM565.61,60.38c-.7,0-1.25.57-1.25,1.25s.55,1.28,1.25,1.28,1.28-.57,1.28-1.28-.57-1.25-1.28-1.25Z"/>
        <path class="cls-2" d="M296.76,106.35c-.46,0-.7-.37-.9-.7-1.76-2.9-2.97-4.36-4.93-5.81-3.92,4.93-7.66,6.32-9.73,6.73l-.02-.18c5.1-2.25,10.47-8.98,11.68-13.07-.84.11-4.49.79-5.68,1.25-.2.09-1.01.53-1.19.53-.33,0-1.54-1.08-1.54-2.22,0-.44.09-.73.2-.95.84,1.32,1.21,1.34,1.65,1.34.62,0,5.39-.46,6.29-.99.15-.09.84-.62,1.01-.62.24,0,1.87,1.39,1.87,1.76,0,.24-.15.29-.86.55-.15.07-.18.11-.46.64-.97,1.87-1.52,2.95-2.93,4.84,2.64,1.17,6.29,3.79,6.29,5.85,0,.59-.24,1.03-.77,1.03Z"/>
        <path class="cls-2" d="M314.77,94.78c-.44.18-.59.31-1.32,1.74-3.39,6.58-6.8,9.59-11.64,10.96l-.07-.15c2.95-1.69,5.59-3.89,7.57-6.62-.22-.02-.46-.22-.86-.66-1.52-1.74-1.74-1.98-2.93-2.64-1.19,1.3-2.4,2.24-3.67,2.86l-.07-.13c2.77-2.68,5.41-7.22,5.41-8.08,0-.73-.86-1.06-1.3-1.23.29-.13.59-.26,1.1-.26,1.25,0,2.44,1.08,2.44,1.54,0,.24-.04.29-.55.73-.18.18-.44.59-.59.81.15,0,.37.02.79.02,1.08,0,3.3-.35,3.61-.51.15-.09.77-.53.92-.53.26,0,1.72,1.41,1.72,1.72,0,.22-.09.24-.57.44ZM309,94.72c-.18,0-.42,0-1.14-.42-1.14,1.69-2,2.71-2.11,2.84,1.23.15,4.05.7,4.18,2.68.57-.86,1.63-2.46,2.79-5.61-.59.07-3.21.51-3.72.51Z"/>
        <path class="cls-2" d="M334.31,99.67c-.2,0-.73-.04-.77-.04-.79-.07-1.01-.09-2.49-.09-6.71,0-8.69.13-9.68.4-.07.02-.77.2-.84.2-.57,0-1.76-1.41-1.76-2.42,0-.13.02-.55.26-1.06.75,1.67,1.43,1.67,3.72,1.67,1.52,0,8.67-.02,9.68-.26.13-.02.77-.2.9-.2s2.33.24,2.33,1.1c0,.68-1.1.7-1.36.7Z"/>
        <path class="cls-2" d="M344.4,96.3c-.37.46-1.65,2.71-1.94,3.15-1.32,2.09-2.9,3.89-6.09,5.54l-.04-.2c4.14-3.65,6.18-8.23,6.18-9.18,0-.55-.2-1.06-1.39-1.58.24-.09.68-.2,1.12-.2,1.03,0,2.62,1.43,2.62,1.8,0,.11-.24.42-.46.66ZM354.13,103.8c-.64,0-.77-.48-1.34-2.29-.9-2.93-3.3-5.99-4.75-7.37,2.79.84,6.91,5.17,6.91,8.45,0,.59-.33,1.21-.81,1.21ZM353.54,95.07c-.31,0-.4-.11-1.17-1.01-.09-.11-.9-1.08-2.07-1.76,1.39-.02,3.74.75,3.74,2.11,0,.44-.26.66-.51.66ZM355.36,93.07c-.26,0-.33-.07-.92-.7-.2-.22-1.19-1.1-2.44-1.72,1.41-.09,3.89.53,3.89,1.8,0,.42-.29.62-.53.62Z"/>
        <path class="cls-2" d="M361.01,99.82c-.48,0-.7-.51-.95-1.06-.29-.62-.88-1.61-1.61-2.38,1.45.22,3.19,1.41,3.19,2.62,0,.44-.22.81-.64.81ZM370.07,97.6c-.13.15-1.03,2.09-1.23,2.46-3.17,5.96-7.08,7-8.62,7.42l-.04-.22c6.6-3.08,8.49-10.12,8.49-10.43,0-.53-.88-1.03-1.17-1.19.29-.07.57-.15.97-.15.95,0,2.07,1.17,2.07,1.43,0,.15-.04.22-.46.68ZM364.79,98.87c-.46,0-.53-.2-.9-1.21-.29-.81-.81-1.61-1.32-2.27,1.5.44,2.88,1.67,2.88,2.62,0,.46-.24.86-.66.86Z"/>
        <path class="cls-2" d="M388.3,95.53c-.51.22-.7.42-1.19,1.36-2.11,4.11-4.42,6.87-7.79,8.96-1.17.73-2.66,1.5-4.31,1.87l-.04-.15c4.8-2.66,9.24-7.53,11.27-12.65-.9.09-2.4.31-3.3.44-.15.02-.59.09-.7.09-.22,0-.62-.09-1.12-.37-2.05,2.71-3.65,3.96-5.83,5.1l-.11-.18c3.61-3.3,5.74-7.26,5.74-7.96,0-.22-.04-.4-1.21-1.1.53-.18,1.01-.18,1.08-.18.88,0,2.49,1.01,2.49,1.58,0,.2-.09.31-.51.7-.22.2-.79.95-1.08,1.3.99.11,3.74-.2,4.31-.4.2-.07.95-.66,1.17-.66.24,0,1.83,1.32,1.83,1.74,0,.15-.07.22-.68.51Z"/>
        <path class="cls-2" d="M406.89,106.35c-.46,0-.7-.37-.9-.7-1.76-2.9-2.97-4.36-4.93-5.81-3.92,4.93-7.66,6.32-9.73,6.73l-.02-.18c5.1-2.25,10.47-8.98,11.68-13.07-.84.11-4.49.79-5.68,1.25-.2.09-1.01.53-1.19.53-.33,0-1.54-1.08-1.54-2.22,0-.44.09-.73.2-.95.84,1.32,1.21,1.34,1.65,1.34.62,0,5.39-.46,6.29-.99.15-.09.84-.62,1.01-.62.24,0,1.87,1.39,1.87,1.76,0,.24-.15.29-.86.55-.15.07-.18.11-.46.64-.97,1.87-1.52,2.95-2.93,4.84,2.64,1.17,6.29,3.79,6.29,5.85,0,.59-.24,1.03-.77,1.03Z"/>
        <path class="cls-2" d="M436.48,95.27c-.31.22-.4.33-.48.7-.35,1.43-.53,2.53-1.23,6.64.42.09,1.03.42,1.03.9,0,.59-.57.59-1.19.59-.42,0-2.25-.09-2.62-.09-2.79,0-5.19.35-6.14.66-.2.07-.99.37-1.17.37-.68,0-1.83-1.58-1.83-2.44,0-.33.09-.53.15-.73.26.31,1.17,1.41,2.35,1.41.75,0,1.67-.09,8.05-.59.68-4.55,1.03-6.95,1.03-7.81,0-.2-.09-.26-.31-.26-1.63,0-7.68.77-8.18.99-.15.07-.86.35-.99.35-.73,0-1.96-1.45-1.96-2.55,0-.35.04-.55.11-.75.57.86,1.39,1.56,2.51,1.56,1.03,0,7.92-.51,8.51-.73.18-.09.92-.59,1.08-.59.24,0,1.8,1.32,1.8,1.76,0,.24-.11.31-.55.59Z"/>
        <path class="cls-2" d="M456.21,99.67c-.2,0-.73-.04-.77-.04-.79-.07-1.01-.09-2.49-.09-6.71,0-8.69.13-9.68.4-.07.02-.77.2-.84.2-.57,0-1.76-1.41-1.76-2.42,0-.13.02-.55.26-1.06.75,1.67,1.43,1.67,3.72,1.67,1.52,0,8.67-.02,9.68-.26.13-.02.77-.2.9-.2s2.33.24,2.33,1.1c0,.68-1.1.7-1.36.7Z"/>
        <path class="cls-2" d="M474.41,105.61c-.86.35-4.22.35-5.61.35-5.79,0-5.99-1.08-5.99-6.12,0-.81.09-4.49.09-5.24,0-1.85,0-2.11-1.78-2.88.51-.42.95-.48,1.12-.48.77,0,2.68.9,2.68,1.56,0,.15-.29.77-.33.9-.29,1.14-.44,4.97-.46,5.39,3.17-1.14,7.33-3.92,7.33-4.6,0-.37-.55-.75-.95-1.01.26-.07.42-.11.7-.11,1.39,0,2.75,1.47,2.75,2.02,0,.35-.13.4-.9.62-.35.09-2.75,1.36-3.26,1.61-2,.97-3.54,1.52-5.68,2-.09,4.4-.11,5.08,3.81,5.08,2.46,0,3.7-.37,4.4-.59.29-.09.48-.13.86-.13.55,0,1.8.07,1.8.92,0,.46-.4.62-.59.7Z"/>
        <path class="cls-2" d="M493.89,99.67c-.2,0-.73-.04-.77-.04-.79-.07-1.01-.09-2.49-.09-6.71,0-8.69.13-9.68.4-.07.02-.77.2-.84.2-.57,0-1.76-1.41-1.76-2.42,0-.13.02-.55.26-1.06.75,1.67,1.43,1.67,3.72,1.67,1.52,0,8.67-.02,9.68-.26.13-.02.77-.2.9-.2s2.33.24,2.33,1.1c0,.68-1.1.7-1.36.7Z"/>
        <path class="cls-2" d="M297.03,125.27c-.31.22-.4.33-.48.7-.35,1.43-.53,2.53-1.23,6.64.42.09,1.03.42,1.03.9,0,.59-.57.59-1.19.59-.42,0-2.25-.09-2.62-.09-2.79,0-5.19.35-6.14.66-.2.07-.99.37-1.17.37-.68,0-1.83-1.58-1.83-2.44,0-.33.09-.53.15-.73.26.31,1.17,1.41,2.35,1.41.75,0,1.67-.09,8.05-.59.68-4.55,1.03-6.95,1.03-7.81,0-.2-.09-.26-.31-.26-1.63,0-7.68.77-8.18.99-.15.07-.86.35-.99.35-.73,0-1.96-1.45-1.96-2.55,0-.35.04-.55.11-.75.57.86,1.39,1.56,2.51,1.56,1.03,0,7.92-.51,8.51-.73.18-.09.92-.59,1.08-.59.24,0,1.8,1.32,1.8,1.76,0,.24-.11.31-.55.59Z"/>
        <path class="cls-2" d="M316.31,124.89c-.51.35-.53.37-.86,2.09-.33,1.76-.75,4.05-1.03,5.24-.02.07-.04.18-.04.24,0,.15.04.2.42.46.53.37.68.51.68.81,0,.53-.51.53-.59.53-.11,0-.26-.02-.42-.04-1.06-.13-1.5-.2-3.92-.2-2.66,0-4.29.15-5.08.24,0,.42-.04,1.23-.59,1.23-.77,0-1.14-1.54-1.14-2.13,0-.15.09-.84.09-.97,0-.57-.18-6.07-.66-7.86-.22-.77-.59-.99-1.5-1.32.26-.15.64-.37,1.12-.37.57,0,.9.18,1.96.81.29.18.51.18.7.18.24,0,1.34-.11,1.56-.13,1.03-.07,5.54-.33,6.45-.48.7-.11.84-.24,1.14-.51.13-.13.22-.15.29-.15.26,0,1.94,1.43,1.94,1.78,0,.18-.13.31-.51.55ZM313.58,124.3c-.64,0-3.45.15-6.05.42-.22.02-1.3.18-1.56.18-.15,0-.86-.26-1.03-.26-.07,0-.09.02-.09.2,0,.42.48,8.29.48,8.34.7,0,6.84-.33,7.75-.4.09-.73.92-6.71.92-7.99,0-.24-.09-.48-.42-.48Z"/>
        <path class="cls-2" d="M325.77,125.35c-.37,0-.64-.26-1.34-.97-1.54-1.56-2.77-2.13-3.61-2.51,2.64-.18,5.76.77,5.76,2.6,0,.48-.37.88-.81.88ZM327.69,132.9c-.46.35-2.53,1.85-2.9,2.22-.11.11-.59.66-.7.77-.09.09-.26.13-.37.13-.77,0-2.22-1.85-2.22-2.88,0-.4.13-.73.22-.97.51.99,1.14,1.45,1.61,1.45.73,0,4.14-2.53,5.08-3.26,3.54-2.71,5.24-4.6,7.02-6.64l.11.07c-.53,1.61-2.99,5.39-7.83,9.11Z"/>
        <path class="cls-2" d="M352.05,135.8c-1.65.29-4.47.31-5.11.31-5.9,0-6.01-1.43-6.01-5.57,0-.9.09-4.93.09-5.74,0-1.83,0-2.31-1.8-2.99.64-.42.75-.51,1.06-.51.84,0,2.79.79,2.79,1.54,0,.18-.37.77-.42.9-.11.37-.33,4.71-.37,5.41,3.43-1.1,7.53-4.05,7.53-4.62,0-.26-.66-.79-.92-1.01.22-.04.33-.07.51-.07,1.45,0,2.82,1.45,2.82,2.11,0,.33-.11.35-1.01.62-.26.09-.42.13-.68.26-5.21,2.51-5.77,2.79-8.25,3.19-.02.46-.02.92-.02,1.67,0,2.77,0,3.5,4.09,3.5,2.13,0,3.17-.33,3.98-.57.57-.18.73-.18.92-.18.53,0,1.89.11,1.89.92,0,.57-.75.75-1.08.81ZM352.84,123.17c-.29,0-.35-.09-.99-.81-.77-.88-1.85-1.56-2.4-1.94,2.11.18,3.92.86,3.92,2,0,.35-.22.75-.53.75ZM355.1,121.92c-.24,0-.35-.09-1.36-1.01-.92-.81-1.41-1.14-2.29-1.54.26-.02.31-.04.48-.04.77,0,3.67.46,3.67,1.89,0,.33-.2.7-.51.7Z"/>
        <path class="cls-2" d="M373.82,124.3c-.57.09-.77.24-1.58.79-1.39.95-3.17,2.16-4.25,2.68-.13.42-.66,2.35-.77,2.73-1.54,5.3-4.2,6.8-5.3,7.42l-.07-.13c3.39-3.59,4.55-9.29,4.55-10.56,0-.64-.37-.9-1.52-1.32.55-.24.77-.35,1.12-.35.81,0,2.18.51,2.18,1.1,0,.13-.02.33-.04.44,2.2-1.74,3.67-3.56,3.67-3.85,0-.07-.02-.13-.31-.13-1.14,0-7.79.75-9.33,1.25-.2.07-1.01.46-1.19.46-.22,0-1.96-.9-1.96-2.11,0-.37.04-.7.15-1.06.81,1.36,1.76,1.36,2.27,1.36.97,0,9.31-.84,10.3-1.03.18-.02.92-.35,1.08-.35.35,0,2.05,1.78,2.05,2.16s-.09.37-1.06.51Z"/>
        <path class="cls-2" d="M413.2,123.51c-.35.18-2.07.66-4.55,1.25-.57,1.14-2.97,6.25-3.54,7.24-.51.86-.97,1.67-1.41,1.67-.15,0-.62-.09-.62-.84,0-.62.31-1.01.53-1.32,1.58-2.09,2.99-5,3.65-6.43-.48.11-1.14.29-1.98.29-1.3,0-2.4-.68-2.22-2,.53.75,1.25.88,2.13.88.79,0,1.69-.15,2.57-.35.51-1.25.92-2.33.92-2.79,0-.24-.13-.77-1.3-1.08.33-.29.64-.44,1.08-.44.86,0,2.2.92,2.2,1.5q0,.22-.55,1.01c-.31.44-.48.75-.81,1.39.44-.15,1.19-.42,1.65-.64.97-.44,1.08-.51,1.34-.51.29,0,1.25.31,1.25.73,0,.22-.18.35-.35.44ZM418.7,128.98c-.13,0-.37-.02-.77-.24-.75-.4-1.01-.55-1.87-.55-2.31,0-2.64,1.25-2.64,2.29,0,1.28.24,2.51.37,3.19,1.76.37,4.18,1.3,4.18,2.73,0,.33-.22.73-.62.73-.26,0-1.14-.62-1.69-1.01-.88-.62-1.28-.77-1.72-.92-.02.46-.07,1.39-.84,2.09-.9.84-2.16.92-2.66.92-1.83,0-3.41-.99-3.41-2.35,0-1.65,2-2.44,4.14-2.44.48,0,.81.04,1.14.07-.07-.77-.15-1.8-.15-2.31,0-2.42,2.33-3.37,3.85-3.65.18-.04.37-.09.37-.35,0-.29-.79-1.1-3.01-1.67.33-.11.75-.22,1.41-.22,2.73,0,4.49,2.05,4.49,3.08,0,.4-.22.64-.57.64ZM410.76,134.46c-.84,0-2.88.18-2.88,1.36,0,.92,1.41,1.17,2.16,1.17s2.44-.2,2.38-2.31c-.42-.11-.77-.22-1.65-.22Z"/>
        <path class="cls-2" d="M434.82,136.84c-.92.37-4.31.42-5.13.42-1.94,0-3.06-.11-4.29-.59-1.08-.42-2.38-1.34-2.38-3.06,0-2.73,2.95-4.71,4.18-5.5-.95-1.17-.95-1.54-1.03-5.21-.07-2.27-.44-2.44-1.83-3.06.31-.29.77-.4,1.19-.4.57,0,1.58.51,2.05.81.44.29.51.42.51.7,0,.22-.07.46-.09.53-.29.77-.42,1.23-.42,2.82,0,1.85.26,2.71.55,3.23,1.72-.92,2.29-1.14,4.22-1.91.26-.11.4-.24.4-.53,0-.22-.11-.44-.18-.62,1.28.04,2.05.97,2.05,1.8,0,.62-.15.64-1.43.86-3.96.66-9.44,3.56-9.44,6.25,0,2.27,2.99,2.46,4.25,2.46.37,0,2.79-.09,5.06-.51.55-.11.7-.13.99-.13.64,0,1.5.29,1.5.88,0,.35-.26.55-.73.75ZM437.68,125.82c-.31,0-.4-.11-1.39-1.1-.99-.99-1.69-1.36-2.33-1.69,1.41-.04,4.16.55,4.16,2.16,0,.31-.11.64-.44.64ZM439.11,123.57c-.22,0-.31-.07-.97-.7-1.17-1.12-1.45-1.39-2.66-1.96.29-.04.48-.07.75-.07,1.14,0,3.34.66,3.34,2.07,0,.4-.22.66-.46.66Z"/>
      </g>
    </g>
  </g>
</svg>